<?xml version="1.0" encoding="utf-8"?>
<!-- Generator: Adobe Illustrator 27.5.0, SVG Export Plug-In . SVG Version: 6.00 Build 0)  -->
<svg version="1.1" xmlns="http://www.w3.org/2000/svg" xmlns:xlink="http://www.w3.org/1999/xlink" x="0px" y="0px"
	 viewBox="0 0 500 500" style="enable-background:new 0 0 500 500;" xml:space="preserve">
<g id="Background_Complete">
	<g>
		<g>
			<g>
				<g>
					<g>
						<path style="fill:#EBEBEB;" d="M395.424,357.615c-5.908-3.048-12.864-3.444-19.422-2.36c-3.523,0.582-7.197,1.637-9.595,4.283
							c-2.398,2.647-2.852,7.304-0.099,9.579c1.639,1.354,3.924,1.559,6.05,1.535c5.134-0.06,10.831-0.964,14.933,2.125
							c2.34,1.762,3.898,4.692,6.696,5.559c2.737,0.848,5.826-0.767,7.278-3.238c1.451-2.471,1.5-5.559,0.823-8.343
							C402.088,366.755,401.375,360.686,395.424,357.615z"/>
					</g>
				</g>
			</g>
			<g>
				<g>
					<g>
						<path style="fill:#EBEBEB;" d="M408.959,331.488c-3.612,5.159-10.633,3.451-13.889,0.302
							c-3.255-3.149-4.631-7.714-5.884-12.066c-2.862-9.945-5.747-20.377-3.619-30.505c0.636-3.028,1.768-6.047,3.896-8.293
							c2.128-2.246,5.399-3.582,8.39-2.792c3.54,0.935,5.74,4.402,7.33,7.701c4.674,9.695,7.149,20.443,7.186,31.206
							C412.387,322.067,411.795,327.338,408.959,331.488"/>
					</g>
				</g>
			</g>
			<g>
				<g>
					<g>
						<path style="fill:#EBEBEB;" d="M418.879,338.891c-3.922-4.655-4.666-11.444-2.921-17.276
							c1.745-5.832,5.688-10.792,10.232-14.843c5.328-4.749,11.59-8.444,18.323-10.811c2.65-0.931,5.444-1.667,8.24-1.4
							s5.611,1.696,6.915,4.184c1.928,3.678,0.079,8.138-1.92,11.778c-3.523,6.412-7.551,12.545-12.035,18.326
							c-3.607,4.65-7.739,9.238-13.237,11.339c-5.497,2.102-11.208,1.854-14.122-1.958"/>
					</g>
				</g>
			</g>
			<g>
				<g>
					<g>
						<g>
							<path style="fill:#E0E0E0;" d="M409.204,409.315c-0.068,0.004-0.177-0.832-0.327-2.344c-0.166-1.707-0.375-3.849-0.623-6.398
								c-0.298-2.692-0.691-5.896-1.439-9.385c-0.745-3.48-1.912-7.252-3.411-11.076c-1.552-3.802-3.444-7.258-5.656-10.022
								c-2.196-2.776-4.75-4.785-7.151-5.945c-2.393-1.182-4.539-1.662-6.022-1.875c-1.496-0.154-2.333-0.271-2.334-0.338
								c-0.001-0.067,0.839-0.078,2.375-0.037c1.522,0.102,3.757,0.487,6.279,1.634c2.53,1.122,5.239,3.163,7.543,5.997
								c2.322,2.822,4.284,6.354,5.863,10.224c1.525,3.892,2.674,7.702,3.387,11.257c0.71,3.55,1.035,6.789,1.248,9.503
								c0.203,2.717,0.28,4.917,0.317,6.438C409.287,408.469,409.27,409.312,409.204,409.315z"/>
						</g>
					</g>
				</g>
			</g>
			<g>
				<g>
					<g>
						<g>
							<path style="fill:#E0E0E0;" d="M408.763,404.392c-0.033-0.002-0.054-0.376-0.063-1.088c0.002-0.817,0.005-1.847,0.008-3.111
								c0.008-2.7,0.006-6.607-0.139-11.43c-0.239-9.648-1.069-20.032-2.674-34.672c-1.519-13.766-3.559-29.786-5.711-40.202
								c-0.462-2.369-0.926-4.501-1.364-6.367c-0.417-1.871-0.774-3.484-1.117-4.789c-0.295-1.229-0.536-2.229-0.727-3.024
								c-0.156-0.695-0.222-1.064-0.19-1.073c0.032-0.009,0.161,0.342,0.378,1.02c0.237,0.783,0.536,1.769,0.903,2.981
								c0.401,1.293,0.811,2.896,1.28,4.759c0.488,1.859,1.001,3.986,1.507,6.351c2.129,9.438,4.384,22.629,6.004,37.304
								c1.608,14.67,2.332,28.027,2.396,37.7c0.058,4.836-0.045,8.751-0.169,11.453c-0.077,1.263-0.14,2.292-0.19,3.109
								C408.841,404.022,408.796,404.394,408.763,404.392z"/>
						</g>
					</g>
				</g>
			</g>
			<g>
				<g>
					<g>
						<g>
							<path style="fill:#E0E0E0;" d="M408.698,378.629c-0.067-0.002-0.056-1.157,0.023-3.25c0.119-2.088,0.406-5.107,0.995-8.804
								c0.624-3.688,1.495-8.068,2.863-12.827c0.593-2.176,1.987-7.388,5.364-15.178c4.449-10.554,10.494-19.183,15.752-24.528
								c1.233-1.418,2.607-2.442,3.706-3.445c0.568-0.481,1.071-0.96,1.583-1.34c0.515-0.355,0.993-0.685,1.438-0.991
								c1.731-1.184,2.7-1.808,2.736-1.751c0.155,0.211-3.876,2.584-8.967,8c-5.07,5.404-10.946,13.974-15.359,24.439
								c-2.461,5.676-4.177,10.74-5.394,15.038c-1.407,4.713-2.341,9.048-3.047,12.699c-0.671,3.66-1.06,6.648-1.294,8.717
								C408.904,377.483,408.765,378.632,408.698,378.629z"/>
						</g>
					</g>
				</g>
			</g>
		</g>
		<g>
			<g>
				<g>
					<polygon style="fill:#E0E0E0;" points="433.6,424.075 431.018,459.443 385.583,459.443 383.001,424.075 					"/>
				</g>
			</g>
		</g>
		<g>
			<g>
				<g>
					<rect x="377.58" y="410.135" style="fill:#E0E0E0;" width="60.408" height="13.94"/>
				</g>
			</g>
		</g>
		<g>
			<g>
				<g>
					<polygon style="fill:#EBEBEB;" points="437.988,458.089 437.988,461.953 435.15,461.953 378.578,461.953 378.578,458.089 					
						"/>
				</g>
			</g>
		</g>
		<g>
			<g>
				<g>
					<polygon style="fill:#E0E0E0;" points="432.367,468.754 435.15,461.953 380.742,461.953 383.988,468.754 					"/>
				</g>
			</g>
		</g>
		<g>
			<g>
				<g>
					<g>
						<path style="fill:#F5F5F5;" d="M383.845,435.634c-0.01,0.009,0.062,0.119,0.212,0.325c0.18,0.239,0.404,0.536,0.679,0.9
							c0.645,0.826,1.532,1.96,2.647,3.387l0.118,0.151l0.114-0.158c1.664-2.301,3.886-5.375,6.503-8.993h-0.374
							c1.934,2.739,4.089,5.79,6.402,9.065l0.201,0.284l0.225-0.267c2.363-2.811,4.929-5.864,7.593-9.034l-0.438-0.006
							c0.132,0.166,0.274,0.345,0.418,0.525c2.355,2.952,4.634,5.809,6.789,8.511l0.226,0.284l0.209-0.295
							c2.305-3.261,4.458-6.308,6.405-9.063l-0.372,0.018c3.157,3.597,5.834,6.647,7.888,8.988l0.14,0.16l0.107-0.18
							c1.04-1.747,1.869-3.14,2.47-4.15c0.258-0.45,0.467-0.815,0.634-1.105c0.139-0.253,0.206-0.387,0.194-0.394
							c-0.012-0.007-0.102,0.112-0.265,0.35c-0.184,0.28-0.416,0.63-0.701,1.063c-0.631,0.991-1.501,2.359-2.593,4.074l0.247-0.02
							c-2.022-2.369-4.656-5.457-7.762-9.097l-0.196-0.23l-0.177,0.247c-1.965,2.742-4.137,5.776-6.463,9.022l0.435-0.012
							c-2.15-2.706-4.424-5.567-6.773-8.524c-0.143-0.18-0.286-0.359-0.418-0.525l-0.216-0.271l-0.222,0.266
							c-2.657,3.176-5.215,6.234-7.572,9.051l0.425,0.017c-2.336-3.259-4.512-6.294-6.466-9.02l-0.19-0.264l-0.185,0.264
							c-2.561,3.658-4.737,6.765-6.365,9.091l0.231-0.007c-1.16-1.391-2.082-2.496-2.753-3.301
							c-0.299-0.346-0.542-0.627-0.737-0.853C383.948,435.72,383.855,435.626,383.845,435.634z"/>
					</g>
				</g>
			</g>
		</g>
		<g>
			<g>
				<g>
					<g>
						<path style="fill:#F5F5F5;" d="M382.369,423.842c0,0.156,11.385,0.283,25.425,0.283c14.045,0,25.427-0.127,25.427-0.283
							c0-0.156-11.382-0.283-25.427-0.283C393.754,423.559,382.369,423.686,382.369,423.842z"/>
					</g>
				</g>
			</g>
		</g>
		<g>
			<g>
				<g>
					<g>
						<path style="fill:#F5F5F5;" d="M380.074,462.334c0,0.156,12.373,0.283,27.632,0.283c15.265,0,27.635-0.127,27.635-0.283
							c0-0.156-12.37-0.283-27.635-0.283C392.446,462.052,380.074,462.178,380.074,462.334z"/>
					</g>
				</g>
			</g>
		</g>
	</g>
	<g>
		<g>
			<g>
				<defs>
					<path id="SVGID_1_" d="M240.623,25.718"/>
				</defs>
				<use xlink:href="#SVGID_1_"  style="overflow:visible;fill:#EBEBEB;"/>
				<clipPath id="SVGID_00000094594642672979550880000006325154280164488329_">
					<use xlink:href="#SVGID_1_"  style="overflow:visible;"/>
				</clipPath>
			</g>
		</g>
		<g>
			<g>
				<g>
					<rect x="31.193" y="113.707" style="fill:#EBEBEB;" width="48.037" height="95.22"/>
				</g>
			</g>
			<g>
				<g>
					<rect x="81.077" y="113.707" style="fill:#EBEBEB;" width="51.903" height="95.22"/>
				</g>
			</g>
			<g>
				<g>
					<rect x="81.077" y="215.58" style="fill:#EBEBEB;" width="51.903" height="92.003"/>
				</g>
			</g>
			<g>
				<g>
					<polygon style="fill:#EBEBEB;" points="139.633,112.06 194.293,112.06 194.293,27.592 196.14,27.592 196.14,112.06 
						240.623,112.06 240.623,25.718 139.633,25.718 					"/>
				</g>
			</g>
			<g>
				<g>
					<rect x="196.14" y="113.707" style="fill:#EBEBEB;" width="44.483" height="95.22"/>
				</g>
			</g>
			<g>
				<g>
					<rect x="196.14" y="215.58" style="fill:#EBEBEB;" width="44.483" height="92.003"/>
				</g>
			</g>
			<g>
				<g>
					<rect x="31.193" y="215.58" style="fill:#EBEBEB;" width="48.037" height="92.003"/>
				</g>
			</g>
			<g>
				<g>
					<rect x="139.633" y="215.58" style="fill:#EBEBEB;" width="54.66" height="92.003"/>
				</g>
			</g>
			<g>
				<g>
					<rect x="31.193" y="309.23" style="fill:#EBEBEB;" width="48.037" height="82.905"/>
				</g>
			</g>
			<g>
				<g>
					<rect x="196.14" y="309.23" style="fill:#EBEBEB;" width="44.483" height="82.905"/>
				</g>
			</g>
			<g>
				<g>
					<polygon style="fill:#EBEBEB;" points="79.231,112.06 79.231,27.592 81.077,27.592 81.077,112.06 132.981,112.06 
						132.981,25.718 31.193,25.718 31.193,112.06 					"/>
				</g>
			</g>
			<g>
				<g>
					<rect x="139.633" y="309.23" style="fill:#EBEBEB;" width="54.66" height="82.905"/>
				</g>
			</g>
			<g>
				<g>
					<rect x="81.077" y="309.23" style="fill:#EBEBEB;" width="51.903" height="82.905"/>
				</g>
			</g>
			<g>
				<g>
					<rect x="139.633" y="113.707" style="fill:#EBEBEB;" width="54.66" height="95.22"/>
				</g>
			</g>
		</g>
	</g>
	<g>
		<g>
			<g>
				<g>
					<rect x="325.707" y="29.975" style="fill:#E0E0E0;" width="112.452" height="117.222"/>
				</g>
			</g>
		</g>
		<g>
			<g>
				<g>
					<rect x="318.092" y="29.975" style="fill:#EBEBEB;" width="112.452" height="117.222"/>
				</g>
			</g>
		</g>
		<g>
			<g>
				<g>
					<rect x="333.209" y="45.733" style="fill:#FFFFFF;" width="82.219" height="85.706"/>
				</g>
			</g>
		</g>
		<g>
			<g>
				<g>
					<g>
						<path style="fill:#E0E0E0;" d="M333.209,132.009c0.055,0.065-0.735,0.951-2.054,2.329c-1.32,1.379-3.17,3.249-5.238,5.287
							c-2.069,2.038-3.966,3.858-5.361,5.154c-1.395,1.296-2.289,2.068-2.349,2.007c-0.06-0.061,0.725-0.943,2.045-2.321
							c1.32-1.378,3.174-3.253,5.248-5.296c2.074-2.042,3.974-3.866,5.37-5.162C332.264,132.712,333.154,131.944,333.209,132.009z"
							/>
					</g>
				</g>
			</g>
		</g>
		<g>
			<g>
				<g>
					<g>
						<path style="fill:#E0E0E0;" d="M415.428,131.798c0.065-0.055,0.951,0.735,2.329,2.054c1.379,1.32,3.249,3.17,5.287,5.238
							c2.038,2.069,3.858,3.966,5.154,5.361c1.296,1.395,2.068,2.289,2.007,2.349c-0.061,0.06-0.943-0.725-2.321-2.045
							c-1.378-1.32-3.253-3.174-5.296-5.248c-2.042-2.074-3.866-3.974-5.162-5.369C416.131,132.743,415.362,131.854,415.428,131.798
							z"/>
					</g>
				</g>
			</g>
		</g>
		<g>
			<g>
				<g>
					<g>
						<path style="fill:#E0E0E0;" d="M415.203,45.962c-0.055-0.065,0.735-0.951,2.054-2.33c1.32-1.378,3.17-3.249,5.238-5.287
							c2.069-2.038,3.966-3.858,5.361-5.154c1.395-1.296,2.289-2.068,2.349-2.007c0.06,0.06-0.725,0.942-2.045,2.321
							c-1.32,1.378-3.174,3.253-5.248,5.296c-2.074,2.042-3.974,3.866-5.37,5.162C416.147,45.258,415.258,46.027,415.203,45.962z"/>
					</g>
				</g>
			</g>
		</g>
		<g>
			<g>
				<g>
					<g>
						<path style="fill:#E0E0E0;" d="M332.984,46.172c-0.065,0.055-0.951-0.735-2.33-2.055c-1.378-1.32-3.249-3.17-5.287-5.238
							c-2.038-2.069-3.858-3.966-5.154-5.361c-1.296-1.395-2.068-2.289-2.007-2.349c0.06-0.06,0.943,0.725,2.321,2.045
							c1.378,1.32,3.253,3.174,5.296,5.248c2.042,2.074,3.866,3.974,5.162,5.37C332.281,45.227,333.049,46.117,332.984,46.172z"/>
					</g>
				</g>
			</g>
		</g>
		<g>
			<g>
				<g>
					<g>
						<path style="fill:#E0E0E0;" d="M415.203,131.439c0,0-0.01-0.144-0.015-0.414c-0.004-0.286-0.009-0.68-0.015-1.193
							c-0.007-1.066-0.018-2.612-0.031-4.622c-0.016-4.052-0.04-9.957-0.071-17.462c-0.033-15.008-0.08-36.399-0.136-62.015
							l0.269,0.269c-23.933,0.012-52.043,0.025-81.986,0.04h-0.008l0.308-0.309c-0.016,31.458-0.031,60.889-0.044,85.706
							l-0.265-0.265c24.581,0.056,45.045,0.103,59.384,0.136c7.17,0.03,12.805,0.053,16.671,0.069
							c1.917,0.013,3.39,0.024,4.407,0.031c0.489,0.006,0.864,0.011,1.137,0.015C415.065,131.429,415.203,131.439,415.203,131.439
							s-0.118,0.01-0.365,0.015c-0.266,0.004-0.633,0.009-1.109,0.015c-1.005,0.007-2.462,0.017-4.356,0.031
							c-3.852,0.016-9.466,0.039-16.611,0.069c-14.38,0.033-34.902,0.079-59.552,0.135l-0.265,0.001l0-0.266
							c-0.013-24.817-0.028-54.248-0.044-85.706l0-0.309h0.309h0.008c29.943,0.014,58.053,0.028,81.986,0.04l0.27,0l-0.001,0.269
							c-0.057,25.687-0.104,47.138-0.137,62.187c-0.03,7.479-0.054,13.363-0.07,17.401c-0.014,1.987-0.024,3.516-0.031,4.57
							c-0.007,0.501-0.012,0.885-0.015,1.164C415.213,131.315,415.203,131.439,415.203,131.439z"/>
					</g>
				</g>
			</g>
		</g>
		<g>
			<g>
				<g>
					<g>
						<path style="fill:#EBEBEB;" d="M354.908,81.538c0,0-1.76,21.22,21.22,21.22C376.128,91.434,366.786,82.495,354.908,81.538z"/>
					</g>
				</g>
			</g>
			<g>
				<g>
					<g>
						<path style="fill:#EBEBEB;" d="M396.959,81.554c0,0-21.22-1.761-21.22,21.22C387.063,102.774,396.002,93.431,396.959,81.554z"
							/>
					</g>
				</g>
			</g>
			<g>
				<g>
					<g>
						<path style="fill:#E0E0E0;" d="M375.109,69.94c0,0-17.336,15.562,0.949,32.819C384.562,93.748,383.841,79.62,375.109,69.94z"
							/>
					</g>
				</g>
			</g>
		</g>
	</g>
</g>
<g id="Background_Simple" style="display:none;">
	<g style="display:inline;">
		<path style="fill:#EBEBEB;" d="M77.713,107.302l2.301-3.793c19.401-31.971,54.479-51.244,91.462-48.905
			c4.754,0.301,9.488,0.944,14.158,1.944c33.625,7.198,62.883,32.626,75.011,65.191c7.132,19.152,9.125,41.204,22.66,56.406
			c17.615,19.785,47.521,20.406,73.814,19.587c26.293-0.82,56.219-0.121,73.748,19.742c10.978,12.44,14.467,30.13,13.582,46.79
			c-2.344,44.107-33.078,83.545-72.164,103.147c-39.086,19.603-85.106,21.358-127.884,12.735
			c-59.926-12.08-116.916-45.255-151.171-96.494C58.975,232.414,50.306,162.605,77.713,107.302z"/>
	</g>
	<g style="display:inline;">
		<circle style="fill:#EBEBEB;" cx="397.98" cy="408.369" r="23.291"/>
	</g>
</g>
<g id="Character">
	<g>
		<g>
			<g>
				<path style="fill:#263238;" d="M231.122,207.505c3.755,4.307,4.738,10.392,4.569,16.104c-0.168,5.712-1.325,11.379-1.188,17.091
					c0.284,11.82,6.008,22.706,9.92,33.864c3.911,11.158,5.801,24.38-0.873,34.139c-4.992,0.487-10.074,0.97-14.989-0.032
					c-4.915-1.002-9.729-3.731-12.022-8.192c-1.892-3.68-1.863-8.012-1.792-12.149c0.348-20.178,0.696-40.356,1.044-60.534"/>
			</g>
			<g>
				<path style="fill:#263238;" d="M107.798,135.8c4.558,7.239-0.511,16.807-6.825,22.579c-6.314,5.772-14.3,10.496-17.417,18.463
					c-5.198,13.29,5.662,29.126-0.167,42.152c-3.169,7.081-10.902,12.126-11.609,19.851c-0.367,4.016,1.314,7.925,1.671,11.941
					c0.849,9.565-5.673,17.969-10.859,26.05s-9.234,18.947-3.786,26.854c23.871-0.63,47.742-1.259,71.614-1.889
					c1.772-0.047,3.634-0.119,5.153-1.033c3.239-1.951,3.358-6.52,3.089-10.291c-2.291-32.168-4.582-64.336-6.873-96.504"/>
			</g>
			<g>
				<path style="fill:#263238;" d="M235.283,213.084c-1.405-5.487-4.503-10.45-5.688-15.989c-1.503-7.023,0.187-14.274,1.157-21.39
					c0.97-7.116,1.052-14.934-3.098-20.796c-2.471-3.491-6.237-5.953-8.471-9.6c-2.889-4.716-2.772-10.596-3.893-16.012
					c-2.406-11.623-11.269-21.688-22.494-25.544l-0.137,144.728c8.864,2.895,17.727,5.791,26.591,8.686
					c4.875-6.473,9.791-13.017,13.106-20.411C235.671,229.361,237.293,220.934,235.283,213.084z"/>
			</g>
			<g>
				<path style="fill:#263238;" d="M193.612,102.655c-3.455-5.199-7.695-10.061-13.188-13.026
					c-5.493-2.964-12.412-3.778-17.982-0.961c-5.387,2.725-8.813,8.342-14.083,11.288c-5.419,3.03-11.998,2.84-18.007,4.402
					c-12.743,3.313-22.643,15.48-23.297,28.63c-0.463,9.324,3.156,19.261-0.879,27.679c-3.897,8.13-14.268,13.014-14.927,22.005
					c-0.615,8.381,7.818,14.976,8.642,23.339c1.049,10.648-10.397,19.403-9.695,30.079c0.65,9.885,11.39,16.654,12.674,26.477
					c1.142,8.74-5.556,17.771-2.314,25.967c1.756,4.439,5.987,7.29,9.588,10.424c3.601,3.135,6.976,7.561,6.035,12.241
					c33.723-7.41,67.446-14.821,101.169-22.232c-6.227-19.668-12.49-40.757-6.729-60.567c2.08-7.154,5.662-13.797,7.787-20.938
					c2.465-8.284,2.909-17.044,2.617-25.682c-0.553-16.35-3.681-32.523-7.851-48.342c-3.185-12.084-8.236-25.445-19.793-30.202"/>
			</g>
			<g>
				<g>
					<path style="fill:#455A64;" d="M219.034,245.371c-0.08-0.031,0.854-1.246,1.384-3.84c0.547-2.576,0.346-6.5-1.187-10.969
						c-0.75-2.24-1.774-4.625-2.765-7.238c-0.969-2.608-1.956-5.495-2.125-8.673c-0.241-3.164,0.238-6.493,1.095-9.806
						c0.852-3.322,2.063-6.652,3.202-10.078c1.137-3.424,2.144-6.814,2.538-10.178c0.422-3.356,0.094-6.666-0.935-9.591
						c-1.031-2.934-2.56-5.504-3.853-7.975c-0.645-1.242-1.281-2.425-1.757-3.657c-0.457-1.226-0.786-2.429-1.093-3.577
						c-1.157-4.611-1.828-8.389-2.394-10.978c-0.274-1.296-0.506-2.298-0.674-2.974c-0.081-0.313-0.146-0.566-0.198-0.768
						c-0.043-0.174-0.062-0.264-0.053-0.267c0.008-0.003,0.044,0.082,0.104,0.251c0.057,0.17,0.152,0.42,0.249,0.756
						c0.201,0.67,0.466,1.667,0.77,2.958c0.627,2.577,1.354,6.351,2.552,10.928c0.316,1.138,0.655,2.331,1.112,3.528
						c0.467,1.181,1.116,2.372,1.763,3.598c1.303,2.454,2.857,5.028,3.924,8.019c1.067,2.987,1.413,6.394,0.989,9.809
						c-0.394,3.425-1.41,6.85-2.55,10.284c-1.143,3.436-2.352,6.753-3.202,10.041c-0.856,3.279-1.333,6.548-1.11,9.644
						c0.15,3.105,1.103,5.954,2.051,8.556c0.968,2.606,1.976,5.007,2.71,7.273c1.505,4.53,1.654,8.523,1.036,11.127
						c-0.288,1.307-0.711,2.263-1.026,2.887c-0.163,0.311-0.311,0.534-0.402,0.688C219.094,245.3,219.042,245.376,219.034,245.371z"
						/>
				</g>
			</g>
		</g>
		<g>
			<g>
				<path style="fill:#FF725E;" d="M130.122,235.522l-7.891,8.838c0,0-29.671,10.401-32.828,12.303
					c-3.157,1.902,20.199,129.662,20.199,129.662s-30.3,36.064-32.194,49.006c-1.894,12.942-3.966,30.197-3.966,30.197
					l179.582-0.361l-10.529-73.485l2.973-51.175l-17.887-91.747l-25.491-6.294l-13.573-10.416L130.122,235.522z"/>
				<path style="fill:#263238;" d="M73.414,465.553l0.003-0.028c0.021-0.173,2.094-17.404,3.966-30.198
					c0.433-2.955,2.395-7.371,5.833-13.126c2.749-4.603,6.443-10.066,10.979-16.241c7.615-10.366,15.1-19.308,15.38-19.642
					c-0.139-0.761-5.937-32.521-11.281-64.106c-7.228-42.715-10.223-64.775-8.904-65.57c3.108-1.872,32.264-12.105,32.827-12.302
					l7.894-8.841l0.01-0.001l58.405-3.473l0.007,0.005l13.569,10.414l25.501,6.296l0.003,0.016l17.887,91.746l-2.973,51.181
					l10.534,73.51h-0.029L73.414,465.553z M130.134,235.546l-7.895,8.837c-0.297,0.104-29.705,10.422-32.824,12.3
					c-1.281,0.772,1.806,23.428,8.928,65.519c5.382,31.809,11.225,63.798,11.283,64.117l0.002,0.012l-0.008,0.009
					c-0.076,0.091-7.663,9.138-15.386,19.648c-4.535,6.174-8.228,11.637-10.977,16.237c-3.434,5.749-5.395,10.159-5.826,13.108
					c-1.837,12.551-3.867,29.373-3.962,30.168l179.524-0.361l-10.525-73.456l2.974-51.18l-17.883-91.725l-25.484-6.294
					l-13.566-10.411L130.134,235.546z"/>
			</g>
			<g>
				<path style="fill:#FF725E;" d="M89.403,256.663c0,0-12.786,6.326-18.182,13.382c-5.396,7.056-14.224,42.132-16.299,53.338
					c-2.075,11.207-8.19,24.279-6.945,29.675l1.66,5.811c0,0-1.245,23.244,2.075,29.47c3.32,6.226,7.471,4.981,7.471,4.981
					s0.119,15.814,9.291,17.848c17.107,3.793,36.698,0.913,42.509-8.219c5.811-9.131,5.479-12.95,5.479-12.95l-7.886-33.62
					l-4.438-9.074l-4.278-25.791L89.403,256.663z"/>
			</g>
			<g>
				<path style="fill:#FF725E;" d="M227.582,248.76c0,0,7.858,2.194,19.828,16.824c11.97,14.63,40.897,50.872,40.897,50.872l0,0
					c0,0,16.608-7.4,22.03-6.569c0,0,3.91-7.606,13.481-12.462c8.239-4.18,17.024-0.919,17.024-0.919l11.292,25.426
					c1.874,4.758,4.655,15.068,2.013,19.447c-3.507,5.813-11.028,15.375-21.773,10.771c0,0-35.139,31.857-47.558,35.696
					c-15.481,4.786-39.999-3.16-46.502-38.488C231.789,313.913,227.582,248.76,227.582,248.76z"/>
			</g>
			<g>
				<g>
					<path style="fill:#263238;" d="M186.473,418.003c-0.009,0-0.024-0.123-0.043-0.365c-0.019-0.268-0.043-0.622-0.075-1.072
						c-0.056-0.974-0.136-2.358-0.237-4.126c-0.211-3.613-0.514-8.788-0.887-15.17c-0.802-12.805-2.119-30.485-4.286-49.94
						c-1.099-9.728-2.318-18.975-3.536-27.369c-1.253-8.389-2.479-15.929-3.631-22.239c-0.542-3.162-1.11-6.007-1.582-8.511
						c-0.464-2.506-0.897-4.657-1.26-6.414c-0.346-1.736-0.616-3.095-0.807-4.052c-0.083-0.443-0.148-0.793-0.197-1.057
						c-0.042-0.239-0.059-0.362-0.05-0.364c0.009-0.002,0.043,0.118,0.102,0.353c0.062,0.261,0.144,0.607,0.247,1.046
						c0.213,0.952,0.516,2.305,0.903,4.033c0.394,1.751,0.856,3.897,1.347,6.399c0.499,2.5,1.093,5.342,1.658,8.501
						c1.199,6.306,2.464,13.844,3.744,22.235c1.245,8.396,2.479,17.647,3.579,27.382c2.168,19.467,3.428,37.161,4.136,49.976
						c0.356,6.408,0.595,11.596,0.722,15.183c0.06,1.77,0.107,3.155,0.14,4.13c0.01,0.451,0.017,0.806,0.023,1.075
						C186.485,417.878,186.482,418.002,186.473,418.003z"/>
				</g>
			</g>
			<g style="opacity:0.3;">
				<g>
					<path d="M88.903,412.841c7.565,5.964,19.367,5.69,26.647-0.618c5.048-4.374,7.687-10.834,11.592-16.252
						c8.132-11.283,21.363-17.602,31.609-27.006c6.219-5.708,11.549-12.719,19.159-16.371c8.14-3.906,17.592-3.362,26.618-3.568
						c9.027-0.206,18.859-1.638,25.039-8.22c-16.001,0.503-32.003,1.005-48.004,1.508c-6.023,0.189-12.231,0.42-17.712,2.924
						c-7.674,3.507-12.709,10.853-18.219,17.243c-6.223,7.219-13.475,13.549-21.469,18.74c-3.134,2.035-6.546,4.071-8.21,7.417
						c-1.036,2.083-1.274,4.457-1.874,6.704c-2.814,10.53-14.845,17.619-25.42,14.977"/>
				</g>
			</g>
			<g>
				<g>
					<path style="fill:#263238;" d="M116.467,391.504c0.018-0.001,0.031,0.163,0.038,0.483c0.001,0.317-0.04,0.79-0.177,1.377
						c-0.255,1.18-0.849,2.833-1.859,4.735c-1.029,1.886-2.447,4.049-4.414,6.119c-1.944,2.064-4.506,4.062-7.622,5.192
						c-3.081,1.189-6.179,1.748-8.985,2.142c-2.813,0.379-5.363,0.54-7.503,0.623c-2.14,0.079-3.873,0.084-5.069,0.068
						c-0.548-0.015-1.002-0.027-1.378-0.037c-0.315-0.015-0.48-0.031-0.48-0.049c0-0.037,0.661-0.071,1.856-0.116
						c1.194-0.046,2.923-0.107,5.054-0.233c2.13-0.13,4.666-0.328,7.454-0.731c2.78-0.416,5.845-0.986,8.863-2.152
						c3.046-1.105,5.525-3.024,7.464-5.039c1.95-2.014,3.382-4.127,4.438-5.965c1.037-1.854,1.675-3.463,1.985-4.606
						C116.451,392.171,116.415,391.505,116.467,391.504z"/>
				</g>
			</g>
			<g>
				<g>
					<path style="fill:#263238;" d="M97.745,305.634c0.018-0.001,0.043,0.166,0.074,0.483c0.03,0.378,0.066,0.836,0.11,1.389
						c0.085,1.207,0.206,2.952,0.4,5.105c0.346,4.31,1.106,10.233,1.884,16.793c0.743,6.244,1.139,11.963,1.238,16.189l-0.133-0.175
						c1.136,0.374,2.15,0.815,2.929,1.393c0.791,0.563,1.297,1.268,1.582,1.881c0.54,1.258,0.437,2.03,0.437,2.03
						c-0.069,0.017-0.051-0.761-0.627-1.936c-0.303-0.572-0.799-1.214-1.568-1.727c-0.756-0.527-1.746-0.931-2.868-1.276
						l-0.128-0.039l-0.006-0.136c-0.185-4.214-0.632-9.906-1.374-16.143c-0.777-6.552-1.481-12.498-1.734-16.824
						c-0.147-2.161-0.213-3.913-0.235-5.124c-0.005-0.555-0.009-1.015-0.012-1.395C97.717,305.802,97.727,305.634,97.745,305.634z"
						/>
				</g>
			</g>
			<g>
				<g>
					<path style="fill:#263238;" d="M243.337,377.182c-0.009-0.001-0.008-0.097,0.003-0.284c0.016-0.216,0.037-0.488,0.062-0.828
						c0.069-0.764,0.166-1.827,0.289-3.177c0.131-1.379,0.311-3.063,0.433-5.026c0.119-1.963,0.355-4.192,0.438-6.666
						c0.103-2.473,0.275-5.179,0.284-8.089c0.015-1.455,0.065-2.959,0.056-4.508c-0.024-1.55-0.048-3.144-0.074-4.779
						c-0.184-6.537-0.653-13.721-1.662-21.202c-1.038-7.48-2.509-14.528-4.122-20.867c-0.427-1.578-0.843-3.118-1.248-4.614
						c-0.409-1.495-0.89-2.921-1.309-4.314c-0.819-2.793-1.754-5.338-2.56-7.677c-0.393-1.173-0.799-2.28-1.213-3.315
						c-0.4-1.039-0.778-2.02-1.132-2.939c-0.683-1.845-1.356-3.399-1.892-4.676c-0.518-1.252-0.926-2.237-1.22-2.947
						c-0.125-0.316-0.226-0.57-0.305-0.772c-0.066-0.175-0.096-0.267-0.088-0.27c0.008-0.004,0.054,0.08,0.136,0.249
						c0.092,0.196,0.208,0.443,0.353,0.751c0.315,0.7,0.754,1.673,1.31,2.91c0.565,1.266,1.266,2.81,1.976,4.647
						c0.366,0.916,0.757,1.893,1.171,2.928c0.427,1.032,0.845,2.136,1.25,3.308c0.829,2.336,1.786,4.879,2.625,7.673
						c0.428,1.393,0.919,2.821,1.337,4.317c0.413,1.498,0.837,3.04,1.273,4.62c1.642,6.349,3.132,13.416,4.173,20.917
						c1.012,7.503,1.467,14.709,1.626,21.262c0.018,1.639,0.035,3.237,0.052,4.79c0.001,1.553-0.058,3.06-0.082,4.517
						c-0.028,2.916-0.222,5.626-0.348,8.101c-0.107,2.477-0.369,4.706-0.516,6.669c-0.15,1.963-0.359,3.646-0.521,5.023
						c-0.164,1.346-0.294,2.405-0.387,3.168c-0.046,0.337-0.084,0.608-0.113,0.822C243.365,377.089,243.346,377.183,243.337,377.182
						z"/>
				</g>
			</g>
			<g>
				<g>
					<path style="fill:#263238;" d="M286.984,353.823c-0.035,0.01-0.2-0.491-0.47-1.407c-0.28-0.913-0.607-2.258-0.937-3.934
						c-0.339-1.675-0.624-3.694-0.823-5.946c-0.173-2.254-0.246-4.743-0.134-7.352c0.131-2.609,0.436-5.081,0.819-7.309
						c0.409-2.224,0.881-4.207,1.375-5.844c0.486-1.638,0.936-2.946,1.3-3.829c0.354-0.887,0.565-1.37,0.599-1.357
						c0.034,0.013-0.114,0.521-0.408,1.425c-0.304,0.901-0.699,2.22-1.137,3.86c-0.446,1.638-0.877,3.615-1.256,5.826
						c-0.354,2.215-0.642,4.666-0.772,7.252c-0.111,2.586-0.054,5.053,0.092,7.291c0.172,2.236,0.416,4.244,0.707,5.917
						c0.282,1.674,0.553,3.024,0.771,3.949C286.92,353.293,287.019,353.813,286.984,353.823z"/>
				</g>
			</g>
			<g>
				<g>
					<path style="fill:#263238;" d="M321.198,338.577c-0.028,0.023-0.325-0.298-0.84-0.901c-0.522-0.596-1.223-1.506-2.036-2.668
						c-1.63-2.318-3.606-5.739-5.147-9.795c-1.532-4.061-2.317-7.933-2.63-10.75c-0.16-1.409-0.237-2.554-0.241-3.347
						c-0.013-0.792-0.003-1.23,0.033-1.231c0.093-0.004,0.163,1.745,0.573,4.529c0.405,2.783,1.238,6.597,2.752,10.614
						c1.525,4.012,3.426,7.421,4.966,9.774C320.165,337.162,321.27,338.519,321.198,338.577z"/>
				</g>
			</g>
			<g>
				<g>
					<path style="fill:#263238;" d="M345.011,341.378c-0.027,0.023-0.416-0.399-1.096-1.185c-0.692-0.777-1.616-1.967-2.693-3.483
						c-2.136-3.037-4.779-7.511-6.653-12.893c-0.926-2.69-1.593-5.326-1.99-7.761c-0.349-2.44-0.545-4.66-0.471-6.526
						c-0.01-0.933,0.063-1.773,0.138-2.51c0.054-0.738,0.134-1.37,0.242-1.881c0.184-1.025,0.302-1.586,0.337-1.579
						c0.035,0.007-0.015,0.58-0.136,1.607c-0.077,0.512-0.126,1.142-0.152,1.876c-0.047,0.732-0.095,1.565-0.061,2.489
						c-0.027,1.846,0.206,4.038,0.576,6.446c0.418,2.403,1.091,5.006,2.008,7.668c1.854,5.326,4.42,9.786,6.465,12.857
						c1.032,1.533,1.906,2.751,2.547,3.564C344.702,340.888,345.038,341.355,345.011,341.378z"/>
				</g>
			</g>
			<g>
				<g>
					<path style="fill:#263238;" d="M200.338,243.333c0.017,0.007-0.055,0.249-0.208,0.706c-0.175,0.502-0.404,1.163-0.691,1.987
						c-0.587,1.729-1.456,4.225-2.406,7.347c-1.926,6.232-4.229,14.97-5.797,24.804c-0.619,3.844-1.087,7.565-1.429,11.027
						l-0.061,0.615l-0.38-0.485c-5.329-6.792-9.729-12.444-12.357-15.867l0.169,0.029c-1.307,0.789-2.337,1.41-3.088,1.863
						c-0.326,0.189-0.592,0.342-0.809,0.468c-0.184,0.102-0.281,0.149-0.287,0.139c-0.006-0.01,0.079-0.077,0.251-0.198
						c0.207-0.141,0.461-0.313,0.773-0.524c0.735-0.478,1.743-1.134,3.023-1.967l0.096-0.062l0.074,0.092
						c2.715,3.354,7.183,8.953,12.543,15.72l-0.441,0.13c0.327-3.474,0.788-7.208,1.408-11.063c1.573-9.863,3.94-18.615,5.96-24.832
						c0.998-3.115,1.921-5.596,2.567-7.306c0.325-0.811,0.585-1.46,0.783-1.954C200.216,243.556,200.321,243.326,200.338,243.333z"
						/>
				</g>
			</g>
			<g>
				<g>
					<path style="fill:#263238;" d="M137.014,261.673c0.014-0.012,0.153,0.127,0.407,0.401c0.288,0.321,0.648,0.723,1.09,1.215
						c0.932,1.068,2.267,2.625,3.871,4.587c3.217,3.917,7.513,9.454,11.941,15.798c1.928,2.76,3.721,5.445,5.319,7.919l-0.406-0.006
						c3.078-4.372,5.721-8.127,7.643-10.856c0.924-1.282,1.673-2.32,2.233-3.097c0.527-0.715,0.822-1.094,0.845-1.078
						c0.023,0.016-0.228,0.426-0.713,1.169c-0.531,0.797-1.241,1.862-2.117,3.177c-1.883,2.757-4.473,6.548-7.488,10.963
						l-0.205,0.301l-0.201-0.307c-1.613-2.46-3.411-5.134-5.336-7.888c-4.42-6.332-8.661-11.895-11.8-15.866
						c-1.545-1.937-2.811-3.524-3.739-4.688c-0.411-0.518-0.747-0.94-1.015-1.277C137.113,261.846,137,261.685,137.014,261.673z"/>
				</g>
			</g>
			<g>
				<g>
					<path style="fill:#263238;" d="M226.492,439.188c0.004,0.006-0.054,0.044-0.171,0.114c-0.139,0.08-0.313,0.178-0.527,0.301
						c-0.244,0.135-0.534,0.295-0.871,0.481c-0.175,0.095-0.362,0.197-0.561,0.306c-0.212,0.085-0.437,0.176-0.675,0.271
						c-1.888,0.837-4.785,1.69-8.49,2.458c-7.428,1.485-18.104,2.415-30.56,2.406h-0.012l-0.014-0.002
						c-6.38-0.761-13.32-1.916-20.451-3.546c-17.111-3.909-31.941-9.85-42.229-14.921c-10.33-5.034-16.237-9.011-16.237-9.011
						c0.005-0.008,0.105,0.041,0.296,0.143c0.214,0.118,0.491,0.271,0.841,0.465c0.763,0.435,1.838,1.048,3.207,1.83
						c1.419,0.77,3.141,1.704,5.134,2.785c2.032,1.028,4.321,2.246,6.919,3.457c10.31,4.977,25.119,10.847,42.185,14.745
						c7.112,1.626,14.031,2.788,20.393,3.565l-0.026-0.002c12.42,0.044,23.085-0.818,30.495-2.213
						c3.698-0.723,6.591-1.525,8.486-2.31c0.239-0.089,0.466-0.173,0.679-0.252c0.2-0.101,0.389-0.197,0.564-0.286
						c0.343-0.171,0.637-0.318,0.885-0.443c0.222-0.107,0.402-0.194,0.547-0.264C226.423,439.208,226.488,439.182,226.492,439.188z"
						/>
				</g>
			</g>
			<g>
				<g>
					<path style="fill:#263238;" d="M219.517,415.866c0.002,0.009-0.074,0.031-0.223,0.066c-0.18,0.038-0.398,0.085-0.664,0.141
						c-0.631,0.121-1.487,0.286-2.567,0.494c-2.241,0.355-5.502,0.766-9.548,1.065c-8.091,0.636-19.308,0.767-31.675,0.433
						c-12.372-0.378-23.553-1.182-31.617-2.053c-4.031-0.445-7.282-0.899-9.521-1.261c-1.08-0.202-1.937-0.361-2.568-0.479
						c-0.266-0.055-0.485-0.1-0.665-0.137c-0.149-0.034-0.225-0.056-0.223-0.064c0.002-0.009,0.081-0.005,0.233,0.012
						c0.183,0.023,0.404,0.052,0.674,0.086c0.634,0.094,1.494,0.221,2.58,0.382c2.245,0.299,5.498,0.698,9.528,1.095
						c8.063,0.776,19.236,1.521,31.595,1.899c12.354,0.334,23.554,0.261,31.634-0.28c4.041-0.252,7.299-0.606,9.543-0.899
						c1.084-0.167,1.944-0.299,2.577-0.396c0.27-0.036,0.491-0.066,0.673-0.09C219.436,415.862,219.515,415.857,219.517,415.866z"/>
				</g>
			</g>
			<g>
				<g>
					<path style="fill:#263238;" d="M187.703,445.276c-0.087-0.033,0.461-1.493,1.02-3.937c0.555-2.442,1.119-5.873,1.236-9.697
						c0.148-3.821-0.185-7.288-0.723-9.727c-0.526-2.45-1.278-3.827-1.188-3.871c0.032-0.017,0.226,0.321,0.552,0.953
						c0.303,0.641,0.671,1.605,0.994,2.833c0.639,2.456,1.034,5.969,0.885,9.83c-0.119,3.863-0.747,7.325-1.399,9.767
						c-0.148,0.615-0.332,1.158-0.485,1.636c-0.147,0.48-0.294,0.887-0.433,1.213C187.898,444.934,187.736,445.289,187.703,445.276z
						"/>
				</g>
			</g>
			<g>
				<g>
					<path style="fill:#263238;" d="M186.515,465.728c-0.07,0.003-0.176-1.106-0.225-2.899c-0.054-1.793-0.061-4.27-0.035-7.004
						c0.044-2.647,0.085-5.04,0.117-6.999c0.045-1.79,0.07-2.897,0.143-2.9c0.07-0.003,0.176,1.105,0.225,2.899
						c0.054,1.794,0.061,4.27,0.035,7.005c-0.044,2.646-0.084,5.039-0.117,6.998C186.614,464.618,186.589,465.725,186.515,465.728z"
						/>
				</g>
			</g>
			<g>
				<g>
					<path style="fill:#263238;" d="M100.901,346.523c-0.002,0.036-0.44,0.057-1.229,0.065c-0.789,0.001-1.931,0.026-3.338,0.085
						c-2.815,0.113-6.698,0.462-10.912,1.3c-4.214,0.847-7.933,2.018-10.575,2.996c-1.322,0.487-2.385,0.903-3.114,1.205
						c-0.731,0.296-1.144,0.445-1.16,0.413c-0.015-0.033,0.368-0.243,1.077-0.598c0.706-0.36,1.752-0.83,3.064-1.364
						c2.622-1.071,6.357-2.309,10.605-3.163c4.248-0.845,8.172-1.138,11.004-1.157c1.417-0.012,2.563,0.02,3.353,0.081
						C100.467,346.44,100.903,346.487,100.901,346.523z"/>
				</g>
			</g>
			<g>
				<g>
					<path style="fill:#263238;" d="M68.435,355.285c0.086,0.094-1.894,1.365-4.099,4.337c-2.225,2.93-4.401,7.685-5.22,13.265
						c-0.816,5.585-0.447,10.735-0.174,14.423c0.15,1.78,0.275,3.255,0.37,4.38c0.085,1.035,0.117,1.61,0.081,1.614
						c-0.035,0.004-0.135-0.563-0.282-1.591c-0.147-1.029-0.341-2.52-0.535-4.37c-0.367-3.688-0.801-8.871,0.025-14.534
						c0.83-5.663,3.103-10.49,5.442-13.41c1.156-1.473,2.255-2.528,3.072-3.178c0.393-0.344,0.742-0.557,0.961-0.72
						C68.301,355.345,68.424,355.27,68.435,355.285z"/>
				</g>
			</g>
			<g>
				<g>
					<path style="fill:#FFFFFF;" d="M130.487,324.838c0.163-0.017,0.417,3.109,1.645,6.735c1.2,3.636,2.877,6.287,2.736,6.371
						c-0.054,0.035-0.544-0.582-1.19-1.678c-0.646-1.094-1.422-2.683-2.04-4.527c-0.615-1.845-0.95-3.581-1.092-4.843
						C130.403,325.631,130.423,324.843,130.487,324.838z"/>
				</g>
			</g>
			<g style="opacity:0.3;">
				<g>
					<path d="M124.13,330.714c3.245,1.221,6.899,1.326,10.209,0.292c0.037,1.519,0.074,3.038,0.111,4.557
						c7.987-2.324,15.093-7.556,19.684-14.493c4.591-6.937,6.629-15.522,5.647-23.782c0.592,1.313,2.521,1.509,3.736,0.735
						c1.214-0.774,1.863-2.169,2.392-3.509c2.048-5.191,3.245-10.717,3.528-16.29c-3.362,4.42-6.724,8.84-10.086,13.26
						c-3.717-6.167-8.336-11.791-13.662-16.637c-4.844,18.792-11.476,37.122-19.776,54.663"/>
				</g>
			</g>
			<g style="opacity:0.3;">
				<g>
					<path d="M287.918,318.221c-7.324,9.983-10.839,22.692-9.684,35.02c0.098,1.051,0.24,2.132,0.769,3.046
						c0.529,0.913,1.541,1.625,2.588,1.493c1.315-0.166,2.135-1.513,2.531-2.779c1.014-3.247,0.535-6.74,0.322-10.134
						c-0.575-9.174,0.907-18.472,4.307-27.012"/>
				</g>
			</g>
			<g style="opacity:0.3;">
				<g>
					<path d="M339.513,333.311l0.802,1.629c0.769,0.476,0.972,1.717,1.558,2.405c0.586,0.688,1.776,0.866,2.6,0.492
						c0.429-0.194,0.716-0.602,0.975-0.996c2.699-4.111,4.576-8.759,5.49-13.591C346.429,326.064,342.955,329.261,339.513,333.311z"
						/>
				</g>
			</g>
			<g style="opacity:0.3;">
				<g>
					<path d="M310.906,315.546c-0.049,6.66,0.94,13.414,3.706,19.473c2.766,6.059,7.417,11.388,13.445,14.221
						C321.279,339.17,313.379,329.37,310.906,315.546z"/>
				</g>
			</g>
			<g>
				<g style="opacity:0.3;">
					<g>
						<path d="M136.727,433.498c0.034,0.016,0.069,0.03,0.104,0.046c-0.622-0.541-1.241-1.085-1.844-1.646L136.727,433.498z"/>
					</g>
				</g>
				<g style="opacity:0.3;">
					<g>
						<path d="M136.83,433.544c11.462,9.962,25.999,16.352,41.099,18c15.919,1.738,32.37-1.796,46.171-9.918
							C195.206,448.793,163.918,445.893,136.83,433.544z"/>
					</g>
				</g>
			</g>
			<g>
				<g>
					<path style="fill:#FFFFFF;" d="M88.531,365.817c0.007,0.035-0.354,0.137-1.015,0.292c-0.66,0.161-1.628,0.337-2.832,0.501
						c-2.406,0.332-5.783,0.513-9.484,0.156c-3.701-0.366-6.98-1.196-9.277-1.987c-1.149-0.394-2.065-0.753-2.681-1.039
						c-0.619-0.279-0.954-0.449-0.94-0.483c0.034-0.082,1.424,0.478,3.733,1.171c2.306,0.695,5.557,1.458,9.215,1.82
						c3.658,0.352,6.994,0.232,9.392-0.004C87.041,366.011,88.514,365.73,88.531,365.817z"/>
				</g>
			</g>
			<g>
				<g>
					<path style="fill:#FFFFFF;" d="M89.16,374.902c0.01,0.035-0.404,0.181-1.164,0.415c-0.757,0.244-1.875,0.526-3.27,0.809
						c-2.787,0.572-6.73,1.009-11.08,0.768c-4.351-0.253-8.22-1.133-10.924-2.016c-1.354-0.439-2.433-0.846-3.157-1.174
						c-0.729-0.319-1.124-0.511-1.11-0.544c0.035-0.087,1.66,0.583,4.374,1.365c2.711,0.786,6.545,1.599,10.847,1.848
						c4.301,0.238,8.202-0.136,10.984-0.611C87.445,375.294,89.135,374.812,89.16,374.902z"/>
				</g>
			</g>
			<g>
				<g>
					<path style="fill:#FFFFFF;" d="M94.549,296.217c0.009,0.035-0.499,0.208-1.425,0.492c-1.018,0.309-2.338,0.709-3.925,1.19
						c-3.313,1.006-7.874,2.444-12.861,4.18c-4.988,1.74-9.455,3.448-12.676,4.718c-1.542,0.609-2.825,1.116-3.814,1.506
						c-0.902,0.353-1.408,0.533-1.422,0.5c-0.014-0.033,0.464-0.276,1.342-0.687c0.877-0.413,2.16-0.982,3.755-1.661
						c3.189-1.359,7.646-3.125,12.644-4.869c4.997-1.74,9.586-3.125,12.929-4.042c1.672-0.459,3.03-0.811,3.974-1.032
						C94.014,296.29,94.54,296.183,94.549,296.217z"/>
				</g>
			</g>
			<g>
				<g>
					<path style="fill:#FFFFFF;" d="M97.908,312.363c0.026,0.142-9.054,1.924-20.278,3.98c-11.228,2.057-20.347,3.609-20.373,3.468
						c-0.026-0.141,9.052-1.923,20.28-3.98C88.76,313.774,97.882,312.222,97.908,312.363z"/>
				</g>
			</g>
			<g>
				<g>
					<path style="fill:#FFFFFF;" d="M193.276,265.205c-0.128,0.1-1.911-2.263-4.702-4.561c-2.774-2.319-5.426-3.635-5.351-3.779
						c0.028-0.059,0.729,0.194,1.792,0.755c1.063,0.559,2.475,1.451,3.891,2.623c1.413,1.175,2.55,2.399,3.296,3.34
						C192.951,264.524,193.329,265.166,193.276,265.205z"/>
				</g>
			</g>
			<g>
				<g>
					<path style="fill:#FFFFFF;" d="M196.047,260.201c-0.128,0.093-1.765-2.123-4.232-4.422c-2.454-2.315-4.771-3.805-4.686-3.939
						c0.059-0.115,2.539,1.2,5.042,3.559C194.685,257.744,196.158,260.135,196.047,260.201z"/>
				</g>
			</g>
			<g>
				<g>
					<path style="fill:#FFFFFF;" d="M149.39,416.234c-0.141,0.026-1.999-9.414-4.149-21.082c-2.15-11.672-3.778-21.152-3.637-21.178
						c0.141-0.026,1.999,9.412,4.149,21.084C147.903,406.725,149.532,416.208,149.39,416.234z"/>
				</g>
			</g>
			<g>
				<g>
					<path style="fill:#FFFFFF;" d="M161.838,417.297c-0.017,0.004-0.077-0.177-0.175-0.525c-0.107-0.406-0.241-0.912-0.404-1.529
						c-0.343-1.33-0.807-3.263-1.355-5.657c-1.098-4.787-2.494-11.43-3.814-18.808c-1.317-7.381-2.308-14.097-2.936-18.969
						c-0.315-2.436-0.548-4.409-0.687-5.776c-0.061-0.636-0.11-1.157-0.15-1.575c-0.029-0.361-0.035-0.551-0.017-0.553
						c0.018-0.002,0.059,0.184,0.121,0.54c0.066,0.415,0.147,0.931,0.247,1.562c0.212,1.431,0.5,3.378,0.851,5.751
						c0.721,4.855,1.768,11.554,3.084,18.928c1.319,7.37,2.656,14.017,3.661,18.821c0.492,2.348,0.896,4.274,1.193,5.69
						c0.125,0.626,0.227,1.139,0.309,1.551C161.83,417.103,161.856,417.292,161.838,417.297z"/>
				</g>
			</g>
			<g>
				<g>
					<path style="fill:#FFFFFF;" d="M138.741,433.54c-0.144,0.003-0.343-3.864-0.446-8.635c-0.102-4.773-0.069-8.644,0.075-8.647
						c0.144-0.003,0.343,3.863,0.446,8.636C138.918,429.665,138.884,433.537,138.741,433.54z"/>
				</g>
			</g>
			<g>
				<g>
					<path style="fill:#FFFFFF;" d="M148.113,436.886c-0.065,0.013-0.36-1.113-0.687-2.964c-0.327-1.85-0.663-4.43-0.819-7.296
						c-0.153-2.867-0.098-5.468,0.028-7.343c0.125-1.875,0.297-3.026,0.363-3.02c0.077,0.006,0.035,1.165,0.005,3.035
						c-0.032,1.87-0.028,4.453,0.124,7.3c0.155,2.846,0.43,5.414,0.663,7.269C148.023,435.724,148.189,436.872,148.113,436.886z"/>
				</g>
			</g>
			<g>
				<g>
					<path style="fill:#FFFFFF;" d="M155.074,466.431c-0.144,0.002-0.345-5.737-0.449-12.816
						c-0.104-7.082-0.072-12.823,0.072-12.825s0.345,5.735,0.449,12.818C155.249,460.687,155.217,466.429,155.074,466.431z"/>
				</g>
			</g>
			<g>
				<g>
					<path style="fill:#FFFFFF;" d="M165.642,464.759c-0.144,0.002-0.338-4.988-0.435-11.144
						c-0.096-6.159-0.058-11.151,0.086-11.154c0.144-0.002,0.338,4.987,0.434,11.146
						C165.825,459.763,165.786,464.757,165.642,464.759z"/>
				</g>
			</g>
			<g>
				<g>
					<path style="fill:#FFFFFF;" d="M265.246,289.855c0.086,0.115-5.053,4.119-11.477,8.941c-6.426,4.824-11.704,8.641-11.791,8.526
						c-0.086-0.115,5.052-4.118,11.478-8.942C259.88,293.558,265.16,289.741,265.246,289.855z"/>
				</g>
			</g>
			<g>
				<g>
					<path style="fill:#FFFFFF;" d="M261.863,282.56c0.085,0.116-5.117,4.039-11.616,8.76c-6.501,4.723-11.838,8.456-11.923,8.34
						c-0.085-0.116,5.116-4.038,11.617-8.761C256.44,286.178,261.778,282.444,261.863,282.56z"/>
				</g>
			</g>
			<g>
				<g>
					<path style="fill:#FFFFFF;" d="M306.048,373.748c-0.014,0.011-0.158-0.157-0.42-0.486c-0.29-0.377-0.663-0.861-1.124-1.46
						c-0.245-0.324-0.513-0.679-0.803-1.063c-0.282-0.397-0.56-0.847-0.874-1.322c-0.61-0.959-1.362-2.019-2.028-3.289
						c-0.35-0.627-0.716-1.282-1.096-1.964c-0.376-0.686-0.698-1.434-1.07-2.19c-0.767-1.503-1.404-3.189-2.112-4.947
						c-1.297-3.56-2.452-7.579-3.21-11.891c-0.71-4.322-0.948-8.497-0.9-12.287c0.088-1.894,0.132-3.695,0.359-5.368
						c0.1-0.836,0.158-1.649,0.286-2.421c0.134-0.769,0.262-1.508,0.385-2.216c0.21-1.418,0.569-2.667,0.828-3.774
						c0.139-0.551,0.253-1.068,0.388-1.536c0.147-0.459,0.283-0.882,0.407-1.269c0.237-0.717,0.429-1.297,0.579-1.749
						c0.138-0.398,0.218-0.604,0.235-0.598c0.017,0.006-0.03,0.223-0.135,0.63c-0.125,0.458-0.286,1.046-0.484,1.773
						c-0.11,0.389-0.231,0.815-0.362,1.276c-0.12,0.47-0.22,0.988-0.345,1.54c-0.231,1.108-0.563,2.355-0.748,3.77
						c-0.112,0.705-0.229,1.441-0.35,2.207c-0.117,0.768-0.164,1.577-0.254,2.409c-0.208,1.663-0.235,3.453-0.309,5.333
						c-0.021,3.762,0.229,7.903,0.934,12.191c0.752,4.279,1.883,8.269,3.146,11.812c0.691,1.75,1.308,3.43,2.053,4.931
						c0.36,0.755,0.671,1.503,1.035,2.19c0.368,0.683,0.721,1.34,1.06,1.968c0.642,1.274,1.368,2.341,1.952,3.311
						c0.301,0.479,0.566,0.936,0.834,1.34c0.276,0.392,0.53,0.754,0.763,1.085c0.428,0.621,0.773,1.123,1.043,1.514
						C305.945,373.548,306.062,373.737,306.048,373.748z"/>
				</g>
			</g>
			<g>
				<g>
					<path style="fill:#FFFFFF;" d="M317.953,364.006c-0.014,0.012-0.152-0.13-0.403-0.412c-0.284-0.329-0.642-0.742-1.08-1.249
						c-0.472-0.541-1.032-1.215-1.632-2.04c-0.606-0.819-1.333-1.726-2.025-2.807c-0.722-1.061-1.502-2.231-2.25-3.543
						c-0.801-1.281-1.53-2.721-2.322-4.222c-1.503-3.043-2.964-6.487-4.173-10.217c-1.177-3.741-1.982-7.396-2.522-10.747
						c-0.224-1.683-0.465-3.279-0.555-4.787c-0.151-1.503-0.193-2.908-0.22-4.191c-0.064-1.282,0.004-2.443,0.023-3.461
						c0.01-1.019,0.076-1.894,0.147-2.608c0.063-0.667,0.115-1.21,0.156-1.643c0.041-0.375,0.072-0.571,0.09-0.569
						c0.018,0.002,0.022,0.201,0.015,0.578c-0.015,0.434-0.035,0.978-0.058,1.646c-0.04,0.714-0.076,1.587-0.058,2.602
						c0.009,1.014-0.033,2.17,0.054,3.444c0.051,1.276,0.113,2.672,0.282,4.164c0.108,1.497,0.363,3.081,0.599,4.751
						c0.562,3.325,1.376,6.949,2.544,10.664c1.201,3.703,2.638,7.127,4.107,10.162c0.776,1.497,1.485,2.935,2.265,4.218
						c0.727,1.313,1.485,2.487,2.183,3.556c0.668,1.089,1.372,2.006,1.952,2.838c0.574,0.838,1.11,1.528,1.556,2.087
						c0.406,0.531,0.738,0.963,1.002,1.308C317.855,363.83,317.966,363.995,317.953,364.006z"/>
				</g>
			</g>
			<g>
				<g>
					<path style="fill:#FFFFFF;" d="M331.489,315.363c-0.009,0.087-1.128-0.007-2.929,0.041c-1.799,0.044-4.285,0.294-6.938,0.996
						c-2.652,0.711-4.932,1.73-6.515,2.587c-1.586,0.854-2.511,1.492-2.561,1.422c-0.021-0.029,0.19-0.216,0.591-0.531
						c0.398-0.32,1.008-0.737,1.788-1.211c1.557-0.951,3.861-2.046,6.563-2.77c2.704-0.716,5.247-0.911,7.07-0.861
						c0.912,0.023,1.649,0.082,2.154,0.161C331.217,315.27,331.493,315.327,331.489,315.363z"/>
				</g>
			</g>
			<g>
				<g>
					<path style="fill:#FFFFFF;" d="M333.139,325.518c-0.015,0.083-1.033-0.076-2.682-0.179c-1.648-0.106-3.937-0.105-6.428,0.249
						c-2.492,0.362-4.688,1.005-6.24,1.571c-1.553,0.564-2.485,1.003-2.523,0.927c-0.028-0.052,0.848-0.61,2.389-1.27
						c1.537-0.662,3.761-1.376,6.3-1.744c2.539-0.361,4.874-0.303,6.535-0.101C332.153,325.172,333.151,325.46,333.139,325.518z"/>
				</g>
			</g>
			<g>
				<g>
					<path style="fill:#FFFFFF;" d="M160.365,267.818c0.104,0.111-2.201,2.382-4.847,5.359c-2.655,2.971-4.647,5.52-4.769,5.43
						c-0.056-0.041,0.372-0.734,1.145-1.795c0.773-1.061,1.901-2.484,3.235-3.982c1.334-1.496,2.618-2.78,3.584-3.669
						C159.679,268.271,160.318,267.767,160.365,267.818z"/>
				</g>
			</g>
			<g>
				<g>
					<path style="fill:#FFFFFF;" d="M156.954,262.65c0.1,0.103-1.904,2.219-4.477,4.727c-2.574,2.508-4.741,4.457-4.841,4.354
						c-0.1-0.103,1.904-2.219,4.478-4.727C154.686,264.496,156.854,262.547,156.954,262.65z"/>
				</g>
			</g>
			<g>
				<g>
					<path style="fill:#FFFFFF;" d="M244.414,364.296c0.003,0.018-0.201,0.073-0.593,0.162c-0.448,0.095-1.018,0.215-1.72,0.363
						c-1.495,0.31-3.669,0.708-6.362,1.156c-5.385,0.898-12.868,1.911-21.177,2.569c-8.312,0.651-15.862,0.822-21.321,0.777
						c-2.73-0.021-4.939-0.074-6.464-0.146c-0.717-0.037-1.298-0.066-1.756-0.09c-0.401-0.026-0.611-0.049-0.611-0.067
						c0.001-0.018,0.212-0.031,0.614-0.038c0.458-0.002,1.04-0.005,1.757-0.008c1.525,0.01,3.732,0.007,6.459-0.02
						c5.453-0.05,12.985-0.279,21.281-0.928c8.293-0.657,15.768-1.609,21.161-2.413c2.697-0.4,4.878-0.743,6.383-0.991
						c0.709-0.109,1.285-0.197,1.737-0.267C244.199,364.299,244.41,364.278,244.414,364.296z"/>
				</g>
			</g>
			<g>
				<g>
					<path style="fill:#FFFFFF;" d="M244.829,373.33c0.003,0.018-0.201,0.073-0.593,0.161c-0.448,0.095-1.018,0.215-1.72,0.363
						c-1.495,0.31-3.669,0.708-6.362,1.155c-5.385,0.898-12.868,1.911-21.177,2.569c-8.312,0.651-15.862,0.822-21.321,0.777
						c-2.73-0.02-4.939-0.074-6.464-0.146c-0.717-0.036-1.298-0.066-1.756-0.09c-0.401-0.026-0.611-0.049-0.611-0.067
						s0.212-0.031,0.614-0.038c0.458-0.002,1.04-0.005,1.757-0.008c1.525,0.01,3.732,0.007,6.459-0.02
						c5.452-0.05,12.985-0.279,21.281-0.928c8.293-0.657,15.768-1.609,21.161-2.414c2.697-0.4,4.878-0.743,6.383-0.991
						c0.709-0.109,1.285-0.197,1.737-0.267C244.615,373.333,244.826,373.312,244.829,373.33z"/>
				</g>
			</g>
			<g style="opacity:0.3;">
				<g>
					<path d="M248.432,374.328c5.494-12.695,5.82-27.894,2.99-41.435c-2.831-13.54-8.392-26.332-13.918-39.013
						c7.831,28.47,7.45,47.693,6.91,73.994L248.432,374.328z"/>
				</g>
			</g>
		</g>
		<g>
			<g>
				<path style="fill:#FFBE9D;" d="M332.825,303.56l34.086-29.868l10.194,20.578l-36.716,40.671
					C340.389,334.941,329.051,316.504,332.825,303.56z"/>
			</g>
			<g>
				<path style="fill:#FFBE9D;" d="M409.175,270.445c0,0-3.358-2.767-10.414-0.453c-7.056,2.313-11.488-0.354-14.394-1.209
					c-2.906-0.854-11.399-1.846-17.891,5.372l10.628,20.116l34.446,1.499l28.404-1.057c0,0,1.182-2.569-1.417-4.32l5.96-1.706
					c0,0-0.031-5.424-6.472-4.958l1.474-3.12c0,0-3.82-4.424-7.519,0.655c0,0-3.617-2.96-8.908,1.814l-5.683,1.481l-13.7-4.854
					C403.689,279.705,415.075,276.27,409.175,270.445z"/>
			</g>
			<g>
				<g>
					<path style="fill:#EB996E;" d="M413.923,287.986c-0.014,0.033-0.558-0.165-1.529-0.552c-1.051-0.432-2.429-0.998-4.093-1.682
						c-3.447-1.441-8.195-3.465-13.426-5.73c-2.622-1.121-5.082-2.278-7.418-3.012c-2.33-0.753-4.544-1.021-6.377-0.825
						c-1.839,0.171-3.251,0.744-4.146,1.249c-0.895,0.516-1.32,0.917-1.352,0.88c-0.012-0.013,0.086-0.12,0.286-0.313
						c0.201-0.191,0.519-0.451,0.962-0.741c0.883-0.571,2.321-1.218,4.21-1.441c1.883-0.251,4.18-0.01,6.559,0.732
						c2.391,0.724,4.865,1.874,7.483,2.992c5.231,2.265,9.955,4.342,13.365,5.87c1.637,0.746,2.994,1.363,4.027,1.834
						C413.421,287.692,413.938,287.953,413.923,287.986z"/>
				</g>
			</g>
			<g>
				<g>
					<path style="fill:#EB996E;" d="M419.598,290.574c-0.041-0.063,0.711-0.618,1.924-1.509c1.214-0.891,2.883-2.128,4.684-3.55
						c1.8-1.424,3.39-2.762,4.537-3.737c1.147-0.975,1.861-1.577,1.913-1.523c0.048,0.049-0.577,0.747-1.666,1.796
						c-1.088,1.049-2.65,2.44-4.461,3.873c-1.811,1.43-3.525,2.629-4.798,3.445C420.459,290.185,419.636,290.631,419.598,290.574z"
						/>
				</g>
			</g>
			<g>
				<g>
					<path style="fill:#EB996E;" d="M428.218,294.82c-0.104-0.122,2.505-2.345,5.208-5.564c2.721-3.206,4.475-6.151,4.612-6.068
						c0.058,0.033-0.308,0.813-1.029,2.003c-0.72,1.189-1.815,2.776-3.185,4.401c-1.372,1.623-2.753,2.969-3.804,3.878
						C428.968,294.38,428.26,294.871,428.218,294.82z"/>
				</g>
			</g>
		</g>
		<g>
			<g>
				<g>
					<path style="fill:#FFBE9D;" d="M98.71,354.044c0.745,0,66.82-30.553,66.82-30.553l10.681,19.872
						c0,0-53.96,48.741-65.635,50.728c-11.675,1.987-25.031,0.194-25.031-12.226C85.544,369.445,98.71,354.044,98.71,354.044z"/>
				</g>
			</g>
			<g>
				<path style="fill:#FFBE9D;" d="M208.199,319.553c0,0-3.357-2.767-10.414-0.453c-7.057,2.313-11.488-0.354-14.394-1.209
					c-2.906-0.854-11.37-1.619-17.862,5.6l10.6,19.888l34.446,1.499l28.404-1.057c0,0,1.182-2.569-1.417-4.32l5.96-1.706
					c0,0-0.032-5.424-6.473-4.958l1.473-3.12c0,0-3.82-4.424-7.519,0.655c0,0-3.617-2.96-8.907,1.814l-5.683,1.481l-13.7-4.854
					C202.713,328.814,214.099,325.379,208.199,319.553z"/>
			</g>
			<g>
				<g>
					<path style="fill:#EB996E;" d="M202.713,328.814c0.005,0.066-0.951,0.204-2.507,0.277c-1.556,0.08-3.708,0.051-6.072-0.031
						c-2.365-0.079-4.501-0.131-6.051-0.144c-1.549-0.017-2.51-0.026-2.513-0.103c-0.003-0.067,0.952-0.188,2.506-0.266
						c1.553-0.081,3.706-0.088,6.074-0.008c2.368,0.082,4.502,0.169,6.05,0.183C201.748,328.744,202.708,328.736,202.713,328.814z"
						/>
				</g>
			</g>
			<g>
				<g>
					<path style="fill:#EB996E;" d="M239.574,333.524c0.004,0.036-0.325,0.107-0.924,0.206c-0.599,0.1-1.469,0.217-2.548,0.338
						c-2.157,0.243-5.15,0.474-8.462,0.545c-3.314,0.068-6.314-0.037-8.479-0.19c-1.083-0.076-1.957-0.155-2.56-0.231
						c-0.603-0.073-0.934-0.131-0.932-0.167c0.006-0.076,1.346-0.028,3.509,0.029c2.163,0.058,5.151,0.105,8.451,0.037
						c3.298-0.07,6.281-0.242,8.44-0.391C238.228,333.553,239.565,333.448,239.574,333.524z"/>
				</g>
			</g>
		</g>
		<g>
			<g>
				<g>
					<g>
						<g>
							<g>
								<g>
									<g>
										<g>
											<g>
												<g>
													<g>
														<g>
															<g>
																<path style="fill:#FFBE9D;" d="M209.74,140.474c-1.786-15.604-13.138-34.282-28.652-31.836l-48.079,14.797
																	c-4.713,0.743-8.074,4.969-7.737,9.728l13.786,112.311c2.582,2.309,33.052,30.126,33.052,30.126l18.089-33.119
																	c0,0-0.794-19.828-0.778-19.696c0,0,19.831-4.342,22.643-30.647C213.461,179.055,211.723,157.811,209.74,140.474z"
																	/>
															</g>
															<g>
																<g>
																	<g>
																		<g>
																			<g>
																				<g>
																					<g>
																						<g>
																							<g>
																								<g>
																									<g>
																										<g>
																											<path style="fill:#263238;" d="M203.779,160.988c0.153,1.764-1.215,3.348-3.055,3.541
																												c-1.836,0.193-3.45-1.077-3.604-2.841c-0.152-1.764,1.215-3.35,3.051-3.543
																												C202.011,157.952,203.626,159.224,203.779,160.988z"/>
																										</g>
																									</g>
																								</g>
																							</g>
																						</g>
																					</g>
																				</g>
																			</g>
																		</g>
																	</g>
																</g>
																<g>
																	<g>
																		<g>
																			<g>
																				<g>
																					<g>
																						<g>
																							<g>
																								<g>
																									<g>
																										<g>
																											<g>
																												<path style="fill:#263238;" d="M205.368,153.878c-0.392,0.458-3.023-1.289-6.624-1.096
																													c-3.6,0.141-6.148,2.129-6.561,1.708c-0.202-0.185,0.181-0.995,1.289-1.891
																													c1.089-0.892,2.98-1.802,5.224-1.907c2.244-0.102,4.173,0.627,5.301,1.417
																													C205.147,152.902,205.562,153.672,205.368,153.878z"/>
																											</g>
																										</g>
																									</g>
																								</g>
																							</g>
																						</g>
																					</g>
																				</g>
																			</g>
																		</g>
																	</g>
																</g>
															</g>
															<g>
																<g>
																	<g>
																		<g>
																			<g>
																				<g>
																					<g>
																						<g>
																							<g>
																								<g>
																									<g>
																										<g>
																											<path style="fill:#263238;" d="M169.566,163.122c0.153,1.764-1.215,3.348-3.054,3.541
																												c-1.836,0.192-3.451-1.077-3.604-2.841c-0.153-1.764,1.215-3.35,3.051-3.543
																												C167.799,160.086,169.414,161.359,169.566,163.122z"/>
																										</g>
																									</g>
																								</g>
																							</g>
																						</g>
																					</g>
																				</g>
																			</g>
																		</g>
																	</g>
																</g>
																<g>
																	<g>
																		<g>
																			<g>
																				<g>
																					<g>
																						<g>
																							<g>
																								<g>
																									<g>
																										<g>
																											<g>
																												<path style="fill:#263238;" d="M169.484,155.811c-0.394,0.458-3.028-1.289-6.626-1.096
																													c-3.599,0.141-6.148,2.129-6.561,1.708c-0.201-0.185,0.176-0.995,1.289-1.892
																													c1.09-0.892,2.98-1.802,5.224-1.908c2.244-0.102,4.173,0.628,5.301,1.418
																													C169.259,154.836,169.677,155.606,169.484,155.811z"/>
																											</g>
																										</g>
																									</g>
																								</g>
																							</g>
																						</g>
																					</g>
																				</g>
																			</g>
																		</g>
																	</g>
																</g>
															</g>
															<g>
																<g>
																	<g>
																		<g>
																			<g>
																				<g>
																					<g>
																						<g>
																							<g>
																								<g>
																									<g>
																										<g>
																											<path style="fill:#263238;" d="M184.758,180.297c-0.027-0.204,2.191-0.705,5.795-1.354
																												c0.914-0.142,1.776-0.37,1.899-1.004c0.182-0.676-0.253-1.648-0.753-2.695
																												c-0.978-2.181-2.002-4.467-3.077-6.863c-4.285-9.777-7.438-17.835-7.043-18.004
																												c0.395-0.169,4.19,7.618,8.475,17.396c1.034,2.412,2.024,4.711,2.965,6.911
																												c0.401,1.027,1.06,2.182,0.661,3.585c-0.212,0.7-0.862,1.233-1.444,1.422
																												c-0.58,0.21-1.097,0.247-1.551,0.297C187.046,180.369,184.781,180.501,184.758,180.297z"/>
																										</g>
																									</g>
																								</g>
																							</g>
																						</g>
																					</g>
																				</g>
																			</g>
																		</g>
																	</g>
																</g>
															</g>
															<g>
																<g>
																	<g>
																		<g>
																			<g>
																				<g>
																					<g>
																						<g>
																							<g>
																								<g>
																									<g>
																										<path style="fill:#EB996E;" d="M189.42,222.785c0,0-17.497,2.028-35.423-7.538
																											c0,0,9.732,17.492,35.725,13.718L189.42,222.785z"/>
																									</g>
																								</g>
																							</g>
																						</g>
																					</g>
																				</g>
																			</g>
																		</g>
																	</g>
																</g>
															</g>
														</g>
													</g>
												</g>
												<g>
													<g>
														<g>
															<g>
																<g>
																	<g>
																		<g>
																			<g>
																				<g>
																					<g>
																						<g>
																							<path style="fill:#263238;" d="M170.978,141.893c-0.304,0.997-3.924,0.717-8.123,1.441
																								c-4.214,0.641-7.557,2.052-8.163,1.202c-0.272-0.407,0.275-1.359,1.604-2.377
																								c1.317-1.016,3.45-2.027,5.972-2.439c2.522-0.406,4.865-0.122,6.436,0.425
																								C170.287,140.69,171.107,141.42,170.978,141.893z"/>
																						</g>
																					</g>
																				</g>
																			</g>
																		</g>
																	</g>
																</g>
															</g>
														</g>
													</g>
												</g>
												<g>
													<g>
														<g>
															<g>
																<g>
																	<g>
																		<g>
																			<g>
																				<g>
																					<g>
																						<g>
																							<path style="fill:#263238;" d="M204.882,141.601c-0.592,0.85-3.116,0.128-6.101,0.24
																								c-2.989,0.008-5.481,0.831-6.106,0.005c-0.276-0.402,0.08-1.242,1.144-2.072
																								c1.048-0.827,2.835-1.551,4.889-1.594c2.053-0.039,3.867,0.611,4.948,1.396
																								C204.752,140.363,205.141,141.187,204.882,141.601z"/>
																						</g>
																					</g>
																				</g>
																			</g>
																		</g>
																	</g>
																</g>
															</g>
														</g>
													</g>
												</g>
											</g>
										</g>
									</g>
								</g>
								<g>
									<g>
										<path style="fill:#263238;" d="M118.627,127.199c2.334-3.909,6.714-6.039,10.896-7.837
											c18.034-7.758,36.995-13.357,56.351-16.64c2.574,3.901,0.539,9.421-3.007,12.466c-3.545,3.045-8.199,4.37-12.512,6.172
											c-4.313,1.802-8.702,4.492-10.341,8.868c-1.743,4.655,0.079,10.021-1.428,14.757c-2.593,8.15-13.716,11.166-16.263,19.33
											c-1.926,6.175,1.848,12.528,2.973,18.898c1.274,7.219-1.123,14.99-6.242,20.236c-4.037,4.137-9.685,6.586-15.447,6.914
											c-2.203-23.021-4.406-46.042-6.609-69.063C116.539,136.505,116.158,131.335,118.627,127.199z"/>
									</g>
								</g>
							</g>
							<g>
								<g>
									<g>
										<g>
											<g>
												<g>
													<g>
														<path style="fill:#EB996E;" d="M186.98,191.41c-0.531,1.565-1.075,3.155-2.027,4.505
															c-0.953,1.35-2.389,2.454-4.034,2.612c-1.753,0.169-3.498-0.788-4.55-2.2c-1.052-1.413-1.474-3.217-1.481-4.979
															c-0.006-1.592,0.629-3.525,2.199-3.789c0.653-0.11,1.313,0.112,1.938,0.331c2.822,0.987,5.644,1.975,8.465,2.962"/>
													</g>
												</g>
											</g>
										</g>
									</g>
								</g>
								<g>
									<g>
										<g>
											<g>
												<g>
													<g>
														<g>
															<path style="fill:#263238;" d="M183.999,198.402c-0.055-0.258-1.841,0.571-4.454-0.331
																c-1.265-0.439-2.671-1.361-3.495-2.878c-0.823-1.498-1.072-3.569-0.374-5.424c0.16-0.464,0.414-0.893,0.663-1.276
																c0.312-0.361,0.252-0.342,0.613-0.307c0.342,0.075,0.901,0.305,1.355,0.457c0.472,0.166,0.936,0.329,1.39,0.489
																c1.812,0.632,3.451,1.181,4.835,1.623c2.768,0.883,4.515,1.333,4.587,1.141c0.071-0.192-1.547-0.99-4.222-2.125
																c-1.337-0.567-2.938-1.219-4.724-1.921c-0.45-0.175-0.907-0.354-1.373-0.536c-0.495-0.176-0.875-0.375-1.547-0.55
																c-0.328-0.075-0.79-0.104-1.23,0.096c-0.43,0.199-0.689,0.51-0.88,0.768c-0.347,0.512-0.65,1.036-0.857,1.62
																c-0.865,2.317-0.507,4.817,0.578,6.629c1.108,1.851,2.889,2.836,4.379,3.201c1.516,0.387,2.797,0.214,3.603-0.036
																C183.662,198.782,184.035,198.482,183.999,198.402z"/>
														</g>
													</g>
												</g>
											</g>
										</g>
									</g>
								</g>
							</g>
						</g>
					</g>
				</g>
			</g>
			<g>
				<path style="fill:#263238;" d="M142.847,180.213c3.955,4.223,3.08,10.98,1.171,16.442s-4.64,11.069-3.565,16.754
					c1.627,8.611,11.465,14.253,11.994,23c0.536,8.855-8.826,15.913-8.619,24.782c0.115,4.929,3.175,9.213,5.303,13.66
					c2.128,4.447,3.169,10.293-0.197,13.896c-4.207,4.502-11.911,2.09-16.577-1.933c-9.532-8.218-13.72-21.303-13.954-33.887
					c-0.235-12.584,3.004-24.94,6.103-37.139c3.099-12.199,6.102-24.649,5.385-37.215"/>
			</g>
			<g>
				<path style="fill:#263238;" d="M118.26,231.85c-3.774,5.489-3.86,12.717-2.773,19.288c1.087,6.572,3.204,13.012,3.352,19.671
					c0.162,7.259-2.027,14.533-0.935,21.711c0.999,6.564,4.637,12.381,6.99,18.59c2.353,6.209,3.224,13.783-0.857,19.02
					c4.925,0.163,9.853-2.414,12.527-6.552c-0.058,1.67-0.117,3.34-0.175,5.009c10.831-3.71,16.704-15.98,16.947-27.426
					c0.244-11.446-3.863-22.464-7.153-33.43c-3.29-10.966-5.794-22.812-2.383-33.74"/>
			</g>
			<g>
				<g>
					<path style="fill:#FFFFFF;" d="M187.226,107.434c0,0-0.079-0.24-0.209-0.711c-0.139-0.468-0.267-1.189-0.682-2.05
						c-0.701-1.748-2.196-4.243-5.053-6.472c-1.433-1.081-3.158-2.16-5.242-2.859c-2.064-0.719-4.446-1.175-6.997-1.019
						c-2.543,0.144-5.239,0.977-7.591,2.667c-2.37,1.663-4.42,4.023-6.079,6.785c-1.677,2.76-3.07,5.858-4.55,9.073
						c-1.498,3.201-3.07,6.576-5.363,9.668c-1.13,1.558-2.504,2.962-3.962,4.302c-1.48,1.319-3.074,2.542-4.71,3.752
						c-3.267,2.411-6.785,4.711-9.798,7.723c-1.498,1.5-2.872,3.187-3.831,5.132c-0.288,0.461-0.433,0.992-0.658,1.486
						c-0.233,0.494-0.371,1.022-0.502,1.553c-0.122,0.532-0.32,1.051-0.381,1.598l-0.199,1.643
						c-0.304,4.446,1.001,8.922,2.527,13.296c0.757,2.202,1.591,4.404,2.324,6.668c0.741,2.258,1.419,4.576,1.777,6.981
						c0.236,1.193,0.268,2.421,0.345,3.643c-0.043,1.228-0.057,2.463-0.287,3.682c-0.407,2.442-1.245,4.799-2.249,7.069
						c-2.013,4.545-4.623,8.722-6.195,13.248c-0.784,2.253-1.285,4.593-1.287,6.935c-0.052,2.348,0.485,4.646,1.203,6.832
						c1.506,4.387,4.037,8.251,6.335,12.096c1.174,1.914,2.281,3.85,3.288,5.812c0.993,1.972,1.814,4.005,2.418,6.084
						c1.166,4.198,0.956,8.524,0.262,12.523c-0.668,4.024-1.678,7.842-2.294,11.592c-0.3,1.875-0.499,3.731-0.552,5.558
						c-0.021,1.826,0.099,3.619,0.415,5.351c0.607,3.47,1.72,6.687,2.871,9.708c1.158,3.023,2.367,5.868,3.342,8.63
						c0.98,2.757,1.746,5.424,2.164,7.979c0.416,2.554,0.49,4.985,0.208,7.19c-0.314,2.198-0.927,4.158-1.744,5.788
						c-1.62,3.285-3.827,5.261-5.48,6.203c-0.405,0.258-0.785,0.442-1.119,0.588c-0.326,0.163-0.609,0.274-0.845,0.345
						c-0.464,0.158-0.705,0.227-0.705,0.227s0.23-0.102,0.686-0.276c0.232-0.078,0.511-0.197,0.83-0.367
						c0.328-0.153,0.701-0.343,1.098-0.606c1.621-0.963,3.778-2.941,5.352-6.202c0.794-1.619,1.384-3.561,1.68-5.732
						c0.264-2.176,0.177-4.583-0.249-7.11c-0.428-2.53-1.201-5.174-2.189-7.915c-0.982-2.745-2.201-5.581-3.374-8.609
						c-1.165-3.026-2.299-6.261-2.924-9.772c-0.325-1.752-0.453-3.575-0.436-5.428c0.049-1.852,0.245-3.729,0.543-5.619
						c0.612-3.778,1.614-7.603,2.269-11.597c0.681-3.976,0.873-8.215-0.273-12.322c-0.596-2.039-1.407-4.041-2.392-5.992
						c-1.001-1.942-2.102-3.863-3.277-5.774c-2.298-3.838-4.852-7.718-6.392-12.188c-0.734-2.227-1.287-4.584-1.236-7
						c0-2.409,0.516-4.811,1.312-7.102c1.599-4.602,4.218-8.789,6.208-13.29c0.994-2.247,1.815-4.562,2.212-6.944
						c0.225-1.189,0.238-2.392,0.281-3.59c-0.076-1.195-0.105-2.395-0.338-3.569c-0.35-2.363-1.019-4.657-1.754-6.902
						c-0.728-2.25-1.559-4.452-2.317-6.661c-1.525-4.388-2.857-8.928-2.541-13.499l0.207-1.69c0.065-0.563,0.267-1.098,0.394-1.646
						c0.137-0.547,0.28-1.09,0.52-1.599c0.231-0.509,0.384-1.055,0.679-1.529c0.991-2.001,2.402-3.726,3.927-5.248
						c3.07-3.057,6.606-5.356,9.868-7.754c1.632-1.201,3.218-2.413,4.684-3.714c1.443-1.321,2.796-2.698,3.912-4.228
						c2.267-3.039,3.84-6.387,5.345-9.579c1.488-3.207,2.897-6.316,4.601-9.097c1.685-2.784,3.779-5.18,6.202-6.864
						c2.408-1.716,5.177-2.556,7.764-2.687c2.598-0.145,5.012,0.334,7.098,1.076c2.106,0.722,3.844,1.827,5.283,2.933
						c2.869,2.278,4.35,4.818,5.025,6.592c0.402,0.874,0.514,1.604,0.637,2.078C187.182,107.188,187.226,107.434,187.226,107.434z"
						/>
				</g>
			</g>
		</g>
	</g>
</g>
<g id="Desk">
	<g>
		<g>
			<path style="fill:#263238;" d="M456.2,465.527c0,0.144-92.326,0.26-206.19,0.26c-113.903,0-206.21-0.117-206.21-0.26
				c0-0.144,92.307-0.26,206.21-0.26C363.874,465.267,456.2,465.384,456.2,465.527z"/>
		</g>
	</g>
</g>
<g id="Cube">
	<g>
		<g>
			<g>
				<polygon style="fill:#FF725E;" points="317.583,219.938 317.288,159.443 368.687,131.622 368.687,190.95 				"/>
			</g>
			<g style="opacity:0.3;">
				<polygon points="317.583,219.938 317.288,159.443 368.687,131.622 368.687,190.95 				"/>
			</g>
		</g>
		<g>
			<polygon style="fill:#FF725E;" points="382.408,127.423 381.618,187.209 433.877,215.681 433.877,156.459 			"/>
		</g>
		<g style="opacity:0.4;">
			<polygon points="382.408,127.423 381.618,187.209 433.877,215.681 433.877,156.459 			"/>
		</g>
		<g>
			<g>
				<polygon style="fill:#FF725E;" points="317.288,219.864 369.168,249.63 420.458,220.594 368.684,190.247 				"/>
			</g>
			<g style="opacity:0.5;">
				<polygon points="317.288,219.864 369.168,249.63 420.458,220.594 368.684,190.247 				"/>
			</g>
		</g>
		<g>
			<polygon style="fill:#FF725E;" points="369.168,249.63 368.873,189.134 420.272,161.313 420.272,220.641 			"/>
		</g>
		<g>
			<polygon style="fill:#FF725E;" points="318.377,127.375 370.257,157.141 421.547,128.105 369.773,97.758 			"/>
		</g>
		<g>
			<g>
				<path d="M370.689,248.767c0,0,0.291-0.189,0.873-0.531c0.597-0.347,1.46-0.848,2.586-1.501c2.29-1.314,5.635-3.233,9.919-5.69
					c8.613-4.91,20.989-11.965,36.105-20.583l-0.104,0.178c-0.014-16.929-0.031-37.204-0.05-59.328l0.375,0.224
					c-8.811,4.771-18.007,9.751-27.439,14.859c-8.198,4.436-16.219,8.775-23.96,12.964l0.134-0.226
					c0.092,22.477,0.177,43.083,0.248,60.496l0.001,0.364l-0.314-0.181c-15.771-9.092-28.721-16.557-37.744-21.759
					c-4.489-2.604-7.997-4.639-10.4-6.032c-1.181-0.693-2.088-1.225-2.715-1.592c-0.611-0.363-0.918-0.563-0.918-0.563
					s0.328,0.163,0.949,0.508c0.634,0.355,1.55,0.87,2.745,1.54c2.416,1.371,5.944,3.373,10.457,5.934
					c9.045,5.164,22.025,12.576,37.834,21.603l-0.313,0.182c-0.099-17.413-0.215-38.018-0.342-60.495l-0.001-0.153l0.135-0.073
					c7.74-4.191,15.759-8.533,23.955-12.971c9.433-5.104,18.632-10.08,27.444-14.848l0.376-0.203l0,0.427
					c-0.018,22.123-0.035,42.399-0.049,59.328l0,0.12l-0.104,0.059c-15.153,8.552-27.559,15.554-36.193,20.428
					c-4.307,2.416-7.671,4.302-9.974,5.594c-1.138,0.631-2.011,1.114-2.615,1.449C371,248.614,370.689,248.767,370.689,248.767z"/>
			</g>
		</g>
		<g>
			<g>
				<path d="M368.684,190.247c0.072,0.124-11.309,6.872-25.418,15.07c-14.114,8.201-25.61,14.746-25.682,14.621
					c-0.072-0.124,11.307-6.871,25.421-15.072C357.112,196.669,368.611,190.122,368.684,190.247z"/>
			</g>
		</g>
		<g>
			<g>
				<polygon style="fill:#FF725E;" points="302.747,136.664 301.957,196.45 354.216,224.922 354.216,165.699 				"/>
			</g>
			<g>
				<g>
					<path style="fill:#263238;" d="M302.747,136.664c-0.003-0.005,0.074,0.035,0.23,0.119c0.171,0.094,0.401,0.22,0.698,0.383
						c0.637,0.354,1.553,0.863,2.741,1.522c2.428,1.355,5.961,3.327,10.451,5.832c9.057,5.073,21.969,12.306,37.46,20.983
						l0.114,0.064v0.132c0.01,17.209,0.023,37.529,0.036,59.222l0,0.439l-0.385-0.21c-0.135-0.074-0.281-0.153-0.428-0.233
						c-18.959-10.344-36.733-20.041-51.814-28.269l-0.12-0.065l0.002-0.136c0.291-17.949,0.534-32.921,0.704-43.426
						c0.093-5.203,0.166-9.299,0.216-12.114c0.027-1.375,0.048-2.437,0.063-3.174c0.009-0.343,0.015-0.608,0.02-0.806
						C302.74,136.747,302.744,136.658,302.747,136.664c0.003,0.005,0.005,0.104,0.005,0.293c0,0.205-0.001,0.48-0.002,0.836
						c-0.005,0.75-0.013,1.83-0.022,3.229c-0.025,2.832-0.06,6.951-0.105,12.184c-0.107,10.462-0.258,25.372-0.441,43.246
						l-0.118-0.201c15.09,8.21,32.876,17.887,51.847,28.208c0.147,0.08,0.293,0.16,0.428,0.233l-0.385,0.229
						c0.013-21.693,0.025-42.013,0.036-59.222l0.114,0.196c-15.372-8.734-28.185-16.014-37.173-21.12
						c-4.492-2.561-8.026-4.577-10.456-5.962c-1.199-0.687-2.125-1.217-2.767-1.585c-0.304-0.176-0.539-0.312-0.714-0.414
						C302.834,136.719,302.75,136.669,302.747,136.664z"/>
				</g>
			</g>
		</g>
		<g>
			<g>
				<path style="fill:#263238;" d="M292.242,202.308c-0.144,0-0.26-14.357-0.26-32.063c0-17.712,0.117-32.066,0.26-32.066
					s0.26,14.354,0.26,32.066C292.502,187.951,292.385,202.308,292.242,202.308z"/>
			</g>
		</g>
		<g>
			<g>
				<path style="fill:#263238;" d="M287.261,188.272c-0.144,0-0.26-14.357-0.26-32.063c0-17.712,0.117-32.066,0.26-32.066
					s0.26,14.354,0.26,32.066C287.521,173.915,287.405,188.272,287.261,188.272z"/>
			</g>
		</g>
		<g>
			<g>
				<path style="fill:#263238;" d="M374.689,85.024c0.008,0.016-0.156,0.117-0.475,0.293c-0.373,0.198-0.839,0.446-1.408,0.748
					c-1.296,0.667-3.061,1.576-5.212,2.683c-4.405,2.257-10.485,5.383-17.167,8.898c-6.684,3.517-12.705,6.757-17.06,9.109
					c-2.131,1.146-3.879,2.085-5.163,2.775c-0.572,0.298-1.039,0.541-1.414,0.736c-0.326,0.163-0.502,0.242-0.51,0.226
					c-0.009-0.016,0.15-0.124,0.459-0.317c0.362-0.218,0.814-0.49,1.367-0.822c1.192-0.705,2.928-1.703,5.084-2.921
					c4.311-2.435,10.308-5.728,16.996-9.247c6.686-3.517,12.796-6.593,17.245-8.766c2.224-1.087,4.031-1.953,5.287-2.536
					c0.587-0.267,1.067-0.486,1.451-0.661C374.502,85.076,374.681,85.007,374.689,85.024z"/>
			</g>
		</g>
		<g>
			<g>
				<path style="fill:#263238;" d="M362.102,88.116c0.008,0.016-0.156,0.117-0.475,0.293c-0.373,0.198-0.839,0.446-1.408,0.748
					c-1.296,0.667-3.061,1.576-5.212,2.683c-4.405,2.257-10.485,5.383-17.167,8.898c-6.684,3.517-12.705,6.757-17.06,9.109
					c-2.131,1.146-3.879,2.085-5.163,2.775c-0.572,0.298-1.039,0.541-1.414,0.736c-0.326,0.163-0.502,0.242-0.51,0.226
					c-0.009-0.016,0.15-0.124,0.459-0.317c0.362-0.218,0.814-0.49,1.366-0.822c1.192-0.705,2.928-1.703,5.084-2.921
					c4.311-2.435,10.308-5.728,16.996-9.247c6.686-3.516,12.796-6.593,17.245-8.766c2.224-1.087,4.031-1.953,5.287-2.536
					c0.587-0.267,1.067-0.486,1.452-0.661C361.915,88.169,362.094,88.1,362.102,88.116z"/>
			</g>
		</g>
		<g>
			<g>
				<path style="fill:#263238;" d="M441.212,225.009c-0.144,0-0.26-11.031-0.26-24.636c0-13.609,0.117-24.639,0.26-24.639
					c0.144,0,0.26,11.029,0.26,24.639C441.473,213.978,441.356,225.009,441.212,225.009z"/>
			</g>
		</g>
		<g>
			<g>
				<path style="fill:#263238;" d="M445.692,232.321c-0.144,0-0.26-11.031-0.26-24.636c0-13.609,0.117-24.639,0.26-24.639
					c0.144,0,0.26,11.029,0.26,24.639C445.952,221.29,445.836,232.321,445.692,232.321z"/>
			</g>
		</g>
		<g>
			<g>
				<path style="fill:#263238;" d="M409.835,237.171c0.074,0.123-8.472,5.38-19.085,11.74
					c-10.617,6.362-19.281,11.418-19.355,11.295c-0.074-0.123,8.47-5.379,19.087-11.742
					C401.096,242.105,409.762,237.048,409.835,237.171z"/>
			</g>
		</g>
		<g>
			<g>
				<path style="fill:#263238;" d="M406.962,244.332c0.074,0.123-8.472,5.38-19.085,11.741
					c-10.617,6.362-19.281,11.418-19.355,11.295c-0.074-0.123,8.47-5.379,19.087-11.742
					C398.223,249.265,406.889,244.208,406.962,244.332z"/>
			</g>
		</g>
	</g>
</g>
</svg>
