<?xml version="1.0" encoding="utf-8"?>
<!-- Generator: Adobe Illustrator 27.5.0, SVG Export Plug-In . SVG Version: 6.00 Build 0)  -->
<svg version="1.1" xmlns="http://www.w3.org/2000/svg" xmlns:xlink="http://www.w3.org/1999/xlink" x="0px" y="0px"
	 viewBox="0 0 500 500" style="enable-background:new 0 0 500 500;" xml:space="preserve">
<g id="Background_Complete">
	<g>
		<g>
			<g>
				<path style="fill:#E0E0E0;" d="M359.985,226.846l2.634,0.99l-2.286,0.648c-0.763,0.216-1.369,0.798-1.615,1.552l-0.827,2.529
					l-1.017-2.536c-0.253-0.63-0.761-1.122-1.399-1.353l-2.313-0.84l2.505-1.029c0.606-0.249,1.083-0.737,1.319-1.348l0.905-2.351
					l0.649,2.186C358.751,226.008,359.286,226.583,359.985,226.846z"/>
			</g>
		</g>
	</g>
	<g>
		<g>
			<g>
				<path style="fill:#E0E0E0;" d="M321.741,137.63l2.634,0.99l-2.286,0.648c-0.763,0.216-1.369,0.798-1.615,1.552l-0.827,2.529
					l-1.017-2.536c-0.253-0.63-0.761-1.122-1.399-1.353l-2.313-0.84l2.505-1.029c0.606-0.249,1.083-0.737,1.319-1.348l0.905-2.351
					l0.649,2.186C320.507,136.792,321.042,137.367,321.741,137.63z"/>
			</g>
		</g>
	</g>
	<g>
		<g>
			<g>
				<path style="fill:#E0E0E0;" d="M138.97,239.167l5.565,2.092l-4.831,1.37c-1.613,0.457-2.892,1.687-3.413,3.279l-1.748,5.343
					l-2.15-5.359c-0.534-1.33-1.608-2.37-2.956-2.859l-4.887-1.775l5.293-2.175c1.281-0.526,2.289-1.557,2.787-2.849l1.913-4.969
					l1.372,4.62C136.363,237.398,137.494,238.612,138.97,239.167z"/>
			</g>
		</g>
	</g>
	<g>
		<g>
			<g>
				<path style="fill:#E0E0E0;" d="M122.369,98.507l6.93,2.605l-6.017,1.707c-2.008,0.569-3.601,2.1-4.25,4.084l-2.177,6.654
					l-2.677-6.674c-0.664-1.657-2.003-2.952-3.681-3.561l-6.086-2.21l6.592-2.708c1.595-0.655,2.851-1.939,3.47-3.548l2.382-6.188
					l1.708,5.753C119.122,96.304,120.531,97.816,122.369,98.507z"/>
			</g>
		</g>
	</g>
	<g>
		<g>
			<g>
				<path style="fill:#E0E0E0;" d="M143.033,66.962l3.131,1.177l-2.718,0.771c-0.907,0.257-1.627,0.949-1.92,1.845l-0.983,3.006
					l-1.21-3.015c-0.3-0.748-0.905-1.333-1.663-1.608l-2.749-0.998l2.978-1.223c0.721-0.296,1.288-0.876,1.568-1.603l1.076-2.795
					l0.772,2.599C141.567,65.966,142.203,66.649,143.033,66.962z"/>
			</g>
		</g>
	</g>
	<g>
		<g>
			<g>
				<path style="fill:#E0E0E0;" d="M401.189,255.98l5.565,2.092l-4.832,1.37c-1.613,0.457-2.892,1.687-3.413,3.279l-1.748,5.343
					l-2.15-5.359c-0.534-1.33-1.608-2.37-2.956-2.859l-4.887-1.775l5.293-2.175c1.281-0.526,2.289-1.557,2.787-2.849l1.913-4.968
					l1.372,4.62C398.582,254.211,399.714,255.426,401.189,255.98z"/>
			</g>
		</g>
	</g>
	<g>
		<g>
			<g>
				<path style="fill:#E0E0E0;" d="M319.158,112.98l5.331,2.004l-4.629,1.313c-1.545,0.438-2.77,1.616-3.27,3.142l-1.675,5.119
					l-2.059-5.134c-0.511-1.274-1.541-2.271-2.832-2.739l-4.682-1.7l5.071-2.084c1.227-0.504,2.193-1.491,2.67-2.73l1.832-4.76
					l1.314,4.426C316.661,111.285,317.744,112.448,319.158,112.98z"/>
			</g>
		</g>
	</g>
	<g>
		<g>
			<g>
				<g>
					<g>
						<path style="fill:#EBEBEB;" d="M69.198,349.538c-6.298-3.25-13.715-3.672-20.707-2.516c-3.757,0.621-7.673,1.745-10.229,4.567
							c-2.556,2.822-3.04,7.788-0.106,10.212c1.747,1.443,4.184,1.662,6.45,1.636c5.474-0.064,11.547-1.028,15.92,2.266
							c2.495,1.879,4.156,5.003,7.139,5.927c2.918,0.904,6.212-0.818,7.759-3.452c1.547-2.634,1.599-5.927,0.877-8.895
							C76.302,359.282,75.543,352.811,69.198,349.538z"/>
					</g>
				</g>
			</g>
			<g>
				<g>
					<g>
						<path style="fill:#EBEBEB;" d="M83.628,321.682c-3.852,5.501-11.337,3.679-14.808,0.322
							c-3.471-3.358-4.938-8.224-6.273-12.864c-3.051-10.603-6.127-21.725-3.859-32.523c0.678-3.228,1.885-6.447,4.154-8.842
							c2.268-2.395,5.756-3.819,8.945-2.977c3.774,0.997,6.12,4.694,7.815,8.21c4.983,10.336,7.622,21.795,7.661,33.27
							C87.283,311.637,86.651,317.257,83.628,321.682"/>
					</g>
				</g>
			</g>
			<g>
				<g>
					<g>
						<path style="fill:#EBEBEB;" d="M94.204,329.574c-4.182-4.963-4.975-12.201-3.115-18.419
							c1.861-6.217,6.065-11.506,10.909-15.825c5.68-5.063,12.357-9.002,19.535-11.526c2.825-0.993,5.805-1.777,8.785-1.492
							c2.981,0.284,5.983,1.809,7.373,4.46c2.056,3.921,0.085,8.677-2.047,12.557c-3.756,6.836-8.051,13.375-12.831,19.539
							c-3.846,4.958-8.251,9.849-14.112,12.09c-5.861,2.241-11.949,1.977-15.056-2.088"/>
					</g>
				</g>
			</g>
			<g>
				<g>
					<g>
						<g>
							<path style="fill:#E0E0E0;" d="M83.889,404.658c-0.072,0.004-0.189-0.887-0.348-2.499c-0.177-1.819-0.399-4.103-0.664-6.821
								c-0.318-2.87-0.737-6.286-1.534-10.005c-0.795-3.71-2.039-7.731-3.637-11.809c-1.655-4.054-3.672-7.738-6.03-10.685
								c-2.341-2.96-5.064-5.102-7.624-6.338c-2.551-1.26-4.839-1.772-6.42-1.999c-1.595-0.164-2.488-0.289-2.489-0.36
								c-0.001-0.071,0.894-0.083,2.533-0.039c1.623,0.108,4.006,0.519,6.694,1.742c2.697,1.196,5.586,3.372,8.042,6.393
								c2.476,3.008,4.567,6.774,6.251,10.9c1.626,4.15,2.851,8.212,3.611,12.002c0.757,3.784,1.103,7.238,1.33,10.132
								c0.217,2.897,0.299,5.242,0.338,6.864C83.977,403.755,83.959,404.654,83.889,404.658z"/>
						</g>
					</g>
				</g>
			</g>
			<g>
				<g>
					<g>
						<g>
							<path style="fill:#E0E0E0;" d="M83.418,399.409c-0.035-0.002-0.058-0.401-0.067-1.16c0.002-0.871,0.005-1.969,0.009-3.317
								c0.008-2.878,0.007-7.043-0.148-12.187c-0.255-10.287-1.14-21.358-2.851-36.966c-1.62-14.677-3.794-31.757-6.089-42.862
								c-0.492-2.525-0.988-4.799-1.454-6.788c-0.445-1.995-0.825-3.714-1.191-5.106c-0.315-1.31-0.571-2.377-0.775-3.224
								c-0.166-0.74-0.237-1.134-0.203-1.144c0.034-0.01,0.172,0.365,0.403,1.087c0.253,0.835,0.571,1.887,0.963,3.178
								c0.427,1.379,0.865,3.087,1.364,5.074c0.521,1.982,1.067,4.249,1.606,6.771c2.27,10.062,4.674,24.126,6.401,39.771
								c1.714,15.641,2.486,29.882,2.555,40.195c0.061,5.156-0.048,9.33-0.18,12.21c-0.082,1.347-0.149,2.444-0.202,3.315
								C83.502,399.014,83.454,399.411,83.418,399.409z"/>
						</g>
					</g>
				</g>
			</g>
			<g>
				<g>
					<g>
						<g>
							<path style="fill:#E0E0E0;" d="M83.35,371.942c-0.072-0.003-0.059-1.233,0.024-3.465c0.127-2.226,0.433-5.444,1.061-9.386
								c0.665-3.932,1.594-8.602,3.053-13.676c0.632-2.32,2.119-7.877,5.719-16.182c4.743-11.253,11.188-20.452,16.794-26.151
								c1.315-1.512,2.78-2.603,3.951-3.672c0.606-0.512,1.142-1.023,1.688-1.428c0.549-0.378,1.059-0.73,1.533-1.057
								c1.845-1.262,2.878-1.927,2.917-1.867c0.166,0.225-4.133,2.755-9.56,8.529c-5.406,5.762-11.67,14.898-16.375,26.056
								c-2.624,6.052-4.453,11.45-5.751,16.033c-1.5,5.025-2.496,9.647-3.248,13.54c-0.715,3.902-1.13,7.088-1.379,9.294
								C83.569,370.719,83.42,371.944,83.35,371.942z"/>
						</g>
					</g>
				</g>
			</g>
		</g>
		<g>
			<g>
				<g>
					<polygon style="fill:#E0E0E0;" points="109.898,420.394 107.146,458.102 58.705,458.102 55.953,420.394 					"/>
				</g>
			</g>
		</g>
		<g>
			<g>
				<g>
					<rect x="50.173" y="405.532" style="fill:#E0E0E0;" width="64.405" height="14.863"/>
				</g>
			</g>
		</g>
		<g>
			<g>
				<g>
					<polygon style="fill:#EBEBEB;" points="114.577,456.659 114.577,460.778 111.551,460.778 51.237,460.778 51.237,456.659 					
						"/>
				</g>
			</g>
		</g>
		<g>
			<g>
				<g>
					<polygon style="fill:#E0E0E0;" points="108.585,468.029 111.551,460.778 53.544,460.778 57.005,468.029 					"/>
				</g>
			</g>
		</g>
		<g>
			<g>
				<g>
					<g>
						<path style="fill:#F5F5F5;" d="M56.852,432.718c-0.011,0.009,0.066,0.126,0.226,0.346c0.192,0.255,0.43,0.571,0.724,0.96
							c0.688,0.88,1.633,2.09,2.822,3.611l0.125,0.161l0.122-0.168c1.774-2.453,4.143-5.73,6.933-9.589h-0.399
							c2.062,2.92,4.359,6.173,6.826,9.665l0.214,0.303l0.239-0.285c2.519-2.997,5.255-6.252,8.095-9.631l-0.467-0.006
							c0.141,0.177,0.293,0.368,0.445,0.56c2.511,3.147,4.94,6.194,7.238,9.074l0.241,0.302l0.223-0.315
							c2.457-3.477,4.753-6.725,6.829-9.662l-0.397,0.019c3.365,3.835,6.22,7.087,8.41,9.582l0.149,0.17l0.114-0.191
							c1.109-1.863,1.993-3.348,2.633-4.424c0.275-0.48,0.498-0.868,0.676-1.178c0.149-0.269,0.219-0.412,0.206-0.42
							c-0.013-0.008-0.109,0.119-0.282,0.374c-0.197,0.298-0.443,0.672-0.748,1.134c-0.673,1.057-1.601,2.515-2.764,4.344
							l0.263-0.021c-2.156-2.526-4.964-5.818-8.275-9.699l-0.209-0.245l-0.189,0.264c-2.094,2.924-4.411,6.158-6.89,9.619
							l0.464-0.012c-2.292-2.885-4.716-5.936-7.221-9.088c-0.152-0.192-0.305-0.383-0.446-0.56l-0.23-0.289l-0.237,0.283
							c-2.833,3.386-5.561,6.647-8.073,9.65l0.453,0.018c-2.491-3.475-4.811-6.711-6.894-9.616l-0.202-0.282l-0.197,0.282
							c-2.73,3.9-5.05,7.213-6.786,9.693l0.246-0.007c-1.237-1.483-2.22-2.661-2.936-3.519c-0.319-0.369-0.577-0.668-0.786-0.91
							C56.962,432.809,56.863,432.709,56.852,432.718z"/>
					</g>
				</g>
			</g>
		</g>
		<g>
			<g>
				<g>
					<g>
						<path style="fill:#F5F5F5;" d="M55.279,420.146c0,0.167,12.138,0.302,27.107,0.302c14.975,0,27.11-0.135,27.11-0.302
							c0-0.167-12.135-0.302-27.11-0.302C67.416,419.844,55.279,419.979,55.279,420.146z"/>
					</g>
				</g>
			</g>
		</g>
		<g>
			<g>
				<g>
					<g>
						<path style="fill:#F5F5F5;" d="M52.831,461.184c0,0.167,13.191,0.302,29.46,0.302c16.274,0,29.463-0.135,29.463-0.302
							c0-0.166-13.188-0.301-29.463-0.301C66.023,460.883,52.831,461.018,52.831,461.184z"/>
					</g>
				</g>
			</g>
		</g>
	</g>
	<g>
		<g>
			<g>
				<g>
					<g>
						<rect x="346.51" y="38.236" style="fill:#E0E0E0;" width="111.722" height="161.937"/>
					</g>
				</g>
			</g>
		</g>
		<g>
			<g>
				<g>
					<g>
						<rect x="340.913" y="38.236" style="fill:#F5F5F5;" width="111.722" height="161.937"/>
					</g>
				</g>
			</g>
		</g>
		<g>
			<g>
				<g>
					<g>
						<g>
							<rect x="354.793" y="55.775" style="fill:#FFFFFF;" width="83.961" height="126.859"/>
						</g>
					</g>
				</g>
			</g>
			<g>
				<g>
					<g>
						<g>
							<g>
								<path style="fill:#E0E0E0;" d="M438.755,182.635c0,0-0.011-0.215-0.016-0.62c-0.004-0.419-0.009-1.017-0.016-1.799
									c-0.008-1.594-0.019-3.928-0.034-6.958c-0.017-6.08-0.043-14.94-0.075-26.133c-0.034-22.37-0.081-54.046-0.137-91.349
									l0.279,0.279c-25.652,0.008-54.076,0.016-83.951,0.025h-0.01l0.304-0.304c-0.023,47.856-0.045,91.981-0.062,126.859
									l-0.242-0.242c25.57,0.053,46.528,0.097,61.113,0.127c7.295,0.027,12.993,0.047,16.884,0.062
									c1.934,0.012,3.416,0.021,4.432,0.027C438.226,182.617,438.755,182.635,438.755,182.635s-0.494,0.017-1.481,0.026
									c-1.006,0.006-2.472,0.015-4.387,0.027c-3.879,0.014-9.558,0.035-16.83,0.062c-14.62,0.03-35.631,0.074-61.263,0.127
									l-0.242,0.001l0-0.243c-0.017-34.878-0.038-79.003-0.062-126.859l0-0.304h0.304h0.01
									c29.875,0.009,58.299,0.017,83.951,0.025h0.279l0,0.279c-0.056,37.378-0.103,69.118-0.137,91.532
									c-0.032,11.165-0.058,20.004-0.075,26.069c-0.015,3.006-0.026,5.321-0.034,6.902c-0.007,0.769-0.013,1.356-0.017,1.768
									C438.766,182.442,438.755,182.635,438.755,182.635z"/>
							</g>
						</g>
					</g>
				</g>
			</g>
		</g>
		<g>
			<g>
				<g>
					<g>
						<g>
							<path style="fill:none;stroke:#FBFBFB;stroke-width:0.25;stroke-miterlimit:10;" d="M434.862,56.622"/>
						</g>
					</g>
				</g>
			</g>
		</g>
		<g>
			<g>
				<g>
					<g>
						<g>
							<path style="fill:#E0E0E0;" d="M452.949,38.236c0.065,0.051-0.694,1.158-1.991,2.893c-1.298,1.735-3.14,4.096-5.242,6.649
								c-2.103,2.553-4.067,4.813-5.522,6.42c-1.455,1.607-2.396,2.563-2.458,2.509c-0.064-0.056,0.762-1.112,2.132-2.789
								c1.498-1.817,3.341-4.053,5.379-6.526c2.036-2.473,3.877-4.71,5.374-6.529C452.003,39.198,452.882,38.184,452.949,38.236z"/>
						</g>
					</g>
				</g>
			</g>
		</g>
		<g>
			<g>
				<g>
					<g>
						<g>
							<path style="fill:#FFFFFF;" d="M439.182,182.226c4.17,6.631,9.093,12.788,14.644,18.314"/>
						</g>
					</g>
				</g>
			</g>
			<g>
				<g>
					<g>
						<g>
							<g>
								<path style="fill:#E0E0E0;" d="M453.827,200.54c-0.055,0.056-1.052-0.809-2.553-2.323c-1.501-1.512-3.491-3.69-5.524-6.23
									c-2.032-2.544-3.718-4.963-4.863-6.76c-1.146-1.797-1.77-2.96-1.704-3.001c0.076-0.047,0.828,1.032,2.06,2.76
									c1.232,1.729,2.962,4.093,4.982,6.622c2.021,2.525,3.947,4.734,5.363,6.315C453.001,199.506,453.89,200.477,453.827,200.54z
									"/>
							</g>
						</g>
					</g>
				</g>
			</g>
		</g>
		<g>
			<g>
				<g>
					<g>
						<g>
							<path style="fill:#FFFFFF;" d="M340.897,200.045c4.878-6.019,9.756-12.037,14.634-18.055"/>
						</g>
					</g>
				</g>
			</g>
			<g>
				<g>
					<g>
						<g>
							<g>
								<path style="fill:#E0E0E0;" d="M355.531,181.99c0.13,0.106-3.04,4.234-7.081,9.219c-4.042,4.987-7.423,8.942-7.553,8.837
									c-0.13-0.105,3.039-4.232,7.081-9.219C352.018,185.841,355.4,181.884,355.531,181.99z"/>
							</g>
						</g>
					</g>
				</g>
			</g>
		</g>
		<g>
			<g>
				<g>
					<g>
						<g>
							<path style="fill:#E0E0E0;" d="M340.913,38.236c0.132-0.104,3.312,3.698,7.103,8.491c3.792,4.795,6.758,8.765,6.627,8.869
								c-0.132,0.104-3.311-3.697-7.103-8.492C343.748,42.311,340.781,38.34,340.913,38.236z"/>
						</g>
					</g>
				</g>
			</g>
		</g>
		<g>
			<g>
				<g>
					<g>
						<rect x="384.482" y="81.533" style="fill:#E0E0E0;" width="28.114" height="79.822"/>
					</g>
				</g>
			</g>
		</g>
	</g>
</g>
<g id="Background_Simple" style="display:none;">
	<g style="display:inline;">
		<path style="fill:#F5F5F5;" d="M436.609,114.33l-2.26-3.724c-19.053-31.397-53.501-50.324-89.82-48.027
			c-4.669,0.295-9.317,0.927-13.904,1.909c-33.022,7.068-61.754,32.04-73.664,64.021c-7.004,18.809-8.961,40.464-22.253,55.394
			c-17.299,19.43-46.668,20.04-72.489,19.235c-25.821-0.805-55.209-0.118-72.424,19.388c-10.781,12.216-14.208,29.589-13.338,45.95
			c2.302,43.315,32.484,82.045,70.869,101.296s83.578,20.975,125.588,12.507c58.851-11.863,114.817-44.442,148.457-94.762
			C455.011,237.196,463.525,168.641,436.609,114.33z"/>
	</g>
</g>
<g id="Sparkles">
	<g>
		<g>
			<g>
				<g>
					<path style="fill:#FF725E;" d="M349.245,253.232l5.136,1.931l-4.46,1.265c-1.488,0.422-2.669,1.557-3.15,3.027l-1.613,4.932
						l-1.984-4.946c-0.492-1.228-1.485-2.188-2.728-2.639l-4.511-1.638l4.886-2.008c1.182-0.486,2.113-1.437,2.572-2.63l1.766-4.586
						l1.266,4.264C346.838,251.599,347.882,252.72,349.245,253.232z"/>
				</g>
			</g>
		</g>
		<g>
			<g>
				<g>
					<path style="fill:#FF725E;" d="M173.844,134.148l5.136,1.931l-4.46,1.265c-1.488,0.422-2.669,1.557-3.15,3.027l-1.613,4.932
						l-1.984-4.946c-0.492-1.228-1.485-2.188-2.728-2.639l-4.511-1.638l4.886-2.008c1.182-0.486,2.113-1.437,2.572-2.63l1.766-4.586
						l1.266,4.264C171.437,132.515,172.481,133.636,173.844,134.148z"/>
				</g>
			</g>
		</g>
		<g>
			<g>
				<g>
					<path style="fill:#FF725E;" d="M159.722,257.137l2.489,0.936l-2.161,0.613c-0.721,0.204-1.293,0.754-1.526,1.467l-0.782,2.39
						l-0.962-2.397c-0.239-0.595-0.719-1.06-1.322-1.279l-2.186-0.794l2.367-0.973c0.573-0.235,1.024-0.696,1.246-1.274l0.855-2.222
						l0.613,2.066C158.556,256.346,159.062,256.889,159.722,257.137z"/>
				</g>
			</g>
		</g>
		<g>
			<g>
				<g>
					<path style="fill:#FF725E;" d="M335.437,228.354l2.634,0.99l-2.287,0.648c-0.763,0.216-1.368,0.798-1.615,1.552l-0.827,2.529
						l-1.017-2.536c-0.253-0.63-0.761-1.122-1.399-1.353l-2.313-0.84l2.505-1.029c0.606-0.249,1.083-0.737,1.319-1.348l0.905-2.351
						l0.649,2.186C334.203,227.517,334.738,228.092,335.437,228.354z"/>
				</g>
			</g>
		</g>
		<g>
			<g>
				<g>
					<path style="fill:#FF725E;" d="M162.629,164.005l2.633,0.99l-2.286,0.648c-0.763,0.216-1.369,0.798-1.615,1.552l-0.827,2.529
						l-1.018-2.536c-0.253-0.63-0.761-1.122-1.399-1.353l-2.313-0.84l2.505-1.029c0.606-0.249,1.083-0.737,1.319-1.348l0.905-2.351
						l0.649,2.186C161.395,163.168,161.93,163.742,162.629,164.005z"/>
				</g>
			</g>
		</g>
	</g>
</g>
<g id="Character_1_">
	<g>
		<g>
			<path style="fill:#FF725E;" d="M288.213,111.825c0,0-19.059-15.014-42.104-10.231c-21.159,4.392-42.497,20.462-42.497,20.462
				l-2.741-28.83c0,0,4.708,5.614,7.462,4.434c2.754-1.181,2.754-22.429,2.754-22.429s10.231,13.379,16.133,12.198
				c5.902-1.18,14.166-27.938,14.166-27.938s12.198,23.216,19.281,24.003c7.083,0.787,12.985-14.953,12.985-14.953
				s4.328,21.249,9.444,22.232s7.476-8.854,7.476-8.854L288.213,111.825z"/>
		</g>
		<g>
			<path style="fill:#FF725E;" d="M287.612,81.742c0,1.636,1.326,2.962,2.962,2.962c1.636,0,2.962-1.326,2.962-2.962
				c0-1.636-1.326-2.962-2.962-2.962C288.938,78.78,287.612,80.106,287.612,81.742z"/>
		</g>
		<g>
			<circle style="fill:#FF725E;" cx="273.725" cy="66.664" r="2.962"/>
		</g>
		<g>
			<circle style="fill:#FF725E;" cx="241.245" cy="57.568" r="3.283"/>
		</g>
		<g>
			<circle style="fill:#FF725E;" cx="211.428" cy="74.073" r="3.283"/>
		</g>
		<g>
			<path style="fill:#FF725E;" d="M197.297,91.768c0,1.531,1.241,2.771,2.771,2.771c1.531,0,2.771-1.241,2.771-2.771
				c0-1.531-1.241-2.771-2.771-2.771C198.537,88.996,197.297,90.237,197.297,91.768z"/>
		</g>
		<g>
			<g>
				<path style="fill:#263238;" d="M288.6,106.934c-0.006,0.007-0.076-0.034-0.209-0.121c-0.156-0.106-0.347-0.236-0.581-0.395
					c-0.518-0.335-1.223-0.914-2.225-1.52c-1.947-1.292-4.905-2.971-8.78-4.529c-3.868-1.571-8.712-2.864-14.199-3.469
					c-2.745-0.266-5.644-0.407-8.645-0.281c-2.999,0.134-6.095,0.476-9.226,1.058c-6.263,1.202-12.057,3.142-17.132,5.325
					c-5.085,2.174-9.477,4.549-13.077,6.68c-3.601,2.133-6.433,3.998-8.372,5.311c-0.941,0.638-1.686,1.144-2.232,1.515
					c-0.236,0.155-0.429,0.282-0.587,0.386c-0.134,0.085-0.205,0.124-0.21,0.117c-0.005-0.007,0.056-0.061,0.179-0.16
					c0.15-0.115,0.333-0.256,0.557-0.428c0.496-0.367,1.218-0.923,2.178-1.596c1.906-1.366,4.712-3.28,8.299-5.46
					c3.586-2.178,7.976-4.596,13.076-6.805c5.089-2.219,10.917-4.185,17.225-5.396c3.157-0.586,6.279-0.928,9.303-1.056
					c3.027-0.12,5.95,0.032,8.717,0.314c5.531,0.636,10.407,1.978,14.285,3.604c3.886,1.613,6.834,3.352,8.755,4.702
					c0.989,0.634,1.676,1.242,2.175,1.605c0.221,0.176,0.402,0.319,0.55,0.437C288.545,106.872,288.605,106.927,288.6,106.934z"/>
			</g>
		</g>
		<g>
			<g style="opacity:0.3;">
				<g>
					<path d="M247.819,83.589c-0.555-1.638-1.896-3.057-3.583-3.435c-1.403-0.315-2.983,0.225-3.857,1.332l0.052-0.084
						c-2.386,2.507-2.257,6.876,0.13,9.383c0.983,1.032,2.419,1.764,3.816,1.485c1.671-0.333,2.766-1.967,3.301-3.585
						C248.22,87.042,248.374,85.226,247.819,83.589z"/>
				</g>
			</g>
			<g>
				<g>
					<path style="fill:#FFFFFF;" d="M241.238,90.222c-0.048,0.038-0.459-0.361-0.868-1.182c-0.409-0.81-0.77-2.077-0.649-3.489
						c0.12-1.412,0.69-2.6,1.231-3.329c0.542-0.74,1.015-1.063,1.056-1.018c0.058,0.057-0.312,0.468-0.747,1.219
						c-0.437,0.744-0.909,1.867-1.021,3.173c-0.111,1.305,0.164,2.492,0.469,3.299C241.01,89.708,241.305,90.175,241.238,90.222z"/>
				</g>
			</g>
		</g>
		<g>
			<g style="opacity:0.3;">
				<g>
					<path d="M221.472,94.17c-0.613-0.87-1.651-1.475-2.713-1.405c-0.883,0.058-1.722,0.651-2.046,1.457l0.016-0.059
						c-0.973,1.895-0.137,4.452,1.708,5.518c0.76,0.438,1.735,0.621,2.512,0.213c0.929-0.487,1.291-1.643,1.325-2.691
						C222.309,96.14,222.084,95.041,221.472,94.17z"/>
				</g>
			</g>
			<g>
				<g>
					<path style="fill:#FFFFFF;" d="M218.814,99.201c-0.039,0.053-0.368-0.093-0.773-0.502c-0.402-0.402-0.855-1.098-1.034-1.972
						c-0.179-0.875-0.034-1.693,0.178-2.22c0.212-0.535,0.458-0.798,0.514-0.764c0.14,0.057-0.509,1.31-0.182,2.88
						C217.832,98.195,218.92,99.094,218.814,99.201z"/>
				</g>
			</g>
		</g>
		<g>
			<g style="opacity:0.3;">
				<g>
					<path d="M274.217,88.851c-0.252-1.034-0.998-1.976-2.012-2.299c-0.843-0.268-1.841-0.023-2.437,0.609l0.036-0.049
						c-1.598,1.409-1.754,4.095-0.425,5.76c0.547,0.686,1.389,1.212,2.26,1.116c1.042-0.114,1.802-1.058,2.217-2.021
						C274.277,90.99,274.469,89.884,274.217,88.851z"/>
				</g>
			</g>
			<g>
				<g>
					<path style="fill:#FFFFFF;" d="M269.739,92.635c-0.055,0.035-0.309-0.221-0.536-0.749c-0.227-0.521-0.395-1.334-0.242-2.214
						c0.153-0.88,0.586-1.588,0.977-2.002c0.393-0.42,0.718-0.575,0.758-0.524c0.109,0.104-0.953,1.034-1.222,2.615
						C269.193,91.34,269.877,92.574,269.739,92.635z"/>
				</g>
			</g>
		</g>
		<g>
			<g style="opacity:0.3;">
				<g>
					<path d="M208.713,105.48c-0.552-0.514-1.361-0.781-2.088-0.577c-0.604,0.17-1.099,0.704-1.206,1.311l0.002-0.043
						c-0.397,1.457,0.558,3.109,1.994,3.577c0.591,0.193,1.295,0.176,1.773-0.221c0.573-0.474,0.655-1.329,0.525-2.061
						C209.583,106.724,209.266,105.994,208.713,105.48z"/>
				</g>
			</g>
			<g>
				<g>
					<path style="fill:#FFFFFF;" d="M207.537,109.467c-0.028,0.061-0.288,0.025-0.643-0.193c-0.352-0.213-0.784-0.633-1.043-1.228
						c-0.258-0.595-0.27-1.198-0.186-1.601c0.083-0.408,0.235-0.622,0.298-0.601c0.143,0.036-0.08,0.987,0.365,1.995
						C206.762,108.852,207.608,109.338,207.537,109.467z"/>
				</g>
			</g>
		</g>
		<g>
			<g style="opacity:0.3;">
				<g>
					<path d="M287.443,98.467c0.136-0.742-0.074-1.568-0.637-2.07c-0.468-0.418-1.185-0.548-1.754-0.312l0.038-0.021
						c-1.442,0.449-2.321,2.142-1.943,3.605c0.155,0.602,0.548,1.186,1.14,1.377c0.708,0.228,1.472-0.163,2.02-0.666
						C286.863,99.869,287.307,99.21,287.443,98.467z"/>
				</g>
			</g>
			<g>
				<g>
					<path style="fill:#FFFFFF;" d="M283.449,99.62c-0.066,0.009-0.176-0.229-0.183-0.646c-0.009-0.411,0.112-1.002,0.475-1.54
						c0.363-0.538,0.865-0.872,1.25-1.017c0.389-0.149,0.651-0.137,0.667-0.072c0.047,0.141-0.874,0.464-1.485,1.381
						C283.552,98.636,283.597,99.611,283.449,99.62z"/>
				</g>
			</g>
		</g>
		<g>
			<g>
				<path style="fill:#263238;" d="M190.046,100.422c-0.04,0.138-2.895-0.558-6.376-1.555c-3.483-0.997-6.273-1.917-6.233-2.056
					c0.04-0.138,2.894,0.558,6.376,1.555C187.295,99.363,190.085,100.283,190.046,100.422z"/>
			</g>
		</g>
		<g>
			<g>
				<path style="fill:#263238;" d="M202.051,79.947c-0.117,0.083-2.716-3.394-5.804-7.766c-3.089-4.373-5.497-7.984-5.379-8.067
					c0.117-0.083,2.716,3.394,5.804,7.767C199.76,76.253,202.169,79.864,202.051,79.947z"/>
			</g>
		</g>
		<g>
			<g>
				<path style="fill:#263238;" d="M226.162,68.757c-0.142,0.023-1.124-5.302-2.193-11.893c-1.069-6.593-1.82-11.954-1.678-11.977
					c0.142-0.023,1.123,5.301,2.192,11.894C225.552,63.372,226.304,68.734,226.162,68.757z"/>
			</g>
		</g>
		<g>
			<g>
				<path style="fill:#263238;" d="M265.109,35.741c0.036,0.003,0.032,0.427-0.005,1.191c-0.036,0.764-0.115,1.868-0.232,3.231
					c-0.234,2.725-0.646,6.483-1.25,10.614c-0.606,4.132-1.29,7.85-1.848,10.528c-0.279,1.339-0.52,2.419-0.705,3.162
					c-0.183,0.743-0.301,1.15-0.336,1.143c-0.035-0.007,0.016-0.428,0.138-1.183c0.146-0.861,0.327-1.928,0.542-3.19
					c0.465-2.691,1.089-6.412,1.694-10.535c0.603-4.122,1.072-7.864,1.399-10.576c0.157-1.271,0.289-2.345,0.396-3.212
					C265.001,36.155,265.073,35.737,265.109,35.741z"/>
			</g>
		</g>
		<g>
			<g>
				<path style="fill:#263238;" d="M294.643,59.588c0.112,0.09-2.314,3.305-5.417,7.18c-3.105,3.876-5.712,6.945-5.825,6.855
					c-0.112-0.09,2.313-3.304,5.418-7.181C291.923,62.568,294.531,59.499,294.643,59.588z"/>
			</g>
		</g>
		<g>
			<g>
				<path style="fill:#263238;" d="M312.254,91.065c0.014,0.143-3.352,0.592-7.518,1.002c-4.167,0.41-7.555,0.627-7.569,0.483
					c-0.014-0.143,3.351-0.591,7.518-1.002C308.851,91.138,312.24,90.922,312.254,91.065z"/>
			</g>
		</g>
	</g>
	<g>
		<g>
			<g>
				<path style="fill:#EB996E;" d="M383.359,310.358c0,0-8.84,0.672-8.266,4.216s4.844,5.52,10.086,4.724l4.667-5.777
					L383.359,310.358z"/>
			</g>
			<g>
				<path style="fill:#FFBE9D;" d="M372.081,351.996l10.302,42.706l32.088-48.047l23.018,7.201c0,0-45.424,103.394-56.397,101.677
					s-20.049-2.453-25.445-13.982s-18.397-54.209-18.397-54.209l-3.925-18.887l37.529-16.46"/>
			</g>
			<g>
				<path style="fill:#FFBE9D;" d="M367.668,292.551c0,0,40.708,6.154,42.365,7.338s30.061,30.298,30.298,38.582
					c0.237,8.285-2.84,15.386-2.84,15.386l-22.487-5.207l-10.415-12.782c0,0-8.521,0.237-10.652-1.184
					c-2.13-1.42-4.497-4.971-4.024-6.864c0,0-6.391-0.237-4.734-8.521c0,0-7.338-4.497-2.367-8.521
					c4.971-4.024,14.202-5.444,14.202-5.444s-25.085-3.787-27.926-6.628C366.247,295.865,367.668,292.551,367.668,292.551z"/>
			</g>
			<g>
				<g>
					<path style="fill:#EB996E;" d="M399.705,313.888c0.027,0.16-3.328,0.679-7.214,2.148c-3.897,1.444-6.768,3.256-6.853,3.116
						c-0.036-0.055,0.637-0.579,1.818-1.287c1.179-0.709,2.881-1.578,4.852-2.317c1.971-0.736,3.826-1.198,5.18-1.437
						C398.844,313.87,399.696,313.823,399.705,313.888z"/>
				</g>
			</g>
			<g>
				<g>
					<path style="fill:#EB996E;" d="M403.279,324.199c0.019,0.154-2.951,0.577-6.514,1.516c-3.568,0.925-6.364,2.008-6.423,1.864
						c-0.026-0.063,0.642-0.416,1.77-0.878c1.127-0.462,2.721-1.019,4.522-1.49c1.801-0.47,3.463-0.764,4.672-0.912
						C402.516,324.15,403.271,324.132,403.279,324.199z"/>
				</g>
			</g>
			<g>
				<g>
					<path style="fill:#EB996E;" d="M423.193,352.246c-0.068,0.127-2.116-0.83-4.575-2.138c-2.46-1.308-4.398-2.471-4.331-2.598
						c0.067-0.127,2.116,0.83,4.575,2.138C421.321,350.956,423.26,352.119,423.193,352.246z"/>
				</g>
			</g>
			<g>
				<g>
					<path style="fill:#EB996E;" d="M381.408,415.049c-0.144-0.009,0.017-4.603,0.359-10.259c0.342-5.659,0.736-10.238,0.879-10.229
						c0.143,0.009-0.017,4.602-0.36,10.26C381.945,410.478,381.551,415.058,381.408,415.049z"/>
				</g>
			</g>
		</g>
		<g>
			<g>
				<g>
					<path style="fill:#263238;" d="M327.986,275.725c-3.576-5.154-8.25-9.606-10.899-15.292c-1.733-3.719-2.515-7.797-3.283-11.828
						c-6.031-31.67-12.062-63.341-18.093-95.012l-95.234-10.31c-14.229,25.581-21.964,54.74-22.285,84.009
						c-0.166,15.148,0.943,32.256-9.487,43.243c-4.403,4.638-10.776,8.053-12.473,14.219c-1.449,5.265,1.079,10.863,0.41,16.283
						c-0.785,6.36-5.708,11.266-9.236,16.615c-5.059,7.669-7.469,17.051-6.734,26.208c0.354,4.403,1.759,9.233,5.592,11.428
						c2.368,1.356,5.229,1.442,7.957,1.494c59.755,1.128,120.159,2.196,178.55-10.544c2.401-11.886,4.813-23.869,4.787-35.995
						C337.533,298.119,334.897,285.689,327.986,275.725z"/>
				</g>
				<g>
					<g>
						<path style="fill:#455A64;" d="M184.156,361.689c0,0-0.098-0.127-0.266-0.39c-0.178-0.284-0.424-0.674-0.739-1.175
							c-0.635-1.042-1.485-2.634-2.405-4.766c-0.869-2.15-1.785-4.854-2.387-8.102c-0.603-3.241-0.893-7.022-0.552-11.169
							c0.399-4.13,1.403-8.646,3.475-13.09c2.021-4.449,4.948-8.814,6.807-13.933c0.455-1.279,0.812-2.607,1.063-3.969
							c0.242-1.365,0.317-2.768,0.296-4.184c-0.091-2.836-0.675-5.704-1.485-8.556c-0.798-2.859-1.781-5.728-2.612-8.7
							c-0.837-2.968-1.441-6.079-1.572-9.259c-0.262-6.377,0.989-12.52,2.424-18.292c1.466-5.784,3.096-11.291,4.227-16.639
							c2.331-10.685,3.312-20.521,3.62-28.781c0.271-8.268-0.079-14.965-0.468-19.574c-0.202-2.305-0.373-4.093-0.52-5.303
							c-0.061-0.588-0.109-1.046-0.143-1.379c-0.029-0.311-0.031-0.472-0.031-0.472s0.037,0.156,0.084,0.465
							c0.047,0.332,0.111,0.787,0.194,1.373c0.18,1.206,0.384,2.993,0.617,5.298c0.451,4.609,0.859,11.315,0.634,19.604
							c-0.262,8.28-1.207,18.147-3.519,28.87c-1.122,5.369-2.747,10.895-4.201,16.661c-1.424,5.758-2.658,11.855-2.398,18.146
							c0.199,6.316,2.558,12.108,4.156,17.845c0.811,2.871,1.403,5.783,1.491,8.679c0.019,1.447-0.061,2.885-0.312,4.282
							c-0.259,1.393-0.627,2.747-1.093,4.046c-1.904,5.194-4.849,9.548-6.867,13.953c-2.066,4.389-3.08,8.851-3.5,12.942
							c-0.362,4.108-0.1,7.861,0.472,11.084c0.57,3.229,1.452,5.926,2.288,8.077c0.886,2.133,1.704,3.733,2.308,4.79
							c0.296,0.512,0.526,0.91,0.693,1.2C184.088,361.542,184.156,361.689,184.156,361.689z"/>
					</g>
				</g>
				<g>
					<g>
						<path style="fill:#455A64;" d="M260.208,109.893c-18.159-0.585-35.765,3.528-48.715,16.272
							c-11.887,11.699-17.17,22.549-18.144,39.696c-0.333,5.875,2.192,18.831,4.575,24.211c2.383,5.38,8.969,19.018,14.501,21.024
							c5.532,2.005,8.207-7.415,12.046-11.874c2.348-2.726,3.404-6.299,4.445-9.742c4.395-14.557,9.706-29.115,18.791-41.308
							c9.086-12.193,22.477-21.878,37.598-23.48l9.666-0.224C282.635,112.523,272.185,110.279,260.208,109.893z"/>
					</g>
					<g>
						<g>
							<path style="fill:#FFBE9D;" d="M275.251,129.058l-49.357,18.46c-4.883,1.069-8.135,5.697-7.486,10.654l17.188,110.234
								c1.174,7.531,4.798,14.463,10.311,19.725l5.804,5.54c13.233,12.631,35.471,7.817,41.537-9.441
								c0.424-1.206,0.686-2.246,0.74-3.064c0.023-1.018,0.186-1.713,0.106-2.563c0.169-8.763-1.625-16.839-1.625-16.839
								c-0.979-9.898-1.43-13.952-1.413-13.861c0,0,20.467-5.772,21.774-33.454c0.649-13.767-2.487-35.874-5.638-53.879
								C304.353,144.363,291.322,125.536,275.251,129.058z"/>
						</g>
					</g>
					<g>
						<g>
							<g>
								<g>
									<g>
										<g>
											<g>
												<g>
													<g>
														<g>
															<g>
																<g>
																	<g>
																		<g>
																			<g>
																				<g>
																					<path style="fill:#263238;" d="M299.214,180.387c0.269,1.835-1.063,3.577-2.974,3.893
																						c-1.908,0.316-3.676-0.911-3.945-2.747c-0.269-1.835,1.063-3.578,2.97-3.894
																						C297.177,177.322,298.945,178.553,299.214,180.387z"/>
																				</g>
																			</g>
																		</g>
																	</g>
																</g>
															</g>
														</g>
													</g>
												</g>
											</g>
										</g>
									</g>
								</g>
								<g>
									<g>
										<g>
											<g>
												<g>
													<g>
														<g>
															<g>
																<g>
																	<g>
																		<g>
																			<g>
																				<g>
																					<g>
																						<path style="fill:#263238;" d="M304.596,172.642c-0.382,0.503-3.242-1.16-6.996-0.735
																							c-3.755,0.372-6.296,2.609-6.754,2.194c-0.223-0.181,0.128-1.051,1.23-2.058c1.085-1,3.006-2.069,5.345-2.319
																							c2.34-0.246,4.403,0.397,5.631,1.153C304.303,171.635,304.786,172.414,304.596,172.642z"/>
																					</g>
																				</g>
																			</g>
																		</g>
																	</g>
																</g>
															</g>
														</g>
													</g>
												</g>
											</g>
										</g>
									</g>
								</g>
							</g>
							<g>
								<g>
									<g>
										<g>
											<g>
												<g>
													<g>
														<g>
															<g>
																<g>
																	<g>
																		<g>
																			<g>
																				<g>
																					<path style="fill:#263238;" d="M263.779,183.758c0.27,1.835-1.063,3.576-2.974,3.893
																						c-1.908,0.315-3.676-0.912-3.945-2.747c-0.27-1.835,1.063-3.578,2.971-3.895
																						C261.743,180.693,263.511,181.923,263.779,183.758z"/>
																				</g>
																			</g>
																		</g>
																	</g>
																</g>
															</g>
														</g>
													</g>
												</g>
											</g>
										</g>
									</g>
								</g>
								<g>
									<g>
										<g>
											<g>
												<g>
													<g>
														<g>
															<g>
																<g>
																	<g>
																		<g>
																			<g>
																				<g>
																					<g>
																						<path style="fill:#263238;" d="M266.83,176.143c-0.383,0.503-3.246-1.159-6.997-0.733
																							c-3.754,0.37-6.297,2.607-6.755,2.193c-0.222-0.182,0.123-1.051,1.231-2.058
																							c1.085-1.001,3.005-2.07,5.345-2.32c2.34-0.246,4.402,0.398,5.631,1.153
																							C266.534,175.136,267.019,175.916,266.83,176.143z"/>
																					</g>
																				</g>
																			</g>
																		</g>
																	</g>
																</g>
															</g>
														</g>
													</g>
												</g>
											</g>
										</g>
									</g>
								</g>
							</g>
							<g>
								<g>
									<g>
										<g>
											<g>
												<g>
													<g>
														<g>
															<g>
																<g>
																	<g>
																		<g>
																			<g>
																				<g>
																					<path style="fill:#263238;" d="M283.54,203.763c-0.041-0.211,2.248-0.872,5.976-1.775
																						c0.947-0.205,1.834-0.496,1.923-1.168c0.149-0.718-0.366-1.706-0.955-2.771
																						c-1.159-2.22-2.371-4.548-3.644-6.986c-5.088-9.957-8.885-18.188-8.483-18.389
																						c0.403-0.202,4.855,7.706,9.943,17.663c1.231,2.458,2.409,4.8,3.529,7.043
																						c0.484,1.049,1.245,2.216,0.915,3.707c-0.179,0.745-0.825,1.343-1.421,1.577
																						c-0.594,0.255-1.132,0.325-1.603,0.406C285.936,203.697,283.577,203.975,283.54,203.763z"/>
																				</g>
																			</g>
																		</g>
																	</g>
																</g>
															</g>
														</g>
													</g>
												</g>
											</g>
										</g>
									</g>
								</g>
							</g>
							<g>
								<g>
									<g>
										<g>
											<g>
												<g>
													<g>
														<g>
															<g>
																<g>
																	<g>
																		<g>
																			<g>
																				<path style="fill:#EB996E;" d="M291.054,247.904c0,0-18.171,3.207-37.51-5.682c0,0,11.246,17.817,38.192,12.255
																					L291.054,247.904z"/>
																			</g>
																		</g>
																	</g>
																</g>
															</g>
														</g>
													</g>
												</g>
											</g>
										</g>
									</g>
								</g>
							</g>
							<g>
								<g>
									<g>
										<g>
											<g>
												<g>
													<g>
														<g>
															<g>
																<g>
																	<g>
																		<g>
																			<g>
																				<path style="fill:#EB996E;" d="M282.954,212.988c-1.548-1.636-4.022-2.354-6.343-1.841
																					c-1.61,0.356-3.169,1.324-4.012,2.76c-0.843,1.436-0.842,3.343,0.198,4.508c1.171,1.312,3.325,1.407,5.06,0.699
																					c1.736-0.708,3.147-2.058,4.481-3.395c0.369-0.37,0.745-0.755,0.949-1.229c0.204-0.473,0.193-1.062-0.16-1.396"
																					/>
																			</g>
																		</g>
																	</g>
																</g>
															</g>
														</g>
													</g>
												</g>
											</g>
										</g>
									</g>
								</g>
							</g>
							<g>
								<g>
									<g>
										<g>
											<g>
												<g>
													<g>
														<g>
															<g>
																<g>
																	<g>
																		<g>
																			<g>
																				<g>
																					<path style="fill:#263238;" d="M272.779,207.585c0.606-0.103,1.065,3.971,4.874,6.477
																						c3.803,2.516,8.096,1.577,8.191,2.143c0.086,0.25-0.88,0.899-2.707,1.152
																						c-1.792,0.261-4.482-0.026-6.812-1.559c-2.325-1.538-3.502-3.803-3.826-5.46
																						C272.155,208.652,272.497,207.592,272.779,207.585z"/>
																				</g>
																			</g>
																		</g>
																	</g>
																</g>
															</g>
														</g>
													</g>
												</g>
											</g>
										</g>
									</g>
								</g>
							</g>
						</g>
					</g>
					<g>
						<g>
							<g>
								<g>
									<g>
										<g>
											<g>
												<g>
													<g>
														<g>
															<g>
																<g>
																	<path style="fill:#263238;" d="M266.571,158.339c-0.445,0.997-4.172,0.24-8.63,0.454
																		c-4.464,0.124-8.121,1.16-8.642,0.199c-0.23-0.458,0.461-1.377,1.974-2.265c1.5-0.887,3.848-1.663,6.522-1.767
																		c2.675-0.098,5.074,0.498,6.636,1.27C266.008,157,266.766,157.864,266.571,158.339z"/>
																</g>
															</g>
														</g>
													</g>
												</g>
											</g>
										</g>
									</g>
								</g>
							</g>
						</g>
					</g>
					<g>
						<g>
							<g>
								<g>
									<g>
										<g>
											<g>
												<g>
													<g>
														<g>
															<g>
																<g>
																	<path style="fill:#263238;" d="M287.089,163.723c0.701-0.958,4.004-0.498,7.841-0.963
																		c3.849-0.357,7.001-1.508,7.865-0.718c0.385,0.389-0.014,1.308-1.324,2.301c-1.291,0.987-3.541,1.953-6.183,2.237
																		c-2.641,0.281-5.025-0.188-6.472-0.882C287.345,165.003,286.785,164.186,287.089,163.723z"/>
																</g>
															</g>
														</g>
													</g>
												</g>
											</g>
										</g>
									</g>
								</g>
							</g>
						</g>
					</g>
					<g>
						<g>
							<g>
								<g>
									<g>
										<g>
											<path style="fill:#FFBE9D;" d="M231.165,202.895c-0.23-2.025-3.1-6.542-5.136-6.632
												c-5.435-0.241-15.017,1.255-13.604,14.833c1.933,18.561,20.169,12.793,20.147,12.257
												C232.555,222.934,231.957,209.889,231.165,202.895z"/>
										</g>
									</g>
								</g>
							</g>
						</g>
					</g>
					<g>
						<g>
							<g>
								<g>
									<g>
										<g>
											<g>
												<path style="fill:#EB996E;" d="M226.17,216.911c-0.087-0.051-0.3,0.26-0.819,0.567
													c-0.508,0.299-1.407,0.563-2.413,0.301c-2.036-0.515-4.011-3.457-4.449-6.793c-0.223-1.685-0.037-3.33,0.423-4.725
													c0.425-1.416,1.204-2.457,2.174-2.734c0.958-0.33,1.719,0.188,2,0.687c0.303,0.494,0.224,0.877,0.326,0.897
													c0.056,0.042,0.366-0.352,0.137-1.102c-0.115-0.361-0.378-0.777-0.852-1.088c-0.483-0.316-1.157-0.432-1.838-0.286
													c-1.421,0.249-2.572,1.699-3.077,3.23c-0.584,1.545-0.833,3.399-0.583,5.29c0.508,3.728,2.787,7.028,5.552,7.525
													c1.34,0.204,2.389-0.303,2.906-0.799C226.183,217.363,226.238,216.938,226.17,216.911z"/>
											</g>
										</g>
									</g>
								</g>
							</g>
						</g>
					</g>
					<g>
						<path style="fill:#263238;" d="M294.972,123.807c-6.444-5.818-14.853-9.107-23.391-10.682
							c-7.359-1.357-15.076-1.455-22.354,0.142l-0.01-0.004c-16.553,0.986-36.452,25.605-39.405,41.922
							c-1.408,7.786-0.314,15.795,1.107,23.578c0.723,3.957,1.555,7.97,3.502,11.491c1.946,3.52,5.195,6.531,9.154,7.243
							c3.959,0.711,8.509-1.437,9.687-5.283c0.884-2.887-0.164-6.089,0.668-8.991c1.905-6.642,11.857-7.655,14.73-13.941
							c2.073-4.535-0.341-10.244,1.943-14.677c2.236-4.341,7.764-5.453,12.213-7.466c7.361-3.33,12.804-10.487,14.266-18.408
							c0.124-0.006,0.248-0.016,0.373-0.02c18.087-0.559,26.233,18.512,28.944,26.297C307.94,143.59,303.524,131.53,294.972,123.807
							z"/>
					</g>
				</g>
				<g>
					<g>
						<path style="fill:#455A64;" d="M220.068,134.715c0.003-0.018,0.204-0.005,0.583,0.034c0.435,0.052,0.982,0.117,1.653,0.197
							c0.715,0.1,1.593,0.205,2.615,0.294c1.021,0.099,2.181,0.233,3.471,0.302c2.573,0.21,5.648,0.294,9.059,0.291
							c3.411-0.049,7.16-0.229,11.078-0.626c3.916-0.423,7.622-1.023,10.97-1.682c3.338-0.704,6.329-1.422,8.803-2.161
							c1.247-0.335,2.355-0.706,3.333-1.015c0.982-0.299,1.818-0.583,2.497-0.829c0.64-0.217,1.162-0.395,1.576-0.536
							c0.363-0.117,0.556-0.171,0.563-0.154c0.007,0.017-0.174,0.103-0.525,0.252c-0.406,0.165-0.917,0.373-1.544,0.628
							c-0.67,0.276-1.499,0.589-2.475,0.915c-0.973,0.336-2.076,0.733-3.321,1.091c-2.469,0.787-5.463,1.545-8.811,2.278
							c-3.357,0.688-7.078,1.305-11.013,1.73c-3.936,0.399-7.703,0.566-11.129,0.589c-3.426-0.023-6.513-0.145-9.091-0.404
							c-1.292-0.093-2.454-0.253-3.475-0.38c-1.022-0.117-1.898-0.251-2.611-0.383c-0.667-0.12-1.21-0.217-1.641-0.294
							C220.26,134.78,220.065,134.733,220.068,134.715z"/>
					</g>
				</g>
				<g>
					<g>
						<path style="fill:#455A64;" d="M212.887,145.63c0.005-0.017,0.245,0.027,0.695,0.126c0.499,0.117,1.151,0.27,1.962,0.46
							c0.43,0.105,0.902,0.219,1.413,0.344c0.518,0.119,1.092,0.196,1.702,0.309c1.226,0.192,2.606,0.516,4.166,0.632
							c0.778,0.082,1.591,0.169,2.437,0.258c0.847,0.097,1.736,0.082,2.652,0.132c1.833,0.125,3.794,0.031,5.855-0.029
							c4.116-0.259,8.622-0.891,13.233-2.09c4.601-1.243,8.826-2.939,12.538-4.736c0.914-0.477,1.806-0.943,2.673-1.396
							c0.877-0.434,1.659-0.979,2.454-1.438c0.777-0.488,1.563-0.906,2.255-1.403c0.699-0.486,1.371-0.952,2.013-1.398
							c1.31-0.855,2.372-1.794,3.359-2.546c0.484-0.389,0.951-0.731,1.352-1.081c0.393-0.351,0.755-0.674,1.086-0.968
							c0.627-0.549,1.13-0.99,1.516-1.328c0.351-0.3,0.541-0.451,0.554-0.438c0.013,0.013-0.153,0.189-0.481,0.514
							c-0.37,0.357-0.852,0.823-1.453,1.403c-0.322,0.306-0.676,0.641-1.059,1.005c-0.392,0.362-0.853,0.716-1.329,1.118
							c-0.974,0.777-2.025,1.74-3.328,2.619c-0.64,0.458-1.309,0.936-2.006,1.434c-0.691,0.509-1.476,0.938-2.253,1.437
							c-0.795,0.47-1.577,1.026-2.457,1.47c-0.87,0.462-1.765,0.938-2.681,1.426c-3.727,1.834-7.981,3.557-12.619,4.81
							c-4.647,1.209-9.194,1.831-13.342,2.066c-2.078,0.048-4.053,0.126-5.898-0.019c-0.922-0.059-1.817-0.055-2.668-0.163
							c-0.85-0.102-1.667-0.2-2.449-0.294c-1.566-0.141-2.949-0.492-4.176-0.712c-0.61-0.127-1.184-0.218-1.701-0.352
							c-0.51-0.141-0.98-0.271-1.408-0.39c-0.803-0.23-1.448-0.414-1.942-0.556C213.111,145.725,212.882,145.647,212.887,145.63z"/>
					</g>
				</g>
				<g>
					<g>
						<path style="fill:#E0E0E0;" d="M229.298,228.015c0.018,0,0.03,0.087,0.038,0.257c0.019,0.172-0.005,0.421-0.061,0.744
							c-0.12,0.638-0.555,1.544-1.447,2.317c-0.878,0.773-2.214,1.397-3.78,1.465c-1.578,0.105-3.32-0.682-4.481-2.061
							c-1.174-1.374-1.679-3.184-1.412-4.736c0.237-1.558,1.043-2.783,1.853-3.606c0.831-0.822,1.675-1.277,2.279-1.501
							c0.606-0.227,0.966-0.254,0.97-0.232c0.058,0.107-1.446,0.345-2.983,1.987c-0.736,0.813-1.452,1.984-1.644,3.419
							c-0.219,1.423,0.253,3.062,1.334,4.331c1.075,1.268,2.632,1.989,4.071,1.919c1.442-0.036,2.711-0.581,3.558-1.269
							c0.86-0.686,1.313-1.496,1.486-2.085C229.256,228.372,229.242,228.013,229.298,228.015z"/>
					</g>
				</g>
				<g>
					<g>
						<path style="fill:#EB996E;" d="M274.375,203.944c0.04,0.153-1.895,0.668-3.981,1.914c-2.099,1.227-3.483,2.673-3.598,2.564
							c-0.106-0.075,1.151-1.734,3.333-3.012C272.301,204.116,274.361,203.815,274.375,203.944z"/>
					</g>
				</g>
			</g>
			<g>
				<path style="fill:#FFBE9D;" d="M222.481,271.267l12.662-4.531l57.846-2.182l19.925,5.811c0,0-25.328,32.369-47.294,30.134
					C243.654,298.264,222.481,271.267,222.481,271.267z"/>
			</g>
		</g>
		<g>
			<g>
				<path style="fill:#FF725E;" d="M346.493,284.062l-3.865,18.211l-9.302,74.413c0,0,32.698-3.876,43.163-22.479v-3.101
					C376.488,351.107,355.139,286.562,346.493,284.062z"/>
			</g>
			<g>
				<path style="fill:#FF725E;" d="M346.493,284.062l-35.258-15.895c0,0-7.364,14.728-37.594,18.991
					c-30.23,4.263-52.446-17.008-52.446-17.008s-10.862,5.416-26.365,11.229l2.072,93.369l6.201,19.378
					c0,0-5.426,27.13-7.364,35.269c-1.938,8.139,3.488,11.627,3.488,11.627l-2.713,27.007h150.764l-9.302-53.361L346.493,284.062z"
					/>
			</g>
			<g>
				<path style="fill:#FF725E;" d="M194.829,281.379c0,0-19.244,8.496-26.17,24.269c-5.899,13.433-17.491,47.396-17.491,47.396
					l48.833,23.642V310.03L194.829,281.379z"/>
			</g>
			<g>
				<g>
					<path style="fill:#263238;" d="M186.554,329.536c0.14-0.033,2.966,11.299,6.312,25.309c3.347,14.015,5.946,25.399,5.806,25.432
						c-0.14,0.033-2.965-11.297-6.312-25.311C189.013,340.957,186.414,329.57,186.554,329.536z"/>
				</g>
			</g>
			<g>
				<g>
					<path style="fill:#263238;" d="M344.946,314.758c0.009,0.001,0.012,0.088,0.009,0.257c-0.007,0.2-0.016,0.446-0.026,0.75
						c-0.037,0.7-0.088,1.663-0.152,2.883c-0.158,2.546-0.382,6.154-0.657,10.596c-0.607,8.981-1.442,21.318-2.363,34.945
						c-0.981,13.628-1.869,25.962-2.516,34.94c-0.344,4.436-0.624,8.041-0.822,10.583c-0.106,1.216-0.189,2.176-0.25,2.875
						c-0.032,0.303-0.057,0.548-0.078,0.747c-0.02,0.168-0.035,0.254-0.044,0.253c-0.009-0.001-0.012-0.088-0.009-0.257
						c0.007-0.2,0.016-0.447,0.027-0.751c0.037-0.7,0.088-1.663,0.152-2.883c0.158-2.545,0.381-6.154,0.657-10.596
						c0.607-8.98,1.442-21.318,2.363-34.949c0.981-13.622,1.869-25.954,2.515-34.932c0.344-4.437,0.624-8.042,0.822-10.584
						c0.106-1.217,0.189-2.177,0.25-2.876c0.032-0.303,0.057-0.548,0.078-0.747C344.922,314.843,344.937,314.757,344.946,314.758z"
						/>
				</g>
			</g>
			<g>
				<g>
					<path style="fill:#263238;" d="M318.992,271.484c0.007,0.006-0.054,0.084-0.178,0.232c-0.146,0.168-0.331,0.381-0.563,0.646
						c-0.518,0.546-1.201,1.433-2.247,2.414c-1.998,2.052-5.151,4.789-9.458,7.579c-1.052,0.737-2.253,1.347-3.454,2.067
						c-1.225,0.677-2.535,1.319-3.889,1.98c-2.749,1.239-5.745,2.451-9.002,3.408c-6.494,1.96-13.954,3.091-21.79,2.949
						c-7.836-0.211-15.233-1.586-21.716-3.561c-6.494-1.965-12.103-4.439-16.636-6.821c-4.538-2.38-8.049-4.595-10.407-6.217
						c-1.196-0.786-2.075-1.47-2.689-1.905c-0.283-0.21-0.509-0.379-0.687-0.512c-0.153-0.118-0.229-0.181-0.224-0.189
						c0.005-0.007,0.091,0.042,0.255,0.146c0.186,0.122,0.422,0.276,0.717,0.47c0.634,0.407,1.53,1.063,2.741,1.822
						c2.388,1.567,5.92,3.729,10.464,6.059c4.539,2.332,10.138,4.759,16.606,6.689c6.456,1.94,13.808,3.29,21.59,3.5
						c7.778,0.141,15.185-0.967,21.642-2.888c3.238-0.938,6.219-2.127,8.958-3.341c1.349-0.649,2.655-1.277,3.877-1.941
						c1.198-0.706,2.398-1.302,3.45-2.025c4.306-2.733,7.479-5.413,9.513-7.413c1.064-0.954,1.769-1.817,2.311-2.339
						c0.247-0.251,0.445-0.453,0.601-0.611C318.911,271.544,318.985,271.478,318.992,271.484z"/>
				</g>
			</g>
			<g>
				<g>
					<path style="fill:#263238;" d="M195.041,367.914c-0.012,0.034-0.62-0.159-1.708-0.537c-1.089-0.376-2.653-0.948-4.578-1.678
						c-3.85-1.46-9.128-3.584-14.877-6.12c-5.749-2.539-10.877-5.008-14.549-6.869c-1.837-0.93-3.314-1.7-4.325-2.251
						c-1.012-0.549-1.564-0.868-1.547-0.9c0.016-0.032,0.599,0.226,1.639,0.719c1.114,0.533,2.598,1.242,4.395,2.102
						c3.711,1.775,8.855,4.187,14.597,6.723c5.741,2.532,10.989,4.708,14.801,6.254c1.847,0.749,3.37,1.367,4.515,1.832
						C194.47,367.623,195.053,367.88,195.041,367.914z"/>
				</g>
			</g>
			<g>
				<g>
					<path style="fill:#263238;" d="M376.638,351.11c0.024,0.027-0.384,0.416-1.142,1.098c-0.753,0.686-1.882,1.636-3.31,2.769
						c-2.852,2.268-6.972,5.192-11.807,7.952c-4.842,2.753-9.458,4.806-12.864,6.103c-1.702,0.651-3.095,1.138-4.069,1.436
						c-0.973,0.305-1.515,0.457-1.526,0.422c-0.011-0.034,0.509-0.251,1.459-0.614c0.952-0.356,2.321-0.894,4-1.586
						c3.359-1.38,7.925-3.474,12.743-6.214c4.811-2.746,8.941-5.606,11.84-7.792c1.451-1.091,2.613-1.995,3.405-2.632
						C376.162,351.42,376.615,351.083,376.638,351.11z"/>
				</g>
			</g>
			<g>
				<g>
					<g>
						<path style="fill:#263238;" d="M306.53,384.174c-0.028,0.048-0.845-0.512-2.482-1.176c-1.637-0.639-4.147-1.302-7.304-1.289
							c-3.154-0.014-6.882,0.734-10.8,2.18c-3.923,1.436-8.08,3.455-12.507,5.415c-8.823,3.937-16.807,7.5-22.651,10.108
							c-2.868,1.252-5.207,2.274-6.889,3.009c-0.78,0.329-1.405,0.592-1.884,0.794c-0.433,0.176-0.664,0.261-0.671,0.245
							c-0.007-0.016,0.209-0.133,0.628-0.34c0.468-0.224,1.081-0.518,1.844-0.883c1.665-0.771,3.981-1.844,6.821-3.159
							c5.828-2.644,13.79-6.256,22.588-10.247c4.425-1.959,8.586-3.965,12.558-5.392c3.961-1.435,7.76-2.159,10.964-2.097
							c3.208,0.034,5.747,0.765,7.38,1.47c0.815,0.367,1.423,0.7,1.819,0.952C306.339,384.018,306.54,384.159,306.53,384.174z"/>
					</g>
				</g>
				<g style="opacity:0.3;">
					<g>
						<path d="M242.614,402.887c9.124,5.748,21.277,5.685,30.965,0.95c9.688-4.735,17.091-13.306,22.218-22.793
							C277.322,386.771,260.068,395.32,242.614,402.887z"/>
					</g>
				</g>
			</g>
			<g style="opacity:0.3;">
				<g>
					<path d="M186.965,331.993c-1.918,13.713,2.192,29.846,10.171,41.162c-2.349-13.343-6.197-28.27-10.271-41.191"/>
				</g>
			</g>
			<g>
				<g>
					<path style="fill:#FFFFFF;" d="M192.017,352.728c-0.065,0.128-7.841-3.691-17.366-8.53c-9.528-4.84-17.197-8.867-17.132-8.995
						c0.065-0.128,7.84,3.69,17.368,8.531C184.411,348.573,192.082,352.6,192.017,352.728z"/>
				</g>
			</g>
			<g>
				<g>
					<path style="fill:#FFFFFF;" d="M186.554,327.478c-0.072,0.124-4.98-2.587-10.962-6.056c-5.983-3.47-10.773-6.383-10.701-6.507
						c0.072-0.124,4.979,2.587,10.963,6.056C181.835,324.441,186.626,327.354,186.554,327.478z"/>
				</g>
			</g>
			<g>
				<g>
					<path style="fill:#FFFFFF;" d="M359.071,303.812c0,0-0.161,0.039-0.478,0.089c-0.34,0.05-0.808,0.119-1.411,0.208
						c-1.266,0.174-3.093,0.426-5.434,0.749c-2.359,0.329-5.248,0.709-8.612,1.08c-3.362,0.38-7.185,0.863-11.427,1.247
						c-2.12,0.206-4.341,0.422-6.654,0.648c-2.314,0.221-4.727,0.389-7.223,0.596c-4.99,0.436-10.333,0.741-15.953,1.094
						c-11.247,0.603-23.625,1.029-36.623,1.087c-13.003,0.018-25.387-0.334-36.638-0.871c-5.623-0.32-10.969-0.594-15.961-1
						c-2.497-0.192-4.911-0.346-7.227-0.553c-2.315-0.212-4.536-0.415-6.658-0.609c-4.244-0.359-8.07-0.82-11.434-1.18
						c-3.365-0.351-6.256-0.714-8.617-1.029c-2.343-0.309-4.17-0.549-5.437-0.716c-0.603-0.085-1.072-0.151-1.412-0.199
						c-0.318-0.048-0.479-0.086-0.479-0.086s0.166,0.002,0.486,0.033c0.342,0.036,0.813,0.085,1.419,0.148
						c1.269,0.144,3.101,0.352,5.448,0.619c2.364,0.284,5.257,0.617,8.624,0.941c3.365,0.332,7.192,0.767,11.436,1.103
						c2.121,0.183,4.343,0.375,6.657,0.575c2.315,0.197,4.728,0.34,7.225,0.523c4.991,0.388,10.334,0.645,15.954,0.952
						c11.245,0.511,23.62,0.848,36.613,0.83c12.989-0.058,25.358-0.469,36.599-1.045c5.617-0.34,10.958-0.628,15.946-1.046
						c2.495-0.198,4.907-0.356,7.221-0.566c2.313-0.214,4.534-0.418,6.653-0.614c4.242-0.361,8.066-0.818,11.43-1.17
						c3.365-0.343,6.257-0.694,8.619-0.992c2.346-0.281,4.176-0.5,5.445-0.651c0.606-0.067,1.077-0.119,1.418-0.157
						C358.906,303.815,359.071,303.812,359.071,303.812z"/>
				</g>
			</g>
			<g>
				<g>
					<path style="fill:#FFFFFF;" d="M341.699,343.535c0,0.144-33.693,0.26-75.245,0.26c-41.567,0-75.252-0.117-75.252-0.26
						c0-0.144,33.685-0.26,75.252-0.26C308.007,343.275,341.699,343.392,341.699,343.535z"/>
				</g>
			</g>
			<g>
				<g>
					<path style="fill:#FFFFFF;" d="M285.226,382.286c0,0.144-18.83,0.26-42.053,0.26c-23.231,0-42.057-0.117-42.057-0.26
						s18.826-0.26,42.057-0.26C266.395,382.026,285.226,382.142,285.226,382.286z"/>
				</g>
			</g>
			<g>
				<g>
					<path style="fill:#FFFFFF;" d="M340.068,382.586c0,0.144-7.772,0.26-17.357,0.26c-9.589,0-17.359-0.117-17.359-0.26
						c0-0.144,7.771-0.26,17.359-0.26C332.296,382.326,340.068,382.443,340.068,382.586z"/>
				</g>
			</g>
			<g>
				<g>
					<path style="fill:#FFFFFF;" d="M337.794,415.029c0,0.144-30.935,0.26-69.087,0.26c-38.165,0-69.094-0.117-69.094-0.26
						s30.929-0.26,69.094-0.26C306.859,414.768,337.794,414.885,337.794,415.029z"/>
				</g>
			</g>
			<g>
				<g>
					<path style="fill:#FFFFFF;" d="M343.802,453.479c0,0.144-32.146,0.26-71.79,0.26c-39.659,0-71.797-0.117-71.797-0.26
						c0-0.144,32.139-0.26,71.797-0.26C311.656,453.219,343.802,453.335,343.802,453.479z"/>
				</g>
			</g>
			<g>
				<g>
					<path style="fill:#FFFFFF;" d="M364.836,322.297c0.022,0.028-0.246,0.282-0.752,0.717c-0.505,0.436-1.25,1.047-2.183,1.788
						c-1.866,1.482-4.493,3.468-7.471,5.555c-2.979,2.087-5.743,3.879-7.773,5.127c-1.015,0.624-1.844,1.116-2.426,1.442
						c-0.581,0.327-0.911,0.493-0.93,0.462c-0.019-0.031,0.275-0.255,0.823-0.634c0.647-0.438,1.425-0.965,2.334-1.58
						c1.976-1.325,4.7-3.162,7.673-5.244c2.971-2.083,5.627-4.016,7.547-5.422c0.889-0.645,1.649-1.196,2.282-1.655
						C364.503,322.469,364.814,322.269,364.836,322.297z"/>
				</g>
			</g>
			<g>
				<g>
					<path style="fill:#FFFFFF;" d="M374.59,342.114c0.021,0.03-0.403,0.362-1.186,0.938c-0.782,0.578-1.931,1.39-3.363,2.376
						c-2.863,1.972-6.877,4.613-11.403,7.381c-4.529,2.766-8.711,5.133-11.772,6.781c-1.53,0.825-2.777,1.476-3.648,1.908
						c-0.87,0.434-1.359,0.659-1.376,0.628c-0.017-0.032,0.439-0.317,1.279-0.806c0.924-0.532,2.123-1.222,3.565-2.052
						c3.012-1.728,7.158-4.142,11.68-6.904c4.519-2.763,8.558-5.351,11.47-7.242c1.396-0.905,2.557-1.657,3.453-2.237
						C374.108,342.361,374.57,342.084,374.59,342.114z"/>
				</g>
			</g>
		</g>
		<g>
			<g>
				<path style="fill:#FFBE9D;" d="M159.136,356.902l-12.231,51.565l-24.804-51.159H96.134c0,0,10.692,54.761,30.264,85.767
					c15.072,23.876,28.808,24.604,37.722,21.238c8.914-3.365,17.667-15.873,25.806-45.742c4.732-17.367,7.708-30.481,8.745-38.295
					c0.185-1.398-1.769-5.528-1.769-5.528L159.136,356.902z"/>
			</g>
			<g>
				<path style="fill:#EB996E;" d="M158.535,322.459c0,0,10.124-0.759,10.124,4.462c0,5.221-14.206,5.861-14.206,5.861l-2.047-7.314
					L158.535,322.459z"/>
			</g>
			<g>
				<path style="fill:#FFBE9D;" d="M96.134,357.308c0,0,0-14.728,4.651-20.929c3.754-5.005,24.107-20.715,31.818-26.588
					c1.899-1.447,4.267-2.128,6.645-1.915l41.672,3.782c0,0,0.775,5.426-3.101,6.201c-3.876,0.775-20.062,0.692-20.062,0.692
					s1.659,6.512,0.868,9.274s-4.356,4.484-4.356,4.484s2.18,3.838-4.409,8.488c0,0,0.538,7.793-6.831,7.983
					c-3.508,0.09-6.976-0.388-6.976-0.388s-12.015,8.527-13.952,8.914C120.163,357.695,96.134,357.308,96.134,357.308z"/>
			</g>
			<g>
				<g>
					<path style="fill:#EB996E;" d="M110.96,359.933c-0.031-0.141,2.418-0.805,5.469-1.483c3.053-0.679,5.552-1.115,5.583-0.975
						c0.031,0.14-2.417,0.804-5.47,1.483C113.491,359.637,110.992,360.073,110.96,359.933z"/>
				</g>
			</g>
			<g>
				<g>
					<path style="fill:#EB996E;" d="M139.725,334.563c0.061-0.124,2.508,0.98,5.305,2.742c2.801,1.755,4.858,3.481,4.773,3.59
						c-0.091,0.12-2.271-1.408-5.05-3.149C141.979,335.998,139.656,334.696,139.725,334.563z"/>
				</g>
			</g>
			<g>
				<g>
					<path style="fill:#EB996E;" d="M154.454,331.973c-0.107,0.115-2.111-1.708-4.909-3.494c-2.789-1.802-5.28-2.865-5.22-3.01
						c0.04-0.124,2.661,0.738,5.502,2.572C152.675,329.86,154.55,331.885,154.454,331.973z"/>
				</g>
			</g>
			<g>
				<g>
					<path style="fill:#EB996E;" d="M147.073,316.532c0.026-0.142,2.435,0.179,5.381,0.715c2.947,0.536,5.313,1.086,5.288,1.228
						c-0.026,0.141-2.435-0.179-5.381-0.715C149.415,317.223,147.047,316.673,147.073,316.532z"/>
				</g>
			</g>
			<g>
				<g>
					<path style="fill:#EB996E;" d="M157.741,425.071c-0.12,0.08-2.761-3.658-5.899-8.348c-3.139-4.691-5.587-8.558-5.467-8.638
						c0.12-0.08,2.76,3.657,5.9,8.348C155.413,421.124,157.861,424.991,157.741,425.071z"/>
				</g>
			</g>
		</g>
	</g>
</g>
<g id="Speech_Bubble">
	<g>
		<g>
			<path style="fill:#FFFFFF;" d="M143.99,190.777c0,25.677-20.815,46.492-46.492,46.492s-46.492-20.815-46.492-46.492
				s20.815-47.164,46.492-47.164S143.99,165.1,143.99,190.777z"/>
		</g>
		<g>
			<g>
				<g>
					<g>
						<g>
							<g>
								<path style="fill:#455A64;" d="M89.205,185.982h2.974l6.491-9.047v-3.922c0-1.23,1.466-1.895,2.371-1.062
									c1.027,0.945,1.944,2.82,1.685,6.539c-0.542,7.775,0.044,5.795,0.044,5.795s9.762,0.038,10.574,0.886
									c0.59,0.616,0.857,10.313,0.959,15.573c0.051,2.648-1.573,5.11-4.035,5.736c-0.35,0.09-0.703,0.141-1.051,0.141
									c-2.435,0-14.876-1.98-14.876-1.98h-5.138V185.982z"/>
							</g>
						</g>
					</g>
				</g>
				<g>
					<g>
						<g>
							<g>
								<polygon style="fill:#455A64;" points="80.69,184.352 80.69,205.015 87.613,204.697 87.613,184.762 								"/>
							</g>
						</g>
					</g>
				</g>
			</g>
		</g>
	</g>
	<g>
		<g>
			<g>
				<g>
					<g>
						<g>
							<g>
								<g>
									<path style="fill:#263238;" d="M155.722,202.693c0.026,0.041-0.435,0.265-1.067,0.895c-0.626,0.619-1.395,1.733-1.665,3.3
										c-0.128,0.776-0.131,1.66,0.122,2.546c0.259,0.879,0.77,1.757,1.559,2.43c1.524,1.358,4.101,2.011,6.273,0.977
										c2.154-1.075,3.227-3.507,3.096-5.545c-0.044-1.036-0.421-1.979-0.953-2.725c-0.542-0.745-1.241-1.287-1.931-1.665
										c-1.401-0.752-2.753-0.832-3.625-0.721c-0.886,0.111-1.346,0.335-1.362,0.29c-0.006-0.013,0.105-0.071,0.326-0.168
										c0.109-0.053,0.248-0.105,0.419-0.15c0.168-0.053,0.365-0.108,0.593-0.139c0.893-0.166,2.303-0.136,3.792,0.617
										c0.734,0.378,1.484,0.935,2.077,1.723c0.584,0.787,1.005,1.805,1.063,2.914c0.08,1.102-0.155,2.285-0.711,3.351
										c-0.539,1.074-1.44,2.029-2.594,2.609c-1.167,0.551-2.474,0.672-3.652,0.436c-1.182-0.219-2.258-0.762-3.077-1.504
										c-0.838-0.729-1.38-1.686-1.641-2.632c-0.255-0.952-0.231-1.886-0.077-2.697c0.324-1.637,1.169-2.767,1.85-3.367
										c0.165-0.16,0.329-0.281,0.475-0.381c0.141-0.107,0.267-0.185,0.376-0.238C155.602,202.732,155.715,202.68,155.722,202.693
										z"/>
								</g>
							</g>
						</g>
					</g>
				</g>
			</g>
			<g>
				<g>
					<g>
						<g>
							<g>
								<g>
									<g>
										<path style="fill:#263238;" d="M141.952,175.963c0,0-0.106-0.235-0.293-0.7c-0.188-0.476-0.461-1.166-0.818-2.067
											c-0.178-0.455-0.378-0.964-0.597-1.524c-0.245-0.55-0.567-1.127-0.885-1.765c-0.325-0.636-0.674-1.32-1.048-2.051
											c-0.174-0.373-0.395-0.735-0.639-1.098c-0.237-0.368-0.48-0.746-0.731-1.136c-1.902-3.179-4.832-6.712-8.771-10.186
											c-3.953-3.449-9.102-6.72-15.365-8.878c-0.784-0.263-1.577-0.53-2.38-0.8c-0.816-0.221-1.657-0.393-2.498-0.595
											c-0.422-0.098-0.845-0.196-1.272-0.295c-0.425-0.103-0.853-0.206-1.295-0.247c-0.877-0.116-1.763-0.233-2.658-0.35
											c-0.448-0.056-0.897-0.125-1.35-0.172c-0.456-0.015-0.913-0.03-1.374-0.046c-0.92-0.031-1.849-0.061-2.786-0.093
											c-0.937-0.003-1.881,0.106-2.835,0.155c-0.477,0.031-0.955,0.063-1.436,0.095c-0.24,0.019-0.482,0.024-0.722,0.055
											l-0.717,0.12c-1.914,0.339-3.885,0.566-5.804,1.183c-0.964,0.279-1.956,0.5-2.919,0.832
											c-0.952,0.367-1.911,0.736-2.877,1.109c-0.479,0.195-0.976,0.354-1.446,0.579c-0.465,0.236-0.932,0.472-1.4,0.709
											c-0.931,0.485-1.894,0.928-2.817,1.457c-1.778,1.17-3.67,2.228-5.33,3.66c-0.429,0.338-0.859,0.678-1.291,1.018
											c-0.214,0.172-0.436,0.336-0.644,0.516l-0.597,0.574c-0.797,0.767-1.599,1.538-2.405,2.313
											c-0.768,0.812-1.47,1.695-2.215,2.545c-0.358,0.438-0.76,0.843-1.084,1.311l-0.982,1.401
											c-1.393,1.822-2.46,3.879-3.619,5.904c-0.477,1.065-0.956,2.135-1.437,3.21l-0.361,0.807
											c-0.104,0.276-0.191,0.559-0.288,0.838l-0.569,1.686l-0.571,1.693l-0.414,1.746l-0.409,1.755l-0.205,0.88
											c-0.051,0.297-0.083,0.598-0.125,0.897c-0.16,1.198-0.319,2.401-0.48,3.609c-0.042,1.217-0.085,2.44-0.128,3.666
											c0.012,4.909,0.779,9.875,2.286,14.692c1.634,4.776,3.952,9.237,6.847,13.203c0.76,0.964,1.517,1.925,2.272,2.882
											c0.844,0.879,1.685,1.754,2.523,2.626l0.631,0.65l0.687,0.588l1.369,1.173l1.366,1.163l1.462,1.027l1.456,1.023
											l0.728,0.506l0.769,0.437c1.024,0.582,2.044,1.162,3.058,1.739c2.133,0.947,4.21,1.975,6.412,2.62l1.621,0.548
											c0.538,0.186,1.102,0.274,1.649,0.416c1.104,0.245,2.193,0.542,3.292,0.742c1.109,0.148,2.212,0.296,3.308,0.442
											l0.821,0.11c0.275,0.022,0.55,0.022,0.825,0.035c0.549,0.019,1.097,0.038,1.643,0.057
											c2.185,0.173,4.337-0.093,6.463-0.202c1.057-0.12,2.096-0.332,3.133-0.492c0.518-0.086,1.035-0.171,1.549-0.257
											c0.512-0.096,1.007-0.262,1.509-0.389c0.999-0.271,1.991-0.541,2.976-0.808c0.973-0.303,1.904-0.711,2.846-1.056
											c1.912-0.639,3.636-1.622,5.38-2.481l0.65-0.327c0.211-0.118,0.41-0.256,0.614-0.383c0.406-0.259,0.811-0.517,1.214-0.773
											c0.797-0.525,1.623-0.995,2.377-1.552c0.738-0.58,1.468-1.154,2.192-1.723c0.362-0.284,0.722-0.567,1.08-0.849
											c0.33-0.314,0.659-0.626,0.986-0.937c0.652-0.625,1.297-1.243,1.935-1.855c0.332-0.294,0.615-0.631,0.898-0.965
											c0.285-0.332,0.569-0.662,0.85-0.99c0.559-0.661,1.135-1.296,1.662-1.958c0.488-0.692,0.969-1.376,1.446-2.053
											c3.773-5.445,5.988-11.128,7.135-16.248c0.147-0.641,0.308-1.267,0.437-1.888c0.085-0.629,0.169-1.246,0.251-1.852
											c0.082-0.606,0.163-1.2,0.242-1.782c0.035-0.292,0.089-0.579,0.107-0.865c0.011-0.288,0.021-0.572,0.032-0.854
											c0.042-1.126,0.082-2.204,0.12-3.231c0.01-1.027-0.104-2.003-0.144-2.928c-0.028-0.462-0.056-0.912-0.083-1.348
											c-0.017-0.438-0.053-0.86-0.134-1.263c-0.131-0.811-0.254-1.569-0.369-2.274c-0.121-0.703-0.203-1.358-0.33-1.946
											c-0.154-0.581-0.295-1.109-0.42-1.582c-0.246-0.937-0.434-1.654-0.564-2.15
											C142.005,176.216,141.952,175.963,141.952,175.963s0.082,0.243,0.22,0.724c0.139,0.493,0.342,1.208,0.606,2.141
											c0.132,0.472,0.279,0.999,0.441,1.58c0.135,0.588,0.223,1.244,0.352,1.947c0.121,0.706,0.251,1.466,0.389,2.277
											c0.085,0.405,0.124,0.828,0.145,1.267c0.03,0.438,0.061,0.889,0.093,1.352c0.047,0.928,0.167,1.907,0.163,2.938
											c-0.033,1.032-0.066,2.115-0.102,3.246c-0.009,0.283-0.018,0.569-0.027,0.858c-0.017,0.288-0.069,0.577-0.103,0.87
											c-0.077,0.585-0.155,1.183-0.234,1.792c-0.08,0.609-0.161,1.23-0.244,1.862c-0.127,0.624-0.285,1.255-0.43,1.9
											c-1.13,5.151-3.337,10.876-7.118,16.368c-0.478,0.682-0.961,1.372-1.45,2.071c-0.529,0.667-1.106,1.309-1.667,1.976
											c-0.283,0.331-0.568,0.664-0.854,0.999c-0.284,0.337-0.568,0.677-0.902,0.974c-0.642,0.618-1.29,1.242-1.944,1.873
											c-0.329,0.313-0.653,0.637-0.991,0.946c-0.36,0.285-0.723,0.571-1.086,0.858c-0.728,0.575-1.463,1.155-2.205,1.741
											c-0.758,0.563-1.589,1.039-2.391,1.57c-0.406,0.259-0.813,0.52-1.222,0.782c-0.206,0.128-0.406,0.268-0.618,0.387
											l-0.654,0.331c-1.755,0.869-3.492,1.863-5.417,2.511c-0.949,0.35-1.887,0.762-2.867,1.069
											c-0.992,0.271-1.992,0.544-2.999,0.82c-0.505,0.128-1.004,0.296-1.521,0.394c-0.519,0.087-1.039,0.174-1.561,0.262
											c-1.046,0.163-2.093,0.378-3.159,0.5c-2.143,0.114-4.313,0.384-6.518,0.213c-0.551-0.019-1.103-0.037-1.657-0.056
											c-0.277-0.012-0.555-0.013-0.832-0.034l-0.828-0.11c-1.106-0.147-2.218-0.294-3.338-0.443
											c-1.109-0.201-2.208-0.498-3.322-0.745c-0.552-0.142-1.121-0.231-1.664-0.418l-1.636-0.551
											c-2.221-0.649-4.319-1.683-6.471-2.638c-1.024-0.581-2.053-1.165-3.087-1.752l-0.776-0.441l-0.735-0.51l-1.47-1.031
											l-1.476-1.036l-1.38-1.173l-1.382-1.183l-0.693-0.594l-0.637-0.656c-0.846-0.88-1.695-1.763-2.547-2.65
											c-0.762-0.966-1.527-1.935-2.294-2.908c-2.923-4.002-5.264-8.505-6.912-13.325c-1.521-4.86-2.295-9.874-2.305-14.828
											c0.044-1.238,0.087-2.472,0.13-3.701c0.163-1.219,0.325-2.433,0.486-3.642c0.043-0.302,0.075-0.605,0.126-0.905
											l0.207-0.888l0.414-1.771l0.419-1.761l0.577-1.708l0.575-1.701c0.098-0.282,0.187-0.567,0.291-0.846l0.365-0.814
											c0.486-1.085,0.97-2.164,1.452-3.238c1.171-2.042,2.25-4.116,3.656-5.953l0.993-1.412c0.327-0.471,0.733-0.88,1.094-1.321
											c0.752-0.858,1.462-1.747,2.237-2.565c0.814-0.782,1.624-1.559,2.429-2.331l0.603-0.578c0.21-0.181,0.434-0.346,0.65-0.52
											c0.436-0.343,0.87-0.685,1.303-1.025c1.676-1.441,3.585-2.507,5.38-3.683c0.931-0.532,1.903-0.977,2.842-1.465
											c0.473-0.238,0.944-0.476,1.413-0.713c0.474-0.226,0.975-0.387,1.459-0.582c0.975-0.374,1.942-0.744,2.902-1.113
											c0.972-0.333,1.971-0.555,2.944-0.834c1.935-0.617,3.923-0.844,5.852-1.181l0.723-0.12
											c0.242-0.03,0.486-0.035,0.728-0.054c0.485-0.031,0.967-0.062,1.447-0.093c0.961-0.047,1.912-0.154,2.856-0.15
											c0.945,0.034,1.88,0.067,2.807,0.1c0.463,0.016,0.925,0.033,1.383,0.049c0.456,0.048,0.908,0.118,1.359,0.176
											c0.901,0.121,1.793,0.241,2.676,0.36c0.444,0.043,0.875,0.147,1.303,0.252c0.429,0.101,0.856,0.201,1.28,0.301
											c0.847,0.206,1.692,0.382,2.513,0.607c0.807,0.274,1.605,0.544,2.394,0.812c6.298,2.191,11.465,5.501,15.424,8.985
											c3.945,3.509,6.868,7.075,8.755,10.279c0.249,0.393,0.49,0.774,0.725,1.145c0.243,0.366,0.462,0.731,0.633,1.107
											c0.368,0.737,0.713,1.426,1.033,2.067c0.313,0.643,0.63,1.225,0.869,1.778c0.213,0.564,0.406,1.076,0.579,1.535
											c0.339,0.909,0.599,1.605,0.778,2.085C141.874,175.719,141.952,175.963,141.952,175.963z"/>
									</g>
								</g>
							</g>
						</g>
					</g>
				</g>
			</g>
		</g>
	</g>
</g>
<g id="Table">
	<g>
		<g>
			<path style="fill:#263238;" d="M464.319,468.029c0,0.144-95.961,0.26-214.308,0.26c-118.388,0-214.329-0.117-214.329-0.26
				s95.941-0.26,214.329-0.26C368.357,467.769,464.319,467.885,464.319,468.029z"/>
		</g>
	</g>
</g>
</svg>
