<?xml version="1.0" encoding="utf-8"?>
<!-- Generator: Adobe Illustrator 27.5.0, SVG Export Plug-In . SVG Version: 6.00 Build 0)  -->
<svg version="1.1" xmlns="http://www.w3.org/2000/svg" xmlns:xlink="http://www.w3.org/1999/xlink" x="0px" y="0px"
	 viewBox="0 0 750 500" style="enable-background:new 0 0 750 500;" xml:space="preserve">
<g id="Background_Complete">
	<g>
		<g>
			<g>
				<g>
					<path style="fill:#E0E0E0;" d="M103.146,336.385c-0.016,3.559-2.914,6.43-6.473,6.414c-3.558-0.017-6.43-2.915-6.413-6.473
						c0.016-3.558,2.914-6.43,6.473-6.414C100.291,329.929,103.162,332.827,103.146,336.385z"/>
				</g>
				<g>
					<g>
						<path style="fill:#E0E0E0;" d="M83.825,328.103c7.076-7.43,18.576-7.656,25.834-0.341c3.289,3.315,8.439-1.784,5.148-5.101
							c-9.957-10.036-26.303-9.977-36.084,0.293C75.508,326.331,80.6,331.489,83.825,328.103L83.825,328.103z"/>
					</g>
				</g>
				<g>
					<g>
						<path style="fill:#E0E0E0;" d="M61.939,298.11c9.798-8.471,21.495-13.802,34.593-13.834
							c12.982-0.032,25.783,4.576,35.291,13.505c3.397,3.19,8.557-1.9,5.148-5.101c-10.891-10.229-25.498-15.689-40.406-15.652
							c-15.072,0.037-28.467,6.198-39.727,15.933C53.303,296.018,58.423,301.15,61.939,298.11L61.939,298.11z"/>
					</g>
				</g>
				<g>
					<g>
						<path style="fill:#E0E0E0;" d="M70.576,314.732c6.569-7.101,15.774-11.548,25.503-11.77
							c9.994-0.228,19.643,3.888,26.59,11.026c3.259,3.347,8.406-1.755,5.149-5.101c-8.222-8.447-19.872-13.443-31.706-13.173
							c-11.573,0.264-22.787,5.383-30.638,13.869C62.312,313.002,67.4,318.164,70.576,314.732L70.576,314.732z"/>
					</g>
				</g>
			</g>
		</g>
	</g>
	<g>
		<g>
			<g>
				<polygon style="fill:#E0E0E0;" points="697.513,48.29 697.513,164.635 530.411,164.635 524.39,49.104 				"/>
			</g>
		</g>
		<g>
			<g>
				
					<rect x="550.298" y="23.195" transform="matrix(6.123234e-17 -1 1 6.123234e-17 501.1949 714.688)" style="fill:#FFFFFF;" width="115.286" height="167.102"/>
			</g>
			<g>
				<path style="fill:#E0E0E0;" d="M692.286,165.182H523.598V48.311h168.688V165.182z M525.183,163.597H690.7V49.896H525.183
					V163.597z"/>
			</g>
		</g>
		<g>
			<g>
				<g>
					<rect x="542.489" y="63.427" style="fill:#FFFFFF;" width="130.906" height="86.639"/>
				</g>
			</g>
			<g>
				<g>
					<g>
						<path style="fill:#E0E0E0;" d="M673.394,63.427c0,0-0.225,0.015-0.646,0.022c-0.443,0.005-1.059,0.013-1.861,0.022
							c-1.659,0.011-4.067,0.026-7.189,0.046c-6.288,0.024-15.43,0.058-26.976,0.102c-23.085,0.046-55.761,0.11-94.233,0.186
							l0.379-0.378c0.01,26.471,0.022,55.801,0.034,86.629v0.01l-0.413-0.413c49.381,0.031,94.909,0.061,130.905,0.084l-0.329,0.329
							c0.072-26.366,0.132-47.984,0.173-63.037c0.036-7.524,0.065-13.402,0.084-17.432c0.016-1.991,0.028-3.519,0.037-4.58
							C673.371,63.978,673.394,63.427,673.394,63.427s0.024,0.504,0.036,1.52c0.008,1.047,0.021,2.555,0.037,4.519
							c0.019,4.012,0.047,9.866,0.084,17.358c0.041,15.103,0.1,36.79,0.173,63.242l0.001,0.329l-0.33,0
							c-35.996,0.023-81.524,0.052-130.905,0.084l-0.413,0v-0.413v-0.01c0.012-30.828,0.024-60.158,0.034-86.629l0-0.38l0.379,0.001
							c38.574,0.076,71.336,0.141,94.482,0.186c11.509,0.044,20.623,0.078,26.89,0.102c3.09,0.02,5.472,0.035,7.113,0.046
							c0.784,0.01,1.385,0.017,1.819,0.022C673.199,63.412,673.394,63.427,673.394,63.427z"/>
					</g>
				</g>
			</g>
		</g>
		<g>
			<g>
				<g>
					<path style="fill:#E0E0E0;" d="M524.39,48.78c0.07-0.09,1.163,0.627,2.873,1.861c1.709,1.235,4.037,2.985,6.551,4.996
						c2.514,2.013,4.725,3.916,6.281,5.341c1.557,1.426,2.467,2.365,2.393,2.449c-0.155,0.175-4.173-3.138-9.191-7.145
						C528.277,52.279,524.243,48.968,524.39,48.78z"/>
				</g>
			</g>
		</g>
		<g>
			<g>
				<g>
					<path style="fill:#E0E0E0;" d="M691.492,49.104c0.142,0.179-3.795,3.53-8.792,7.485c-4.999,3.956-9.164,7.017-9.306,6.838
						c-0.141-0.179,3.795-3.53,8.793-7.486C687.185,51.987,691.351,48.925,691.492,49.104z"/>
				</g>
			</g>
		</g>
		<g>
			<g>
				<g>
					<path style="fill:#FFFFFF;" d="M691.36,164.406c-6.21-5.034-12.421-10.067-18.631-15.101"/>
				</g>
			</g>
			<g>
				<g>
					<g>
						<path style="fill:#E0E0E0;" d="M672.729,149.306c0.144-0.177,4.431,3.06,9.575,7.229c5.146,4.171,9.2,7.694,9.056,7.871
							c-0.143,0.177-4.43-3.059-9.576-7.23C676.64,153.007,672.586,149.483,672.729,149.306z"/>
					</g>
				</g>
			</g>
		</g>
		<g>
			<g>
				<g>
					<path style="fill:#E0E0E0;" d="M524.39,164.39c-0.141-0.179,3.754-3.496,8.7-7.407c4.948-3.913,9.072-6.939,9.213-6.76
						c0.141,0.179-3.753,3.495-8.701,7.408C528.657,161.542,524.532,164.568,524.39,164.39z"/>
				</g>
			</g>
		</g>
		<g>
			<g>
				
					<rect x="595.747" y="63.741" transform="matrix(6.123234e-17 -1 1 6.123234e-17 505.3266 715.177)" style="fill:#E0E0E0;" width="29.01" height="82.368"/>
			</g>
		</g>
	</g>
	<g>
		<g>
			<g>
				<g>
					<g>
						<path style="fill:#EBEBEB;" d="M660.597,346.856c5.884-3.036,12.814-3.431,19.347-2.351c3.51,0.58,7.169,1.63,9.557,4.267
							c2.388,2.637,2.841,7.276,0.099,9.541c-1.633,1.348-3.909,1.553-6.026,1.529c-5.114-0.06-10.789-0.96-14.875,2.117
							c-2.331,1.756-3.883,4.674-6.67,5.537c-2.727,0.845-5.804-0.764-7.25-3.225c-1.446-2.461-1.494-5.537-0.82-8.311
							C653.96,355.96,654.669,349.914,660.597,346.856z"/>
					</g>
				</g>
			</g>
			<g>
				<g>
					<g>
						<path style="fill:#EBEBEB;" d="M647.115,320.83c3.599,5.139,10.592,3.438,13.835,0.301c3.243-3.137,4.613-7.683,5.861-12.019
							c2.85-9.906,5.724-20.298,3.605-30.386c-0.634-3.016-1.761-6.023-3.881-8.261c-2.119-2.237-5.378-3.569-8.357-2.781
							c-3.526,0.931-5.718,4.385-7.302,7.671c-4.656,9.657-7.121,20.363-7.158,31.084
							C643.701,311.446,644.291,316.697,647.115,320.83"/>
					</g>
				</g>
			</g>
			<g>
				<g>
					<g>
						<path style="fill:#EBEBEB;" d="M637.234,328.204c3.907-4.637,4.648-11.4,2.91-17.208c-1.739-5.809-5.666-10.75-10.192-14.785
							c-5.307-4.73-11.545-8.411-18.251-10.769c-2.639-0.928-5.423-1.66-8.208-1.395c-2.785,0.266-5.59,1.69-6.888,4.168
							c-1.921,3.663-0.079,8.107,1.913,11.732c3.509,6.387,7.521,12.497,11.988,18.255c3.593,4.632,7.709,9.202,13.185,11.295
							c5.476,2.093,11.164,1.847,14.067-1.951"/>
					</g>
				</g>
			</g>
			<g>
				<g>
					<g>
						<g>
							<path style="fill:#E0E0E0;" d="M646.872,398.355c0.067,0.004,0.177-0.829,0.326-2.335c0.165-1.7,0.373-3.834,0.62-6.373
								c0.297-2.682,0.689-5.873,1.434-9.348c0.742-3.466,1.905-7.223,3.398-11.033c1.546-3.788,3.431-7.23,5.634-9.983
								c2.187-2.766,4.731-4.767,7.123-5.922c2.383-1.177,4.521-1.655,5.998-1.868c1.49-0.153,2.324-0.27,2.325-0.337
								c0.001-0.067-0.835-0.077-2.366-0.036c-1.516,0.101-3.743,0.485-6.255,1.628c-2.52,1.118-5.219,3.15-7.513,5.973
								c-2.313,2.811-4.267,6.329-5.84,10.184c-1.519,3.877-2.664,7.672-3.373,11.214c-0.707,3.536-1.031,6.762-1.243,9.466
								c-0.202,2.706-0.279,4.898-0.316,6.413C646.789,397.512,646.806,398.351,646.872,398.355z"/>
						</g>
					</g>
				</g>
			</g>
			<g>
				<g>
					<g>
						<g>
							<path style="fill:#E0E0E0;" d="M647.311,393.451c0.033-0.002,0.054-0.375,0.063-1.084c-0.002-0.814-0.005-1.84-0.008-3.099
								c-0.008-2.689-0.006-6.581,0.138-11.386c0.238-9.611,1.065-19.954,2.664-34.537c1.513-13.712,3.545-29.67,5.689-40.046
								c0.46-2.36,0.923-4.483,1.359-6.342c0.416-1.864,0.771-3.47,1.113-4.77c0.294-1.224,0.534-2.221,0.724-3.012
								c0.155-0.692,0.221-1.06,0.189-1.069c-0.032-0.009-0.161,0.341-0.377,1.016c-0.236,0.78-0.534,1.763-0.899,2.969
								c-0.399,1.288-0.808,2.884-1.275,4.74c-0.487,1.852-0.997,3.97-1.501,6.326c-2.121,9.401-4.367,22.541-5.981,37.158
								c-1.602,14.613-2.323,27.918-2.387,37.554c-0.057,4.818,0.045,8.717,0.168,11.408c0.077,1.258,0.14,2.283,0.189,3.097
								C647.233,393.082,647.278,393.453,647.311,393.451z"/>
						</g>
					</g>
				</g>
			</g>
			<g>
				<g>
					<g>
						<g>
							<path style="fill:#E0E0E0;" d="M647.375,367.788c0.067-0.002,0.055-1.152-0.023-3.237c-0.119-2.08-0.405-5.087-0.991-8.77
								c-0.621-3.674-1.489-8.037-2.852-12.777c-0.591-2.167-1.979-7.36-5.343-15.119c-4.432-10.513-10.453-19.109-15.691-24.432
								c-1.229-1.413-2.597-2.432-3.691-3.431c-0.566-0.479-1.067-0.956-1.577-1.335c-0.513-0.353-0.99-0.682-1.432-0.987
								c-1.724-1.179-2.689-1.801-2.725-1.745c-0.155,0.21,3.861,2.574,8.932,7.969c5.05,5.383,10.903,13.919,15.299,24.344
								c2.451,5.654,4.161,10.698,5.373,14.98c1.401,4.694,2.332,9.013,3.035,12.65c0.668,3.646,1.055,6.622,1.289,8.683
								C647.171,366.646,647.309,367.791,647.375,367.788z"/>
						</g>
					</g>
				</g>
			</g>
		</g>
		<g>
			<g>
				<g>
					<polygon style="fill:#E0E0E0;" points="622.571,413.057 625.142,448.287 670.401,448.287 672.972,413.057 					"/>
				</g>
			</g>
		</g>
		<g>
			<g>
				<g>
					<rect x="618.199" y="399.171" style="fill:#E0E0E0;" width="60.173" height="13.886"/>
				</g>
			</g>
		</g>
		<g>
			<g>
				<g>
					<polygon style="fill:#EBEBEB;" points="618.199,446.939 618.199,450.788 621.027,450.788 677.378,450.788 677.378,446.939 
											"/>
				</g>
			</g>
		</g>
		<g>
			<g>
				<g>
					<polygon style="fill:#E0E0E0;" points="623.798,457.562 621.027,450.788 675.223,450.788 671.989,457.562 					"/>
				</g>
			</g>
		</g>
		<g>
			<g>
				<g>
					<g>
						<path style="fill:#F5F5F5;" d="M672.132,424.571c0.01,0.008-0.062,0.118-0.211,0.324c-0.18,0.238-0.402,0.534-0.676,0.897
							c-0.643,0.822-1.526,1.953-2.637,3.374l-0.117,0.15l-0.114-0.157c-1.657-2.292-3.871-5.354-6.477-8.959h0.373
							c-1.927,2.728-4.073,5.767-6.377,9.03l-0.2,0.283l-0.224-0.266c-2.354-2.8-4.91-5.841-7.563-8.999l0.436-0.006
							c-0.131,0.165-0.273,0.344-0.416,0.523c-2.345,2.941-4.616,5.787-6.763,8.478l-0.226,0.283l-0.208-0.294
							c-2.296-3.249-4.441-6.284-6.38-9.028l0.371,0.018c-3.144,3.583-5.811,6.621-7.858,8.953l-0.14,0.159l-0.107-0.179
							c-1.036-1.74-1.862-3.128-2.46-4.133c-0.257-0.449-0.465-0.811-0.631-1.101c-0.139-0.252-0.205-0.385-0.193-0.393
							c0.012-0.007,0.102,0.112,0.263,0.349c0.184,0.278,0.414,0.627,0.699,1.059c0.628,0.987,1.495,2.35,2.583,4.058l-0.246-0.02
							c2.014-2.36,4.638-5.436,7.732-9.062l0.195-0.229l0.176,0.246c1.957,2.732,4.121,5.753,6.438,8.987l-0.433-0.012
							c2.142-2.695,4.407-5.546,6.747-8.491c0.142-0.179,0.285-0.358,0.416-0.523l0.215-0.27l0.221,0.264
							c2.646,3.163,5.195,6.21,7.542,9.016l-0.423,0.017c2.327-3.246,4.495-6.27,6.441-8.984l0.189-0.263l0.184,0.263
							c2.551,3.644,4.718,6.739,6.34,9.056l-0.23-0.007c1.156-1.385,2.074-2.487,2.743-3.288c0.298-0.345,0.539-0.624,0.734-0.85
							C672.03,424.656,672.122,424.563,672.132,424.571z"/>
					</g>
				</g>
			</g>
		</g>
		<g>
			<g>
				<g>
					<g>
						<path style="fill:#F5F5F5;" d="M673.602,412.825c0,0.156-11.34,0.282-25.326,0.282c-13.991,0-25.328-0.126-25.328-0.282
							c0-0.155,11.338-0.282,25.328-0.282C662.262,412.543,673.602,412.669,673.602,412.825z"/>
					</g>
				</g>
			</g>
		</g>
		<g>
			<g>
				<g>
					<g>
						<path style="fill:#F5F5F5;" d="M675.889,451.167c0,0.156-12.325,0.282-27.524,0.282c-15.205,0-27.527-0.126-27.527-0.282
							c0-0.155,12.322-0.282,27.527-0.282C663.564,450.886,675.889,451.012,675.889,451.167z"/>
					</g>
				</g>
			</g>
		</g>
	</g>
	<g>
		<g>
			<g>
				<g>
					<g>
						<g>
							<path style="fill:#F5F5F5;" d="M63.684,375.642c0,0.824,0,45.543,0,45.543H56.08v4.943h7.604v30.481h142.137v-27.735h-10.529
								v-6.041h10.529v-9.062h4.68v-4.119h-5.557v-34.009H63.684z"/>
						</g>
					</g>
				</g>
			</g>
			<g>
				<g>
					<g>
						<g>
							<polygon style="fill:#E0E0E0;" points="168.076,375.775 168.076,456.102 205.821,456.102 205.821,428.366 195.292,428.366 
								195.292,422.832 205.821,423.02 205.821,413.958 210.591,413.964 210.5,409.281 204.944,409.144 204.944,375.642 							"/>
						</g>
					</g>
				</g>
			</g>
			<g>
				<g>
					<g>
						<g>
							<g>
								<path style="fill:#E0E0E0;" d="M170.765,425.474c0,0.279-25.72,0.505-57.44,0.505c-31.731,0-57.446-0.226-57.446-0.505
									c0-0.279,25.715-0.505,57.446-0.505C145.045,424.969,170.765,425.195,170.765,425.474z"/>
							</g>
						</g>
					</g>
				</g>
			</g>
			<g>
				<g>
					<g>
						<g>
							<g>
								<path style="fill:#E0E0E0;" d="M170.765,420.848c0,0.279-25.72,0.505-57.44,0.505c-31.731,0-57.446-0.226-57.446-0.505
									c0-0.278,25.715-0.505,57.446-0.505C145.045,420.343,170.765,420.569,170.765,420.848z"/>
							</g>
						</g>
					</g>
				</g>
			</g>
			<g>
				<g>
					<g>
						<g>
							<g>
								<path style="fill:#E0E0E0;" d="M178.143,408.397c0,0.279-25.72,0.505-57.44,0.505c-31.731,0-57.446-0.226-57.446-0.505
									c0-0.279,25.714-0.505,57.446-0.505C152.423,407.892,178.143,408.118,178.143,408.397z"/>
							</g>
						</g>
					</g>
				</g>
			</g>
			<g>
				<g>
					<g>
						<g>
							<g>
								<path style="fill:#E0E0E0;" d="M178.853,442.325c0,0.279-25.72,0.505-57.44,0.505c-31.731,0-57.446-0.226-57.446-0.505
									c0-0.278,25.715-0.504,57.446-0.504C153.133,441.82,178.853,442.046,178.853,442.325z"/>
							</g>
						</g>
					</g>
				</g>
			</g>
		</g>
	</g>
</g>
<g id="Background_Simple" style="display:none;">
	<g style="display:inline;">
		<path style="fill:#F5F5F5;" d="M578.555,95.824l-2.715-4.475c-22.89-37.721-64.276-60.46-107.91-57.7
			c-5.609,0.355-11.194,1.114-16.704,2.294c-39.672,8.492-74.192,38.493-88.501,76.915c-8.415,22.597-10.766,48.614-26.735,66.55
			c-20.783,23.343-56.067,24.076-87.089,23.109s-66.329-0.142-87.011,23.293c-12.953,14.677-17.069,35.549-16.025,55.205
			c2.765,52.039,39.027,98.57,85.143,121.698c46.116,23.128,100.412,25.2,150.883,15.026
			c70.704-14.253,137.942-53.393,178.358-113.848C600.663,243.436,610.891,161.074,578.555,95.824z"/>
	</g>
	<g style="display:inline;">
		
			<ellipse transform="matrix(0.228 -0.9737 0.9737 0.228 109.739 325.472)" style="fill:#F5F5F5;" cx="260.121" cy="93.532" rx="37.337" ry="37.337"/>
	</g>
</g>
<g id="Device">
	<g>
		<path style="fill:#263238;" d="M126.831,336.451L126.831,336.451c1.809-0.848,3.965-0.113,4.879,1.664l57.896,112.575h110.031
			c3.796,0,6.872,3.077,6.872,6.872l0,0H183.936l-58.841-116.07C124.147,339.623,124.933,337.34,126.831,336.451z"/>
	</g>
</g>
<g id="Screen">
	<g>
		<g>
			<g>
				<path style="fill:#263238;" d="M620.431,300.766c0,0.144-22.392,0.26-50.008,0.26c-27.625,0-50.012-0.117-50.012-0.26
					s22.387-0.26,50.012-0.26C598.039,300.506,620.431,300.622,620.431,300.766z"/>
			</g>
		</g>
		<g>
			<g>
				<path style="fill:#263238;" d="M665.095,291.748c0,0.144-26.151,0.26-58.402,0.26c-32.262,0-58.407-0.117-58.407-0.26
					c0-0.144,26.145-0.26,58.407-0.26C638.945,291.488,665.095,291.604,665.095,291.748z"/>
			</g>
		</g>
	</g>
	<g>
		<g>
			<polygon style="fill:#FAFAFA;" points="423.403,331.204 182.879,331.204 220.825,134.748 460.558,137.962 			"/>
		</g>
		<g>
			<polygon style="fill:#EBEBEB;" points="220.825,134.748 217.677,151.043 457.554,153.584 460.558,137.962 			"/>
		</g>
		<g>
			<g>
				<path style="fill:#263238;" d="M423.403,331.204c0,0,0.216-1.216,0.656-3.548c0.443-2.335,1.099-5.792,1.954-10.304
					c1.721-9.023,4.247-22.26,7.468-39.141c6.46-33.737,15.708-82.032,26.863-140.29l0.21,0.258
					c-68.587-0.907-151.051-1.998-239.733-3.171l0.259-0.211c-0.121,0.624-0.251,1.302-0.383,1.98
					c-13.603,70.374-26.443,136.8-37.591,194.471l-0.228-0.276c71.561,0.046,131.666,0.084,173.889,0.111
					c21.123,0.027,37.771,0.048,49.145,0.062c5.687,0.013,10.053,0.023,13.005,0.029c1.472,0.006,2.59,0.011,3.346,0.014
					C423.015,331.194,423.403,331.204,423.403,331.204s-0.372,0.01-1.116,0.014c-0.751,0.003-1.861,0.008-3.323,0.014
					c-2.942,0.007-7.295,0.016-12.964,0.029c-11.363,0.014-27.996,0.035-49.099,0.062c-42.255,0.027-102.406,0.066-174.022,0.111
					l-0.281,0l0.053-0.276c11.131-57.674,23.952-124.104,37.536-194.481c0.131-0.678,0.262-1.356,0.382-1.98l0.041-0.214
					l0.218,0.003c88.682,1.205,171.145,2.326,239.732,3.257l0.26,0.004l-0.049,0.255c-11.253,58.291-20.582,106.613-27.098,140.368
					c-3.265,16.853-5.826,30.069-7.571,39.078c-0.875,4.491-1.546,7.933-1.999,10.258
					C423.648,330.023,423.403,331.204,423.403,331.204z"/>
			</g>
		</g>
		<g>
			<g>
				<path style="fill:#263238;" d="M327.915,306.675c0,0.144-22.392,0.26-50.008,0.26c-27.625,0-50.012-0.117-50.012-0.26
					s22.387-0.26,50.012-0.26C305.523,306.415,327.915,306.531,327.915,306.675z"/>
			</g>
		</g>
		<g>
			<g>
				<path style="fill:#263238;" d="M388.583,297.657c0,0.144-29.734,0.26-66.404,0.26c-36.682,0-66.41-0.117-66.41-0.26
					s29.727-0.26,66.41-0.26C358.849,297.397,388.583,297.513,388.583,297.657z"/>
			</g>
		</g>
		<g>
			<g>
				<path style="fill:#263238;" d="M331.272,82.501c0,0.144-22.392,0.26-50.008,0.26c-27.625,0-50.012-0.116-50.012-0.26
					c0-0.144,22.387-0.26,50.012-0.26C308.88,82.241,331.272,82.357,331.272,82.501z"/>
			</g>
		</g>
		<g>
			<g>
				<path style="fill:#263238;" d="M391.94,73.483c0,0.144-29.734,0.26-66.404,0.26c-36.682,0-66.41-0.117-66.41-0.26
					c0-0.144,29.727-0.26,66.41-0.26C362.206,73.223,391.94,73.339,391.94,73.483z"/>
			</g>
		</g>
		<g>
			<g>
				<g>
					<polygon style="fill:#E0E0E0;" points="281.553,210.513 299.956,190.726 311.596,210.513 					"/>
				</g>
			</g>
			<g>
				<g>
					<polygon style="fill:#E0E0E0;" points="297.133,246.339 281.553,245.914 289.374,208.01 303.884,207.894 					"/>
				</g>
			</g>
		</g>
		<g>
			<g>
				<g>
					<polygon style="fill:#E0E0E0;" points="378.221,230.985 359.818,250.772 348.178,230.985 					"/>
				</g>
			</g>
			<g>
				<g>
					<polygon style="fill:#E0E0E0;" points="362.641,195.159 378.221,195.584 370.4,233.488 355.89,233.604 					"/>
				</g>
			</g>
		</g>
		<g>
			<g>
				<path style="fill:#E0E0E0;" d="M369.859,176.526c0,0.144-14.102,0.26-31.494,0.26c-17.398,0-31.497-0.117-31.497-0.26
					s14.099-0.26,31.497-0.26C355.757,176.265,369.859,176.382,369.859,176.526z"/>
			</g>
		</g>
		<g>
			<g>
				<path style="fill:#E0E0E0;" d="M300.431,255.53c0,0.144-6.051,0.26-13.514,0.26c-7.465,0-13.515-0.117-13.515-0.26
					c0-0.144,6.05-0.26,13.515-0.26C294.379,255.27,300.431,255.387,300.431,255.53z"/>
			</g>
		</g>
		<g>
			<g>
				<path style="fill:#E0E0E0;" d="M306.942,263.062c0,0.144-10.339,0.26-23.089,0.26c-12.755,0-23.092-0.116-23.092-0.26
					c0-0.144,10.337-0.26,23.092-0.26C296.603,262.802,306.942,262.918,306.942,263.062z"/>
			</g>
		</g>
		<g>
			<g>
				<path style="fill:#E0E0E0;" d="M370.903,255.53c0,0.144-4.997,0.26-11.159,0.26c-6.165,0-11.16-0.117-11.16-0.26
					c0-0.144,4.996-0.26,11.16-0.26C365.906,255.27,370.903,255.387,370.903,255.53z"/>
			</g>
		</g>
		<g>
			<g>
				<path style="fill:#E0E0E0;" d="M377.747,263.184c0,0.144-10.339,0.26-23.089,0.26c-12.755,0-23.092-0.117-23.092-0.26
					c0-0.144,10.337-0.26,23.092-0.26C367.408,262.924,377.747,263.04,377.747,263.184z"/>
			</g>
		</g>
	</g>
</g>
<g id="Character">
	<g>
		<g>
			<path style="fill:#263238;" d="M456.465,115.763c-11.906,7.851-20.228,20.927-22.301,35.037
				c-1.362,9.275-0.139,18.733-0.753,28.087c-0.811,12.346-4.789,24.929-1.423,36.836c2.203,7.791,7.461,14.506,13.928,19.377
				c6.467,4.871,14.098,8.009,21.906,10.152c8.212,2.254,17.169,3.414,25.103,0.318c10.039-3.918,16.363-13.711,21.722-23.061
				c5.359-9.35,10.953-19.372,20.465-24.436"/>
		</g>
		<g>
			<path style="fill:#263238;" d="M671.472,232.051c15.397-0.502,19.041-6.722,19.041-6.722s-0.243-16.407-0.06-22.986
				c0.198-7.108-0.173-15.554,0-22.133c-4.993,6.656-19.718,9.023-26.665,4.443c-6.947-4.58-13.43-15.876-27.124-21.806
				c-13.099-5.673-29.883,2.349-39.164,2.281c-21.823-0.16-14.355-28.93-35.19-35.424c-7.186-2.24-21.05,0.238-28.061-2.499
				c-10.98-4.287-16.882-21.074-27.592-25.998c-8.449-3.885-27.672-5.13-35.549-0.188c-7.877,4.942-11.581,6.968-15.908,15.199
				l46.811,87.079c8.077,15.025,21.981,26.214,38.528,30.36c8.099,2.029,15.78,5.347,20.073,9.436
				c8.707,8.293,18.862,17.461,30.837,16.377c9.122-0.826,16.674-7.545,25.592-9.633c11.089-2.596,22.383,2.235,33.009,6.333
				c10.84,4.18,23.394,7.611,33.657,1.981c-1.97-9.494-1.839-8.863-3.809-18.356c-10.538-0.693-20.814-5.146-28.469-12.432
				C656.99,228.576,665.784,232.237,671.472,232.051z"/>
		</g>
		<g>
			<g>
				<g>
					<g>
						<g>
							<g>
								<g>
									<g>
										<g>
											<g>
												<g>
													<g>
														<g>
															<g>
																<path style="fill:#FFBE9D;" d="M441.268,152.771c1.818-15.883,13.372-34.894,29.164-32.404l48.937,15.061
																	c4.797,0.757,8.219,5.057,7.875,9.902l-14.032,114.316c-2.629,2.35-33.642,30.663-33.642,30.663l-18.412-33.71
																	c0,0,0.808-20.182,0.792-20.048c0,0-20.185-4.419-23.047-31.194C437.48,192.04,439.249,170.417,441.268,152.771z"/>
															</g>
														</g>
														<g>
															<g>
																<g>
																	<g>
																		<g>
																			<g>
																				<g>
																					<g>
																						<g>
																							<g>
																								<g>
																									<g>
																										<g>
																											<path style="fill:#263238;" d="M447.335,173.652c-0.155,1.796,1.237,3.408,3.109,3.604
																												c1.868,0.196,3.512-1.096,3.668-2.892c0.155-1.796-1.237-3.41-3.105-3.606
																												C449.135,170.561,447.491,171.856,447.335,173.652z"/>
																										</g>
																									</g>
																								</g>
																							</g>
																						</g>
																					</g>
																				</g>
																			</g>
																		</g>
																	</g>
																</g>
															</g>
															<g>
																<g>
																	<g>
																		<g>
																			<g>
																				<g>
																					<g>
																						<g>
																							<g>
																								<g>
																									<g>
																										<g>
																											<g>
																												<path style="fill:#263238;" d="M445.718,166.414c0.399,0.466,3.077-1.312,6.743-1.115
																													c3.664,0.144,6.257,2.167,6.678,1.738c0.206-0.189-0.185-1.012-1.313-1.925
																													c-1.109-0.908-3.034-1.835-5.317-1.941c-2.284-0.104-4.247,0.638-5.395,1.443
																													C445.943,165.421,445.52,166.205,445.718,166.414z"/>
																											</g>
																										</g>
																									</g>
																								</g>
																							</g>
																						</g>
																					</g>
																				</g>
																			</g>
																		</g>
																	</g>
																</g>
															</g>
														</g>
														<g>
															<g>
																<g>
																	<g>
																		<g>
																			<g>
																				<g>
																					<g>
																						<g>
																							<g>
																								<g>
																									<g>
																										<g>
																											<path style="fill:#263238;" d="M482.159,175.824c-0.156,1.796,1.237,3.408,3.109,3.605
																												c1.869,0.196,3.513-1.096,3.668-2.892c0.155-1.796-1.237-3.41-3.106-3.606
																												C483.958,172.733,482.314,174.029,482.159,175.824z"/>
																										</g>
																									</g>
																								</g>
																							</g>
																						</g>
																					</g>
																				</g>
																			</g>
																		</g>
																	</g>
																</g>
															</g>
															<g>
																<g>
																	<g>
																		<g>
																			<g>
																				<g>
																					<g>
																						<g>
																							<g>
																								<g>
																									<g>
																										<g>
																											<g>
																												<path style="fill:#263238;" d="M482.242,168.382c0.401,0.466,3.082-1.312,6.744-1.115
																													c3.663,0.144,6.258,2.167,6.678,1.738c0.205-0.189-0.18-1.012-1.312-1.925
																													c-1.109-0.908-3.034-1.834-5.317-1.942c-2.284-0.104-4.247,0.639-5.395,1.443
																													C482.471,167.389,482.046,168.173,482.242,168.382z"/>
																											</g>
																										</g>
																									</g>
																								</g>
																							</g>
																						</g>
																					</g>
																				</g>
																			</g>
																		</g>
																	</g>
																</g>
															</g>
														</g>
														<g>
															<g>
																<g>
																	<g>
																		<g>
																			<g>
																				<g>
																					<g>
																						<g>
																							<g>
																								<g>
																									<g>
																										<g>
																											<path style="fill:#263238;" d="M466.696,193.305c0.028-0.207-2.23-0.717-5.898-1.378
																												c-0.931-0.145-1.808-0.376-1.933-1.022c-0.186-0.689,0.257-1.677,0.767-2.743
																												c0.996-2.22,2.038-4.547,3.132-6.986c4.362-9.951,7.57-18.153,7.168-18.326
																												c-0.402-0.172-4.264,7.754-8.626,17.706c-1.053,2.455-2.06,4.795-3.018,7.034
																												c-0.409,1.045-1.079,2.221-0.673,3.649c0.216,0.712,0.877,1.255,1.469,1.447
																												c0.59,0.214,1.117,0.251,1.578,0.302C464.367,193.378,466.672,193.512,466.696,193.305z"/>
																										</g>
																									</g>
																								</g>
																							</g>
																						</g>
																					</g>
																				</g>
																			</g>
																		</g>
																	</g>
																</g>
															</g>
														</g>
														<g>
															<g>
																<g>
																	<g>
																		<g>
																			<g>
																				<g>
																					<g>
																						<g>
																							<g>
																								<g>
																									<g>
																										<path style="fill:#EB996E;" d="M461.95,236.551c0,0,17.81,2.064,36.055-7.673
																											c0,0-9.906,17.804-36.362,13.962L461.95,236.551z"/>
																									</g>
																								</g>
																							</g>
																						</g>
																					</g>
																				</g>
																			</g>
																		</g>
																	</g>
																</g>
															</g>
														</g>
													</g>
												</g>
											</g>
											<g>
												<g>
													<g>
														<g>
															<g>
																<g>
																	<g>
																		<g>
																			<g>
																				<g>
																					<g>
																						<g>
																							<path style="fill:#263238;" d="M480.722,154.215c0.31,1.015,3.994,0.729,8.268,1.467
																								c4.289,0.652,7.692,2.088,8.309,1.224c0.277-0.415-0.28-1.383-1.633-2.42
																								c-1.341-1.035-3.512-2.063-6.079-2.483c-2.567-0.414-4.952-0.124-6.551,0.433
																								C481.425,152.991,480.59,153.734,480.722,154.215z"/>
																						</g>
																					</g>
																				</g>
																			</g>
																		</g>
																	</g>
																</g>
															</g>
														</g>
													</g>
												</g>
											</g>
											<g>
												<g>
													<g>
														<g>
															<g>
																<g>
																	<g>
																		<g>
																			<g>
																				<g>
																					<g>
																						<g>
																							<path style="fill:#263238;" d="M446.212,153.918c0.603,0.865,3.172,0.13,6.21,0.244
																								c3.042,0.008,5.579,0.846,6.215,0.005c0.281-0.41-0.082-1.264-1.165-2.109
																								c-1.067-0.842-2.886-1.578-4.976-1.622c-2.089-0.04-3.936,0.622-5.036,1.421
																								C446.344,152.658,445.949,153.497,446.212,153.918z"/>
																						</g>
																					</g>
																				</g>
																			</g>
																		</g>
																	</g>
																</g>
															</g>
														</g>
													</g>
												</g>
											</g>
										</g>
									</g>
								</g>
							</g>
						</g>
						<g>
							<g>
								<g>
									<g>
										<g>
											<g>
												<g>
													<g>
														<path style="fill:#EB996E;" d="M464.433,204.617c0.541,1.593,1.094,3.211,2.064,4.586
															c0.97,1.375,2.431,2.497,4.106,2.659c1.784,0.172,3.56-0.802,4.631-2.24c1.07-1.438,1.5-3.275,1.508-5.068
															c0.007-1.621-0.64-3.588-2.238-3.856c-0.665-0.112-1.336,0.114-1.973,0.337c-2.872,1.005-5.745,2.01-8.616,3.014"/>
													</g>
												</g>
											</g>
										</g>
									</g>
								</g>
							</g>
							<g>
								<g>
									<g>
										<g>
											<g>
												<g>
													<g>
														<g>
															<path style="fill:#263238;" d="M467.468,211.733c0.056-0.263,1.874,0.581,4.533-0.337
																c1.288-0.447,2.719-1.385,3.558-2.929c0.837-1.525,1.092-3.633,0.381-5.521c-0.163-0.472-0.421-0.909-0.675-1.299
																c-0.317-0.367-0.256-0.348-0.624-0.313c-0.349,0.076-0.917,0.31-1.379,0.465c-0.48,0.169-0.952,0.335-1.415,0.498
																c-1.844,0.643-3.513,1.202-4.921,1.652c-2.817,0.899-4.596,1.357-4.668,1.161c-0.072-0.195,1.575-1.008,4.297-2.163
																c1.361-0.577,2.991-1.241,4.808-1.955c0.458-0.178,0.923-0.36,1.398-0.545c0.503-0.179,0.891-0.382,1.574-0.56
																c0.334-0.077,0.805-0.106,1.251,0.097c0.438,0.203,0.701,0.519,0.896,0.782c0.353,0.521,0.661,1.055,0.872,1.649
																c0.881,2.358,0.517,4.903-0.588,6.747c-1.128,1.885-2.941,2.887-4.458,3.258c-1.543,0.394-2.847,0.218-3.667-0.037
																C467.811,212.12,467.432,211.815,467.468,211.733z"/>
														</g>
													</g>
												</g>
											</g>
										</g>
									</g>
								</g>
							</g>
						</g>
					</g>
				</g>
			</g>
		</g>
		<g>
			<g>
				<path style="fill:#263238;" d="M536.645,157.915c-0.106,0.688-1.454,1.222-3.899,1.242c-2.421-0.012-5.962-0.57-10.003-2.348
					c-4.026-1.758-8.566-4.757-12.469-9.341c-1.948-2.285-3.453-4.594-4.98-6.219c-0.754-0.827-1.482-1.432-2.175-1.86
					c-0.685-0.397-1.411-0.69-2.439-0.894c-2.028-0.431-4.794-0.35-7.904-0.467c-3.201-0.142-6.305-0.64-9.131-1.417
					c-2.835-0.772-5.425-1.803-7.733-2.962c-2.303-1.175-4.311-2.497-6.042-3.808c-3.436-2.684-5.684-5.406-6.911-7.483
					c-0.626-1.032-0.985-1.923-1.132-2.598c-0.151-0.672-0.091-1.13,0.182-1.363c1.165-0.994,5.034,2.125,11.708,5.164
					c1.685,0.73,3.525,1.477,5.537,2.124c2.017,0.63,4.191,1.179,6.492,1.561c2.307,0.387,4.709,0.587,7.237,0.579
					c2.604,0.017,5.822-0.298,9.777,0.462c1.952,0.376,4.077,1.167,5.898,2.342c1.799,1.172,3.222,2.576,4.333,3.919
					c2.233,2.707,3.55,5.187,4.864,7.033c2.576,3.741,5.68,6.656,8.548,8.835C532.177,154.783,536.89,156.406,536.645,157.915z"/>
			</g>
		</g>
		<g>
			<path style="fill:#263238;" d="M499.409,142.82c5.484,9.54,8.75,20.75,7.146,31.636c-2.071,14.059,1.684,15.018,7.421,10.78
				c14.412-10.646,11.508,15.749,15.181,23.138c3.987,8.02,13.563,11.623,22.478,12.48c8.915,0.857,18.026-0.281,26.78,1.606
				c7.233,1.559,13.865,5.11,20.886,7.445c7.021,2.335,15.03,3.36,21.598-0.047c-11.305-0.5-21.375-7.051-30.358-13.931
				c-8.983-6.881-17.854-14.493-28.686-17.765c-5.434-1.641-11.428-2.232-15.906-5.721c-7.462-5.814-7.576-16.776-7.994-26.227
				c-0.33-7.448-1.297-14.993-4.307-21.814c-3.01-6.82-8.288-12.896-15.253-15.555c-6.965-2.659-15.638-1.312-20.589,4.263"/>
		</g>
		<g>
			<g>
				<g>
					<g>
						<g>
							<g>
								<path style="fill:#FFBE9D;" d="M518.31,183.145c0.424-0.113,16.753-2.35,13.859,13.539
									c-2.894,15.888-18.248,9.706-18.193,9.245C514.032,205.468,518.31,183.145,518.31,183.145z"/>
							</g>
						</g>
					</g>
				</g>
			</g>
		</g>
		<g>
			<g>
				<g>
					<g>
						<g>
							<g>
								<path style="fill:#EB996E;" d="M518.522,200.581c0.079-0.038,0.242,0.244,0.671,0.544c0.417,0.292,1.176,0.578,2.061,0.419
									c1.791-0.31,3.689-2.717,4.288-5.567c0.304-1.438,0.251-2.871-0.053-4.104c-0.273-1.25-0.877-2.199-1.695-2.504
									c-0.805-0.348-1.496,0.049-1.772,0.461c-0.294,0.405-0.251,0.74-0.34,0.753c-0.051,0.032-0.292-0.328-0.045-0.961
									c0.123-0.304,0.378-0.644,0.806-0.881c0.438-0.241,1.027-0.297,1.604-0.125c1.21,0.307,2.107,1.635,2.443,2.99
									c0.402,1.372,0.494,2.988,0.153,4.603c-0.685,3.183-2.87,5.88-5.287,6.126c-1.171,0.089-2.042-0.419-2.455-0.881
									C518.481,200.97,518.462,200.6,518.522,200.581z"/>
							</g>
						</g>
					</g>
				</g>
			</g>
		</g>
		<g>
			<g>
				<path style="fill:#455A64;" d="M508.219,107.464c-0.026,0.04-0.713-0.404-1.996-1.124c-1.28-0.724-3.2-1.662-5.681-2.518
					c-2.478-0.861-5.548-1.566-9.008-1.79c-3.455-0.23-7.3,0.082-11.152,1.147c-3.842,1.107-7.283,2.853-10.108,4.856
					c-2.833,2.001-5.081,4.208-6.742,6.238c-1.667,2.028-2.813,3.831-3.525,5.118c-0.716,1.284-1.07,2.022-1.113,2.002
					c-0.016-0.007,0.057-0.198,0.211-0.555c0.165-0.352,0.367-0.894,0.723-1.542c0.661-1.324,1.769-3.174,3.417-5.254
					c1.643-2.082,3.892-4.345,6.749-6.396c2.849-2.053,6.338-3.841,10.244-4.966c3.917-1.083,7.824-1.384,11.326-1.125
					c3.508,0.254,6.609,1.006,9.098,1.921c2.493,0.91,4.405,1.908,5.661,2.69c0.643,0.367,1.099,0.723,1.424,0.936
					C508.067,107.325,508.229,107.449,508.219,107.464z"/>
			</g>
		</g>
		<g>
			<g>
				<path style="fill:#455A64;" d="M690.514,209.963c0,0-2.8,0.473-7.917,0.847c-2.559,0.15-5.701,0.295-9.347,0.107
					c-1.82-0.118-3.769-0.275-5.809-0.649c-2.043-0.339-4.181-0.88-6.331-1.715c-2.151-0.828-4.303-1.978-6.329-3.477
					c-2.018-1.509-3.902-3.339-5.778-5.27c-1.882-1.925-3.831-3.914-6.122-5.612c-2.291-1.687-4.912-3.068-7.785-3.961
					c-1.425-0.512-2.905-0.758-4.436-0.847c-1.531-0.05-3.086,0.064-4.642,0.296c-3.115,0.467-6.224,1.378-9.332,2.437
					c-3.105,1.08-6.204,2.351-9.333,3.687c-3.124,1.399-6.596,2.227-10.121,2.308c-7.063,0.225-13.988-2.363-18.89-6.879
					c-4.93-4.484-8.305-10.009-12.758-14.079c-2.209-2.035-4.637-3.755-7.268-4.822c-2.625-1.084-5.446-1.377-8.07-0.923
					c-2.634,0.431-5.058,1.403-7.375,2.326c-2.316,0.931-4.553,1.859-6.804,2.387c-2.24,0.552-4.435,0.791-6.51,0.822
					c-2.078,0.008-4.028-0.218-5.827-0.542c-3.589-0.725-6.534-1.94-8.776-3.191c-2.249-1.255-3.799-2.531-4.827-3.404
					c-0.499-0.456-0.86-0.824-1.109-1.064c-0.246-0.243-0.363-0.377-0.363-0.377s0.142,0.109,0.4,0.339
					c0.272,0.244,0.651,0.585,1.14,1.023c1.046,0.844,2.607,2.087,4.856,3.306c2.241,1.216,5.173,2.392,8.732,3.083
					c1.784,0.307,3.715,0.517,5.769,0.496c2.051-0.043,4.217-0.292,6.424-0.848c2.215-0.531,4.427-1.461,6.743-2.403
					c2.315-0.934,4.759-1.928,7.456-2.38c2.687-0.476,5.617-0.182,8.31,0.925c2.704,1.088,5.179,2.836,7.422,4.894
					c4.524,4.124,7.91,9.646,12.774,14.053c4.815,4.426,11.6,6.957,18.534,6.738c3.465-0.082,6.847-0.884,9.934-2.264
					c3.132-1.335,6.246-2.609,9.369-3.692c3.128-1.062,6.263-1.978,9.425-2.447c1.58-0.233,3.165-0.348,4.736-0.293
					c1.563,0.089,3.132,0.36,4.562,0.879c2.916,0.912,5.587,2.327,7.91,4.049c2.323,1.732,4.284,3.748,6.158,5.678
					c1.869,1.938,3.725,3.752,5.709,5.25c1.991,1.485,4.104,2.627,6.222,3.456c2.118,0.835,4.23,1.383,6.255,1.732
					c2.02,0.384,3.958,0.553,5.767,0.684c3.627,0.214,6.762,0.1,9.318-0.019c2.555-0.162,4.538-0.321,5.878-0.47
					c0.655-0.061,1.163-0.109,1.528-0.143C690.336,209.965,690.514,209.963,690.514,209.963z"/>
			</g>
		</g>
		<g>
			<g>
				<path style="fill:#455A64;" d="M610.555,167.631c0.006,0.007-0.102,0.103-0.318,0.286c-0.215,0.184-0.535,0.459-1.003,0.755
					c-0.915,0.608-2.39,1.385-4.456,1.819c-2.057,0.422-4.69,0.498-7.609-0.174c-2.924-0.659-6.044-2.162-9.138-4.275
					c-3.12-2.091-6.212-4.801-9.683-7.475c-3.467-2.633-7.452-5.312-12.242-6.418c-2.386-0.518-4.915-0.596-7.478-0.374
					c-2.567,0.196-5.176,0.608-7.865,0.858c-2.679,0.257-5.483,0.32-8.24-0.303c-2.766-0.603-5.346-2.025-7.549-3.874
					c-4.456-3.736-7.263-8.724-10.062-13.272c-1.407-2.286-2.838-4.501-4.458-6.498c-1.615-1.997-3.444-3.742-5.411-5.206
					c-3.934-2.937-8.348-4.763-12.621-5.618c-4.283-0.878-8.431-0.731-12.057,0.052c-3.642,0.765-6.754,2.152-9.31,3.623
					c-2.542,1.512-4.523,3.142-6.017,4.589c-1.51,1.439-2.502,2.727-3.184,3.586c-0.311,0.429-0.554,0.765-0.734,1.012
					c-0.168,0.227-0.258,0.34-0.265,0.336c-0.008-0.005,0.067-0.128,0.221-0.365c0.169-0.255,0.399-0.602,0.693-1.045
					c0.658-0.882,1.629-2.198,3.127-3.668c1.482-1.479,3.459-3.146,6.011-4.695c2.565-1.509,5.7-2.935,9.381-3.733
					c3.665-0.816,7.873-0.988,12.218-0.116c4.336,0.848,8.82,2.685,12.824,5.657c2,1.481,3.868,3.254,5.51,5.278
					c1.646,2.021,3.092,4.253,4.506,6.543c2.811,4.559,5.599,9.486,9.961,13.14c2.156,1.809,4.655,3.183,7.331,3.769
					c2.672,0.606,5.42,0.551,8.078,0.299c2.666-0.244,5.281-0.653,7.874-0.846c2.587-0.219,5.176-0.137,7.621,0.402
					c4.906,1.149,8.925,3.884,12.399,6.543c3.478,2.703,6.545,5.419,9.628,7.513c3.058,2.115,6.124,3.62,8.998,4.296
					c2.872,0.689,5.468,0.644,7.503,0.259c2.043-0.397,3.513-1.134,4.439-1.708C610.112,168.008,610.529,167.597,610.555,167.631z"
					/>
			</g>
		</g>
		<g>
			<g>
				<path style="fill:#263238;" d="M643.428,150.095c0,0-0.547,0.56-1.684,1.521c-1.137,0.96-2.908,2.28-5.382,3.66
					c-2.472,1.37-5.694,2.754-9.628,3.633c-3.919,0.889-8.589,1.231-13.601,0.359c-5-0.849-10.305-2.945-15.154-6.444
					c-2.411-1.762-4.683-3.892-6.698-6.358c-1.992-2.486-3.718-5.263-5.552-8.044c-1.84-2.767-3.814-5.586-6.426-7.863
					c-2.594-2.292-5.951-3.725-9.52-4.127c-3.573-0.434-7.267-0.028-10.965,0.503c-3.704,0.532-7.473,1.222-11.358,1.311
					c-1.94,0.087-3.88-0.114-5.771-0.481c-0.478-0.067-0.927-0.264-1.39-0.39c-0.456-0.154-0.929-0.259-1.367-0.453l-1.296-0.623
					c-0.436-0.2-0.865-0.409-1.251-0.694c-1.638-0.988-3.005-2.335-4.208-3.755c-1.216-1.422-2.213-2.984-3.144-4.551
					c-1.855-3.143-3.401-6.365-5.274-9.295c-0.95-1.453-1.964-2.842-3.122-4.076c-1.177-1.206-2.447-2.311-3.871-3.145
					c-1.385-0.899-2.913-1.505-4.428-2.036c-1.544-0.454-3.095-0.83-4.657-0.999c-3.116-0.397-6.191-0.336-9.136-0.075
					c-2.948,0.265-5.777,0.716-8.485,1.207c-2.708,0.496-5.303,1.007-7.759,1.572c-4.922,1.094-9.285,2.473-12.956,4.061
					c-3.658,1.62-6.574,3.513-8.696,5.357c-0.513,0.48-1.041,0.89-1.46,1.352c-0.424,0.457-0.82,0.884-1.189,1.282
					c-0.686,0.836-1.233,1.576-1.668,2.175c-0.382,0.619-0.676,1.096-0.887,1.437c-0.203,0.323-0.318,0.482-0.318,0.482
					s0.084-0.176,0.272-0.508c0.201-0.348,0.481-0.835,0.846-1.468c0.423-0.611,0.959-1.365,1.637-2.217
					c0.366-0.405,0.76-0.841,1.18-1.307c0.417-0.471,0.942-0.89,1.455-1.379c2.117-1.881,5.041-3.815,8.711-5.47
					c3.682-1.623,8.061-3.033,12.991-4.154c2.462-0.578,5.057-1.101,7.77-1.608c2.713-0.502,5.552-0.966,8.519-1.242
					c2.964-0.272,6.068-0.344,9.232,0.051c1.586,0.168,3.167,0.546,4.742,1.006c1.549,0.538,3.113,1.156,4.536,2.074
					c1.462,0.852,2.769,1.985,3.976,3.218c1.186,1.261,2.22,2.672,3.184,4.142c1.898,2.962,3.452,6.191,5.294,9.304
					c0.924,1.552,1.91,3.092,3.099,4.48c1.178,1.389,2.506,2.695,4.091,3.648c0.373,0.276,0.789,0.477,1.21,0.67l1.254,0.603
					c0.424,0.188,0.884,0.288,1.326,0.438c0.45,0.121,0.883,0.314,1.349,0.378c1.841,0.356,3.735,0.555,5.648,0.468
					c7.64-0.191,15.025-2.683,22.396-1.8c3.649,0.411,7.131,1.903,9.783,4.257c2.671,2.337,4.659,5.195,6.501,7.974
					c1.835,2.794,3.547,5.561,5.509,8.021c1.982,2.438,4.219,4.548,6.596,6.296c4.78,3.472,10.019,5.567,14.963,6.43
					c4.954,0.886,9.581,0.575,13.474-0.281c3.908-0.844,7.12-2.191,9.593-3.527c2.475-1.345,4.258-2.633,5.412-3.564
					c0.593-0.448,1.002-0.842,1.3-1.079C643.269,150.211,643.428,150.095,643.428,150.095z"/>
			</g>
		</g>
		<g>
			<g>
				<path style="fill:#455A64;" d="M681.329,250.035c0,0-0.143,0.064-0.432,0.166c-0.311,0.106-0.738,0.252-1.286,0.439
					c-0.56,0.217-1.286,0.363-2.137,0.564c-0.845,0.235-1.852,0.338-2.976,0.505c-2.258,0.233-5.057,0.294-8.264-0.105
					c-3.207-0.387-6.803-1.218-10.67-2.453c-3.873-1.222-8.007-2.865-12.404-4.701c-4.394-1.827-9.117-3.736-14.264-5.166
					c-5.123-1.425-10.747-2.413-16.51-1.757c-2.869,0.323-5.742,1.087-8.441,2.357c-2.689,1.298-5.226,3.002-7.856,4.634
					c-2.63,1.619-5.351,3.162-8.353,3.859c-2.992,0.672-6.236,0.168-8.722-1.504c-2.51-1.632-4.324-3.951-6.057-6.141
					c-1.724-2.212-3.385-4.397-5.403-6.124c-4.047-3.479-8.937-5.27-13.489-6.51c-4.59-1.231-8.975-1.939-12.942-2.79
					c-3.965-0.859-7.506-1.901-10.482-3.162c-2.973-1.264-5.375-2.723-7.137-4.164c-1.772-1.437-2.884-2.829-3.613-3.773
					c-0.338-0.493-0.578-0.882-0.744-1.139c-0.164-0.259-0.236-0.398-0.236-0.398s0.103,0.121,0.281,0.369
					c0.19,0.267,0.449,0.634,0.783,1.104c0.752,0.919,1.879,2.277,3.655,3.677c1.765,1.405,4.161,2.824,7.122,4.054
					c2.964,1.227,6.491,2.238,10.447,3.071c3.958,0.825,8.354,1.513,12.977,2.733c4.584,1.231,9.547,3.022,13.69,6.564
					c2.07,1.763,3.759,3.979,5.481,6.18c1.731,2.184,3.528,4.457,5.941,6.018c2.389,1.598,5.454,2.07,8.334,1.427
					c2.893-0.672,5.575-2.184,8.191-3.797c2.619-1.624,5.168-3.338,7.907-4.659c2.755-1.294,5.688-2.07,8.605-2.396
					c5.864-0.658,11.544,0.356,16.697,1.802c5.178,1.452,9.912,3.384,14.302,5.23c4.386,1.852,8.5,3.51,12.35,4.749
					c3.843,1.252,7.412,2.102,10.594,2.514c3.182,0.424,5.959,0.393,8.206,0.192c1.118-0.151,2.121-0.237,2.965-0.455
					c0.85-0.185,1.577-0.313,2.139-0.514c0.553-0.165,0.984-0.294,1.298-0.388C681.173,250.066,681.329,250.035,681.329,250.035z"/>
			</g>
		</g>
		<g>
			<g>
				<g>
					<path style="fill:#455A64;" d="M462.421,172.273c-0.083,0.007,0.015-1.347-0.57-3.662c-0.274-1.159-0.826-2.526-1.689-3.973
						c-0.87-1.441-2.119-2.945-3.815-4.219c-1.691-1.262-3.821-2.334-6.276-2.764c-2.439-0.414-5.19-0.335-7.808,0.663
						c-1.318,0.459-2.588,1.152-3.755,2.026c-1.181,0.857-2.253,1.922-3.136,3.155c-1.826,2.43-2.855,5.553-2.884,8.771
						c0.029,3.219,1.057,6.343,2.883,8.774c0.884,1.234,1.956,2.298,3.137,3.156c1.167,0.875,2.438,1.568,3.756,2.027
						c2.618,0.998,5.369,1.078,7.808,0.663c2.456-0.43,4.585-1.502,6.276-2.764c1.696-1.274,2.945-2.778,3.815-4.219
						c0.863-1.447,1.414-2.814,1.688-3.973C462.436,173.619,462.337,172.265,462.421,172.273c0.009,0,0.014,0.083,0.014,0.245
						c-0.003,0.193-0.006,0.43-0.01,0.72c0,0.318-0.017,0.71-0.094,1.168c-0.061,0.46-0.119,0.994-0.284,1.577
						c-0.248,1.182-0.779,2.583-1.635,4.073c-0.863,1.484-2.118,3.038-3.842,4.363c-1.718,1.312-3.896,2.434-6.42,2.896
						c-2.506,0.446-5.342,0.38-8.051-0.637c-1.363-0.468-2.679-1.178-3.888-2.078c-1.223-0.883-2.334-1.98-3.251-3.253
						c-1.894-2.509-2.965-5.745-2.993-9.076c0.029-3.329,1.101-6.564,2.994-9.073c0.917-1.273,2.028-2.37,3.251-3.253
						c1.209-0.899,2.525-1.609,3.888-2.077c2.709-1.017,5.544-1.083,8.05-0.637c2.524,0.462,4.702,1.583,6.42,2.895
						c1.723,1.325,2.98,2.879,3.842,4.363c0.856,1.49,1.387,2.891,1.635,4.073c0.165,0.582,0.223,1.117,0.284,1.577
						c0.077,0.459,0.094,0.851,0.094,1.169c0.004,0.29,0.008,0.527,0.01,0.72C462.434,172.19,462.43,172.273,462.421,172.273z"/>
				</g>
			</g>
			<g>
				<g>
					<path style="fill:#455A64;" d="M501.842,172.273c-0.083,0.007,0.015-1.347-0.571-3.662c-0.274-1.159-0.826-2.526-1.689-3.973
						c-0.87-1.441-2.119-2.945-3.815-4.219c-1.691-1.262-3.821-2.334-6.276-2.764c-2.439-0.414-5.19-0.335-7.807,0.663
						c-1.318,0.459-2.588,1.152-3.755,2.026c-1.181,0.857-2.253,1.922-3.136,3.155c-1.826,2.43-2.855,5.553-2.885,8.771
						c0.029,3.219,1.058,6.343,2.883,8.774c0.884,1.234,1.956,2.298,3.137,3.156c1.167,0.875,2.438,1.568,3.756,2.027
						c2.618,0.998,5.369,1.078,7.808,0.663c2.456-0.43,4.585-1.502,6.276-2.764c1.696-1.274,2.945-2.778,3.815-4.219
						c0.863-1.447,1.414-2.814,1.688-3.973C501.857,173.619,501.758,172.265,501.842,172.273c0.009,0,0.014,0.083,0.014,0.245
						c-0.003,0.193-0.006,0.43-0.01,0.72c0,0.318-0.017,0.71-0.094,1.168c-0.061,0.46-0.119,0.994-0.284,1.577
						c-0.248,1.182-0.779,2.583-1.635,4.073c-0.863,1.484-2.119,3.038-3.842,4.363c-1.718,1.312-3.896,2.434-6.42,2.896
						c-2.506,0.446-5.342,0.38-8.051-0.637c-1.363-0.468-2.679-1.178-3.888-2.078c-1.223-0.883-2.334-1.98-3.252-3.253
						c-1.893-2.509-2.965-5.745-2.993-9.076c0.029-3.329,1.101-6.564,2.994-9.073c0.917-1.273,2.028-2.37,3.251-3.253
						c1.209-0.899,2.525-1.609,3.888-2.077c2.709-1.017,5.544-1.083,8.05-0.637c2.524,0.462,4.702,1.583,6.42,2.895
						c1.723,1.325,2.98,2.879,3.842,4.363c0.856,1.49,1.387,2.891,1.635,4.073c0.165,0.582,0.223,1.117,0.284,1.577
						c0.077,0.459,0.094,0.851,0.094,1.169c0.004,0.29,0.008,0.527,0.01,0.72C501.856,172.19,501.851,172.273,501.842,172.273z"/>
				</g>
			</g>
			<g>
				<g>
					<path style="fill:#455A64;" d="M472.078,168.636c-0.079,0.044-0.402-0.605-1.23-1.361c-0.806-0.752-2.215-1.572-3.906-1.622
						c-1.691-0.039-3.142,0.707-3.986,1.415c-0.867,0.712-1.223,1.343-1.299,1.295c-0.049-0.018,0.197-0.737,1.055-1.57
						c0.831-0.824,2.38-1.702,4.244-1.66c1.864,0.056,3.364,1.014,4.151,1.88C471.92,167.89,472.128,168.621,472.078,168.636z"/>
				</g>
			</g>
			<g>
				<g>
					<path style="fill:#455A64;" d="M517.828,183.191c-0.045,0.059-0.93-0.543-2.349-1.528c-1.418-0.985-3.377-2.345-5.566-3.807
						c-2.191-1.462-4.198-2.749-5.652-3.68c-1.454-0.932-2.349-1.519-2.312-1.583c0.035-0.06,0.996,0.414,2.502,1.268
						c1.506,0.853,3.552,2.096,5.751,3.563c2.197,1.467,4.129,2.88,5.495,3.943C517.063,182.43,517.87,183.137,517.828,183.191z"/>
				</g>
			</g>
			<g>
				<g>
					<path style="fill:#FFFFFF;" d="M488.04,185.066c0.002,0.03-0.358,0.093-1.017,0.116c-0.659,0.025-1.62-0.029-2.78-0.273
						c-2.298-0.46-5.47-1.915-7.732-4.817c-2.251-2.913-2.873-6.347-2.748-8.687c0.052-1.184,0.238-2.129,0.426-2.761
						c0.186-0.633,0.336-0.966,0.365-0.956c0.105,0.025-0.413,1.409-0.423,3.724c-0.028,2.281,0.634,5.569,2.791,8.36
						c2.168,2.781,5.188,4.239,7.405,4.778C486.573,185.117,488.042,184.958,488.04,185.066z"/>
				</g>
			</g>
			<g>
				<g>
					<path style="fill:#FFFFFF;" d="M438.346,181.056c-0.018,0.026-0.275-0.101-0.701-0.395c-0.427-0.292-1.008-0.774-1.634-1.463
						c-1.25-1.354-2.62-3.7-2.872-6.575c-0.245-2.876,0.703-5.423,1.703-6.971c0.499-0.786,0.989-1.36,1.359-1.721
						c0.369-0.362,0.601-0.532,0.623-0.509c0.071,0.066-0.776,0.844-1.665,2.418c-0.889,1.549-1.733,4-1.501,6.738
						c0.24,2.736,1.491,5.007,2.633,6.38C437.436,180.358,438.405,180.979,438.346,181.056z"/>
				</g>
			</g>
		</g>
	</g>
	<g>
		<g>
			<path style="fill:#FF725E;" d="M563.74,271.055c0,0,13.467,4.436,18.891,19.254c5.423,14.818,14.905,106.752,14.905,106.752
				c0.015-4.836,12.604,10.49,10.651,60.501h-52.717l-21.22-71.852L563.74,271.055z"/>
		</g>
		<g>
			<path style="fill:#FF725E;" d="M444.971,259.011c-2.44-0.307-26.664,8.087-31.165,15.627s-27.444,84.624-27.444,84.624
				l-51.669,8.353c0,0-18.303-0.551-16.878,18.096c1.425,18.647,4.176,33.084,12.172,39.2c7.995,6.116,16.241,8.702,20.939,6.336
				c4.33-2.18,3.709-7.905,3.709-7.905s43.753,9.512,53.035,1.569C416.951,416.967,444.971,259.011,444.971,259.011z"/>
		</g>
		<g>
			<g>
				<path style="fill:#FF725E;" d="M519.443,245.66l0.321,12.028c0,0,40.775,11.41,43.988,13.346
					c3.213,1.936-20.559,131.976-20.559,131.976s30.841,36.707,32.768,49.88c0.684,4.672,0.684,4.672,0.684,4.672H401.573
					l6.355-49.1l-3.026-52.088l23.541-91.719l28.415-10.093l-0.314-6.954c-0.076-1.693,1.248-3.121,2.942-3.173l56.828-1.731
					C517.996,242.654,519.399,243.979,519.443,245.66z"/>
			</g>
		</g>
		<g>
			<g>
				<g>
					<path style="fill:#263238;" d="M407.071,393.705c0.009-0.001,0.008-0.099-0.004-0.289c-0.016-0.22-0.037-0.497-0.063-0.843
						c-0.071-0.778-0.169-1.86-0.294-3.233c-0.134-1.403-0.316-3.118-0.44-5.116c-0.121-1.998-0.362-4.266-0.446-6.785
						c-0.104-2.517-0.28-5.271-0.289-8.233c-0.016-1.48-0.066-3.012-0.057-4.589c0.024-1.578,0.049-3.201,0.075-4.865
						c0.188-6.654,0.665-13.966,1.691-21.581c1.057-7.613,2.554-14.787,4.195-21.239c0.435-1.606,0.858-3.173,1.27-4.696
						c0.416-1.521,0.906-2.973,1.332-4.391c0.834-2.843,1.785-5.433,2.605-7.814c0.4-1.194,0.813-2.32,1.235-3.374
						c0.407-1.057,0.792-2.056,1.152-2.991c0.695-1.877,1.38-3.46,1.925-4.759c0.527-1.274,0.943-2.277,1.241-2.999
						c0.127-0.322,0.23-0.581,0.311-0.786c0.067-0.178,0.098-0.271,0.089-0.275c-0.008-0.004-0.055,0.082-0.139,0.253
						c-0.094,0.2-0.212,0.451-0.359,0.764c-0.321,0.713-0.767,1.703-1.333,2.962c-0.575,1.288-1.288,2.86-2.011,4.73
						c-0.373,0.932-0.77,1.927-1.192,2.981c-0.434,1.051-0.86,2.174-1.272,3.367c-0.844,2.378-1.818,4.966-2.672,7.81
						c-0.436,1.418-0.936,2.871-1.36,4.394c-0.42,1.525-0.852,3.094-1.295,4.702c-1.672,6.462-3.188,13.655-4.248,21.29
						c-1.03,7.637-1.493,14.971-1.655,21.641c-0.018,1.668-0.036,3.295-0.053,4.876c-0.001,1.581,0.059,3.115,0.084,4.598
						c0.029,2.968,0.226,5.726,0.355,8.246c0.109,2.521,0.376,4.79,0.525,6.788c0.152,1.998,0.365,3.712,0.53,5.112
						c0.167,1.37,0.299,2.448,0.393,3.224c0.047,0.343,0.085,0.618,0.116,0.837C407.042,393.61,407.062,393.706,407.071,393.705z"/>
				</g>
			</g>
		</g>
		<g>
			<g>
				<path style="fill:#263238;" d="M539.224,309.914c0.009,0.002-0.011,0.132-0.057,0.383c-0.054,0.276-0.127,0.643-0.219,1.112
					c-0.219,0.971-0.472,2.417-0.782,4.281c-0.591,3.73-1.134,9.19-1.032,15.944c0.088,6.754,0.92,14.779,2.54,23.564
					c1.614,8.789,4.023,18.323,6.516,28.338c2.509,10.014,4.667,19.635,5.982,28.495c1.365,8.852,2.051,16.895,2.464,23.648
					c0.408,6.756,0.58,12.229,0.706,16.01c0.052,1.868,0.093,3.329,0.121,4.355c0.008,0.477,0.013,0.852,0.018,1.133
					c0.001,0.255-0.003,0.386-0.012,0.387c-0.009,0-0.023-0.13-0.042-0.385c-0.017-0.28-0.04-0.655-0.07-1.131
					c-0.051-1.024-0.125-2.484-0.219-4.351c-0.188-3.778-0.416-9.248-0.871-15.994c-0.459-6.744-1.182-14.769-2.57-23.598
					c-1.339-8.839-3.505-18.43-6.014-28.443c-2.492-10.012-4.891-19.562-6.483-28.377c-1.598-8.81-2.395-16.868-2.437-23.645
					c-0.055-6.779,0.546-12.253,1.2-15.982C538.621,311.924,539.224,309.914,539.224,309.914z"/>
			</g>
		</g>
		<g>
			<g>
				<path style="fill:#263238;" d="M520.018,258.218c0.006,0.017-0.205,0.111-0.615,0.277c-0.462,0.179-1.06,0.41-1.801,0.698
					c-1.589,0.533-3.894,1.315-6.825,1.975c-2.923,0.682-6.451,1.299-10.399,1.708c-3.947,0.422-8.311,0.598-12.886,0.606
					c-4.579-0.019-8.931-0.141-12.894-0.445c-3.959-0.321-7.519-1.102-10.271-2.366c-2.765-1.235-4.688-2.831-5.814-4.077
					c-0.572-0.62-0.955-1.153-1.201-1.52c-0.237-0.375-0.354-0.575-0.338-0.585c0.049-0.035,0.517,0.778,1.687,1.965
					c1.156,1.186,3.079,2.709,5.815,3.88c2.723,1.199,6.231,1.932,10.162,2.225c3.935,0.276,8.294,0.383,12.855,0.402
					c4.561-0.007,8.908-0.169,12.839-0.563c3.932-0.38,7.447-0.957,10.366-1.59c2.926-0.611,5.237-1.336,6.841-1.808
					c0.753-0.249,1.36-0.449,1.829-0.604C519.788,258.263,520.012,258.202,520.018,258.218z"/>
			</g>
		</g>
		<g>
			<g>
				<path style="fill:#263238;" d="M504.656,376.34c0.002,0.018-0.204,0.046-0.597,0.082c-0.45,0.035-1.021,0.079-1.724,0.133
					c-0.382,0.026-0.798,0.054-1.248,0.084c-0.457,0.014-0.953-0.009-1.487-0.014c-1.067-0.033-2.288,0.005-3.623-0.171
					c-0.671-0.067-1.372-0.138-2.102-0.211c-0.73-0.08-1.477-0.249-2.258-0.378c-1.569-0.228-3.198-0.692-4.922-1.133
					c-3.409-1.02-7.07-2.454-10.683-4.419c-3.589-2.012-6.754-4.347-9.433-6.689c-1.293-1.225-2.552-2.356-3.581-3.563
					c-0.525-0.592-1.066-1.134-1.522-1.71c-0.45-0.578-0.883-1.134-1.298-1.666c-0.86-1.036-1.479-2.09-2.075-2.975
					c-0.288-0.449-0.572-0.857-0.804-1.251c-0.214-0.397-0.412-0.764-0.594-1.101c-0.328-0.624-0.595-1.13-0.805-1.53
					c-0.179-0.352-0.265-0.541-0.249-0.549c0.016-0.008,0.133,0.164,0.342,0.5c0.232,0.386,0.526,0.875,0.888,1.478
					c0.193,0.328,0.403,0.685,0.63,1.073c0.242,0.384,0.537,0.782,0.835,1.221c0.615,0.865,1.25,1.896,2.123,2.91
					c0.419,0.521,0.858,1.066,1.313,1.632c0.461,0.564,1.005,1.095,1.532,1.675c1.033,1.184,2.294,2.293,3.582,3.497
					c2.672,2.301,5.813,4.6,9.367,6.592c3.578,1.946,7.196,3.378,10.566,4.415c1.705,0.449,3.315,0.925,4.867,1.169
					c0.772,0.137,1.511,0.314,2.234,0.404c0.722,0.084,1.416,0.165,2.081,0.242c1.323,0.198,2.534,0.186,3.594,0.246
					c0.53,0.019,1.024,0.056,1.479,0.057c0.449-0.014,0.863-0.027,1.243-0.038c0.703-0.014,1.274-0.026,1.724-0.035
					C504.445,376.315,504.654,376.323,504.656,376.34z"/>
			</g>
		</g>
		<g>
			<g>
				<path style="fill:#263238;" d="M396.616,386.547c-0.09,0.008-0.239-1.655-0.732-4.295c-0.489-2.639-1.402-6.247-2.93-10.046
					c-1.538-3.797-3.387-7.027-4.867-9.266c-1.478-2.243-2.526-3.542-2.455-3.599c0.028-0.023,0.313,0.283,0.805,0.856
					c0.499,0.568,1.171,1.433,1.954,2.536c1.57,2.202,3.491,5.441,5.046,9.278c1.545,3.84,2.411,7.505,2.81,10.179
					c0.202,1.337,0.319,2.427,0.355,3.182C396.645,386.127,396.652,386.544,396.616,386.547z"/>
			</g>
		</g>
		<g>
			<g>
				<path style="fill:#263238;" d="M571.902,281.501c-0.021,0.128-2.021-0.41-5.304-0.36c-0.412,0.014-0.84,0.03-1.285,0.045
					c-0.446,0.021-0.906,0.105-1.384,0.156c-0.961,0.081-1.961,0.331-3.02,0.552c-2.092,0.548-4.337,1.367-6.54,2.547
					c-2.185,1.215-4.089,2.66-5.681,4.124c-0.759,0.771-1.51,1.477-2.098,2.241c-0.302,0.374-0.622,0.715-0.88,1.079
					c-0.253,0.365-0.498,0.717-0.733,1.056c-1.818,2.733-2.447,4.706-2.566,4.655c-0.034-0.012,0.132-0.495,0.463-1.362
					c0.156-0.438,0.369-0.965,0.691-1.542c0.312-0.581,0.619-1.273,1.103-1.952c0.23-0.35,0.469-0.715,0.717-1.092
					c0.254-0.376,0.571-0.73,0.871-1.116c0.584-0.79,1.336-1.52,2.1-2.314c1.603-1.51,3.536-2.996,5.763-4.233
					c2.245-1.203,4.54-2.025,6.676-2.556c1.081-0.213,2.102-0.45,3.082-0.514c0.488-0.043,0.956-0.118,1.41-0.129
					c0.452-0.004,0.888-0.008,1.307-0.012c0.833-0.039,1.581,0.076,2.238,0.128c0.66,0.041,1.218,0.147,1.671,0.253
					C571.414,281.345,571.91,281.466,571.902,281.501z"/>
			</g>
		</g>
		<g style="opacity:0.3;">
			<g>
				<path d="M483.863,373.2c-10.817-3.814-21.872-11.696-27.111-21.898c2.491,12.315,11.828,24.978,23.693,29.11
					c11.865,4.132,25.826,1.548,35.428-6.556C505.393,378.517,494.68,377.014,483.863,373.2z"/>
			</g>
		</g>
		<g>
			<g>
				<path style="fill:#263238;" d="M401.573,457.562c-0.018-0.002-0.007-0.228,0.031-0.657c0.049-0.482,0.113-1.102,0.191-1.871
					c0.196-1.686,0.467-4.016,0.798-6.868c0.731-5.849,1.728-13.823,2.829-22.633c0.636-4.887,1.239-9.517,1.773-13.618
					l-0.002,0.035c-0.084-5.443-0.155-10.055-0.206-13.379c-0.008-1.583-0.014-2.856-0.019-3.798
					c0.005-0.403,0.01-0.734,0.014-1.006c0.007-0.228,0.018-0.346,0.031-0.347s0.028,0.117,0.046,0.345
					c0.016,0.272,0.035,0.603,0.059,1.005c0.038,0.941,0.088,2.213,0.152,3.794c0.098,3.322,0.234,7.933,0.395,13.375l0.001,0.017
					l-0.002,0.019c-0.519,4.103-1.105,8.735-1.724,13.624c-1.16,8.803-2.21,16.77-2.98,22.614c-0.4,2.843-0.726,5.167-0.962,6.847
					c-0.118,0.764-0.214,1.38-0.288,1.858C401.637,457.343,401.591,457.565,401.573,457.562z"/>
			</g>
		</g>
		<g>
			<g>
				<path style="fill:#263238;" d="M337.121,381.863c0.015-0.009,0.113,0.121,0.284,0.379c0.2,0.312,0.44,0.687,0.729,1.139
					c0.628,0.992,1.493,2.455,2.52,4.286c2.058,3.66,4.694,8.84,7.165,14.757c2.465,5.922,4.291,11.44,5.442,15.478
					c0.578,2.019,1.009,3.662,1.271,4.807c0.117,0.523,0.215,0.958,0.296,1.319c0.062,0.303,0.086,0.464,0.069,0.468
					c-0.017,0.004-0.076-0.148-0.171-0.442c-0.107-0.354-0.236-0.781-0.39-1.293c-0.322-1.127-0.807-2.753-1.428-4.753
					c-1.239-4.002-3.113-9.482-5.57-15.384c-2.463-5.897-5.037-11.084-7.008-14.781c-0.984-1.849-1.798-3.338-2.372-4.36
					c-0.255-0.471-0.468-0.862-0.644-1.188C337.173,382.021,337.105,381.873,337.121,381.863z"/>
			</g>
		</g>
		<g>
			<g>
				<path style="fill:#FFFFFF;" d="M347.137,399.097c-0.011,0.099-1.574-0.11-4.097-0.03c-1.261,0.031-2.758,0.184-4.399,0.462
					c-1.637,0.306-3.415,0.753-5.225,1.4c-1.803,0.666-3.454,1.465-4.906,2.282c-1.437,0.841-2.683,1.685-3.67,2.471
					c-1.986,1.559-3.05,2.722-3.122,2.653c-0.026-0.024,0.224-0.328,0.701-0.858c0.235-0.269,0.533-0.588,0.908-0.93
					c0.371-0.345,0.778-0.758,1.281-1.152c0.97-0.833,2.212-1.721,3.659-2.599c1.461-0.853,3.135-1.679,4.97-2.357
					c1.841-0.658,3.655-1.099,5.322-1.383c1.673-0.256,3.195-0.373,4.474-0.357c0.639-0.022,1.216,0.035,1.722,0.061
					c0.507,0.021,0.94,0.074,1.293,0.13C346.755,398.989,347.142,399.061,347.137,399.097z"/>
			</g>
		</g>
		<g>
			<g>
				<path style="fill:#FFFFFF;" d="M334.904,380.139c-0.04,0.086-1.067-0.468-2.864-0.876c-1.779-0.415-4.393-0.581-7.07,0.248
					c-2.677,0.832-4.738,2.449-5.97,3.798c-1.251,1.354-1.783,2.392-1.865,2.343c-0.029-0.015,0.074-0.288,0.322-0.752
					c0.247-0.465,0.661-1.109,1.267-1.835c1.193-1.449,3.3-3.184,6.091-4.051c2.791-0.865,5.51-0.627,7.314-0.108
					c0.91,0.255,1.617,0.553,2.083,0.796C334.68,379.944,334.919,380.111,334.904,380.139z"/>
			</g>
		</g>
		<g>
			<g>
				<path style="fill:#FFFFFF;" d="M352.945,419.437c0.021,0.029-0.238,0.249-0.727,0.624c-0.484,0.381-1.225,0.88-2.172,1.446
					c-1.889,1.135-4.681,2.437-7.953,3.277c-3.276,0.83-6.351,1.023-8.552,0.931c-1.102-0.043-1.991-0.127-2.599-0.23
					c-0.609-0.095-0.942-0.164-0.937-0.2c0.011-0.09,1.36,0.068,3.541,0.061c2.178-0.003,5.195-0.251,8.418-1.068
					c3.219-0.826,5.986-2.052,7.9-3.092C351.783,420.148,352.892,419.363,352.945,419.437z"/>
			</g>
		</g>
		<g>
			<g>
				<path style="fill:#FFFFFF;" d="M468.05,261.811c-0.03,0.02-0.191-0.172-0.459-0.54c-0.275-0.363-0.617-0.929-0.986-1.656
					c-0.743-1.449-1.485-3.625-1.692-6.121c-0.197-2.498,0.187-4.764,0.688-6.314c0.248-0.777,0.495-1.39,0.707-1.793
					c0.205-0.407,0.333-0.622,0.366-0.607c0.083,0.037-0.323,0.953-0.719,2.5c-0.4,1.543-0.714,3.746-0.523,6.172
					c0.201,2.424,0.864,4.548,1.506,6.007C467.578,260.923,468.126,261.761,468.05,261.811z"/>
			</g>
		</g>
		<g>
			<g>
				<path style="fill:#FFFFFF;" d="M485.207,262.948c-0.03,0.02-0.201-0.185-0.488-0.576c-0.294-0.387-0.663-0.986-1.066-1.756
					c-0.81-1.535-1.645-3.833-1.945-6.484c-0.291-2.653,0.018-5.079,0.471-6.755c0.224-0.84,0.452-1.506,0.653-1.948
					c0.194-0.445,0.316-0.683,0.349-0.67c0.085,0.033-0.296,1.031-0.644,2.701c-0.353,1.666-0.594,4.029-0.312,6.613
					c0.293,2.582,1.048,4.834,1.759,6.381C484.692,262.008,485.283,262.898,485.207,262.948z"/>
			</g>
		</g>
		<g>
			<g>
				<path style="fill:#FFFFFF;" d="M504.454,261.667c-0.171-0.033,0.937-3.772,0.695-8.494c-0.195-4.725-1.644-8.345-1.477-8.394
					c0.056-0.023,0.49,0.846,0.958,2.343c0.469,1.493,0.925,3.63,1.039,6.027c0.108,2.396-0.148,4.566-0.478,6.096
					C504.863,260.779,504.512,261.685,504.454,261.667z"/>
			</g>
		</g>
		<g>
			<g>
				<path style="fill:#FFFFFF;" d="M365.064,399.422c-0.035,0.009-0.201-0.461-0.471-1.32c-0.298-0.954-0.679-2.175-1.136-3.637
					c-0.962-3.069-2.345-7.291-4.034-11.896c-1.692-4.606-3.369-8.721-4.62-11.684c-0.598-1.41-1.096-2.588-1.486-3.508
					c-0.349-0.83-0.527-1.296-0.495-1.311c0.033-0.015,0.272,0.422,0.679,1.226c0.409,0.803,0.97,1.98,1.639,3.445
					c1.34,2.93,3.075,7.034,4.772,11.652c1.693,4.618,3.024,8.869,3.898,11.97c0.438,1.551,0.77,2.811,0.978,3.688
					C364.999,398.923,365.099,399.412,365.064,399.422z"/>
			</g>
		</g>
		<g>
			<g>
				<path style="fill:#FFFFFF;" d="M370.319,410.928c-0.133,0.055-0.76-1.161-1.399-2.714c-0.64-1.554-1.051-2.858-0.918-2.913
					c0.133-0.055,0.759,1.16,1.399,2.715C370.041,409.569,370.452,410.873,370.319,410.928z"/>
			</g>
		</g>
		<g>
			<g>
				<path style="fill:#FFFFFF;" d="M397.447,418.213c-0.018,0.004-0.083-0.195-0.19-0.578c-0.116-0.439-0.264-0.995-0.446-1.681
					c-0.369-1.464-0.932-3.574-1.662-6.171c-1.456-5.194-3.697-12.309-6.7-19.972c-3.014-7.662-6.213-14.401-8.68-19.198
					c-1.232-2.4-2.255-4.329-2.98-5.653c-0.333-0.626-0.603-1.135-0.817-1.535c-0.182-0.354-0.27-0.544-0.254-0.553
					c0.015-0.009,0.134,0.163,0.345,0.501c0.235,0.388,0.534,0.881,0.902,1.488c0.781,1.294,1.855,3.199,3.13,5.582
					c2.555,4.762,5.817,11.496,8.839,19.178c3.011,7.684,5.203,14.837,6.57,20.065c0.686,2.614,1.195,4.741,1.504,6.221
					c0.143,0.695,0.26,1.26,0.351,1.704C397.434,418.002,397.464,418.21,397.447,418.213z"/>
			</g>
		</g>
		<g>
			<g>
				<path style="fill:#FFFFFF;" d="M403.059,350.062c-0.088,0.114-2.461-1.566-5.299-3.753c-2.84-2.187-5.07-4.052-4.982-4.166
					c0.088-0.114,2.46,1.566,5.299,3.753C400.916,348.083,403.146,349.948,403.059,350.062z"/>
			</g>
		</g>
		<g>
			<g>
				<path style="fill:#FFFFFF;" d="M406.398,326.522c-0.06,0.131-1.073-0.208-2.261-0.757c-1.188-0.548-2.103-1.099-2.042-1.229
					c0.06-0.131,1.072,0.208,2.261,0.757C405.544,325.841,406.458,326.392,406.398,326.522z"/>
			</g>
		</g>
		<g>
			<g>
				<path style="fill:#FFFFFF;" d="M414.32,305.416c-0.04,0.138-2.215-0.363-4.858-1.12c-2.644-0.757-4.754-1.483-4.715-1.621
					c0.04-0.138,2.214,0.363,4.858,1.121C412.249,304.552,414.359,305.278,414.32,305.416z"/>
			</g>
		</g>
		<g>
			<g>
				<path style="fill:#FFFFFF;" d="M446.777,280.939c-0.005,0.144-7.788-0.007-17.382-0.336c-9.598-0.33-17.371-0.713-17.366-0.857
					c0.005-0.144,7.787,0.007,17.384,0.336C439.007,280.412,446.782,280.795,446.777,280.939z"/>
			</g>
		</g>
		<g>
			<g>
				<path style="fill:#FFFFFF;" d="M463.331,281.174c-0.008,0.144-1.348,0.186-2.993,0.095c-1.646-0.092-2.973-0.282-2.965-0.426
					c0.008-0.144,1.348-0.186,2.994-0.094C462.011,280.84,463.339,281.031,463.331,281.174z"/>
			</g>
		</g>
		<g>
			<g>
				<path style="fill:#FFFFFF;" d="M524.234,280.956c-0.002,0.144-9.711,0.113-21.684-0.068c-11.976-0.181-21.68-0.445-21.678-0.589
					c0.002-0.144,9.71-0.113,21.686,0.068C514.53,280.549,524.236,280.813,524.234,280.956z"/>
			</g>
		</g>
		<g>
			<g>
				<path style="fill:#FFFFFF;" d="M548.399,277.864c0,0.144-1.556,0.26-3.475,0.26c-1.92,0-3.476-0.117-3.476-0.26
					s1.556-0.26,3.476-0.26C546.843,277.604,548.399,277.721,548.399,277.864z"/>
			</g>
		</g>
		<g>
			<g>
				<path style="fill:#FFFFFF;" d="M568.259,275.216c0.013,0.143-1.682,0.408-3.784,0.59c-2.103,0.183-3.817,0.215-3.829,0.072
					c-0.012-0.143,1.682-0.408,3.784-0.59C566.532,275.105,568.247,275.073,568.259,275.216z"/>
			</g>
		</g>
		<g>
			<g>
				<path style="fill:#FFFFFF;" d="M527.41,261.185c0.005,0.017-0.277,0.113-0.818,0.279c-0.587,0.174-1.379,0.408-2.376,0.702
					c-1.031,0.309-2.298,0.665-3.788,1.009c-1.487,0.353-3.17,0.804-5.063,1.156c-0.945,0.19-1.933,0.388-2.962,0.595
					c-1.031,0.202-2.114,0.352-3.23,0.54c-2.229,0.397-4.634,0.663-7.161,0.974c-5.063,0.52-10.657,0.857-16.534,0.826
					c-5.879-0.07-11.467-0.503-16.522-1.11c-2.521-0.355-4.921-0.661-7.144-1.097c-1.113-0.207-2.193-0.375-3.22-0.596
					c-1.025-0.225-2.01-0.44-2.951-0.646c-1.886-0.384-3.561-0.864-5.042-1.242c-1.483-0.369-2.744-0.747-3.77-1.074
					c-0.991-0.312-1.779-0.559-2.363-0.743c-0.538-0.175-0.818-0.275-0.813-0.293c0.005-0.017,0.296,0.05,0.844,0.192
					c0.591,0.16,1.386,0.376,2.388,0.648c1.033,0.296,2.299,0.645,3.787,0.987c1.485,0.351,3.162,0.805,5.048,1.165
					c0.941,0.195,1.925,0.399,2.95,0.612c1.026,0.209,2.106,0.367,3.217,0.565c2.219,0.416,4.614,0.706,7.128,1.046
					c5.041,0.579,10.61,0.996,16.468,1.066c5.856,0.031,11.43-0.29,16.48-0.782c2.52-0.297,4.919-0.545,7.144-0.923
					c1.114-0.178,2.196-0.318,3.226-0.509c1.028-0.195,2.016-0.382,2.96-0.561c1.893-0.327,3.577-0.753,5.068-1.078
					c1.493-0.316,2.766-0.643,3.803-0.921c1.006-0.255,1.806-0.457,2.399-0.607C527.113,261.23,527.405,261.168,527.41,261.185z"/>
			</g>
		</g>
		<g>
			<g>
				<path style="fill:#FFFFFF;" d="M537.138,320.401c0,0.009-0.109,0.017-0.321,0.024c-0.24,0.005-0.551,0.011-0.942,0.018
					c-0.862,0.005-2.076,0.011-3.621,0.02c-3.145-0.004-7.695-0.022-13.318-0.106c-11.245-0.159-26.778-0.548-43.918-1.365
					c-17.129-0.863-32.7-1.574-43.778-3.742c-5.543-1.007-9.927-2.3-12.909-3.301c-1.493-0.501-2.635-0.935-3.4-1.254
					c-0.362-0.148-0.65-0.265-0.872-0.356c-0.195-0.083-0.294-0.129-0.29-0.138c0.003-0.008,0.108,0.022,0.31,0.088
					c0.227,0.078,0.521,0.18,0.89,0.308c0.776,0.287,1.927,0.689,3.426,1.16c2.994,0.94,7.378,2.174,12.912,3.132
					c11.054,2.068,26.607,2.722,43.737,3.584c17.134,0.817,32.66,1.264,43.9,1.517c5.595,0.114,10.134,0.207,13.313,0.271
					c1.545,0.033,2.758,0.06,3.62,0.078c0.391,0.014,0.701,0.025,0.941,0.033C537.029,320.382,537.138,320.392,537.138,320.401z"/>
			</g>
		</g>
		<g>
			<g>
				<path style="fill:#FFFFFF;" d="M441.498,354.181c0.003,0.036-0.48,0.101-1.355,0.189c-0.875,0.092-2.146,0.179-3.719,0.243
					c-3.144,0.132-7.504,0.099-12.29-0.358c-4.787-0.464-9.074-1.263-12.135-1.992c-1.531-0.363-2.762-0.69-3.604-0.948
					c-0.843-0.253-1.304-0.409-1.294-0.444c0.01-0.035,0.488,0.055,1.345,0.247c0.855,0.197,2.096,0.469,3.632,0.784
					c3.071,0.635,7.344,1.372,12.106,1.834c4.761,0.455,9.096,0.546,12.232,0.508c1.568-0.017,2.838-0.047,3.715-0.077
					C441.008,354.142,441.496,354.145,441.498,354.181z"/>
			</g>
		</g>
		<g>
			<g>
				<path style="fill:#FFFFFF;" d="M455.056,353.995c0.009,0.144-1.169,0.334-2.632,0.425c-1.463,0.091-2.656,0.049-2.664-0.094
					c-0.009-0.143,1.169-0.334,2.632-0.425C453.854,353.81,455.047,353.852,455.056,353.995z"/>
			</g>
		</g>
		<g>
			<g>
				<path style="fill:#FFFFFF;" d="M515.298,358.978c0,0.018-0.191,0.035-0.556,0.052c-0.423,0.012-0.95,0.028-1.594,0.047
					c-1.384,0.032-3.388,0.047-5.864,0.04c-4.951-0.013-11.792-0.151-19.339-0.52c-7.549-0.372-14.372-0.905-19.301-1.377
					c-2.465-0.235-4.457-0.447-5.831-0.614c-0.639-0.082-1.162-0.149-1.582-0.203c-0.361-0.052-0.55-0.088-0.548-0.106
					c0.002-0.018,0.194-0.017,0.558,0.002c0.422,0.028,0.948,0.063,1.591,0.106c1.453,0.112,3.431,0.264,5.843,0.449
					c4.934,0.378,11.753,0.852,19.295,1.224c7.539,0.368,14.372,0.565,19.319,0.672c2.419,0.052,4.402,0.095,5.859,0.126
					c0.644,0.02,1.171,0.037,1.594,0.051C515.107,358.943,515.298,358.96,515.298,358.978z"/>
			</g>
		</g>
		<g>
			<g>
				<path style="fill:#FFFFFF;" d="M538.732,356.966c0.018,0.143-2.03,0.525-4.576,0.855c-2.546,0.33-4.624,0.481-4.643,0.339
					c-0.018-0.143,2.03-0.525,4.576-0.855C536.635,356.975,538.714,356.824,538.732,356.966z"/>
			</g>
		</g>
		<g>
			<g>
				<path style="fill:#FFFFFF;" d="M548.316,394.901c0.001,0.009-0.12,0.029-0.358,0.058c-0.264,0.03-0.613,0.069-1.055,0.119
					c-0.96,0.096-2.322,0.233-4.061,0.407c-1.764,0.177-3.923,0.379-6.434,0.566c-2.51,0.192-5.367,0.445-8.531,0.624
					c-6.324,0.428-13.865,0.785-22.244,1.02c-8.379,0.202-17.596,0.265-27.267,0.074c-9.674-0.217-18.882-0.669-27.246-1.224
					c-8.362-0.588-15.882-1.263-22.182-1.957c-3.154-0.313-5.997-0.686-8.497-0.984c-2.501-0.293-4.649-0.586-6.404-0.837
					c-1.73-0.248-3.085-0.441-4.04-0.578c-0.44-0.069-0.786-0.122-1.049-0.163c-0.236-0.04-0.356-0.065-0.355-0.073
					c0.001-0.009,0.124-0.002,0.362,0.021c0.264,0.028,0.613,0.065,1.056,0.112c0.957,0.114,2.316,0.275,4.052,0.481
					c1.758,0.22,3.909,0.484,6.412,0.749c2.502,0.27,5.346,0.617,8.501,0.907c6.302,0.647,13.819,1.284,22.176,1.845
					c8.359,0.528,17.56,0.965,27.225,1.182c9.663,0.191,18.871,0.142,27.244-0.033c8.372-0.208,15.909-0.527,22.233-0.908
					c3.164-0.156,6.021-0.383,8.532-0.547c2.512-0.159,4.672-0.332,6.438-0.478c1.743-0.133,3.108-0.237,4.069-0.31
					c0.444-0.028,0.794-0.051,1.06-0.068C548.192,394.894,548.315,394.892,548.316,394.901z"/>
			</g>
		</g>
		<g>
			<g>
				<path style="fill:#FFFFFF;" d="M480.2,439.664c0,0.018-0.262,0.042-0.763,0.07c-0.551,0.025-1.28,0.058-2.192,0.1
					c-1.904,0.082-4.661,0.141-8.069,0.157c-6.814,0.038-16.236-0.202-26.603-1.057c-10.37-0.865-19.703-2.18-26.419-3.339
					c-3.358-0.577-6.068-1.089-7.932-1.484c-0.893-0.191-1.606-0.344-2.146-0.459c-0.489-0.111-0.744-0.177-0.741-0.195
					c0.004-0.017,0.266,0.015,0.761,0.092c0.544,0.091,1.263,0.212,2.163,0.363c1.875,0.333,4.592,0.789,7.954,1.32
					c6.723,1.065,16.049,2.32,26.402,3.184c10.351,0.853,19.754,1.151,26.561,1.207c3.404,0.031,6.159,0.029,8.063,0.008
					c0.913-0.001,1.642-0.001,2.193-0.002C479.936,439.634,480.199,439.646,480.2,439.664z"/>
			</g>
		</g>
		<g>
			<g>
				<path style="fill:#FFFFFF;" d="M505.698,438.668c0.003,0.144-3.33,0.321-7.443,0.395c-4.114,0.074-7.451,0.018-7.453-0.126
					c-0.003-0.144,3.329-0.32,7.444-0.395C502.358,438.468,505.695,438.525,505.698,438.668z"/>
			</g>
		</g>
		<g>
			<g>
				<path style="fill:#FFFFFF;" d="M553.696,436.25c0,0.036-0.454,0.074-1.275,0.113c-0.926,0.034-2.091,0.076-3.477,0.126
					c-3.044,0.099-7.044,0.23-11.466,0.375c-4.423,0.178-8.422,0.34-11.465,0.463c-1.386,0.051-2.55,0.094-3.476,0.128
					c-0.821,0.021-1.277,0.016-1.279-0.02c-0.002-0.036,0.449-0.099,1.266-0.183c0.818-0.085,2.003-0.185,3.468-0.293
					c2.931-0.216,6.985-0.451,11.467-0.615c4.481-0.163,8.541-0.225,11.479-0.223c1.469,0.001,2.659,0.014,3.48,0.039
					C553.241,436.184,553.696,436.214,553.696,436.25z"/>
			</g>
		</g>
		<g>
			<g>
				<path style="fill:#FFFFFF;" d="M566.936,332.074c0,0.036-0.426,0.069-1.195,0.099c-0.877,0.035-1.965,0.08-3.254,0.132
					c-2.745,0.125-6.533,0.388-10.69,0.923c-4.157,0.54-7.888,1.249-10.575,1.826c-1.259,0.277-2.323,0.511-3.18,0.7
					c-0.751,0.167-1.172,0.243-1.181,0.208c-0.01-0.035,0.393-0.177,1.13-0.404c0.736-0.231,1.811-0.528,3.149-0.863
					c2.674-0.671,6.413-1.441,10.591-1.984c4.177-0.538,7.988-0.744,10.745-0.775c1.379-0.017,2.495-0.003,3.265,0.034
					C566.511,332.002,566.936,332.038,566.936,332.074z"/>
			</g>
		</g>
		<g>
			<g>
				<path style="fill:#FFFFFF;" d="M583.154,328.839c0,0.152-2.241,0.242-4.971,0.612c-2.733,0.359-4.919,0.859-4.959,0.712
					c-0.04-0.13,2.116-0.863,4.89-1.228C580.886,328.56,583.159,328.703,583.154,328.839z"/>
			</g>
		</g>
		<g>
			<g>
				<path style="fill:#FFFFFF;" d="M588.748,327.416c0.046,0.136-0.361,0.397-0.908,0.581c-0.548,0.185-1.029,0.224-1.075,0.088
					c-0.046-0.136,0.361-0.397,0.909-0.581C588.221,327.319,588.702,327.28,588.748,327.416z"/>
			</g>
		</g>
		<g>
			<g>
				<path style="fill:#FFFFFF;" d="M583.155,297.235c0,0.036-0.575,0.072-1.612,0.106c-1.037,0.028-2.537,0.085-4.388,0.177
					c-3.702,0.181-8.811,0.584-14.405,1.406c-5.595,0.83-10.602,1.92-14.199,2.817c-1.799,0.447-3.251,0.826-4.252,1.098
					c-1.003,0.267-1.563,0.399-1.573,0.365c-0.011-0.034,0.529-0.232,1.516-0.559c0.985-0.333,2.425-0.767,4.217-1.26
					c3.582-0.991,8.599-2.143,14.216-2.976c5.616-0.826,10.751-1.172,14.467-1.259c1.858-0.045,3.362-0.046,4.401-0.012
					C582.582,297.166,583.156,297.199,583.155,297.235z"/>
			</g>
		</g>
		<g>
			<g>
				<path style="fill:#FFFFFF;" d="M593.756,365.034c0.002,0.018-0.169,0.05-0.494,0.096c-0.385,0.047-0.855,0.104-1.424,0.173
					c-1.317,0.146-3.089,0.342-5.241,0.58c-4.425,0.494-10.53,1.232-17.25,2.217c-6.721,0.989-12.782,2.038-17.161,2.837
					c-2.13,0.391-3.883,0.712-5.187,0.951c-0.565,0.097-1.031,0.178-1.414,0.244c-0.324,0.05-0.497,0.068-0.5,0.05
					c-0.004-0.018,0.161-0.07,0.479-0.153c0.377-0.092,0.837-0.204,1.394-0.34c1.213-0.286,2.975-0.669,5.158-1.114
					c4.366-0.893,10.425-2,17.155-2.991c6.729-0.987,12.85-1.668,17.288-2.068c2.219-0.201,4.017-0.341,5.261-0.416
					c0.573-0.03,1.046-0.055,1.433-0.076C593.582,365.013,593.755,365.016,593.756,365.034z"/>
			</g>
		</g>
		<g>
			<g>
				<path style="fill:#FFFFFF;" d="M570.89,404.171c0.018,0.143-4.262,0.802-9.559,1.473c-5.299,0.671-9.607,1.099-9.625,0.957
					c-0.018-0.143,4.261-0.802,9.56-1.473C566.562,404.457,570.872,404.029,570.89,404.171z"/>
			</g>
		</g>
		<g>
			<g>
				<path style="fill:#FFFFFF;" d="M585.474,402.338c0.023,0.142-1.811,0.555-4.096,0.922c-2.285,0.367-4.156,0.55-4.179,0.408
					c-0.023-0.142,1.811-0.555,4.096-0.922C583.58,402.378,585.451,402.196,585.474,402.338z"/>
			</g>
		</g>
		<g>
			<g>
				<path style="fill:#FFFFFF;" d="M599.373,402.322c0,0.144-1.482,0.26-3.31,0.26c-1.828,0-3.31-0.117-3.31-0.26
					c0-0.144,1.482-0.26,3.31-0.26C597.891,402.062,599.373,402.178,599.373,402.322z"/>
			</g>
		</g>
		<g>
			<g>
				<path style="fill:#FFFFFF;" d="M607.305,440.082c0.001,0.018-0.178,0.043-0.519,0.076c-0.401,0.031-0.894,0.069-1.494,0.116
					c-1.375,0.086-3.234,0.202-5.497,0.344c-4.711,0.294-11.087,0.693-18.132,1.133c-7.044,0.498-13.416,0.949-18.125,1.281
					c-2.261,0.16-4.119,0.291-5.494,0.388c-0.6,0.034-1.094,0.061-1.496,0.083c-0.343,0.013-0.523,0.012-0.525-0.006
					c-0.002-0.018,0.176-0.051,0.515-0.098c0.399-0.049,0.89-0.108,1.487-0.181c1.292-0.147,3.165-0.336,5.481-0.553
					c4.631-0.434,11.037-0.962,18.121-1.434c7.082-0.471,13.5-0.797,18.148-0.981c2.324-0.092,4.205-0.153,5.506-0.179
					c0.602-0.007,1.096-0.013,1.498-0.018C607.123,440.054,607.304,440.064,607.305,440.082z"/>
			</g>
		</g>
		<g style="opacity:0.3;">
			<g>
				<path d="M537.138,321.948c-2.497,6.891-3.999,17.058-2.556,35.65c0.571,7.361-0.395,14.946-3.141,21.8
					c-1.093,2.729-2.313,6.454,0.124,8.099c1.973,1.332,4.724-0.071,6.997,0.633c2.952,0.914,3.692,4.671,3.985,7.748
					c1.737,18.24,6.712,40.525,12.771,57.816C559.061,410.248,535.189,365.511,537.138,321.948z"/>
			</g>
		</g>
		<g style="opacity:0.3;">
			<g>
				<path d="M405.553,426.309l1.876-13.99c-0.298-4.405-0.229-18.224-0.983-24.911c-1.483-13.145-1.436-26.021-0.775-39.508
					c-3.819,10.623-5.697,22.125-4.446,33.344c0.538,4.826,1.55,9.606,1.723,14.459c0.174,4.853-0.565,9.908-3.235,13.964
					c-3.84,5.834-10.997,8.619-17.914,9.595c-12.819,1.809-27.456-2.454-33.937-13.662c1.134,6.336,3.587,12.433,7.157,17.789
					C355.019,423.39,389.769,431.53,405.553,426.309z"/>
			</g>
		</g>
		<g style="opacity:0.3;">
			<g>
				<path d="M486.912,263.225c-20.882-0.919-23.581-2.647-28.85-7.152c-0.018,3.613,3.14,6.418,6.363,8.05
					c17.082,8.652,39.062,6.561,54.207-5.156C508.185,261.238,497.592,263.695,486.912,263.225z"/>
			</g>
		</g>
	</g>
	<g>
		<g>
			<path style="fill:#FFBE9D;" d="M260.744,385.927c0,0,11.49-3.7,25.819-2.956c14.329,0.744,31.03-1.077,31.03-1.077
				c9.127,8.752,12.124,19.732,12.238,31.76l-60.307-6.531L260.744,385.927z"/>
		</g>
		<g>
			<path style="fill:#FFBE9D;" d="M256.68,414.704c-1.732-0.66-3.521,0.751-4.758,2.131c-1.255,1.399-2.507,2.945-4.279,3.569
				l-4.022-4.399l-4.332,10.923c1.668,1.641,3.577,3.036,5.647,4.126c1.473,0.775,3.183,1.407,4.775,0.923
				c1.773-0.54,2.859-2.277,3.784-3.884c1.156-2.005,2.311-4.011,3.466-6.016c0.703-1.22,1.422-2.49,1.549-3.893
				C258.637,416.782,257.996,415.205,256.68,414.704z"/>
		</g>
		<g>
			<path style="fill:#FFBE9D;" d="M261.189,385.729c0,0-14.11,9.29-16.645,10.685c-2.535,1.395-13.892,25.463-13.892,25.463
				l2.093,29.298c0,0,5.397-0.313,6.91-6.354c1.513-6.041,2.15-19.385,2.15-19.385l10.348-13.158l21.332-6.383L261.189,385.729z"/>
		</g>
		<g>
			<path style="fill:#FFBE9D;" d="M251.184,404.875c-0.047,4.325,5.188,6.645,3.632,11.475c0.315,6.992,0.211,11.363-0.414,17.06
				c-0.089,0.811,1.367,2.594,2.037,3.06c0.941,0.656,2.248,0.093,3.131-0.638c2.42-2.005,3.668-5.103,4.332-8.175
				c0.663-3.072,0.837-6.239,1.598-9.288c0.964-3.866,2.843-7.442,4.024-11.247c1.181-3.805,1.599-8.124-0.292-11.63"/>
		</g>
	</g>
	<g>
		<g>
			<path style="fill:#EB996E;" d="M250.522,405.263c0.014-0.023,0.355,0.134,0.873,0.565c0.516,0.43,1.184,1.166,1.759,2.227
				c1.195,2.11,1.901,5.417,2.099,9.031c0.222,3.624,0.111,6.903,0.001,9.269c-0.057,1.184-0.122,2.14-0.177,2.8
				c-0.056,0.66-0.104,1.025-0.14,1.023c-0.036-0.001-0.056-0.368-0.063-1.031c0.003-0.778,0.007-1.712,0.012-2.803
				c0.016-2.365,0.068-5.634-0.153-9.225c-0.197-3.586-0.833-6.811-1.906-8.894C251.794,406.107,250.447,405.337,250.522,405.263z"
				/>
		</g>
	</g>
	<g>
		<g>
			<path style="fill:#EB996E;" d="M270.25,394.628c0.062-0.017,0.323,0.671,0.56,1.832c0.239,1.159,0.42,2.8,0.34,4.612
				c-0.085,1.813-0.414,3.431-0.757,4.564c-0.342,1.135-0.664,1.796-0.724,1.774c-0.158-0.048,0.816-2.807,0.961-6.361
				C270.807,397.499,270.088,394.662,270.25,394.628z"/>
		</g>
	</g>
	<g>
		<g>
			<path style="fill:#EB996E;" d="M251.992,412.25c0.027,0.023-0.239,0.386-0.744,1.021c-0.581,0.71-1.309,1.599-2.175,2.657
				c-0.957,1.138-2.063,2.453-3.277,3.897c-0.623,0.733-1.274,1.498-1.947,2.289c-0.656,0.788-1.363,1.628-1.734,2.594
				c-0.298,0.983-0.379,2.098-0.495,3.117c-0.105,1.033-0.178,2.035-0.253,2.99c-0.144,1.882-0.275,3.595-0.389,5.077
				c-0.124,1.446-0.258,2.615-0.389,3.419c-0.131,0.805-0.29,1.236-0.316,1.227c-0.042-0.013,0.047-0.448,0.115-1.252
				c0.069-0.805,0.146-1.972,0.223-3.418c0.081-1.485,0.175-3.2,0.277-5.085c0.062-0.957,0.126-1.963,0.224-3.005
				c0.117-1.048,0.171-2.111,0.514-3.249c0.429-1.104,1.163-1.942,1.834-2.744c0.682-0.785,1.341-1.544,1.972-2.271
				c1.246-1.417,2.38-2.707,3.362-3.824c0.916-1.015,1.686-1.868,2.301-2.549C251.646,412.544,251.965,412.226,251.992,412.25z"/>
		</g>
	</g>
</g>
<g id="Meter">
	<g>
		<g>
			<path style="fill:#FF725E;" d="M197.753,102.766c-9.037-0.577-18.114,0.721-27.153,0.167c-9.223-0.564-18.236-3.045-27.443-3.835
				c-9.207-0.79-19.13,0.359-26.34,6.14c7.939,1.846,15.475,5.406,21.942,10.366c-10.244,2.048-20.84,1.028-31.241,2.01
				c-10.4,0.981-21.41,4.55-27.329,13.158c10.142-2.339,21.53,2.563,26.802,11.537c-8.933,8.481-21.075,13.496-33.389,13.792
				c2.458,10.68,13.989,16.263,24.308,19.952c10.32,3.689,22.003,8.079,26.076,18.253c-4.127,0.717-8.254,1.433-12.382,2.15
				c8.5,6.573,15.113,15.217,21.965,23.494c6.852,8.277,14.238,16.442,23.679,21.574c9.441,5.132,21.392,6.783,30.894,1.766
				l68.66-92.53C249.599,124.678,224.758,104.489,197.753,102.766z"/>
		</g>
		<g>
			
				<ellipse transform="matrix(0.2238 -0.9746 0.9746 0.2238 -22.2947 337.9436)" style="fill:#F5F5F5;" cx="201.026" cy="182.969" rx="68.49" ry="68.49"/>
		</g>
		<g>
			<g>
				<path style="fill:#FF725E;" d="M263.862,181.307c0-0.001,0-0.001,0-0.002c-0.085-16.752-6.801-31.929-17.654-43.057
					c-10.975-11.253-26.177-18.348-43.045-18.733c-0.48-0.011-0.957-0.036-1.441-0.036c-17.747,0-33.744,7.451-45.068,19.381
					c-0.002,0.002-0.005,0.005-0.007,0.007c-10.528,11.094-17.012,26.059-17.068,42.547c0,0.071-0.005,0.142-0.005,0.213
					c0,16.948,6.792,32.304,17.793,43.516l16.913-18.29c-6.213-6.585-10.029-15.457-10.029-25.226c0-0.08,0.006-0.159,0.006-0.239
					c0.06-9.385,3.632-17.935,9.472-24.401c0.011-0.012,0.022-0.026,0.033-0.038c6.729-7.429,16.451-12.097,27.264-12.097
					c0.662,0,1.319,0.019,1.972,0.054c9.737,0.514,18.462,4.822,24.745,11.464c6.162,6.516,9.968,15.28,10.051,24.937c0,0,0,0,0,0
					c0.001,0.107,0.008,0.212,0.008,0.319c0,10.165-4.124,19.366-10.79,26.022l18.504,18.068
					c11.334-11.258,18.355-26.853,18.355-44.091C263.871,181.52,263.863,181.414,263.862,181.307z"/>
			</g>
			<g>
				<g>
					<path style="fill:#FF725E;" d="M173.763,156.948c-4.733-5.048-13.232-14.091-17.109-18.089
						c-0.002,0.002-0.005,0.005-0.007,0.007l17.082,18.12C173.741,156.974,173.752,156.961,173.763,156.948z"/>
				</g>
				<g>
					<polygon style="fill:#FF725E;" points="237.794,181.307 263.862,181.307 263.862,181.305 237.794,181.307 					"/>
				</g>
				<g style="opacity:0.6;">
					<path d="M237.802,181.626c0,10.165-4.124,19.366-10.79,26.022l18.504,18.068c11.334-11.258,18.355-26.853,18.355-44.091
						c0-0.107-0.008-0.212-0.008-0.319h-26.068C237.795,181.414,237.802,181.52,237.802,181.626z"/>
				</g>
				<g style="opacity:0.5;">
					<path d="M237.794,181.307l26.068-0.002c-0.085-16.752-6.801-31.929-17.654-43.057l-18.465,18.122
						C233.906,162.886,237.711,171.65,237.794,181.307z"/>
				</g>
				<g style="opacity:0.4;">
					<path d="M202.999,144.905c9.737,0.514,18.462,4.822,24.745,11.464l18.465-18.122c-10.975-11.253-26.177-18.348-43.045-18.733
						L203,144.904L202.999,144.905z"/>
				</g>
				<g style="opacity:0.3;">
					<path d="M201.027,144.851c0.662,0,1.319,0.019,1.972,0.054l0.001-0.001l0.163-25.389c-0.48-0.011-0.957-0.036-1.441-0.036
						c-17.747,0-33.744,7.451-45.068,19.381c3.877,3.998,12.375,13.041,17.109,18.089
						C180.492,149.519,190.214,144.851,201.027,144.851z"/>
				</g>
				<g style="opacity:0.2;">
					<path d="M164.258,181.387c0.06-9.385,3.632-17.935,9.472-24.401l-17.082-18.12c-10.528,11.094-17.012,26.059-17.068,42.547
						C144.329,181.498,155.75,181.445,164.258,181.387z"/>
				</g>
			</g>
		</g>
		<g>
			<path style="fill:#263238;" d="M269.516,182.969c0,0-0.019-0.376-0.042-1.11c-0.011-0.368-0.025-0.824-0.041-1.367
				c-0.013-0.544-0.028-1.175-0.097-1.889c-0.056-0.714-0.119-1.513-0.189-2.394c-0.09-0.879-0.231-1.836-0.36-2.876
				c-0.292-2.074-0.744-4.45-1.392-7.092c-0.697-2.627-1.545-5.538-2.806-8.6c-1.236-3.067-2.759-6.338-4.763-9.642
				c-3.959-6.616-9.639-13.54-17.381-19.445c-3.854-2.96-8.237-5.617-13.067-7.812c-4.827-2.192-10.102-3.953-15.728-4.967
				c-5.616-1.037-11.561-1.446-17.632-0.974c-3.04,0.18-6.096,0.674-9.164,1.281c-3.061,0.654-6.115,1.532-9.142,2.606
				c-3.005,1.13-5.998,2.418-8.896,3.978c-2.886,1.576-5.721,3.329-8.423,5.333c-2.69,2.017-5.273,4.233-7.715,6.645
				c-2.41,2.442-4.672,5.075-6.753,7.882c-2.091,2.802-3.922,5.828-5.574,8.972c-0.393,0.797-0.837,1.571-1.191,2.39
				c-0.368,0.813-0.736,1.627-1.105,2.443c-0.66,1.665-1.342,3.33-1.886,5.051c-1.121,3.427-2.049,6.956-2.604,10.576
				c-0.57,3.615-0.87,7.295-0.895,11.001c0.025,3.708,0.322,7.389,0.892,11.005c0.556,3.62,1.482,7.151,2.603,10.579l0.433,1.281
				l0.216,0.64l0.247,0.628c0.33,0.836,0.66,1.671,0.988,2.504c0.369,0.816,0.737,1.631,1.105,2.444
				c0.352,0.82,0.798,1.594,1.191,2.391c1.652,3.145,3.483,6.173,5.574,8.975c2.081,2.808,4.343,5.442,6.754,7.884
				c2.442,2.412,5.025,4.629,7.716,6.647c2.702,2.004,5.538,3.758,8.424,5.335c2.898,1.56,5.891,2.849,8.897,3.978
				c3.028,1.074,6.081,1.952,9.143,2.606c3.069,0.607,6.125,1.101,9.165,1.281c6.072,0.473,12.018,0.063,17.634-0.975
				c5.627-1.014,10.902-2.776,15.729-4.969c4.83-2.195,9.212-4.853,13.066-7.813c7.742-5.906,13.421-12.83,17.379-19.446
				c2.004-3.305,3.527-6.575,4.762-9.642c1.261-3.062,2.108-5.972,2.805-8.599c0.648-2.642,1.1-5.018,1.391-7.091
				c0.129-1.039,0.27-1.996,0.36-2.875c0.069-0.881,0.132-1.68,0.189-2.394c0.069-0.713,0.084-1.344,0.097-1.888
				c0.016-0.543,0.03-0.999,0.041-1.367C269.497,183.345,269.516,182.969,269.516,182.969s0,0.376-0.014,1.111
				c-0.008,0.368-0.017,0.825-0.028,1.368c-0.009,0.544-0.019,1.176-0.084,1.89c-0.052,0.715-0.111,1.515-0.176,2.397
				c-0.085,0.88-0.223,1.839-0.347,2.88c-0.283,2.077-0.728,4.458-1.369,7.105c-0.69,2.633-1.531,5.551-2.788,8.621
				c-1.23,3.075-2.75,6.356-4.752,9.672c-3.955,6.638-9.638,13.589-17.393,19.521c-3.861,2.974-8.253,5.644-13.096,7.851
				c-4.84,2.204-10.13,3.977-15.774,4.999c-5.634,1.046-11.599,1.461-17.692,0.991c-3.051-0.178-6.118-0.672-9.198-1.279
				c-3.073-0.655-6.139-1.534-9.178-2.611c-3.018-1.132-6.022-2.424-8.932-3.989c-2.898-1.581-5.745-3.34-8.458-5.351
				c-2.702-2.024-5.296-4.248-7.747-6.669c-2.421-2.451-4.693-5.094-6.783-7.913c-2.1-2.813-3.939-5.852-5.598-9.009
				c-0.395-0.8-0.842-1.577-1.196-2.4c-0.369-0.816-0.739-1.634-1.109-2.454c-0.33-0.837-0.661-1.675-0.993-2.514l-0.248-0.63
				l-0.217-0.642l-0.435-1.286c-1.126-3.442-2.055-6.987-2.614-10.621c-0.572-3.63-0.871-7.326-0.896-11.049
				c0.025-3.721,0.326-7.416,0.898-11.045c0.558-3.634,1.489-7.176,2.615-10.617c0.547-1.729,1.231-3.4,1.894-5.071
				c0.37-0.819,0.74-1.637,1.109-2.453c0.355-0.823,0.801-1.6,1.196-2.4c1.659-3.156,3.498-6.194,5.598-9.006
				c2.09-2.818,4.361-5.46,6.782-7.91c2.451-2.42,5.045-4.644,7.746-6.667c2.712-2.011,5.559-3.769,8.457-5.35
				c2.909-1.564,5.913-2.856,8.931-3.988c3.039-1.077,6.104-1.956,9.177-2.611c3.079-0.607,6.147-1.101,9.197-1.279
				c6.093-0.47,12.057-0.055,17.691,0.99c5.644,1.022,10.935,2.794,15.774,4.998c4.842,2.207,9.235,4.876,13.096,7.85
				c7.756,5.932,13.44,12.882,17.395,19.52c2.002,3.316,3.522,6.597,4.753,9.672c1.257,3.071,2.098,5.989,2.788,8.622
				c0.641,2.648,1.086,5.029,1.369,7.106c0.125,1.041,0.262,2,0.347,2.88c0.065,0.882,0.123,1.682,0.176,2.398
				c0.065,0.714,0.075,1.346,0.084,1.891c0.011,0.544,0.02,1,0.028,1.369C269.516,182.593,269.516,182.969,269.516,182.969z"/>
		</g>
		<g>
			
				<ellipse transform="matrix(0.9225 -0.386 0.386 0.9225 -54.9958 92.0551)" style="fill:#E0E0E0;" cx="201.723" cy="182.969" rx="14.271" ry="14.271"/>
		</g>
		<g>
			<path style="fill:#455A64;" d="M197.52,183.922L197.52,183.922c0.624,2.136,2.854,3.369,4.995,2.762l49.626-14.086l-51.216,6.166
				C198.44,179.063,196.818,181.52,197.52,183.922z"/>
		</g>
		<g>
			<path style="fill:#263238;" d="M227.538,167.961c-0.004,0.002-0.039-0.064-0.103-0.193c-0.068-0.141-0.16-0.332-0.278-0.575
				c-0.124-0.252-0.261-0.571-0.451-0.935c-0.198-0.362-0.424-0.777-0.678-1.243c-0.262-0.464-0.591-0.956-0.929-1.509
				c-0.361-0.537-0.77-1.111-1.22-1.717c-0.925-1.196-2.065-2.49-3.448-3.797c-2.785-2.57-6.632-5.166-11.443-6.662
				c-2.396-0.741-5.016-1.218-7.75-1.257c-2.731-0.051-5.567,0.275-8.371,1.006c-2.798,0.761-5.421,1.888-7.765,3.291
				c-2.353,1.394-4.389,3.11-6.099,4.945c-3.43,3.691-5.477,7.857-6.614,11.471c-0.55,1.821-0.895,3.511-1.102,5.008
				c-0.089,0.75-0.158,1.451-0.204,2.096c-0.019,0.647-0.059,1.239-0.056,1.771c0.011,0.53,0.021,1.003,0.03,1.415
				c0.016,0.41,0.056,0.755,0.074,1.035c0.019,0.27,0.034,0.481,0.045,0.637c0.009,0.144,0.011,0.218,0.006,0.218
				c-0.005,0.001-0.016-0.072-0.034-0.215c-0.018-0.156-0.042-0.366-0.072-0.635c-0.026-0.28-0.075-0.625-0.1-1.035
				c-0.016-0.413-0.034-0.887-0.055-1.419c-0.012-0.534,0.021-1.128,0.032-1.779c0.039-0.649,0.101-1.354,0.183-2.109
				c0.194-1.507,0.528-3.209,1.069-5.046c1.121-3.645,3.164-7.852,6.614-11.585c1.72-1.856,3.773-3.594,6.146-5.003
				c2.364-1.419,5.01-2.558,7.833-3.326c2.83-0.737,5.691-1.065,8.447-1.009c2.759,0.043,5.403,0.529,7.818,1.284
				c4.849,1.523,8.714,4.156,11.499,6.76c1.383,1.324,2.519,2.635,3.437,3.845c0.447,0.614,0.851,1.195,1.207,1.739
				c0.333,0.559,0.657,1.058,0.913,1.527c0.247,0.472,0.467,0.892,0.658,1.258c0.183,0.368,0.312,0.692,0.428,0.948
				c0.107,0.249,0.191,0.443,0.253,0.587C227.516,167.89,227.543,167.959,227.538,167.961z"/>
		</g>
		<g>
			<path style="fill:#263238;" d="M221.637,166.534c-0.008,0.005-0.092-0.103-0.245-0.313c-0.158-0.206-0.361-0.53-0.669-0.915
				c-0.587-0.789-1.5-1.887-2.763-3.108c-1.259-1.223-2.903-2.538-4.905-3.713c-1.998-1.177-4.368-2.185-6.97-2.812
				c-2.609-0.603-5.18-0.763-7.494-0.603c-2.316,0.156-4.375,0.597-6.048,1.127c-1.676,0.528-2.983,1.102-3.861,1.544
				c-0.447,0.206-0.774,0.406-1.008,0.519c-0.23,0.119-0.354,0.178-0.359,0.17c-0.005-0.008,0.109-0.083,0.331-0.218
				c0.225-0.129,0.545-0.344,0.986-0.566c0.867-0.473,2.17-1.078,3.851-1.633c1.678-0.558,3.751-1.023,6.089-1.194
				c2.335-0.175,4.935-0.022,7.574,0.588c2.632,0.634,5.025,1.66,7.035,2.861c2.014,1.199,3.66,2.541,4.911,3.791
				c1.255,1.249,2.15,2.372,2.714,3.184c0.296,0.396,0.485,0.731,0.629,0.947C221.576,166.411,221.645,166.529,221.637,166.534z"/>
		</g>
		<g>
			<path style="fill:#263238;" d="M193.597,223.471v2.872h-11.51v-2.285l5.874-5.548c1.349-1.284,1.589-2.067,1.589-2.808
				c0-1.196-0.827-1.893-2.438-1.893c-1.305,0-2.415,0.5-3.155,1.523l-2.567-1.654c1.175-1.719,3.307-2.828,6.049-2.828
				c3.395,0,5.657,1.74,5.657,4.504c0,1.48-0.413,2.829-2.546,4.809l-3.503,3.308H193.597z"/>
			<path style="fill:#263238;" d="M206.566,221.556c0,2.698-1.98,5.048-6.332,5.048c-2.111,0-4.33-0.587-5.809-1.632l1.393-2.698
				c1.153,0.871,2.741,1.371,4.33,1.371c1.762,0,2.85-0.739,2.85-1.979c0-1.197-0.783-1.98-3.546-1.98h-3.895l0.783-8.573h9.291
				v2.829h-6.354l-0.239,2.894h1.24C204.781,216.834,206.566,218.858,206.566,221.556z"/>
			<path style="fill:#263238;" d="M220.578,221.535c0,3.111-2.546,5.069-5.766,5.069c-4.2,0-6.811-2.633-6.811-7.55
				c0-5.266,3.177-8.203,7.768-8.203c1.61,0,3.177,0.37,4.243,1.044l-1.305,2.59c-0.849-0.566-1.828-0.762-2.851-0.762
				c-2.546,0-4.178,1.501-4.287,4.417c0.892-0.893,2.176-1.349,3.765-1.349C218.271,216.791,220.578,218.662,220.578,221.535z
				 M217.162,221.708c0-1.393-1.023-2.284-2.589-2.284c-1.545,0-2.633,0.957-2.633,2.284c0,1.306,0.979,2.263,2.676,2.263
				C216.117,223.971,217.162,223.101,217.162,221.708z"/>
		</g>
		<g>
			<path style="fill:#263238;" d="M194.751,237.749l-0.011-6.343l-3.103,5.358h-0.265l-3.103-5.338v6.322h-0.529v-7.413h0.455
				l3.315,5.729l3.314-5.729h0.445l0.01,7.413H194.751z"/>
			<path style="fill:#263238;" d="M203.196,234.986c0,1.651-1.175,2.806-2.732,2.806c-0.996,0-1.832-0.497-2.266-1.345v1.303h-0.508
				v-7.857h0.529v3.59c0.445-0.826,1.271-1.303,2.245-1.303C202.021,232.179,203.196,233.323,203.196,234.986z M202.667,234.986
				c0-1.388-0.964-2.33-2.234-2.33c-1.271,0-2.224,0.942-2.224,2.33c0,1.387,0.953,2.329,2.224,2.329
				C201.703,237.315,202.667,236.372,202.667,234.986z"/>
			<path style="fill:#263238;" d="M210.34,234.986c0,1.662-1.175,2.806-2.732,2.806c-0.974,0-1.8-0.477-2.245-1.302v3.314h-0.529
				v-7.582h0.508v1.302c0.434-0.847,1.271-1.345,2.266-1.345C209.165,232.179,210.34,233.333,210.34,234.986z M209.811,234.986
				c0-1.388-0.964-2.33-2.234-2.33c-1.271,0-2.224,0.942-2.224,2.33c0,1.387,0.953,2.329,2.224,2.329
				C208.847,237.315,209.811,236.372,209.811,234.986z"/>
			<path style="fill:#263238;" d="M211.163,237.082l0.244-0.424c0.423,0.36,1.175,0.667,1.991,0.667
				c1.165,0,1.631-0.413,1.631-1.037c0-1.61-3.664-0.424-3.664-2.595c0-0.837,0.699-1.515,2.097-1.515
				c0.699,0,1.461,0.212,1.895,0.54l-0.244,0.424c-0.466-0.339-1.069-0.498-1.663-0.498c-1.08,0-1.557,0.445-1.557,1.038
				c0,1.662,3.664,0.487,3.664,2.595c0,0.899-0.773,1.514-2.181,1.514C212.465,237.791,211.597,237.485,211.163,237.082z"/>
		</g>
		<g>
			<path style="fill:#FF725E;" d="M76.993,143.453c-2.628-3.617-10.43-5.856-14.825-5.036c-2.386,0.445-4.568,1.603-6.847,2.44
				c-2.278,0.836-4.842,1.345-7.105,0.467C55.195,147.812,68.958,148.575,76.993,143.453"/>
		</g>
	</g>
</g>
<g id="Desk">
	<g>
		<g>
			<path style="fill:#263238;" d="M685.694,457.562c0,0.144-138.834,0.261-310.055,0.261c-171.281,0-310.085-0.117-310.085-0.261
				c0-0.144,138.805-0.26,310.085-0.26C546.859,457.302,685.694,457.419,685.694,457.562z"/>
		</g>
	</g>
</g>
</svg>
