<?xml version="1.0" encoding="utf-8"?>
<!-- Generator: Adobe Illustrator 27.5.0, SVG Export Plug-In . SVG Version: 6.00 Build 0)  -->
<svg version="1.1" xmlns="http://www.w3.org/2000/svg" xmlns:xlink="http://www.w3.org/1999/xlink" x="0px" y="0px"
	 viewBox="0 0 500 500" style="enable-background:new 0 0 500 500;" xml:space="preserve">
<g id="Background_Complete">
	<g>
		<g>
			<g>
				<g>
					<g>
						<g>
							<g>
								<g>
									<g>
										
											<rect x="77.006" y="65.764" transform="matrix(-1 -1.224647e-16 1.224647e-16 -1 239.1247 220.2505)" style="fill:#E0E0E0;" width="85.112" height="88.722"/>
									</g>
								</g>
							</g>
						</g>
					</g>
				</g>
			</g>
		</g>
		<g>
			<g>
				<g>
					<g>
						<g>
							<g>
								<g>
									<g>
										
											<rect x="82.77" y="65.764" transform="matrix(-1 -1.224647e-16 1.224647e-16 -1 250.6523 220.2505)" style="fill:#FAFAFA;" width="85.112" height="88.722"/>
									</g>
								</g>
							</g>
						</g>
					</g>
				</g>
			</g>
			<g>
				<g>
					<g>
						<g>
							<g>
								<g>
									<g>
										<path style="fill:#E0E0E0;" d="M82.744,65.738h85.164v88.775H82.744V65.738z M167.856,65.791H82.797v88.669h85.059V65.791
											z"/>
									</g>
								</g>
							</g>
						</g>
					</g>
				</g>
			</g>
		</g>
		<g>
			<g>
				<g>
					<g>
						<g>
							<g>
								<g>
									<g>
										
											<rect x="94.212" y="77.691" transform="matrix(-1 -1.224647e-16 1.224647e-16 -1 250.6527 220.2505)" style="fill:#FFFFFF;" width="62.229" height="64.868"/>
									</g>
								</g>
							</g>
						</g>
					</g>
				</g>
			</g>
		</g>
		<g>
			<g>
				<g>
					<g>
						<g>
							<g>
								<g>
									<g>
										<g>
											<path style="fill:#E0E0E0;" d="M156.441,142.991c-0.049,0.058,0.542,0.737,1.536,1.785
												c0.994,1.049,2.39,2.468,3.956,4.01c1.566,1.542,3.005,2.916,4.065,3.891c1.061,0.975,1.745,1.552,1.799,1.498
												c0.054-0.054-0.534-0.729-1.527-1.778c-0.994-1.049-2.394-2.472-3.964-4.018c-1.57-1.546-3.012-2.923-4.073-3.898
												C157.17,143.506,156.49,142.933,156.441,142.991z"/>
										</g>
									</g>
								</g>
							</g>
						</g>
					</g>
				</g>
			</g>
		</g>
		<g>
			<g>
				<g>
					<g>
						<g>
							<g>
								<g>
									<g>
										<g>
											<path style="fill:#E0E0E0;" d="M94.212,142.832c-0.058-0.049-0.737,0.542-1.786,1.535
												c-1.049,0.994-2.468,2.391-4.01,3.956c-1.542,1.566-2.916,3.005-3.891,4.065c-0.975,1.061-1.552,1.745-1.498,1.799
												c0.054,0.054,0.729-0.534,1.778-1.527c1.049-0.994,2.472-2.394,4.018-3.965c1.546-1.57,2.923-3.012,3.898-4.073
												C93.696,143.561,94.27,142.881,94.212,142.832z"/>
										</g>
									</g>
								</g>
							</g>
						</g>
					</g>
				</g>
			</g>
		</g>
		<g>
			<g>
				<g>
					<g>
						<g>
							<g>
								<g>
									<g>
										<g>
											<path style="fill:#E0E0E0;" d="M94.382,77.864c0.049-0.058-0.542-0.737-1.536-1.785c-0.994-1.049-2.39-2.468-3.956-4.01
												c-1.566-1.543-3.004-2.916-4.065-3.892c-1.061-0.975-1.745-1.552-1.799-1.498c-0.053,0.054,0.534,0.729,1.527,1.778
												c0.994,1.049,2.394,2.471,3.965,4.018c1.57,1.546,3.012,2.923,4.073,3.899C93.653,77.349,94.333,77.922,94.382,77.864z"
												/>
										</g>
									</g>
								</g>
							</g>
						</g>
					</g>
				</g>
			</g>
		</g>
		<g>
			<g>
				<g>
					<g>
						<g>
							<g>
								<g>
									<g>
										<g>
											<path style="fill:#E0E0E0;" d="M156.611,78.023c0.058,0.049,0.737-0.542,1.785-1.535c1.049-0.994,2.468-2.391,4.01-3.956
												c1.542-1.566,2.916-3.004,3.891-4.065c0.975-1.061,1.552-1.745,1.498-1.798c-0.054-0.054-0.729,0.533-1.778,1.527
												c-1.049,0.994-2.472,2.394-4.018,3.965c-1.546,1.57-2.923,3.012-3.898,4.073
												C157.126,77.294,156.553,77.974,156.611,78.023z"/>
										</g>
									</g>
								</g>
							</g>
						</g>
					</g>
				</g>
			</g>
		</g>
		<g>
			<g>
				<g>
					<g>
						<g>
							<g>
								<g>
									<g>
										<g>
											<path style="fill:#E0E0E0;" d="M94.382,142.559c0.004-0.004,0.009-0.111,0.013-0.315
												c0.003-0.221,0.008-0.519,0.014-0.905c0.007-0.813,0.016-1.983,0.028-3.502c0.015-3.073,0.036-7.544,0.063-13.221
												c0.029-11.361,0.071-27.546,0.122-46.925l-0.24,0.24c18.116,0.01,39.39,0.022,62.052,0.036h0.006l-0.275-0.276
												c0.014,23.809,0.028,46.083,0.039,64.868l0.237-0.236c-18.596,0.05-34.079,0.092-44.935,0.121
												c-5.423,0.027-9.69,0.048-12.622,0.062c-1.448,0.012-2.563,0.021-3.339,0.027c-0.367,0.006-0.651,0.01-0.863,0.013
												C94.487,142.551,94.386,142.555,94.382,142.559c-0.005,0.005,0.088,0.009,0.274,0.014
												c0.205,0.003,0.481,0.007,0.837,0.013c0.766,0.006,1.865,0.015,3.294,0.027c2.919,0.014,7.167,0.035,12.568,0.062
												c10.892,0.029,26.427,0.071,45.085,0.121l0.236,0.001l0-0.238c0.011-18.785,0.025-41.059,0.039-64.868l0-0.275h-0.276
												h-0.006c-22.662,0.013-43.937,0.025-62.052,0.035h-0.241l0,0.24c0.051,19.443,0.093,35.681,0.122,47.079
												c0.028,5.654,0.049,10.106,0.063,13.166c0.012,1.499,0.021,2.653,0.028,3.456c0.006,0.375,0.01,0.664,0.013,0.879
												C94.373,142.467,94.377,142.564,94.382,142.559z"/>
										</g>
									</g>
								</g>
							</g>
						</g>
					</g>
				</g>
			</g>
		</g>
		<g>
			<g>
				<g>
					<g>
						<g>
							<g>
								<g>
									<g>
										
											<rect x="114.944" y="99.743" transform="matrix(-1 -1.224647e-16 1.224647e-16 -1 250.6527 220.2504)" style="fill:#EBEBEB;" width="20.765" height="20.765"/>
									</g>
								</g>
							</g>
						</g>
					</g>
				</g>
			</g>
		</g>
	</g>
	<g>
		<g>
			
				<rect x="53.103" y="269.919" transform="matrix(-1 -1.224647e-16 1.224647e-16 -1 208.6486 733.4871)" style="fill:#E0E0E0;" width="102.443" height="193.65"/>
		</g>
		<g>
			
				<rect x="83.505" y="269.919" transform="matrix(-1 -1.224647e-16 1.224647e-16 -1 269.4535 733.4871)" style="fill:#F5F5F5;" width="102.443" height="193.65"/>
		</g>
		<g>
			<g>
				<path style="fill:#E0E0E0;" d="M91.046,279.083h87.932v30.696H91.046V279.083z M177.898,280.163H92.127v28.536h85.771V280.163z"
					/>
			</g>
			<g>
				<path style="fill:#EBEBEB;" d="M122.679,285.739h23.474c2.733,0,4.948-2.215,4.948-4.948v-1.169h-33.37v1.169
					C117.731,283.524,119.947,285.739,122.679,285.739z"/>
			</g>
		</g>
		<g>
			<g>
				<path style="fill:#E0E0E0;" d="M91.046,318.075h87.932v30.696H91.046V318.075z M177.898,319.155H92.127v28.536h85.771V319.155z"
					/>
			</g>
			<g>
				<path style="fill:#EBEBEB;" d="M122.68,324.732h23.474c2.733,0,4.948-2.215,4.948-4.948v-1.169h-33.37v1.169
					C117.731,322.517,119.947,324.732,122.68,324.732z"/>
			</g>
		</g>
		<g>
			<g>
				<path style="fill:#E0E0E0;" d="M91.046,357.068h87.932v30.696H91.046V357.068z M177.898,358.148H92.127v28.536h85.771V358.148z"
					/>
			</g>
			<g>
				<path style="fill:#EBEBEB;" d="M122.679,363.724h23.474c2.733,0,4.948-2.215,4.948-4.948v-1.169h-33.37v1.169
					C117.731,361.509,119.947,363.724,122.679,363.724z"/>
			</g>
		</g>
		<g>
			<g>
				<path style="fill:#E0E0E0;" d="M91.046,396.06h87.932v30.696H91.046V396.06z M177.898,397.14H92.127v28.536h85.771V397.14z"/>
			</g>
			<g>
				<path style="fill:#EBEBEB;" d="M122.68,402.717h23.474c2.733,0,4.948-2.215,4.948-4.948V396.6h-33.37v1.169
					C117.731,400.501,119.947,402.717,122.68,402.717z"/>
			</g>
		</g>
		<g>
			
				<rect x="79.22" y="262.671" transform="matrix(-1 -1.224647e-16 1.224647e-16 -1 269.7124 534.9875)" style="fill:#EBEBEB;" width="111.272" height="9.646"/>
		</g>
		<g>
			
				<rect x="45.759" y="262.671" transform="matrix(-1 -1.224647e-16 1.224647e-16 -1 124.9798 534.9875)" style="fill:#E0E0E0;" width="33.461" height="9.646"/>
		</g>
		<g>
			
				<rect x="180.565" y="463.569" transform="matrix(-1 -1.224647e-16 1.224647e-16 -1 366.5129 937.0287)" style="fill:#E0E0E0;" width="5.383" height="9.892"/>
		</g>
		<g>
			
				<rect x="147.301" y="463.569" transform="matrix(-1 -1.224647e-16 1.224647e-16 -1 299.9858 937.0287)" style="fill:#E0E0E0;" width="5.383" height="9.892"/>
		</g>
		<g>
			
				<rect x="86.543" y="463.569" transform="matrix(-1 -1.224647e-16 1.224647e-16 -1 178.4687 937.0287)" style="fill:#E0E0E0;" width="5.383" height="9.892"/>
		</g>
		<g>
			
				<rect x="56.163" y="463.569" transform="matrix(-1 -1.224647e-16 1.224647e-16 -1 117.7103 937.0287)" style="fill:#E0E0E0;" width="5.383" height="9.892"/>
		</g>
	</g>
	<g>
		<g>
			
				<rect x="307.089" y="43.153" transform="matrix(0.1907 -0.9817 0.9817 0.1907 195.6674 371.819)" style="fill:#F5F5F5;" width="32.477" height="48.184"/>
		</g>
		<g>
			<g>
				<g>
					<path style="fill:#E0E0E0;" d="M350.15,56.31c0.007,0.013-0.173,0.129-0.523,0.339c-0.389,0.227-0.901,0.525-1.541,0.898
						c-1.389,0.787-3.33,1.886-5.712,3.235c-4.883,2.717-11.567,6.436-18.97,10.556l-0.156,0.087l-0.116-0.137
						c-0.089-0.104-0.185-0.217-0.281-0.33c-5.537-6.544-10.548-12.466-14.212-16.796c-1.779-2.135-3.23-3.876-4.269-5.122
						c-0.475-0.585-0.855-1.053-1.144-1.407c-0.258-0.325-0.388-0.5-0.376-0.51c0.011-0.01,0.164,0.146,0.443,0.453
						c0.304,0.341,0.705,0.791,1.206,1.354c1.064,1.224,2.551,2.934,4.375,5.032c3.689,4.308,8.734,10.201,14.31,16.713
						c0.096,0.113,0.192,0.226,0.281,0.33l-0.272-0.05c7.428-4.075,14.133-7.754,19.033-10.442c2.41-1.299,4.373-2.357,5.779-3.114
						c0.657-0.344,1.182-0.618,1.581-0.827C349.948,56.388,350.143,56.297,350.15,56.31z"/>
				</g>
			</g>
		</g>
		<g>
			<g>
				<path style="fill:#E0E0E0;" d="M296.658,79.005c-0.076-0.094,4.33-3.773,9.839-8.217c5.511-4.445,10.039-7.971,10.115-7.877
					c0.076,0.094-4.329,3.773-9.84,8.218C301.263,75.572,296.734,79.099,296.658,79.005z"/>
			</g>
		</g>
		<g>
			<g>
				<path style="fill:#E0E0E0;" d="M332.412,65.566c0.108-0.055,2.78,4.966,5.967,11.213c3.189,6.249,5.686,11.358,5.578,11.413
					c-0.108,0.055-2.779-4.965-5.968-11.214C334.802,70.731,332.304,65.621,332.412,65.566z"/>
			</g>
		</g>
	</g>
	<g>
		<g>
			
				<rect x="421.669" y="96.216" transform="matrix(0.8936 -0.4488 0.4488 0.8936 -2.0319 209.3349)" style="fill:#F5F5F5;" width="37.796" height="25.476"/>
		</g>
		<g>
			<g>
				<g>
					<path style="fill:#E0E0E0;" d="M451.983,89.308c0.011,0.005-0.045,0.163-0.162,0.461c-0.133,0.327-0.308,0.758-0.527,1.296
						c-0.486,1.155-1.164,2.767-1.996,4.747c-1.73,4.028-4.098,9.541-6.721,15.647l-0.055,0.129l-0.138-0.029
						c-0.105-0.022-0.219-0.046-0.333-0.07c-6.575-1.41-12.525-2.686-16.875-3.619c-2.129-0.473-3.863-0.859-5.106-1.135
						c-0.575-0.135-1.036-0.244-1.384-0.326c-0.316-0.078-0.48-0.125-0.478-0.136c0.003-0.012,0.172,0.012,0.492,0.069
						c0.352,0.066,0.817,0.153,1.398,0.263c1.248,0.25,2.99,0.6,5.128,1.028c4.356,0.907,10.313,2.149,16.896,3.52
						c0.114,0.024,0.228,0.048,0.333,0.07l-0.193,0.1c2.659-6.09,5.06-11.589,6.814-15.606c0.874-1.962,1.586-3.559,2.096-4.703
						c0.243-0.528,0.438-0.95,0.585-1.271C451.895,89.453,451.972,89.303,451.983,89.308z"/>
				</g>
			</g>
		</g>
		<g>
			<g>
				<path style="fill:#E0E0E0;" d="M429.643,129.038c-0.092-0.022,0.88-4.418,2.172-9.818c1.292-5.402,2.414-9.762,2.506-9.739
					c0.092,0.022-0.88,4.417-2.172,9.819C430.857,124.7,429.735,129.06,429.643,129.038z"/>
			</g>
		</g>
		<g>
			<g>
				<path style="fill:#E0E0E0;" d="M445.404,103.557c0.04-0.086,4.106,1.752,9.08,4.103c4.975,2.352,8.974,4.328,8.934,4.414
					s-4.105-1.751-9.081-4.104C449.364,105.619,445.364,103.642,445.404,103.557z"/>
			</g>
		</g>
	</g>
	<g>
		<g>
			
				<rect x="292.81" y="184.936" transform="matrix(0.2004 -0.9797 0.9797 0.2004 46.5968 455.8219)" style="fill:#F5F5F5;" width="19.452" height="28.859"/>
		</g>
		<g>
			<g>
				<g>
					<path style="fill:#E0E0E0;" d="M318.665,192.976c0.004,0.008-0.104,0.076-0.315,0.2c-0.234,0.133-0.543,0.309-0.928,0.529
						c-0.837,0.463-2.005,1.11-3.44,1.904c-2.94,1.598-6.966,3.786-11.424,6.21l-0.094,0.051l-0.069-0.083
						c-0.052-0.063-0.109-0.131-0.166-0.199c-3.278-3.952-6.244-7.529-8.413-10.144c-1.053-1.289-1.911-2.34-2.526-3.093
						c-0.281-0.353-0.506-0.635-0.677-0.849c-0.152-0.196-0.229-0.302-0.222-0.308c0.007-0.006,0.097,0.089,0.263,0.274
						c0.18,0.206,0.418,0.478,0.714,0.818c0.63,0.74,1.51,1.773,2.59,3.04c2.184,2.602,5.171,6.161,8.471,10.094
						c0.057,0.068,0.114,0.137,0.166,0.199l-0.163-0.031c4.473-2.397,8.511-4.56,11.461-6.141c1.451-0.764,2.633-1.386,3.479-1.831
						c0.395-0.202,0.712-0.363,0.952-0.486C318.544,193.021,318.661,192.968,318.665,192.976z"/>
				</g>
			</g>
		</g>
		<g>
			<g>
				<path style="fill:#E0E0E0;" d="M286.493,206.251c-0.045-0.057,2.616-2.234,5.941-4.863c3.327-2.63,6.06-4.715,6.105-4.658
					c0.045,0.057-2.615,2.234-5.942,4.863C289.271,204.222,286.538,206.308,286.493,206.251z"/>
			</g>
		</g>
		<g>
			<g>
				<path style="fill:#E0E0E0;" d="M307.987,198.414c0.065-0.032,1.635,2.991,3.507,6.751c1.873,3.762,3.338,6.836,3.273,6.868
					c-0.065,0.032-1.635-2.99-3.508-6.752C309.387,201.521,307.922,198.446,307.987,198.414z"/>
			</g>
		</g>
	</g>
	<g>
		<g>
			<g>
				<g>
					<g>
						<g>
							<g>
								<polygon style="fill:#EBEBEB;" points="357.953,166.355 403.213,161.156 407.787,191.815 360.838,196.423 								"/>
							</g>
						</g>
						<g>
							<g>
								<path style="fill:#E0E0E0;" d="M357.953,166.355l19.572-19.651c0.829-0.832,2.128-0.968,3.111-0.325l22.577,14.776"/>
							</g>
						</g>
						<g>
							<g>
								<g>
									<path style="fill:#E0E0E0;" d="M360.838,196.423c-0.062-0.047,3.138-4.396,7.148-9.713
										c4.011-5.319,7.311-9.591,7.374-9.544c0.062,0.047-3.138,4.395-7.148,9.714
										C364.202,192.197,360.901,196.47,360.838,196.423z"/>
								</g>
							</g>
						</g>
						<g>
							<g>
								<g>
									<path style="fill:#E0E0E0;" d="M407.787,191.815c-0.052,0.058-4.001-3.442-8.818-7.815
										c-4.819-4.375-8.682-7.967-8.629-8.025c0.052-0.058,4,3.441,8.819,7.816C403.975,188.164,407.839,191.757,407.787,191.815z
										"/>
								</g>
							</g>
						</g>
					</g>
					<g>
						<g>
							<g>
								<polygon style="fill:#FAFAFA;" points="360.415,167.792 358.823,153.653 398.435,148.92 400.482,163.756 382.394,181.534 
																	"/>
								<g>
									<path style="fill:#E0E0E0;" d="M360.415,167.792c0.009-0.006,0.154,0.073,0.425,0.231c0.295,0.176,0.688,0.411,1.187,0.708
										c1.059,0.646,2.563,1.564,4.471,2.728c3.862,2.387,9.354,5.781,16.01,9.894l-0.263,0.029
										c5.21-5.138,11.38-11.223,18.057-17.809l-0.075,0.219c-0.391-2.831-0.802-5.8-1.22-8.821
										c-0.28-2.034-0.557-4.044-0.829-6.015l0.287,0.222c-15.946,1.868-30.015,3.516-39.622,4.642l0.146-0.184
										c0.462,4.416,0.831,7.935,1.087,10.388c0.116,1.19,0.206,2.12,0.271,2.789c0.025,0.297,0.045,0.536,0.06,0.726
										C360.419,167.702,360.422,167.788,360.415,167.792c-0.007,0.004-0.023-0.073-0.047-0.23
										c-0.026-0.184-0.059-0.415-0.1-0.704c-0.085-0.661-0.203-1.581-0.354-2.758c-0.297-2.463-0.722-5.995-1.256-10.429
										l-0.02-0.164l0.166-0.02c9.602-1.17,23.663-2.883,39.6-4.825l0.253-0.031l0.035,0.253c0.272,1.971,0.55,3.981,0.831,6.015
										c0.416,3.022,0.825,5.991,1.214,8.822l0.018,0.129l-0.092,0.09c-6.7,6.562-12.892,12.626-18.119,17.746l-0.121,0.119
										l-0.142-0.09c-6.64-4.2-12.12-7.665-15.973-10.102c-1.872-1.199-3.348-2.145-4.387-2.81
										c-0.477-0.313-0.853-0.559-1.135-0.744C360.531,167.889,360.406,167.798,360.415,167.792z"/>
								</g>
							</g>
						</g>
					</g>
				</g>
			</g>
		</g>
		<g>
			<path style="fill:#E0E0E0;" d="M392.932,156.716c0.016,0.143-6.032,0.948-13.508,1.798c-7.478,0.85-13.552,1.423-13.568,1.28
				c-0.016-0.143,6.031-0.948,13.509-1.798C386.841,157.147,392.916,156.574,392.932,156.716z"/>
		</g>
		<g>
			<path style="fill:#E0E0E0;" d="M393.362,160.712c0.016,0.143-6.032,0.948-13.508,1.798c-7.478,0.85-13.552,1.423-13.568,1.28
				c-0.016-0.143,6.031-0.947,13.51-1.798C387.271,161.143,393.346,160.57,393.362,160.712z"/>
		</g>
		<g>
			<path style="fill:#E0E0E0;" d="M393.857,165.318c0.016,0.143-6.032,0.948-13.508,1.798c-7.478,0.85-13.552,1.423-13.568,1.28
				c-0.016-0.143,6.031-0.948,13.509-1.798C387.766,165.749,393.841,165.175,393.857,165.318z"/>
		</g>
		<g>
			<path style="fill:#E0E0E0;" d="M394.353,169.924c0.016,0.143-5.754,0.916-12.886,1.727c-7.135,0.811-12.93,1.352-12.946,1.21
				c-0.016-0.143,5.753-0.916,12.887-1.727C388.54,170.322,394.336,169.781,394.353,169.924z"/>
		</g>
		<g>
			<path style="fill:#E0E0E0;" d="M389.714,174.512c0.008,0.072-0.859,0.235-2.268,0.445c-1.408,0.21-3.356,0.467-5.511,0.735
				c-2.156,0.268-4.114,0.468-5.533,0.584c-1.42,0.116-2.301,0.15-2.31,0.079c-0.008-0.072,0.859-0.235,2.267-0.445
				c1.409-0.21,3.357-0.467,5.512-0.735c2.155-0.268,4.113-0.467,5.532-0.584C388.824,174.475,389.706,174.441,389.714,174.512z"/>
		</g>
		<g>
			<path style="fill:#E0E0E0;" d="M385.026,178.947c0.015,0.143-1.265,0.398-2.86,0.57c-1.596,0.172-2.901,0.195-2.916,0.052
				c-0.015-0.143,1.265-0.398,2.861-0.569C383.705,178.827,385.011,178.804,385.026,178.947z"/>
		</g>
	</g>
</g>
<g id="Background_Simple" style="display:none;">
	<path style="display:inline;fill:#EBEBEB;" d="M449.038,137.167l-1.06-1.746c-8.933-14.72-25.083-23.594-42.111-22.517
		c-2.189,0.138-4.368,0.435-6.519,0.895c-15.482,3.314-28.953,15.021-34.537,30.015c-3.284,8.818-4.201,18.971-10.433,25.971
		c-8.11,9.109-21.88,9.395-33.986,9.018s-25.884-0.055-33.955,9.09c-5.055,5.727-6.661,13.872-6.253,21.543
		c1.079,20.308,15.23,38.466,33.226,47.491c17.996,9.026,39.185,9.834,58.88,5.863c27.591-5.562,53.831-20.836,69.602-44.428
		C457.665,194.771,461.657,162.63,449.038,137.167z"/>
	<path style="display:inline;fill:#EBEBEB;" d="M99.748,228.093l1.543,0.173c13.005,1.459,25.843-4.141,33.101-14.888
		c0.933-1.381,1.766-2.831,2.488-4.338c5.193-10.855,4.402-24.397-2.029-34.719c-3.782-6.07-9.466-11.336-10.785-18.336
		c-1.717-9.11,4.504-17.529,10.351-24.638c5.847-7.11,12.05-15.551,10.294-24.654c-1.1-5.701-5.256-10.449-10.061-13.765
		c-12.722-8.779-30.219-8.693-44.005-2.054c-13.786,6.64-24.11,19.015-30.864,32.711c-9.462,19.186-12.452,42.068-5.578,62.511
		C61.078,206.541,78.567,223.865,99.748,228.093z"/>
	<circle style="display:inline;fill:#EBEBEB;" cx="278.93" cy="70.748" r="30.11"/>
</g>
<g id="Plant">
	<g>
		<g>
			<g>
				<g>
					<path style="fill:#FF725E;" d="M360.385,404.059c2.218-11.031-2.051-23.125-10.702-30.32c0,0-2.483-0.909-2.269,1.868
						c0.128,1.668-1.471,4.016-2.796,2.995c-2.305-1.776-1.58-5.392-2.572-8.128c-1.161-3.204-4.571-4.911-7.692-6.279
						c-5.759-2.524-11.617-4.971-17.804-6.092s-12.799-0.829-18.442,1.944c1.369,2.756,2.737,5.513,4.106,8.269
						c0.248,0.499,0.509,1.015,0.945,1.361c0.74,0.588,1.782,0.548,2.724,0.479c2.498-0.182,4.997-0.365,7.495-0.547
						c1.088-0.079,2.496,0.046,2.811,1.09c0.355,1.175-1.058,2.058-2.213,2.473c-2.621,0.941-5.242,1.882-7.863,2.823
						c2.474,3.843,6.29,6.671,10.402,8.664c4.112,1.993,8.547,3.217,12.953,4.431c1.407,0.388,2.912,0.775,4.302,0.328
						c2.293-0.737,3.875-3.602,6.257-3.249c-0.251,2.626-1.613,5.129-3.682,6.766C345.612,396.571,352.072,401.02,360.385,404.059"
						/>
				</g>
				<g>
					<g>
						<path style="fill:#263238;" d="M368.334,445.207c-0.008,0.001-0.031-0.079-0.069-0.239c-0.042-0.184-0.094-0.418-0.16-0.709
							c-0.138-0.657-0.329-1.572-0.573-2.734c-0.484-2.411-1.174-5.845-2.024-10.074c-0.421-2.131-0.882-4.461-1.376-6.961
							c-0.246-1.252-0.501-2.546-0.763-3.879c-0.131-0.667-0.263-1.343-0.398-2.029c-0.099-0.692-0.2-1.394-0.302-2.104
							c-0.864-5.643-1.884-11.937-4.633-17.938c-2.785-5.997-7.241-10.634-11.482-14.425c-4.294-3.782-8.568-6.7-12.216-9.03
							c-3.651-2.333-6.692-4.087-8.779-5.322c-1.023-0.604-1.827-1.079-2.405-1.42c-0.255-0.155-0.459-0.28-0.62-0.378
							c-0.139-0.087-0.208-0.135-0.204-0.142c0.004-0.007,0.08,0.028,0.226,0.102c0.167,0.088,0.379,0.2,0.642,0.34
							c0.588,0.323,1.407,0.774,2.447,1.347c2.114,1.19,5.18,2.903,8.861,5.206c3.677,2.3,7.985,5.201,12.319,8.988
							c2.16,1.897,4.32,4.019,6.349,6.409c2.038,2.382,3.84,5.125,5.266,8.135c2.783,6.08,3.79,12.414,4.635,18.065
							c0.099,0.709,0.196,1.41,0.292,2.101c0.131,0.686,0.26,1.362,0.388,2.029c0.255,1.334,0.502,2.628,0.741,3.881
							c0.475,2.502,0.917,4.835,1.322,6.968c0.791,4.239,1.433,7.68,1.884,10.097c0.208,1.169,0.372,2.089,0.49,2.75
							c0.048,0.295,0.086,0.531,0.116,0.717C368.333,445.122,368.342,445.206,368.334,445.207z"/>
					</g>
				</g>
			</g>
			<g>
				<g>
					<g>
						<path style="fill:#FF725E;" d="M382.87,341.336c-2.018,2.972-7.675,1.532-8.026-2.044c-0.351-3.575,4.918-6.088,7.475-3.565
							c0.896-10.462-0.181-21.09-3.157-31.16c-0.723,2.023-1.481,4.104-2.93,5.691c-1.449,1.586-3.782,2.568-5.793,1.811
							c-2.72-1.025-3.524-4.75-2.391-7.427c1.133-2.677,3.581-4.527,5.923-6.248c-3.698-7.042-10.439-12.418-18.128-14.455
							c-3.016,4.882-6.076,9.868-7.431,15.443c-1.356,5.576-0.747,11.941,2.976,16.308c1.584,1.858,3.676,3.305,4.901,5.417
							c1.226,2.112,1.146,5.334-1.016,6.469c-2.542,1.335-5.411-1.179-6.851-3.662c-1.44-2.484-2.917-5.535-5.753-5.979
							c-1.721,19.788,8.531,40.147,25.452,50.548l-0.288-0.278C374.54,360.349,379.681,351.162,382.87,341.336z M369.84,319.423
							c1.712-1.585,3.087-2.208,5.276-3.017c0.765-0.34,1.722-0.037,2.266,0.601c0.543,0.638,0.707,1.539,0.576,2.367
							s-0.53,1.59-1.004,2.281c-0.775,1.13-1.792,2.126-3.044,2.683c-1.252,0.557-2.755,0.631-3.975,0.009
							c-0.856-0.436-1.567-1.273-1.599-2.233C368.3,321.054,369.061,320.144,369.84,319.423z"/>
					</g>
				</g>
				<g>
					<g>
						<path style="fill:#263238;" d="M372.07,445.207c-0.008,0-0.018-0.105-0.029-0.311c-0.01-0.229-0.025-0.531-0.042-0.915
							c-0.031-0.831-0.076-2.011-0.132-3.518c-0.123-3.081-0.299-7.494-0.516-12.935c-0.482-10.92-1.249-26.002-2.477-42.634
							c-1.207-16.639-2.649-31.673-3.846-42.538c-0.576-5.435-1.112-9.825-1.479-12.859c-0.173-1.498-0.308-2.671-0.403-3.497
							c-0.039-0.382-0.07-0.683-0.094-0.911c-0.019-0.206-0.024-0.311-0.017-0.312c0.008-0.001,0.029,0.103,0.062,0.306
							c0.034,0.226,0.08,0.526,0.138,0.905c0.115,0.824,0.278,1.993,0.486,3.486c0.42,3.028,1.004,7.414,1.621,12.846
							c1.277,10.859,2.77,25.895,3.977,42.54c1.228,16.638,1.946,31.728,2.347,42.654c0.199,5.463,0.317,9.886,0.374,12.943
							c0.021,1.508,0.037,2.689,0.048,3.52c-0.001,0.384-0.001,0.687-0.002,0.916C372.083,445.101,372.077,445.207,372.07,445.207z"
							/>
					</g>
				</g>
			</g>
			<g>
				<g>
					<polygon style="fill:#455A64;" points="340.054,426.817 348.033,460.674 389.869,460.674 398.711,426.817 					"/>
				</g>
				<g>
					<path style="fill:#455A64;" d="M353.208,453.558c0,0.647,3.235,20.056,3.235,20.056h25.447l2.803-20.056H353.208z"/>
				</g>
				<g>
					<g>
						<path style="fill:#263238;" d="M388.71,460.517c0,0.123-9.13,0.223-20.389,0.223c-11.263,0-20.391-0.1-20.391-0.223
							c0-0.123,9.128-0.223,20.391-0.223C379.581,460.294,388.71,460.394,388.71,460.517z"/>
					</g>
				</g>
			</g>
		</g>
		<g>
			<g>
				<path style="fill:#263238;" d="M393.064,446.869c0,0.123-10.767,0.223-24.045,0.223c-13.283,0-24.047-0.1-24.047-0.223
					s10.764-0.223,24.047-0.223C382.297,446.646,393.064,446.746,393.064,446.869z"/>
			</g>
		</g>
		<g>
			<g>
				<path style="fill:#263238;" d="M391.178,451.584c0,0.123-10.133,0.223-22.631,0.223c-12.502,0-22.633-0.1-22.633-0.223
					c0-0.123,10.131-0.223,22.633-0.223C381.044,451.361,391.178,451.461,391.178,451.584z"/>
			</g>
		</g>
		<g>
			<g>
				<path style="fill:#263238;" d="M391.043,456.299c0,0.123-9.771,0.223-21.822,0.223c-12.055,0-21.824-0.1-21.824-0.223
					s9.769-0.223,21.824-0.223C381.271,456.076,391.043,456.176,391.043,456.299z"/>
			</g>
		</g>
		<g>
			<g>
				<path style="fill:#263238;" d="M394.276,442.289c0,0.123-11.249,0.223-25.123,0.223c-13.878,0-25.125-0.1-25.125-0.223
					s11.247-0.223,25.125-0.223C383.027,442.066,394.276,442.166,394.276,442.289z"/>
			</g>
		</g>
		<g>
			<g>
				<path style="fill:#263238;" d="M395.084,438.517c0,0.123-11.46,0.223-25.594,0.223c-14.139,0-25.597-0.1-25.597-0.223
					s11.458-0.223,25.597-0.223C383.624,438.294,395.084,438.394,395.084,438.517z"/>
			</g>
		</g>
	</g>
</g>
<g id="Floor">
	<g>
		<path style="fill:#263238;" d="M463.019,473.644c0,0.144-95.379,0.26-213.009,0.26c-117.67,0-213.029-0.117-213.029-0.26
			s95.359-0.26,213.029-0.26C367.639,473.384,463.019,473.5,463.019,473.644z"/>
	</g>
</g>
<g id="Character">
	<g>
		<g>
			<polygon style="fill:#FFBE9D;" points="242.301,430.803 239.592,466.742 223.959,466.423 221.821,429.017 			"/>
		</g>
		<g>
			<g>
				<g>
					<g>
						<path style="fill:#FF725E;" d="M240.079,462.013l-0.006,1.04c0,0,17.561,7.245,17.717,10.591l-35-0.508l0.645-11.64
							C228.604,463.981,234.047,464.332,240.079,462.013z"/>
					</g>
				</g>
			</g>
		</g>
		<g>
			<g>
				<g>
					<g>
						<g>
							<path style="fill:#263238;" d="M245.594,468.569c-0.137,0.03-0.336-0.726,0.063-1.546c0.393-0.823,1.109-1.138,1.171-1.012
								c0.083,0.125-0.381,0.561-0.698,1.24C245.796,467.922,245.744,468.556,245.594,468.569z"/>
						</g>
					</g>
				</g>
			</g>
		</g>
		<g>
			<g>
				<g>
					<g>
						<g>
							<path style="fill:#FFFFFF;" d="M226.926,465.271c-0.68,0.176-1.159,0.93-1.012,1.617c0.147,0.687,0.911,1.181,1.594,1.017
								c0.683-0.163,1.286-1.052,1.063-1.718c-0.223-0.666-1.151-1.197-1.775-0.874"/>
						</g>
					</g>
				</g>
			</g>
		</g>
		<g>
			<g>
				<g>
					<g>
						<g>
							<path style="fill:#263238;" d="M240.195,463.152c-0.008,0.171-0.864,0.236-1.713,0.773c-0.863,0.515-1.307,1.249-1.463,1.179
								c-0.157-0.035,0.113-1.053,1.152-1.686C239.204,462.777,240.234,462.996,240.195,463.152z"/>
						</g>
					</g>
				</g>
			</g>
		</g>
		<g>
			<g>
				<g>
					<g>
						<g>
							<path style="fill:#263238;" d="M243.844,464.724c0.037,0.166-0.708,0.446-1.299,1.161c-0.612,0.697-0.77,1.476-0.94,1.466
								c-0.161,0.024-0.265-0.978,0.487-1.852C242.836,464.618,243.843,464.561,243.844,464.724z"/>
						</g>
					</g>
				</g>
			</g>
		</g>
		<g>
			<g>
				<g>
					<g>
						<path style="fill:#263238;" d="M222.799,473.163l0.147-2.65l33.761,1.44c0,0,0.926,0.677,1.068,1.69L222.799,473.163z"/>
					</g>
				</g>
			</g>
		</g>
	</g>
	<g>
		<path style="fill:#FFBE9D;" d="M324.226,118.515c0,0,6.556-6.478,8.295-7.561c1.739-1.084,3.879-3.548,5.228-4.106
			c1.349-0.558,4.473-2.7,4.473-2.7l2.652-3.284c0,0,1.979-0.211,1.566,2.025l4.952-0.954c0,0,1.327,1.152-0.784,2.511
			c-2.111,1.359-3.596,1.001-3.596,1.001l-2.079,2.318l0.355,1.227l11.981,1.571c0,0-0.247,2.046-2.208,2.007
			c-1.961-0.04-9.241-0.31-9.241-0.31l11.183,4.125c0,0,0.583,1.703-2.906,1.201s-9.055-2.21-9.055-2.21l-0.97,0.887l3.044,1.779
			l2.858,3.679c0,0-1.782,0.98-3.617-0.813c-1.835-1.793-1.835-1.793-1.835-1.793l-2.669,0.01c0,0-7.261,5.068-9.693,3.886
			l-2.061,2.067L324.226,118.515z"/>
		<g>
			<path style="fill:#EB996E;" d="M345.499,109.719c0.064-0.016,0.266,0.447,0.408,1.254c0.14,0.799,0.16,1.981-0.236,3.185
				c-0.378,1.254-1.262,2.105-1.919,2.572c-0.675,0.475-1.164,0.628-1.192,0.572c-0.039-0.07,0.381-0.337,0.962-0.859
				c0.571-0.52,1.32-1.327,1.653-2.442C345.913,111.729,345.311,109.739,345.499,109.719z"/>
		</g>
		<g>
			<path style="fill:#EB996E;" d="M335.278,118.28c-0.031-0.092,1.307,0.043,2.971-1.17c0.816-0.599,1.652-1.517,2.302-2.747
				c0.665-1.223,1.149-2.719,1.637-4.349l0.02-0.066l0.063-0.054c1.308-1.128,2.529-2.701,3.296-4.536
				c0.374-0.899,0.617-1.863,0.703-2.753c0.023-0.44-0.086-0.851-0.337-1.122c-0.251-0.265-0.676-0.385-1.038-0.374l0.187-0.113
				c-1.902,2.916-4.164,4.918-5.88,6.111c-0.862,0.598-1.591,1.006-2.104,1.254c-0.514,0.246-0.804,0.351-0.815,0.328
				c-0.035-0.068,1.089-0.578,2.74-1.828c1.641-1.243,3.818-3.263,5.645-6.129l0.069-0.109l0.118-0.004
				c0.512-0.019,1.035,0.116,1.44,0.513c0.388,0.408,0.513,0.984,0.488,1.491c-0.091,1.01-0.342,1.976-0.735,2.934
				c-0.813,1.931-2.064,3.533-3.473,4.723l0.083-0.12c-0.507,1.625-1.024,3.151-1.742,4.405c-0.702,1.261-1.614,2.207-2.491,2.794
				c-0.878,0.597-1.707,0.838-2.27,0.916C335.585,118.351,335.276,118.3,335.278,118.28z"/>
		</g>
	</g>
	<path style="fill:#FF725E;" d="M235.539,166.462l47.756-20.229l41.201-29.827l8.343,8.869c0,0-28.876,30.079-36.397,36.215
		c-7.52,6.136-48.156,32.024-48.156,32.024L235.539,166.462z"/>
	<g>
		<g>
			<path style="fill:#FAFAFA;" d="M262.969,172.568c-1.228-0.18-2.542-0.274-3.654,0.278c-0.382,0.189-0.771,0.618-0.562,0.99
				c0.132,0.234,0.433,0.299,0.698,0.34c4.741,0.736,8.985,2.153,13.726,2.889l0.8-0.331
				C270.704,174.945,266.659,173.108,262.969,172.568z"/>
		</g>
		<g>
			<path style="fill:#FAFAFA;" d="M271.568,169.676c0.579,2.249,1.933,4.709,2.975,6.784l0.471-0.273
				c0.12-2.297-0.079-4.895-0.428-7.169c-0.349-2.273-1.205-4.53-2.8-6.187C270.909,164.982,270.988,167.427,271.568,169.676z"/>
		</g>
		<g>
			<path style="fill:#FAFAFA;" d="M279.363,166.995c-1.009,2.788-1.954,5.463-2.963,8.251l1.954-2.045
				c1.758-2.421,3.462-4.902,4.397-7.744c0.11-0.336,0.21-0.686,0.174-1.037c-0.035-0.351-0.234-0.707-0.565-0.832
				c-0.365-0.138-0.775,0.035-1.09,0.264C280.262,164.583,279.787,165.824,279.363,166.995z"/>
		</g>
	</g>
	<g>
		<g>
			<path style="fill:#FAFAFA;" d="M312.965,133.785c1.1-0.108,2.256-0.308,3.099-1.023c0.289-0.246,0.534-0.7,0.274-0.976
				c-0.164-0.174-0.438-0.166-0.676-0.144c-4.255,0.379-8.228,0.063-12.483,0.443l-0.621,0.458
				C305.77,133.387,309.659,134.109,312.965,133.785z"/>
		</g>
		<g>
			<path style="fill:#FAFAFA;" d="M306.151,138.127c-0.983-1.82-2.679-3.656-4.025-5.227l-0.349,0.337
				c0.388,2.011,1.117,4.215,1.905,6.105s2.012,3.657,3.746,4.748C307.727,142.043,307.134,139.946,306.151,138.127z"/>
		</g>
		<g>
			<path style="fill:#FAFAFA;" d="M299.987,142.114c0.275-2.627,0.519-5.141,0.794-7.767l-1.251,2.186
				c-1.001,2.469-1.943,4.979-2.142,7.636c-0.024,0.314-0.034,0.637,0.072,0.934c0.106,0.296,0.354,0.561,0.666,0.598
				c0.345,0.041,0.662-0.196,0.886-0.462C299.727,144.391,299.872,143.217,299.987,142.114z"/>
		</g>
	</g>
	<g>
		<g>
			<polygon style="fill:#FFBE9D;" points="140.163,376.295 103.993,388.172 97.988,372.786 133.631,355.585 			"/>
		</g>
		<g>
			<g>
				<g>
					<g>
						<path style="fill:#FF725E;" d="M108.805,386.736l-1.017,0.415c0,0,0.024,20.066-3.178,21.571l-13.646-34.365l11.621-4.074
							C102.247,376.332,104.104,381.786,108.805,386.736z"/>
					</g>
				</g>
			</g>
		</g>
		<g>
			<g>
				<g>
					<g>
						<g>
							<path style="fill:#FFFFFF;" d="M100.31,375.215c-0.446-0.593-1.376-0.755-1.987-0.334c-0.611,0.421-0.784,1.366-0.349,1.966
								c0.435,0.601,1.546,0.83,2.106,0.343c0.56-0.487,0.703-1.607,0.136-2.086"/>
						</g>
					</g>
				</g>
			</g>
		</g>
		<g>
			<g>
				<g>
					<g>
						<path style="fill:#263238;" d="M90.964,374.357l2.795-0.98l12.055,33.295c0,0-0.058,1.794-1.204,2.049L90.964,374.357z"/>
					</g>
				</g>
			</g>
		</g>
		<g>
			<g>
				<g>
					<g>
						<g>
							<path style="fill:#263238;" d="M107.74,387.309c-0.17,0.061-0.579-0.748-1.447-1.359c-0.851-0.634-1.747-0.771-1.742-0.952
								c-0.029-0.168,1.074-0.316,2.111,0.443C107.706,386.19,107.908,387.285,107.74,387.309z"/>
						</g>
					</g>
				</g>
			</g>
		</g>
		<g>
			<g>
				<g>
					<g>
						<g>
							<path style="fill:#263238;" d="M107.68,391.506c-0.147,0.103-0.721-0.511-1.658-0.799c-0.927-0.315-1.752-0.155-1.811-0.325
								c-0.089-0.147,0.848-0.654,2.005-0.273C107.377,390.479,107.839,391.439,107.68,391.506z"/>
						</g>
					</g>
				</g>
			</g>
		</g>
		<g>
			<g>
				<g>
					<g>
						<g>
							<path style="fill:#263238;" d="M104.179,395.266c-0.096-0.138,0.649-0.705,1.739-0.639c1.091,0.058,1.767,0.706,1.656,0.832
								c-0.1,0.15-0.796-0.164-1.691-0.205C104.989,395.193,104.262,395.426,104.179,395.266z"/>
						</g>
					</g>
				</g>
			</g>
		</g>
	</g>
	<g>
		<path style="fill:#263238;" d="M237.612,293.955c0,0-26.523,53.99-33.646,58.145c-7.123,4.155-89.093,33.33-89.093,33.33
			l-6.317-19.479l74.199-39.177c0,0,9.685-26.425,13.295-46.495c2.212-12.298,7.283-19.506,14.572-29.093
			c2.228-2.93,6.036-7.118,7.932-8.402l33.328,6.306L237.612,293.955z"/>
		<path style="fill:#263238;" d="M261.054,250.821l-35.797-5.988l-7.287,42.062l7.271,88.376c0,0-4.969,30.718-4.152,50.925
			c0.77,19.063,1.507,26.253,1.507,26.253s15.398,0.07,18.895,0.07c1.468,0,14.617-95.65,14.617-95.65L261.054,250.821z"/>
		<g>
			<path style="fill:#455A64;" d="M244.657,273.895c0.016,0.008-0.064,0.223-0.233,0.627c-0.195,0.45-0.448,1.032-0.761,1.754
				c-0.695,1.576-1.657,3.759-2.834,6.431c-2.379,5.498-5.624,12.997-9.209,21.282c-3.639,8.3-7.221,15.689-9.992,20.941
				c-1.391,2.623-2.54,4.734-3.374,6.17c-0.395,0.68-0.714,1.229-0.961,1.653c-0.225,0.375-0.35,0.568-0.366,0.559
				c-0.016-0.009,0.079-0.219,0.274-0.61c0.225-0.436,0.515-1,0.875-1.699c0.79-1.53,1.885-3.648,3.224-6.242
				c2.684-5.29,6.207-12.689,9.843-20.983c3.637-8.289,6.872-15.826,9.35-21.222c1.236-2.699,2.254-4.875,2.986-6.365
				c0.35-0.705,0.631-1.273,0.85-1.713C244.528,274.088,244.64,273.888,244.657,273.895z"/>
		</g>
		<g>
			<g>
				<path style="fill:#455A64;" d="M112.476,370.018c0.062,0.13-0.391,0.477-1.013,0.775c-0.622,0.298-1.176,0.435-1.238,0.305
					c-0.062-0.13,0.391-0.476,1.013-0.775C111.859,370.025,112.414,369.888,112.476,370.018z"/>
			</g>
			<g>
				<path style="fill:#455A64;" d="M121.433,365.692c0.063,0.129-0.889,0.719-2.125,1.318c-1.236,0.598-2.289,0.979-2.352,0.849
					c-0.063-0.129,0.888-0.719,2.125-1.318C120.317,365.943,121.37,365.562,121.433,365.692z"/>
			</g>
			<g>
				<path style="fill:#455A64;" d="M130.382,361.332c0.063,0.129-0.887,0.723-2.123,1.326c-1.236,0.603-2.288,0.988-2.352,0.858
					c-0.063-0.129,0.887-0.723,2.123-1.326C129.266,361.587,130.319,361.202,130.382,361.332z"/>
			</g>
			<g>
				<path style="fill:#455A64;" d="M139.295,356.949c0.064,0.129-0.882,0.725-2.112,1.331c-1.23,0.607-2.279,0.993-2.343,0.864
					c-0.064-0.129,0.882-0.725,2.113-1.331C138.183,357.207,139.232,356.82,139.295,356.949z"/>
			</g>
			<g>
				<path style="fill:#455A64;" d="M148.204,352.523c0.064,0.129-0.881,0.73-2.111,1.343c-1.231,0.613-2.28,1.006-2.344,0.877
					c-0.064-0.129,0.881-0.73,2.112-1.343C147.091,352.787,148.14,352.394,148.204,352.523z"/>
			</g>
			<g>
				<path style="fill:#455A64;" d="M157.091,348.047c0.065,0.128-0.877,0.735-2.102,1.355c-1.226,0.62-2.273,1.018-2.338,0.89
					c-0.065-0.128,0.876-0.735,2.103-1.355C155.98,348.317,157.026,347.918,157.091,348.047z"/>
			</g>
			<g>
				<path style="fill:#455A64;" d="M165.945,343.503c0.066,0.128-0.87,0.742-2.092,1.373c-1.222,0.631-2.265,1.038-2.331,0.91
					c-0.065-0.128,0.871-0.742,2.092-1.373C164.835,343.783,165.879,343.375,165.945,343.503z"/>
			</g>
			<g>
				<path style="fill:#455A64;" d="M174.744,338.849c0.069,0.126-0.859,0.754-2.071,1.402c-1.213,0.648-2.25,1.07-2.317,0.943
					c-0.067-0.127,0.86-0.755,2.072-1.402C173.638,339.145,174.675,338.723,174.744,338.849z"/>
			</g>
			<g>
				<path style="fill:#455A64;" d="M183.409,333.957c0.075,0.123-0.831,0.782-2.022,1.472c-1.191,0.69-2.214,1.148-2.284,1.022
					c-0.07-0.126,0.835-0.785,2.022-1.472C182.312,334.292,183.335,333.834,183.409,333.957z"/>
			</g>
			<g>
				<path style="fill:#455A64;" d="M188.825,326.56c0.147,0.029,0.013,1.142-0.177,2.483c-0.044,0.334-0.085,0.655-0.093,0.924
					c0,0.079-0.001,0.098,0.008,0.203c0.005,0.146-0.043,0.238-0.083,0.312c-0.086,0.147-0.182,0.24-0.27,0.324
					c-0.359,0.318-0.624,0.427-0.667,0.377c-0.051-0.057,0.139-0.278,0.392-0.622c0.059-0.085,0.124-0.183,0.158-0.272
					c0.021-0.043,0.014-0.084,0.021-0.081c-0.021-0.033-0.031-0.159-0.038-0.229c-0.018-0.327,0.012-0.658,0.057-1.006
					C188.327,327.595,188.69,326.533,188.825,326.56z"/>
			</g>
			<g>
				<path style="fill:#455A64;" d="M191.128,316.884c0.139,0.036-0.017,1.145-0.35,2.476c-0.333,1.332-0.715,2.384-0.855,2.35
					c-0.14-0.034,0.017-1.142,0.35-2.476C190.606,317.9,190.989,316.848,191.128,316.884z"/>
			</g>
			<g>
				<path style="fill:#455A64;" d="M193.679,307.271c0.139,0.038-0.038,1.142-0.394,2.465c-0.357,1.324-0.758,2.367-0.897,2.33
					c-0.139-0.037,0.038-1.141,0.394-2.466C193.139,308.277,193.54,307.233,193.679,307.271z"/>
			</g>
			<g>
				<path style="fill:#455A64;" d="M196.348,297.679c0.139,0.039-0.051,1.143-0.423,2.467c-0.372,1.324-0.786,2.365-0.924,2.326
					c-0.138-0.039,0.051-1.143,0.423-2.467C195.796,298.682,196.21,297.64,196.348,297.679z"/>
			</g>
			<g>
				<path style="fill:#455A64;" d="M199.11,288.118c0.138,0.041-0.062,1.143-0.446,2.461c-0.385,1.319-0.808,2.356-0.947,2.316
					c-0.138-0.04,0.062-1.142,0.447-2.462C198.548,289.114,198.972,288.077,199.11,288.118z"/>
			</g>
			<g>
				<path style="fill:#455A64;" d="M201.989,278.588c0.137,0.043-0.078,1.142-0.48,2.455c-0.402,1.313-0.84,2.344-0.978,2.302
					c-0.138-0.041,0.077-1.14,0.48-2.455C201.414,279.576,201.852,278.545,201.989,278.588z"/>
			</g>
			<g>
				<path style="fill:#455A64;" d="M205.318,269.22c0.129,0.072-0.29,1.088-0.713,2.389c-0.467,1.281-0.956,2.282-1.093,2.238
					c-0.137-0.044,0.136-1.133,0.61-2.433C204.55,270.098,205.196,269.15,205.318,269.22z"/>
			</g>
			<g>
				<path style="fill:#455A64;" d="M210.683,260.842c0.117,0.083-0.413,1.07-1.184,2.204c-0.771,1.134-1.494,1.99-1.615,1.912
					c-0.121-0.078,0.409-1.065,1.184-2.204C209.842,261.615,210.565,260.759,210.683,260.842z"/>
			</g>
			<g>
				<path style="fill:#455A64;" d="M216.544,252.798c0.115,0.087-0.455,1.051-1.272,2.155c-0.818,1.104-1.575,1.93-1.691,1.845
					c-0.116-0.085,0.453-1.049,1.272-2.155C215.672,253.538,216.429,252.712,216.544,252.798z"/>
			</g>
			<g>
				<path style="fill:#455A64;" d="M221.088,246.853c0.113,0.089-0.137,0.602-0.558,1.146c-0.421,0.544-0.855,0.915-0.969,0.827
					c-0.114-0.088,0.136-0.601,0.558-1.146C220.541,247.134,220.975,246.764,221.088,246.853z"/>
			</g>
		</g>
		<g>
			<g>
				<path style="fill:#455A64;" d="M225.322,320.834c-0.143,0.011-0.303-0.538-0.356-1.226c-0.053-0.689,0.02-1.256,0.163-1.267
					c0.143-0.011,0.303,0.538,0.356,1.227C225.538,320.256,225.465,320.823,225.322,320.834z"/>
			</g>
			<g>
				<path style="fill:#455A64;" d="M226.101,331.163c-0.143,0.011-0.345-1.137-0.451-2.563c-0.106-1.427-0.075-2.591,0.068-2.602
					c0.143-0.011,0.345,1.137,0.451,2.563C226.275,329.987,226.245,331.152,226.101,331.163z"/>
			</g>
			<g>
				<path style="fill:#455A64;" d="M226.786,341.495c-0.144,0.008-0.333-1.141-0.422-2.567c-0.09-1.426-0.046-2.59,0.097-2.6
					c0.143-0.01,0.333,1.139,0.422,2.567C226.973,340.323,226.929,341.487,226.786,341.495z"/>
			</g>
			<g>
				<path style="fill:#455A64;" d="M227.289,351.832c-0.144,0.005-0.31-1.147-0.372-2.573c-0.062-1.427,0.005-2.589,0.148-2.596
					c0.144-0.007,0.31,1.145,0.372,2.573C227.499,350.664,227.432,351.827,227.289,351.832z"/>
			</g>
			<g>
				<path style="fill:#455A64;" d="M227.533,362.176c-0.144,0.001-0.28-1.155-0.303-2.582c-0.023-1.428,0.074-2.587,0.218-2.591
					c0.144-0.004,0.279,1.152,0.303,2.582C227.774,361.014,227.676,362.174,227.533,362.176z"/>
			</g>
			<g>
				<path style="fill:#455A64;" d="M227.462,372.526c-0.144-0.004-0.243-1.164-0.222-2.592c0.021-1.428,0.155-2.585,0.299-2.584
					c0.144,0.001,0.243,1.161,0.222,2.592C227.739,371.373,227.605,372.53,227.462,372.526z"/>
			</g>
			<g>
				<path style="fill:#455A64;" d="M227.048,382.875c-0.144-0.008-0.2-1.172-0.126-2.599c0.071-1.427,0.23-2.581,0.376-2.575
					c0.142,0.005,0.215,1.17,0.144,2.6C227.369,381.731,227.192,382.884,227.048,382.875z"/>
			</g>
			<g>
				<path style="fill:#455A64;" d="M226.319,393.205c-0.143-0.012-0.171-1.176-0.062-2.601c0.109-1.425,0.314-2.572,0.457-2.562
					c0.143,0.01,0.171,1.174,0.062,2.601C226.667,392.07,226.462,393.217,226.319,393.205z"/>
			</g>
			<g>
				<path style="fill:#455A64;" d="M225.448,403.524c-0.143-0.012-0.161-1.177-0.039-2.602c0.122-1.425,0.337-2.57,0.48-2.557
					c0.143,0.012,0.161,1.177,0.039,2.602C225.806,402.391,225.591,403.536,225.448,403.524z"/>
			</g>
			<g>
				<path style="fill:#455A64;" d="M224.633,413.848c-0.143-0.01-0.173-1.175-0.066-2.601c0.107-1.427,0.31-2.574,0.454-2.562
					c0.143,0.012,0.173,1.176,0.066,2.601C224.979,412.71,224.776,413.858,224.633,413.848z"/>
			</g>
			<g>
				<path style="fill:#455A64;" d="M224.074,424.188c-0.144-0.005-0.208-1.168-0.143-2.598c0.065-1.43,0.234-2.583,0.378-2.575
					c0.143,0.008,0.208,1.171,0.143,2.598C224.387,423.04,224.218,424.193,224.074,424.188z"/>
			</g>
			<g>
				<path style="fill:#455A64;" d="M223.977,434.545c-0.144,0.003-0.265-1.156-0.272-2.589c-0.006-1.433,0.105-2.593,0.249-2.591
					c0.144,0.002,0.265,1.161,0.271,2.589C224.232,433.382,224.121,434.542,223.977,434.545z"/>
			</g>
			<g>
				<path style="fill:#455A64;" d="M224.55,444.876c-0.143,0.014-0.345-1.132-0.451-2.56c-0.106-1.428-0.076-2.592,0.068-2.599
					c0.143-0.007,0.346,1.139,0.451,2.56C224.724,443.698,224.693,444.862,224.55,444.876z"/>
			</g>
			<g>
				<path style="fill:#455A64;" d="M225.532,452.519c-0.142,0.024-0.341-0.512-0.445-1.195c-0.104-0.684-0.073-1.254,0.07-1.274
					c0.142-0.02,0.342,0.515,0.445,1.195C225.705,451.925,225.673,452.495,225.532,452.519z"/>
			</g>
		</g>
		<g>
			<path style="fill:#455A64;" d="M236.454,251.021c0.028,0.018-0.158,0.38-0.543,1.006c-0.384,0.626-0.975,1.512-1.782,2.553
				c-1.601,2.062-4.161,4.813-7.811,6.635c-3.662,1.816-7.538,1.972-10.105,1.339c-1.294-0.304-2.289-0.733-2.928-1.103
				c-0.643-0.366-0.962-0.622-0.946-0.645c0.051-0.108,1.401,0.888,3.951,1.388c2.513,0.523,6.252,0.312,9.798-1.446
				c3.544-1.769,6.097-4.416,7.755-6.4C235.507,252.344,236.379,250.971,236.454,251.021z"/>
		</g>
		<g>
			<path style="fill:#455A64;" d="M254.312,251.636c0.062,0.011-0.055,1.116-0.444,2.867c-0.388,1.75-1.084,4.14-2.141,6.67
				c-1.061,2.529-2.275,4.702-3.25,6.207c-0.975,1.507-1.679,2.365-1.731,2.328c-0.066-0.046,0.53-0.977,1.416-2.52
				c0.887-1.542,2.035-3.716,3.085-6.217c1.045-2.501,1.788-4.845,2.264-6.559C253.988,252.699,254.233,251.621,254.312,251.636z"/>
		</g>
	</g>
	<g>
		<path style="fill:#455A64;" d="M250.031,252.482c0.019,0.081-0.479,0.122-0.807,0.706c-0.153,0.276-0.249,0.68-0.108,1.036
			c0.127,0.358,0.541,0.606,1.01,0.606c0.468-0.002,0.882-0.252,1.007-0.611c0.139-0.357,0.041-0.76-0.113-1.036
			c-0.33-0.582-0.828-0.622-0.81-0.703c0-0.028,0.121-0.074,0.342-0.029c0.219,0.042,0.526,0.203,0.774,0.528
			c0.235,0.319,0.436,0.83,0.258,1.399c-0.169,0.583-0.819,0.981-1.458,0.971c-0.639,0.013-1.29-0.383-1.462-0.964
			c-0.18-0.568,0.018-1.08,0.252-1.4c0.247-0.327,0.554-0.489,0.772-0.532C249.909,252.409,250.031,252.454,250.031,252.482z"/>
	</g>
	<g>
		<path style="fill:#263238;" d="M200.476,122.204c-3.21-1.586-7.053-1.843-10.445-0.699c-3.393,1.144-6.295,3.676-7.888,6.883
			c-1.595,3.209-1.967,7.09-4.372,9.747c-2.149,2.375-5.444,3.242-8.475,4.275c-3.031,1.033-6.249,2.611-7.436,5.586
			c-1.013,2.54-0.33,5.66-1.883,7.911c-1.585,2.299-4.766,2.687-7.553,2.863c0.268,1.254,1.464,2.247,2.746,2.28
			c-2.014,1.168-4.402,1.679-6.717,1.437c0.741,3.381,3.719,5.929,6.992,7.056c3.273,1.127,6.825,1.06,10.279,0.842
			c3.908-0.246,8.089-0.79,11.005-3.402c3.514-3.147,4.62-8.818,8.928-10.739c2.203-0.982,4.812-0.724,6.999-1.742
			c3.014-1.402,4.501-4.901,4.836-8.208c0.334-3.307-0.212-6.65,0.036-9.964c0.248-3.315,1.528-6.852,4.423-8.485L200.476,122.204z"
			/>
		<path style="fill:#FF725E;" d="M201.242,121.22c0.29-0.645-0.451-1.374-1.158-1.339c-0.706,0.035-1.289,0.549-1.771,1.066
			c-1.735,1.862-3.022,4.208-3.314,6.737c-0.292,2.528,0.498,5.231,2.348,6.98c0.418,0.395,0.928,0.754,1.503,0.755
			c0.603,0,1.147-0.408,1.469-0.918c0.321-0.51,0.458-1.112,0.577-1.703c0.781-3.851,1.073-7.801,0.867-11.725L201.242,121.22z"/>
		<g>
			<g>
				<g>
					<g>
						<path style="fill:#263238;" d="M198.195,134.606c-0.034-7.142,1.152-14.732,5.767-20.183
							c4.112-4.857,11.056-7.999,17.336-9.023c3.093-0.504,6.847,0.197,9.829,1.158c4.089,1.318,6.507,5.202,9.061,8.657
							c5.117,6.921,6.805,17.374,5.001,20.748l-28.491,23.475c-6.266-1.779-13.254-4.523-16.03-10.416
							C198.778,145.01,198.217,139.042,198.195,134.606z"/>
					</g>
					<g>
						<g>
							<g>
								<path style="fill:#FFBE9D;" d="M207.759,120.62l18.897-10.085c6.287-2.281,12.547,4.606,14.559,10.984
									c2.235,7.086,4.685,15.825,5.162,21.407c0.958,11.224-6.979,14.648-6.979,14.648c-0.012-0.036,0,0,0,0l3.866,12.672
									l4.422,14.104l-28.682-16.987l-13.69-42.049C204.787,123.352,205.849,121.313,207.759,120.62z"/>
							</g>
						</g>
						<g>
							<g>
								<path style="fill:#263238;" d="M240.913,128.848c0.207,0.725-0.236,1.498-0.99,1.728c-0.752,0.229-1.53-0.17-1.737-0.895
									c-0.207-0.725,0.236-1.499,0.988-1.728C239.928,127.723,240.706,128.124,240.913,128.848z"/>
							</g>
						</g>
						<g>
							<g>
								<path style="fill:#263238;" d="M240.201,125.344c-0.101,0.236-1.393-0.137-2.831,0.401c-1.444,0.517-2.225,1.65-2.447,1.532
									c-0.106-0.05-0.053-0.427,0.282-0.933c0.329-0.501,0.981-1.113,1.879-1.442c0.898-0.328,1.775-0.278,2.334-0.101
									C239.986,124.976,240.254,125.236,240.201,125.344z"/>
							</g>
						</g>
						<g>
							<g>
								<path style="fill:#263238;" d="M227.308,132.821c0.207,0.725-0.236,1.498-0.99,1.728c-0.752,0.229-1.53-0.17-1.737-0.895
									c-0.207-0.725,0.236-1.499,0.988-1.729C226.323,131.695,227.101,132.096,227.308,132.821z"/>
							</g>
						</g>
						<g>
							<g>
								<path style="fill:#263238;" d="M225.935,129.718c-0.127,0.223-1.37-0.293-2.859,0.08c-1.493,0.351-2.397,1.388-2.604,1.246
									c-0.099-0.061-0.007-0.43,0.386-0.895c0.383-0.462,1.1-0.995,2.029-1.221c0.93-0.225,1.795-0.076,2.331,0.163
									C225.762,129.328,225.999,129.616,225.935,129.718z"/>
							</g>
						</g>
						<g>
							<g>
								<path style="fill:#263238;" d="M234.002,140.191c-0.028-0.083,0.859-0.472,2.313-1.036c0.371-0.133,0.713-0.298,0.712-0.574
									c0.021-0.298-0.239-0.668-0.533-1.065c-0.586-0.832-1.199-1.705-1.843-2.619c-2.584-3.739-4.555-6.852-4.404-6.955
									c0.152-0.103,2.369,2.845,4.954,6.584c0.628,0.924,1.228,1.805,1.8,2.648c0.251,0.397,0.62,0.826,0.567,1.445
									c-0.032,0.31-0.26,0.585-0.488,0.711c-0.226,0.135-0.439,0.192-0.624,0.25C234.965,140.036,234.029,140.275,234.002,140.191
									z"/>
							</g>
						</g>
						<g>
							<g>
								<path style="fill:#EB996E;" d="M239.398,157.573c0,0-7.15,2.267-15.419-0.278c0,0,5.662,6.594,16.221,2.908L239.398,157.573
									z"/>
							</g>
						</g>
						<g>
							<path style="fill:#EB996E;" d="M229.767,144.192c0.255-0.8,0.938-1.356,1.722-1.577c1.132-0.32,2.184-0.165,3.185,0.703
								c0.328,0.242,0.518,1.104,0.472,1.367c-0.046,0.263,0.006,0.126-0.138,0.335c-0.521,0.754-1.08,1.516-1.885,1.932
								c-0.806,0.416-1.927,0.401-2.693-0.297C229.75,146.034,229.512,144.991,229.767,144.192z"/>
						</g>
						<g>
							<g>
								<path style="fill:#263238;" d="M229.871,142.308c0.239-0.074,0.642,1.543,2.311,2.348c1.667,0.81,3.347,0.201,3.415,0.424
									c0.048,0.096-0.306,0.409-1.029,0.609c-0.708,0.202-1.807,0.23-2.828-0.263c-1.019-0.495-1.615-1.345-1.834-1.995
									C229.677,142.771,229.758,142.326,229.871,142.308z"/>
							</g>
						</g>
						<g>
							<g>
								<path style="fill:#263238;" d="M225.481,126.035c-0.047,0.441-1.582,0.618-3.278,1.262c-1.71,0.61-2.993,1.47-3.315,1.164
									c-0.146-0.148,0.005-0.59,0.478-1.124c0.468-0.532,1.278-1.127,2.298-1.504c1.021-0.375,2.024-0.446,2.725-0.345
									C225.095,125.588,225.497,125.827,225.481,126.035z"/>
							</g>
						</g>
						<g>
							<g>
								<path style="fill:#263238;" d="M238.621,121.555c-0.178,0.403-1.292,0.306-2.531,0.595
									c-1.249,0.246-2.224,0.792-2.552,0.497c-0.148-0.146-0.067-0.525,0.31-0.959c0.371-0.431,1.06-0.878,1.915-1.063
									c0.855-0.183,1.666-0.058,2.181,0.182C238.467,121.048,238.696,121.361,238.621,121.555z"/>
							</g>
						</g>
						<g>
							<g>
								<path style="fill:#FFBE9D;" d="M211.389,137.78c-0.165-0.033-6.487-0.486-4.983,5.539c1.504,6.025,7.244,3.272,7.211,3.097
									C213.584,146.24,211.389,137.78,211.389,137.78z"/>
							</g>
						</g>
						<g>
							<g>
								<path style="fill:#EB996E;" d="M211.206,144.592c-0.031-0.012-0.087,0.1-0.244,0.225c-0.153,0.122-0.437,0.251-0.78,0.212
									c-0.695-0.075-1.483-0.952-1.784-2.03c-0.152-0.545-0.168-1.095-0.081-1.576c0.074-0.487,0.282-0.866,0.588-1.003
									c0.3-0.153,0.575-0.018,0.691,0.133c0.123,0.148,0.115,0.278,0.149,0.281c0.021,0.011,0.104-0.133-0.007-0.37
									c-0.055-0.113-0.161-0.238-0.331-0.318c-0.174-0.081-0.402-0.088-0.619-0.008c-0.457,0.148-0.768,0.68-0.863,1.208
									c-0.12,0.536-0.116,1.159,0.055,1.77c0.342,1.204,1.247,2.185,2.181,2.22c0.451,0.005,0.773-0.211,0.92-0.399
									C211.232,144.741,211.23,144.598,211.206,144.592z"/>
							</g>
						</g>
					</g>
					<g>
						<g>
							<path style="fill:#FAFAFA;" d="M209.695,147.084c-0.034-0.021-0.2,0.318-0.036,0.849c0.082,0.251,0.253,0.583,0.631,0.743
								c0.381,0.153,0.831,0.044,1.179-0.195c0.348-0.234,0.618-0.626,0.602-1.03c-0.008-0.389-0.195-0.696-0.389-0.888
								c-0.412-0.395-0.803-0.348-0.791-0.315c-0.014,0.051,0.323,0.095,0.627,0.465c0.146,0.18,0.272,0.443,0.263,0.736
								c0.001,0.286-0.201,0.574-0.489,0.773c-0.286,0.199-0.639,0.278-0.897,0.185c-0.263-0.092-0.432-0.339-0.527-0.551
								C209.673,147.411,209.741,147.092,209.695,147.084z"/>
						</g>
					</g>
					<g>
						<path style="fill:#263238;" d="M241.756,121.634c-1.234-1.556-3.124-2.452-5.032-3.004c-1.907-0.551-3.89-0.81-5.793-1.378
							c-4.367-1.304-8.209-4.29-10.552-8.2c2.603-2.248,6.345-2.963,9.698-2.198c3.353,0.765,6.305,2.898,8.416,5.613
							c2.111,2.715,3.425,5.985,4.194,9.337"/>
					</g>
					<g>
						<g>
							<path style="fill:#263238;" d="M206.045,118.822c3.445-5.315,11.319-9.684,17.618-9.096
								c0.357,5.291-2.106,11.921-4.545,16.63c-2.454,4.739-2.851,12.105-10.801,11.545c-0.547-0.039-1.018,0.565-1.543,0.405
								c-0.446-0.135-0.739-0.55-0.982-0.948C202.399,131.796,202.501,124.29,206.045,118.822z"/>
						</g>
					</g>
				</g>
			</g>
		</g>
		<g>
			<path style="fill:#263238;" d="M223.542,110.125c0.036,0.005,0.003,0.5-0.086,1.391c-0.091,0.891-0.238,2.178-0.457,3.764
				c-0.449,3.165-1.127,7.569-2.689,12.231c-0.787,2.326-1.739,4.476-2.786,6.331c-0.999,1.856-2.22,3.502-3.739,4.24
				c-1.524,0.75-3.005,0.45-3.778-0.02c-0.4-0.235-0.648-0.503-0.79-0.696c-0.136-0.199-0.186-0.314-0.173-0.322
				c0.044-0.04,0.28,0.442,1.059,0.841c0.747,0.388,2.142,0.6,3.511-0.129c1.386-0.723,2.521-2.293,3.489-4.146
				c1.008-1.842,1.934-3.966,2.712-6.265c1.545-4.607,2.278-8.976,2.819-12.12c0.249-1.501,0.457-2.755,0.62-3.736
				C223.406,110.606,223.507,110.121,223.542,110.125z"/>
		</g>
		<g>
			<path style="fill:#263238;" d="M157.559,153.303c-0.018,0.004-0.064-0.207-0.138-0.618c-0.035-0.411-0.082-1.038,0.099-1.816
				c0.166-0.775,0.529-1.704,1.206-2.618c0.687-0.889,1.685-1.809,3.057-2.289c1.37-0.543,3.025-0.351,4.617,0.003
				c1.594,0.34,3.361,0.715,5.034,0.019c1.669-0.649,3.038-2.109,3.977-3.831c0.98-1.723,1.433-3.753,1.773-5.85
				c0.345-2.097,0.591-4.191,1.193-6.149c0.586-1.964,1.579-3.723,2.787-5.161c2.417-2.911,5.645-4.487,8.423-4.975
				c2.801-0.509,5.129-0.135,6.631,0.305c0.758,0.218,1.325,0.45,1.702,0.621c0.373,0.179,0.565,0.281,0.557,0.297
				c-0.021,0.052-0.8-0.347-2.311-0.722c-1.497-0.375-3.786-0.682-6.508-0.139c-2.698,0.521-5.802,2.084-8.124,4.92
				c-1.16,1.403-2.107,3.1-2.668,5.002c-0.578,1.902-0.821,3.972-1.167,6.086c-0.34,2.105-0.811,4.216-1.84,6.012
				c-0.984,1.788-2.432,3.337-4.249,4.031c-0.896,0.345-1.857,0.471-2.754,0.393c-0.9-0.066-1.74-0.264-2.543-0.436
				c-1.591-0.369-3.12-0.561-4.407-0.078c-1.295,0.427-2.267,1.283-2.947,2.119c-0.671,0.861-1.049,1.743-1.24,2.486
				C157.334,152.423,157.641,153.301,157.559,153.303z"/>
		</g>
		<g>
			<path style="fill:#455A64;" d="M199.772,119.825c-0.026-0.014,0.116-0.355,0.461-0.927c0.341-0.574,0.927-1.355,1.786-2.192
				c1.698-1.69,4.668-3.422,8.26-4.156c3.591-0.73,6.916-0.543,9.268-0.347c1.181,0.104,2.133,0.221,2.788,0.315
				c0.656,0.094,1.016,0.165,1.012,0.201c-0.007,0.079-1.469-0.028-3.825-0.148c-2.348-0.102-5.632-0.224-9.138,0.49
				c-3.501,0.717-6.401,2.341-8.116,3.916C200.524,118.54,199.862,119.886,199.772,119.825z"/>
		</g>
		<g>
			<path style="fill:#455A64;" d="M208.084,110.446c-0.021-0.06,0.854-0.454,2.352-0.856c1.493-0.402,3.621-0.774,5.992-0.786
				c1.185,0.006,2.309,0.042,3.342,0.245c1.025,0.202,1.939,0.662,2.464,1.297c0.532,0.62,0.718,1.293,0.707,1.743
				c-0.004,0.455-0.138,0.678-0.161,0.668c-0.044-0.01,0.017-0.246-0.041-0.655c-0.049-0.404-0.27-0.984-0.777-1.508
				c-0.498-0.531-1.315-0.906-2.283-1.075c-0.969-0.166-2.09-0.19-3.248-0.195c-2.324,0.012-4.416,0.318-5.912,0.624
				C209.022,110.253,208.109,110.522,208.084,110.446z"/>
		</g>
		<g>
			<path style="fill:#455A64;" d="M197.29,144.037c-0.017,0.006-0.076-0.132-0.174-0.402c-0.105-0.267-0.209-0.683-0.275-1.227
				c-0.137-1.081-0.008-2.738,0.856-4.517c0.828-1.78,2.372-3.652,4.503-5.123c2.106-1.511,4.685-2.696,7.249-4.115
				c5.179-2.803,8.774-6.923,10.814-10.152c1.033-1.621,1.719-3.025,2.158-4.008c0.444-0.982,0.661-1.54,0.703-1.525
				c0.017,0.006-0.019,0.152-0.104,0.424c-0.089,0.271-0.205,0.677-0.412,1.179c-0.384,1.014-1.026,2.457-2.032,4.124
				c-1.981,3.316-5.606,7.562-10.874,10.412c-2.594,1.434-5.154,2.596-7.227,4.053c-2.096,1.417-3.601,3.188-4.449,4.893
				c-0.876,1.698-1.056,3.281-0.985,4.336C197.118,143.455,197.346,144.02,197.29,144.037z"/>
		</g>
	</g>
	<g>
		<g>
			<g>
				<g>
					<g>
						<path style="fill:#263238;" d="M221.005,184.35c-0.082,0-0.078-1.027-0.354-2.643c-0.275-1.609-0.899-3.813-2.145-5.972
							c-1.206-2.183-2.863-3.807-4.355-4.433c-1.496-0.645-2.555-0.303-2.557-0.408c-0.007-0.02,0.233-0.141,0.706-0.192
							c0.469-0.058,1.179-0.022,1.984,0.273c1.624,0.576,3.423,2.275,4.655,4.512c1.285,2.224,1.872,4.514,2.062,6.168
							C221.19,183.32,221.06,184.353,221.005,184.35z"/>
					</g>
				</g>
			</g>
			<g>
				<g>
					<path style="fill:#FF725E;" d="M224.476,166.902l23.679,18.104l-6.797-21.009l5.744,2.94c0,0,10.236,18.943,13.495,28.468
						c1.593,4.655,2.632,9.668,2.822,11.378c0.758,6.843-3.062,14.51-3.062,14.51l3.278,24.664c0.457,2.668-1.277,5.229-2.442,5.229
						l-37.069-4.971c-4.834-0.95-6.817-3.476-6.519-6.273l0.552-5.178l-15.832-53.024c-0.937,3.135-1.904-7.616,5.165-10.214
						C210.482,170.427,219.927,165.95,224.476,166.902z"/>
				</g>
				<g>
					<g>
						<path style="fill:#263238;" d="M251.002,177.211c0.014-0.009,0.116,0.12,0.297,0.375c0.208,0.306,0.463,0.678,0.77,1.129
							c0.658,0.987,1.598,2.424,2.714,4.23c2.207,3.609,5.229,8.717,7.201,14.936c1.969,6.225,2.045,12.307,1.11,16.469
							c-0.448,2.088-1.045,3.719-1.554,4.795c-0.229,0.55-0.478,0.944-0.619,1.222c-0.151,0.274-0.238,0.414-0.253,0.406
							c-0.04-0.021,0.25-0.611,0.694-1.704c0.45-1.09,0.989-2.72,1.387-4.788c0.834-4.123,0.704-10.103-1.24-16.252
							c-1.948-6.149-4.9-11.255-7.027-14.903c-1.058-1.769-1.929-3.225-2.577-4.308c-0.276-0.471-0.504-0.86-0.691-1.179
							C251.061,177.368,250.988,177.221,251.002,177.211z"/>
					</g>
				</g>
				<g>
					<g>
						<path style="fill:#FAFAFA;" d="M254.751,242.382c-0.603,1.108-1.154,2.327-1.019,3.581c0.046,0.43,0.319,0.952,0.746,0.883
							c0.269-0.043,0.437-0.308,0.569-0.546c2.367-4.261,4.616-7.888,6.983-12.149l-0.114-0.842
							C259.061,235.801,256.562,239.053,254.751,242.382z"/>
					</g>
					<g>
						<path style="fill:#FAFAFA;" d="M254.134,232.23c2.347,0.237,5.249-0.053,7.593-0.317l-0.059-0.434
							c-2.147-0.922-4.811-1.892-7.101-2.357c-2.29-0.466-4.742-0.442-6.882,0.496C249.427,231.21,251.786,231.993,254.134,232.23z"
							/>
					</g>
					<g>
						<path style="fill:#FAFAFA;" d="M254.316,223.857c2.304,1.942,4.829,4.062,7.133,6.004l-1.571-2.861
							c-1.691-2.526-3.457-5.023-5.838-6.912c-0.281-0.223-0.58-0.441-0.927-0.53s-0.757-0.025-0.992,0.246
							c-0.26,0.299-0.239,0.751-0.131,1.132C252.332,222.152,253.349,223.042,254.316,223.857z"/>
					</g>
				</g>
				<g>
					<g>
						<path style="fill:#FAFAFA;" d="M233.429,216.443c1.964,1.307,3.958,1.726,6.154,2.588l0.438-0.001
							c-1.468-1.818-2.949-3.65-4.756-5.132c-1.807-1.482-3.985-2.607-6.316-2.777C229.745,213.341,231.465,215.136,233.429,216.443
							z"/>
					</g>
					<g>
						<path style="fill:#FAFAFA;" d="M238.68,210.456c1.129,2.793,2.23,5.456,3.359,8.25l0.089-2.872
							c-0.314-3.023-0.709-6.056-1.931-8.839c-0.144-0.328-0.307-0.661-0.572-0.902c-0.265-0.242-0.657-0.376-0.992-0.246
							c-0.37,0.143-0.562,0.552-0.645,0.939C237.723,208.022,238.206,209.283,238.68,210.456z"/>
					</g>
				</g>
				<g>
					<g>
						<path style="fill:#263238;" d="M252.697,207.734c0.033,0.011-0.037,0.291-0.193,0.792c-0.074,0.253-0.176,0.557-0.332,0.896
							c-0.151,0.341-0.301,0.741-0.537,1.148c-0.424,0.841-1.042,1.783-1.821,2.756c-0.799,0.956-1.771,1.933-2.91,2.815
							c-1.151,0.867-2.349,1.548-3.482,2.068c-1.144,0.495-2.216,0.844-3.138,1.031c-0.919,0.196-1.676,0.293-2.201,0.3
							c-0.525,0.019-0.813,0.013-0.815-0.022c-0.007-0.095,1.15-0.15,2.933-0.621c0.893-0.227,1.926-0.602,3.03-1.106
							c1.093-0.529,2.251-1.202,3.371-2.046c1.108-0.859,2.062-1.798,2.86-2.713c0.777-0.932,1.411-1.831,1.865-2.632
							C252.25,208.805,252.608,207.702,252.697,207.734z"/>
					</g>
				</g>
			</g>
		</g>
		<g style="opacity:0.3;">
			<path d="M234.964,219.885c3.458,2.363,7.603,2.411,11.167,0.178c3.564-2.232,5.287-6.081,5.745-9.959
				C249.137,215.008,242.587,219.885,234.964,219.885z"/>
		</g>
		<g style="opacity:0.3;">
			<path d="M213.064,196.243l-4.5,6.398c0.937,3.544,2.179,6.889,3.115,10.433C213.826,207.89,214.102,201.758,213.064,196.243z"/>
		</g>
	</g>
	<g>
		<g>
			<g>
				<g>
					<path style="fill:#FFBE9D;" d="M147.929,271.441l-6.471,10.274l-14.323,4.289c0,0-0.184-1.77,0.818-2.686
						c1.002-0.916-2.982,0.381-2.982,0.381l-3.011,6.244c0,0-2.031-0.14-1.887-1.889c0.144-1.75,2.376-7.249,2.376-7.249
						l1.068-0.185c0,0-0.584-1.401,0.41-2.881c0,0,0.022-2.368,1.622-4.815c1.6-2.447,2.938-3.481,2.938-3.481l12.527-5.163
						L147.929,271.441z"/>
				</g>
			</g>
			<g>
				<g>
					<g>
						<path style="fill:#EB996E;" d="M137.903,279.404c0.058,0.107-1.971,1.278-4.668,2.296c-2.694,1.025-4.989,1.493-5.017,1.375
							c-0.034-0.131,2.187-0.794,4.853-1.809C135.739,280.259,137.842,279.284,137.903,279.404z"/>
					</g>
				</g>
			</g>
			<g>
				<g>
					<g>
						<path style="fill:#EB996E;" d="M129.946,278.122c0.043,0.121-1.597,0.852-3.662,1.632c-2.065,0.78-3.778,1.316-3.826,1.197
							s1.591-0.849,3.662-1.632C128.191,278.537,129.904,278.001,129.946,278.122z"/>
					</g>
				</g>
			</g>
			<g>
				<g>
					<g>
						<path style="fill:#EB996E;" d="M129.764,274.986c0.036,0.13-1.342,0.59-2.942,1.366c-1.604,0.767-2.822,1.558-2.902,1.449
							c-0.076-0.095,1.05-1.077,2.701-1.868C128.267,275.136,129.738,274.868,129.764,274.986z"/>
					</g>
				</g>
			</g>
			<g>
				<g>
					<g>
						<path style="fill:#EB996E;" d="M129.819,271.862c0.037,0.127-1.041,0.538-2.33,1.118c-1.291,0.575-2.316,1.104-2.386,0.992
							c-0.068-0.104,0.87-0.826,2.196-1.416C128.623,271.961,129.786,271.742,129.819,271.862z"/>
					</g>
				</g>
			</g>
		</g>
	</g>
	<g>
		<g>
			<path style="fill:#263238;" d="M214.826,172.51c0.037-0.039,0.802,0.617,1.763,1.92c0.962,1.297,2.054,3.291,2.707,5.686
				c0.645,2.397,0.708,4.671,0.533,6.276c-0.172,1.611-0.501,2.562-0.553,2.547c-0.088-0.019,0.111-0.991,0.185-2.574
				c0.079-1.58-0.042-3.782-0.668-6.113c-0.636-2.328-1.643-4.289-2.508-5.613C215.423,173.31,214.76,172.57,214.826,172.51z"/>
		</g>
		<g>
			<g>
				<g>
					<path style="fill:#FF725E;" d="M210.461,171.199c3.302-0.006,6.334,3.05,6.622,6.34c0.341,3.904,0.379,9.678-1.556,14.206
						c-3.232,7.562-36.011,46.438-36.011,46.438l-31.588,33.258l-8.143-8.151c0,0,16.795-27.439,19.072-30.755
						c4.743-6.907,16.671-19.076,21.398-27.16c4.727-8.084,15.308-22.893,18.497-26.124C202,175.964,204.631,171.21,210.461,171.199
						z"/>
				</g>
				<g>
					<g>
						<path style="fill:#FAFAFA;" d="M190.921,209.067c-1.279,0.176-2.618,0.463-3.569,1.335c-0.326,0.3-0.591,0.841-0.275,1.151
							c0.199,0.195,0.519,0.173,0.796,0.137c4.947-0.637,9.526-1.016,14.473-1.654l0.384-0.581
							C198.945,208.617,194.762,208.538,190.921,209.067z"/>
					</g>
					<g>
						<path style="fill:#FAFAFA;" d="M198.908,202.394c1.23,2.078,3.009,4.006,4.651,5.776l0.276-0.462
							c-0.545-2.328-1.096-4.676-2.103-6.844c-1.007-2.169-2.515-4.174-4.587-5.367
							C196.891,197.898,197.678,200.317,198.908,202.394z"/>
					</g>
					<g>
						<path style="fill:#FAFAFA;" d="M205.916,197.077c-0.201,3.077-0.369,6.021-0.57,9.098l1.359-2.608
							c1.054-2.926,2.038-5.898,2.149-9.006c0.013-0.367,0.011-0.745-0.126-1.086c-0.137-0.341-0.439-0.639-0.805-0.668
							c-0.404-0.032-0.763,0.259-1.012,0.579C206.115,194.408,206,195.786,205.916,197.077z"/>
					</g>
				</g>
				<g>
					<g>
						<path style="fill:#263238;" d="M213.04,195.601c0.015,0.01-0.065,0.156-0.229,0.425c-0.201,0.317-0.445,0.701-0.74,1.166
							c-0.662,0.999-1.649,2.426-2.906,4.161c-2.511,3.472-6.114,8.168-10.177,13.285c-4.072,5.113-7.832,9.683-10.599,12.951
							c-1.383,1.635-2.518,2.945-3.313,3.841c-0.37,0.407-0.676,0.743-0.928,1.021c-0.216,0.229-0.337,0.344-0.35,0.333
							c-0.013-0.011,0.081-0.149,0.272-0.4c0.232-0.294,0.514-0.651,0.855-1.082c0.802-0.993,1.879-2.325,3.186-3.943
							c2.727-3.394,6.409-7.975,10.478-13.039c4.061-5.114,7.705-9.77,10.286-13.183c1.244-1.666,2.269-3.037,3.033-4.059
							c0.326-0.442,0.596-0.809,0.817-1.11C212.918,195.718,213.025,195.591,213.04,195.601z"/>
					</g>
				</g>
			</g>
			<g>
				<g>
					<path style="fill:#FAFAFA;" d="M161.069,229.559c3.702,1.156,7.863,1.588,11.735,1.385c1.289-0.068,2.648-0.24,3.668-1.029
						c0.351-0.271,0.66-0.788,0.371-1.124c-0.182-0.212-0.502-0.216-0.781-0.204c-4.983,0.217-9.578,0.209-14.561,0.426"/>
				</g>
				<g>
					<path style="fill:#FAFAFA;" d="M164.281,236.918c-1.05-2.174-2.66-4.245-4.146-6.148l-0.314,0.437
						c0.346,2.366,0.697,4.751,1.517,6.997c0.82,2.246,2.154,4.372,4.118,5.735C165.912,241.569,165.331,239.092,164.281,236.918z"
						/>
				</g>
				<g>
					<path style="fill:#FAFAFA;" d="M156.874,242.527c0.46-3.049,0.876-5.968,1.336-9.017l-1.574,2.484
						c-1.297,2.827-2.529,5.705-2.902,8.793c-0.044,0.365-0.074,0.742,0.034,1.092c0.108,0.351,0.383,0.673,0.745,0.733
						c0.4,0.066,0.783-0.194,1.058-0.492C156.45,245.169,156.681,243.807,156.874,242.527z"/>
				</g>
			</g>
		</g>
	</g>
</g>
<g id="Paper_plane">
	<g>
		<g>
			<polygon style="fill:#FF725E;" points="398.5,62.817 403.129,68.8 404.733,78.635 408.231,76.183 411.725,81.388 442.752,52.008 
							"/>
			<polygon style="opacity:0.3;" points="408.18,76.244 406.603,77.324 405.48,71.807 			"/>
			<polygon style="opacity:0.3;" points="403.129,68.8 442.752,52.008 405.722,71.254 404.733,78.635 			"/>
			<g>
				<path style="fill:#263238;" d="M442.752,52.008c0.008,0.016-0.15,0.118-0.46,0.299c-0.363,0.204-0.815,0.458-1.366,0.768
					c-1.263,0.683-2.979,1.61-5.07,2.74c-4.364,2.301-10.28,5.419-16.818,8.866c-4.998,2.59-9.636,4.993-13.489,6.99l0.088-0.295
					c1.699,3.092,3.246,5.57,4.346,7.286c0.525,0.812,0.952,1.472,1.283,1.984c0.295,0.457,0.445,0.706,0.427,0.719
					c-0.018,0.013-0.203-0.211-0.533-0.645c-0.328-0.435-0.8-1.082-1.382-1.921c-1.163-1.679-2.769-4.132-4.516-7.214l-0.109-0.192
					l0.197-0.104c3.841-2.02,8.465-4.451,13.447-7.071c6.565-3.394,12.506-6.465,16.888-8.73c2.123-1.07,3.865-1.947,5.147-2.593
					c0.57-0.275,1.036-0.5,1.412-0.682C442.568,52.064,442.743,51.993,442.752,52.008z"/>
			</g>
			<g>
				<path style="fill:#263238;" d="M442.752,52.008c0.056,0.132-8.823,4.041-19.83,8.729c-11.011,4.689-19.979,8.383-20.036,8.25
					c-0.056-0.132,8.821-4.04,19.832-8.729C433.725,55.57,442.696,51.876,442.752,52.008z"/>
			</g>
			<g>
				<path style="fill:#263238;" d="M404.733,78.635c-0.143-0.014-0.099-1.627,0.099-3.602c0.198-1.976,0.474-3.565,0.617-3.551
					c0.143,0.014,0.099,1.627-0.099,3.603C405.152,77.06,404.876,78.649,404.733,78.635z"/>
			</g>
		</g>
		<g>
			<g>
				<path style="fill:#263238;" d="M366.696,102.981c0.03,0.141-0.509,0.332-1.204,0.427c-0.695,0.094-1.265,0.054-1.274-0.089
					c-0.009-0.144,0.53-0.335,1.204-0.427C366.096,102.8,366.667,102.84,366.696,102.981z"/>
			</g>
			<g>
				<path style="fill:#263238;" d="M375.605,98.987c0.086,0.111-0.731,0.885-1.919,1.582c-1.187,0.701-2.262,1.037-2.316,0.907
					c-0.059-0.135,0.897-0.673,2.052-1.356C374.58,99.441,375.516,98.87,375.605,98.987z"/>
			</g>
			<g>
				<path style="fill:#263238;" d="M382.056,91.656c0.125,0.064-0.296,1.109-1.093,2.234c-0.794,1.127-1.636,1.873-1.738,1.778
					c-0.109-0.099,0.541-0.982,1.313-2.078C381.314,92.496,381.926,91.587,382.056,91.656z"/>
			</g>
			<g>
				<path style="fill:#263238;" d="M384.408,82.24c0.139-0.02,0.375,1.102,0.218,2.484c-0.149,1.381-0.588,2.427-0.72,2.386
					c-0.144-0.041,0.06-1.117,0.202-2.442C384.26,83.343,384.262,82.255,384.408,82.24z"/>
			</g>
			<g>
				<path style="fill:#263238;" d="M378.461,75.482c-0.005-0.131,1.186-0.206,2.468,0.449c1.298,0.648,1.881,1.717,1.782,1.768
					c-0.136,0.113-0.847-0.727-2.019-1.305C379.534,75.797,378.445,75.636,378.461,75.482z"/>
			</g>
			<g>
				<path style="fill:#263238;" d="M370.662,80.246c-0.131-0.034,0.113-1.186,1.011-2.293c0.901-1.118,2.009-1.553,2.061-1.43
					c0.078,0.132-0.839,0.736-1.656,1.757C371.249,79.297,370.805,80.298,370.662,80.246z"/>
			</g>
			<g>
				<path style="fill:#263238;" d="M372.27,89.515c-0.08,0.082-0.959-0.684-1.536-1.972c-0.585-1.281-0.622-2.438-0.485-2.451
					c0.148-0.024,0.409,1.036,0.959,2.236C371.745,88.532,372.403,89.404,372.27,89.515z"/>
			</g>
			<g>
				<path style="fill:#263238;" d="M380.834,93.83c-0.006,0.138-1.146,0.184-2.487-0.191c-1.344-0.368-2.296-1-2.228-1.121
					c0.068-0.132,1.083,0.268,2.368,0.619C379.768,93.496,380.845,93.681,380.834,93.83z"/>
			</g>
			<g>
				<path style="fill:#263238;" d="M390.342,91.831c0.065,0.124-0.875,0.741-2.172,1.207c-1.297,0.472-2.421,0.582-2.447,0.443
					c-0.029-0.144,1.012-0.475,2.27-0.933C389.253,92.096,390.275,91.699,390.342,91.831z"/>
			</g>
			<g>
				<path style="fill:#263238;" d="M398.323,86.136c0.097,0.106-0.681,0.893-1.739,1.756c-1.058,0.864-1.984,1.469-2.068,1.353
					c-0.084-0.116,0.694-0.903,1.739-1.757C397.3,86.636,398.227,86.03,398.323,86.136z"/>
			</g>
			<g>
				<path style="fill:#263238;" d="M403.201,80.578c0.131,0.062-0.034,0.636-0.448,1.21c-0.409,0.575-0.869,0.929-0.977,0.837
					c-0.111-0.094,0.161-0.589,0.552-1.138C402.723,80.94,403.073,80.516,403.201,80.578z"/>
			</g>
		</g>
	</g>
</g>
</svg>
