<svg xmlns="http://www.w3.org/2000/svg" viewBox="0 0 500 500"><g id="freepik--background-complete--inject-2"><path d="M46.43,474.24c-1.32-1.13-4.26-4.71-2-8.88.83-1.53,2.6-2.29,4.2-3a17,17,0,0,0,4.6-2.38c2.5-2.13,3.19-5.65,4.84-8.49,1.91-3.25,5.46-5.69,9.21-5.52,4.29.2,7.87,3.71,9.5,7.71s1.68,8.44,1.71,12.76c0,2.39-.08,5.08-1.84,6.69-1.61,1.49-4,1.51-6.24,1.44L47,473.89" style="fill:#f5f5f5"></path><path d="M91.33,409.7H29.6L40.72,476A7.4,7.4,0,0,0,46,481.91l.21,0c.19.05.36.11.55.15a8.67,8.67,0,0,0,1.26.14v.06l.3,0H75.83a8.42,8.42,0,0,0,1.52-.15,7.43,7.43,0,0,0,6.24-6.48L89,430l.24-1.82h0L91.29,410ZM79.68,452H73.35L74,432.75h7.34Zm2.26-19.24H88L85.75,452H80.3Zm-18.1,40.57-.38-16.71h9.12L72,473.32ZM54,456.61h8.86l.39,16.71H55.28Zm.69,16.71H47.23c-.7-4.51-1.62-10.38-2.62-16.71h8.76ZM53.62,452l-1.49-19.24H62.3L62.74,452Zm9.73,0-.44-19.24H73.37L72.73,452Zm-.55-23.86-.41-17.82H74.12l-.59,17.82Zm-.61,0H51.77l-1.39-17.82h11.4Zm-11,0h-11c-.39-2.46-.76-4.79-1.1-6.88-1.15-7.21-1.58-9.92-1.82-10.94H49.77Zm.36,4.62L53,452H43.89c-.31-1.95-.62-3.93-.93-5.9-.71-4.54-1.43-9.09-2.1-13.34ZM43.27,452h-6l-3.23-19.24h6.16C41.18,438.7,42.22,445.31,43.27,452Zm.72,4.62c.91,5.78,1.81,11.49,2.62,16.71H40.89l-2.8-16.71Zm28.65,16.71.55-16.71h6.1l-1.43,16.71Zm1.5-45.19.59-17.82h8.51l-1.52,17.82ZM36.63,410.31c.24,1.29,1.37,8.3,2.88,17.82h-6.2l-3-17.82Zm46.62,63H78.48l1.42-16.71h5.31Zm5.3-45.19H82.34l1.52-17.82h6.78Z" style="fill:#e0e0e0"></path><rect x="383.41" y="127.45" width="83.2" height="74.44" style="fill:#fafafa"></rect><path d="M466.61,201.89s0-.48,0-1.39,0-2.24,0-4c0-3.5,0-8.61,0-15.11,0-13-.06-31.59-.1-54l.19.19-83.2,0h0l.22-.22c0,27.08,0,52.56,0,74.44l-.19-.2,60.17.1,17,.05,4.49,0,1.16,0h-1.12l-4.45,0-16.93,0-60.3.1h-.2v-.19c0-21.88,0-47.36,0-74.44v-.22h.23l83.2,0h.19v.19c0,22.42-.08,41-.1,54.08,0,6.48,0,11.58-.05,15.06,0,1.73,0,3,0,4S466.61,201.89,466.61,201.89Z" style="fill:#e0e0e0"></path><path d="M415.31,140.68c0,.12-4.38.22-9.78.22s-9.78-.1-9.78-.22,4.38-.23,9.78-.23S415.31,140.55,415.31,140.68Z" style="fill:#e0e0e0"></path><path d="M450.56,146.26c0,.13-12,.23-26.87.23s-26.87-.1-26.87-.23,12-.22,26.87-.22S450.56,146.14,450.56,146.26Z" style="fill:#e0e0e0"></path><rect x="395.89" y="155.73" width="3.51" height="3.51" style="fill:#e0e0e0"></rect><rect x="404.52" y="155.73" width="3.51" height="3.51" style="fill:#e0e0e0"></rect><rect x="413.31" y="155.57" width="3.51" height="3.51" style="fill:#e0e0e0"></rect><rect x="421.78" y="155.73" width="3.51" height="3.51" style="fill:#e0e0e0"></rect><rect x="430.4" y="155.73" width="3.51" height="3.51" style="fill:#e0e0e0"></rect><rect x="439.03" y="155.73" width="3.51" height="3.51" style="fill:#e0e0e0"></rect><rect x="447.66" y="155.73" width="3.51" height="3.51" style="fill:#ebebeb"></rect><rect x="395.89" y="163.18" width="3.51" height="3.51" style="fill:#ebebeb"></rect><rect x="404.52" y="163.18" width="3.51" height="3.51" style="fill:#e0e0e0"></rect><rect x="413.15" y="163.18" width="3.51" height="3.51" style="fill:#ebebeb"></rect><rect x="421.78" y="163.18" width="3.51" height="3.51" style="fill:#e0e0e0"></rect><rect x="430.4" y="163.18" width="3.51" height="3.51" style="fill:#e0e0e0"></rect><rect x="439.19" y="163.02" width="3.51" height="3.51" style="fill:#e0e0e0"></rect><rect x="447.66" y="163.18" width="3.51" height="3.51" style="fill:#e0e0e0"></rect><rect x="395.89" y="170.64" width="3.51" height="3.51" style="fill:#e0e0e0"></rect><rect x="404.68" y="170.48" width="3.51" height="3.51" style="fill:#e0e0e0"></rect><rect x="413.15" y="170.64" width="3.51" height="3.51" style="fill:#e0e0e0"></rect><rect x="421.78" y="170.64" width="3.51" height="3.51" style="fill:#ebebeb"></rect><rect x="430.4" y="170.64" width="3.51" height="3.51" style="fill:#e0e0e0"></rect><rect x="439.03" y="170.64" width="3.51" height="3.51" style="fill:#e0e0e0"></rect><rect x="447.66" y="170.64" width="3.51" height="3.51" style="fill:#e0e0e0"></rect><rect x="395.89" y="178.09" width="3.51" height="3.51" style="fill:#e0e0e0"></rect><rect x="404.52" y="178.09" width="3.51" height="3.51" style="fill:#e0e0e0"></rect><rect x="413.15" y="178.09" width="3.51" height="3.51" style="fill:#e0e0e0"></rect><rect x="421.93" y="177.93" width="3.51" height="3.51" style="fill:#e0e0e0"></rect><rect x="430.4" y="178.09" width="3.51" height="3.51" style="fill:#e0e0e0"></rect><rect x="439.03" y="178.09" width="3.51" height="3.51" style="fill:#ebebeb"></rect><rect x="447.66" y="178.09" width="3.51" height="3.51" style="fill:#e0e0e0"></rect><rect x="395.89" y="185.54" width="3.51" height="3.51" style="fill:#e0e0e0"></rect><rect x="404.52" y="185.54" width="3.51" height="3.51" style="fill:#ebebeb"></rect><rect x="413.15" y="185.54" width="3.51" height="3.51" style="fill:#e0e0e0"></rect><rect x="421.78" y="185.54" width="3.51" height="3.51" style="fill:#e0e0e0"></rect><rect x="430.4" y="185.54" width="3.51" height="3.51" style="fill:#e0e0e0"></rect><rect x="439.19" y="185.38" width="3.51" height="3.51" style="fill:#e0e0e0"></rect><rect x="447.66" y="185.54" width="3.51" height="3.51" style="fill:#e0e0e0"></rect><circle cx="420.63" cy="74.49" r="30.32" transform="translate(280.34 477.96) rotate(-80.87)" style="fill:#e0e0e0"></circle><circle cx="420.94" cy="74.18" r="27.44" style="fill:#fff"></circle><path d="M393.23,72.54s0,.15,0,.44,0,.75,0,1.32c0,.29,0,.61,0,1s.07.75.1,1.17.08.87.13,1.35a13.24,13.24,0,0,0,.26,1.53,26.28,26.28,0,0,0,2.56,7.51,27.41,27.41,0,0,0,6.47,8.24l1.13,1c.4.3.82.58,1.23.88s.83.61,1.29.86.92.51,1.38.78l.7.39.74.32,1.51.67c.51.21,1,.35,1.59.54a12.74,12.74,0,0,0,1.63.48,24,24,0,0,0,3.44.63c.59.06,1.18.16,1.78.19l1.82,0c.31,0,.62,0,.92,0l.93-.08c.61-.06,1.24-.09,1.86-.18a28.84,28.84,0,0,0,3.72-.83l.93-.27.47-.14.45-.19,1.83-.73c.6-.28,1.18-.61,1.77-.91a9.33,9.33,0,0,0,.88-.48l.85-.55A30.28,30.28,0,0,0,438.87,95l1.5-1.44.37-.36.34-.4.69-.8.68-.8.61-.86.61-.87L444,89l.26-.46c.35-.63.71-1.25,1.06-1.87s.58-1.32.88-2a29.69,29.69,0,0,0,2-8.55,29.29,29.29,0,0,0-.85-8.74c-.2-.7-.4-1.39-.61-2.08s-.53-1.33-.8-2l-.2-.5-.25-.47-.49-.94-.49-.94-.58-.89-.57-.88-.29-.43-.32-.41-1.29-1.63a29.12,29.12,0,0,0-2.94-2.84l-.77-.66c-.25-.22-.54-.39-.81-.59-.55-.38-1.08-.78-1.64-1.13l-1.71-1-.43-.24a3.49,3.49,0,0,0-.44-.2l-.89-.4a30.2,30.2,0,0,0-3.58-1.31c-.61-.17-1.22-.28-1.83-.42l-.9-.2c-.3-.06-.61-.08-.91-.12L422.76,47c-.6-.05-1.2,0-1.79-.05a26.76,26.76,0,0,0-3.49.17,13.52,13.52,0,0,0-1.69.27c-.55.11-1.11.19-1.64.33l-1.58.46-.78.23-.75.29-1.47.59c-.48.19-.92.46-1.38.69s-.91.46-1.34.7l-1.25.81a27.59,27.59,0,0,0-7.49,7.33,26.2,26.2,0,0,0-3.52,7.11,14.56,14.56,0,0,0-.46,1.48q-.17.7-.3,1.32c-.09.41-.19.79-.25,1.14s-.08.67-.12,1c-.07.57-.13,1-.17,1.3s-.06.45-.06.45,0-.16,0-.45.08-.74.14-1.31c0-.29.07-.61.11-1s.15-.73.23-1.15.19-.86.29-1.33a15.18,15.18,0,0,1,.44-1.49,26.32,26.32,0,0,1,3.5-7.17,27.6,27.6,0,0,1,7.51-7.41l1.25-.82c.44-.25.9-.47,1.35-.71s.91-.51,1.4-.7l1.48-.6.75-.3.79-.23,1.59-.47c.54-.14,1.1-.22,1.66-.34a13.68,13.68,0,0,1,1.7-.27,25.54,25.54,0,0,1,3.52-.18c.6,0,1.2,0,1.81,0l1.83.21c.3,0,.61.06.92.12l.91.2c.61.14,1.23.26,1.84.42A29.88,29.88,0,0,1,431.91,49l.89.4.45.2.43.24,1.74,1c.56.36,1.1.76,1.65,1.14.28.2.57.38.83.6l.77.66a31,31,0,0,1,3,2.88L443,57.7l.33.41.29.44.58.89.58.9.5.94.49,1,.25.48.21.5.81,2c.21.7.41,1.4.62,2.1a29.63,29.63,0,0,1,.85,8.84,29.27,29.27,0,0,1-2,8.64c-.3.67-.59,1.34-.89,2s-.71,1.27-1.07,1.89c-.09.16-.17.32-.27.47l-.31.44-.61.88-.62.88-.7.81-.69.8-.34.4-.38.37-1.51,1.46a31.28,31.28,0,0,1-3.32,2.46l-.86.55a9.5,9.5,0,0,1-.89.48c-.6.31-1.19.64-1.79.92l-1.85.74-.46.19-.47.14-.94.27a29.85,29.85,0,0,1-3.76.84c-.63.08-1.26.11-1.88.17l-.94.08c-.31,0-.62,0-.92,0l-1.84,0c-.61,0-1.21-.13-1.8-.19a25.93,25.93,0,0,1-3.47-.64,13.1,13.1,0,0,1-1.65-.5c-.54-.18-1.08-.33-1.6-.54l-1.52-.68-.75-.33-.7-.4L406.27,98c-.46-.25-.87-.59-1.3-.88s-.84-.58-1.24-.88l-1.13-1a27.51,27.51,0,0,1-6.48-8.32,26.31,26.31,0,0,1-2.53-7.57,13.28,13.28,0,0,1-.25-1.54c0-.48-.07-.94-.11-1.36s-.07-.81-.08-1.16,0-.68,0-1q0-.85,0-1.32C393.21,72.69,393.23,72.54,393.23,72.54Z" style="fill:#ebebeb"></path><path d="M433.44,74.93a4.38,4.38,0,0,1-1,.07l-2.69,0c-2.27,0-5.44.06-9,.06h-.18v-2c0-4,0-7.61.05-10.23,0-1.27,0-2.31.06-3.11a6,6,0,0,1,.07-1.13,9.33,9.33,0,0,1,.07,1.13c0,.8,0,1.84.05,3.11,0,2.62.05,6.24.05,10.23v1.79l-.17-.17c3.58,0,6.75,0,9,.06l2.69.05A6.2,6.2,0,0,1,433.44,74.93Z" style="fill:#e0e0e0"></path><path d="M420.84,51a7.62,7.62,0,0,1,.18,2.32,7.52,7.52,0,0,1-.18,2.31,7.52,7.52,0,0,1-.18-2.31A7.62,7.62,0,0,1,420.84,51Z" style="fill:#e0e0e0"></path><path d="M433.42,54.74a7.49,7.49,0,0,1-1.49,1.74A7.65,7.65,0,0,1,430.19,58a7.29,7.29,0,0,1,1.48-1.74A7.65,7.65,0,0,1,433.42,54.74Z" style="fill:#e0e0e0"></path><path d="M440.77,62.77a9.3,9.3,0,0,1-1.9,1.27,10.5,10.5,0,0,1-2,1.11,6.07,6.07,0,0,1,1.81-1.41A6.47,6.47,0,0,1,440.77,62.77Z" style="fill:#e0e0e0"></path><path d="M445.08,74.69a27.83,27.83,0,0,1-6.32,0,29.45,29.45,0,0,1,6.32,0Z" style="fill:#e0e0e0"></path><path d="M401.24,74.27a24.84,24.84,0,0,1-6,0,24.84,24.84,0,0,1,6,0Z" style="fill:#e0e0e0"></path><path d="M404.34,83.15a13.51,13.51,0,0,1-2.26,2A12.77,12.77,0,0,1,399.6,87a13,13,0,0,1,2.26-2A12.62,12.62,0,0,1,404.34,83.15Z" style="fill:#e0e0e0"></path><path d="M412,90a20.88,20.88,0,0,1-1.54,2.66,20.62,20.62,0,0,1-1.63,2.61,10.06,10.06,0,0,1,1.33-2.79A9.85,9.85,0,0,1,412,90Z" style="fill:#e0e0e0"></path><path d="M420.84,98.86a14,14,0,0,1-.18-3.16,14,14,0,0,1,.18-3.16A14,14,0,0,1,421,95.7,14,14,0,0,1,420.84,98.86Z" style="fill:#e0e0e0"></path><path d="M434.47,94.65a13.41,13.41,0,0,1-4.73-4.12,29.63,29.63,0,0,1,2.36,2.07A28.5,28.5,0,0,1,434.47,94.65Z" style="fill:#e0e0e0"></path><path d="M440.86,87.76a11,11,0,0,1-2.09-1.84,10.62,10.62,0,0,1-1.84-2.09A10.62,10.62,0,0,1,439,85.67,11,11,0,0,1,440.86,87.76Z" style="fill:#e0e0e0"></path><path d="M404.05,65.77a8.31,8.31,0,0,1-1.85-1.59,8.31,8.31,0,0,1-1.59-1.85,8.39,8.39,0,0,1,1.84,1.59A8.53,8.53,0,0,1,404.05,65.77Z" style="fill:#e0e0e0"></path><path d="M411.94,57.46a8.13,8.13,0,0,1-1.81-1.56,8,8,0,0,1-1.57-1.81,8.3,8.3,0,0,1,1.82,1.56A8.13,8.13,0,0,1,411.94,57.46Z" style="fill:#e0e0e0"></path><path d="M396.37,74.45a27.44,27.44,0,0,1,25.81-27.38c-.54,0-1.08-.06-1.63-.06a27.44,27.44,0,1,0,0,54.88c.55,0,1.09,0,1.63,0A27.45,27.45,0,0,1,396.37,74.45Z" style="fill:#f5f5f5"></path><rect x="38" y="50.01" width="77.25" height="122.08" style="fill:#e0e0e0"></rect><rect x="40.08" y="52.31" width="72.82" height="117.78" style="fill:#f5f5f5"></rect><rect x="76.49" y="59.17" width="29.04" height="45.06" style="fill:#fff"></rect><path d="M92.56,63.15a1.09,1.09,0,1,1-2.17,0,1.09,1.09,0,0,1,2.17,0Z" style="fill:#e0e0e0"></path><rect x="47.23" y="116.77" width="29.04" height="45.06" style="fill:#fff"></rect><path d="M63.29,120.75a1.09,1.09,0,1,1-1.08-1.08A1.08,1.08,0,0,1,63.29,120.75Z" style="fill:#e0e0e0"></path><rect x="46.84" y="59.17" width="24.8" height="35.19" style="fill:#fff"></rect><path d="M60.14,62.36a.9.9,0,1,1-.9-.9A.9.9,0,0,1,60.14,62.36Z" style="fill:#e0e0e0"></path><rect x="80.71" y="118.84" width="26.69" height="14.79" transform="translate(-13.56 11.34) rotate(-6.44)" style="fill:#fff"></rect><path d="M94.46,121.67a.92.92,0,1,1-.92-.92A.92.92,0,0,1,94.46,121.67Z" style="fill:#e0e0e0"></path><path d="M72.39,127c0,.12-4.56.22-10.18.22S52,127.16,52,127s4.55-.21,10.18-.21S72.39,126.92,72.39,127Z" style="fill:#e0e0e0"></path><path d="M72.39,130.27c0,.12-4.56.21-10.18.21S52,130.39,52,130.27s4.55-.22,10.18-.22S72.39,130.15,72.39,130.27Z" style="fill:#e0e0e0"></path><path d="M72.39,133.49c0,.12-4.56.22-10.18.22S52,133.61,52,133.49s4.55-.22,10.18-.22S72.39,133.37,72.39,133.49Z" style="fill:#e0e0e0"></path><path d="M72.39,136.71c0,.12-4.56.22-10.18.22S52,136.83,52,136.71s4.55-.21,10.18-.21S72.39,136.6,72.39,136.71Z" style="fill:#e0e0e0"></path><path d="M72.39,139.94c0,.12-4.56.21-10.18.21S52,140.06,52,139.94s4.55-.22,10.18-.22S72.39,139.82,72.39,139.94Z" style="fill:#e0e0e0"></path><path d="M72.39,143.16c0,.12-4.56.22-10.18.22S52,143.28,52,143.16s4.55-.21,10.18-.21S72.39,143,72.39,143.16Z" style="fill:#e0e0e0"></path><path d="M72.39,146.39c0,.12-4.56.21-10.18.21S52,146.51,52,146.39s4.55-.22,10.18-.22S72.39,146.27,72.39,146.39Z" style="fill:#e0e0e0"></path><path d="M104,123.59c0,.12-4.49.85-10,1.64s-10.1,1.32-10.12,1.21,4.49-.86,10.06-1.64S104,123.47,104,123.59Z" style="fill:#e0e0e0"></path><path d="M104.4,125.61c0,.11-4.48.85-10.05,1.63s-10.1,1.33-10.11,1.21,4.48-.85,10.05-1.64S104.39,125.49,104.4,125.61Z" style="fill:#e0e0e0"></path><path d="M104.77,127.47c0,.12-4.48.85-10,1.64s-10.1,1.32-10.11,1.2,4.48-.85,10-1.63S104.76,127.35,104.77,127.47Z" style="fill:#e0e0e0"></path><path d="M103,68.59c0,.12-5.15.22-11.51.22S80,68.71,80,68.59s5.15-.21,11.5-.21S103,68.47,103,68.59Z" style="fill:#e0e0e0"></path><path d="M103,70.51c0,.12-5.15.22-11.51.22S80,70.63,80,70.51s5.15-.22,11.5-.22S103,70.39,103,70.51Z" style="fill:#e0e0e0"></path><path d="M103,72.43c0,.12-5.15.21-11.51.21S80,72.55,80,72.43s5.15-.22,11.5-.22S103,72.31,103,72.43Z" style="fill:#e0e0e0"></path><path d="M103,74.34c0,.12-5.15.22-11.51.22S80,74.46,80,74.34s5.15-.21,11.5-.21S103,74.23,103,74.34Z" style="fill:#e0e0e0"></path><path d="M103,76.26c0,.12-5.15.22-11.51.22S80,76.38,80,76.26,85.12,76,91.47,76,103,76.14,103,76.26Z" style="fill:#e0e0e0"></path><path d="M103,78.18c0,.12-5.15.21-11.51.21S80,78.3,80,78.18,85.12,78,91.47,78,103,78.06,103,78.18Z" style="fill:#e0e0e0"></path><path d="M103,80.1c0,.11-5.15.21-11.51.21S80,80.21,80,80.1s5.15-.22,11.5-.22S103,80,103,80.1Z" style="fill:#e0e0e0"></path><path d="M103,85.78c0,.12-5.15.22-11.51.22S80,85.9,80,85.78s5.15-.21,11.5-.21S103,85.66,103,85.78Z" style="fill:#e0e0e0"></path><path d="M103.14,87.81c0,.12-5.15.21-11.51.21s-11.5-.09-11.5-.21,5.15-.22,11.5-.22S103.14,87.69,103.14,87.81Z" style="fill:#e0e0e0"></path><path d="M103.3,89.83c0,.12-5.15.22-11.5.22s-11.51-.1-11.51-.22,5.15-.21,11.51-.21S103.3,89.71,103.3,89.83Z" style="fill:#e0e0e0"></path><path d="M103.46,91.86c0,.12-5.15.21-11.5.21S80.45,92,80.45,91.86s5.15-.22,11.51-.22S103.46,91.74,103.46,91.86Z" style="fill:#e0e0e0"></path><path d="M103.62,93.88c0,.12-5.15.22-11.5.22s-11.5-.1-11.5-.22,5.15-.21,11.5-.21S103.62,93.76,103.62,93.88Z" style="fill:#e0e0e0"></path><path d="M103.79,95.91c0,.12-5.15.21-11.51.21s-11.5-.09-11.5-.21,5.15-.22,11.5-.22S103.79,95.79,103.79,95.91Z" style="fill:#e0e0e0"></path></g><g id="freepik--Floor--inject-2"><path d="M480.14,482.34c0,.15-103,.26-230.13.26s-230.15-.11-230.15-.26,103-.26,230.15-.26S480.14,482.2,480.14,482.34Z" style="fill:#263238"></path></g><g id="freepik--Clipboard--inject-2"><rect x="136.89" y="52.01" width="228.6" height="324.47" rx="9.24" style="fill:#e0e0e0"></rect><path d="M356.26,376.48l.71-.05a9.89,9.89,0,0,0,2-.4,9.21,9.21,0,0,0,5.8-5.45,9.17,9.17,0,0,0,.6-2.8c.05-1,0-2.08,0-3.2,0-2.24,0-4.69,0-7.34,0-5.31,0-11.44,0-18.33,0-27.59,0-67.51-.07-116.83,0-24.66,0-51.68,0-80.68q0-21.75,0-44.94,0-11.59,0-23.51c0-4,0-8,0-12a9,9,0,0,0-7-8.52,12,12,0,0,0-3-.23H146.15a9.06,9.06,0,0,0-6.23,2.49,9,9,0,0,0-2.78,6.08c0,4.66,0,9.34,0,14V156.6c0,35.49,0,69.73,0,102.34s0,63.6,0,92.6q0,5.44,0,10.78c0,1.78,0,3.57,0,5.32a8.94,8.94,0,0,0,1.64,4.82,9.18,9.18,0,0,0,4,3.16,9.81,9.81,0,0,0,2.45.63c.84.07,1.7.05,2.56.06H196.6l116.82.07,31.76.05,8.26,0c1.87,0,2.82,0,2.82,0s-.95,0-2.82,0l-8.26,0-31.76.05-116.82.07H147.69c-.85,0-1.71,0-2.6,0a9.88,9.88,0,0,1-2.55-.66,9.39,9.39,0,0,1-5.81-8.29c0-1.78,0-3.54,0-5.33V351.54c0-29,0-60,0-92.6s0-66.85,0-102.34q0-26.62,0-54.13V74.78c0-4.65,0-9.3,0-14a9.47,9.47,0,0,1,9.46-9H355.26a13.47,13.47,0,0,1,3.09.24,9.41,9.41,0,0,1,7.33,8.9q0,6,0,12V96.46q0,23.16,0,44.94c0,29,0,56,0,80.68,0,49.32,0,89.24-.07,116.83,0,6.89,0,13,0,18.33,0,2.65,0,5.1,0,7.34,0,1.13,0,2.19,0,3.21a9,9,0,0,1-.62,2.82,9.39,9.39,0,0,1-2.81,3.84,9.86,9.86,0,0,1-3,1.63,10.38,10.38,0,0,1-2.07.38Z" style="fill:#263238"></path><g style="opacity:0.30000000000000004"><polygon points="156.84 369.15 348.7 369.15 346.59 329.24 346.59 308 156.84 337.65 156.84 369.15"></polygon></g><g style="opacity:0.30000000000000004"><polygon points="308.88 52.67 313.24 65.61 313.24 71.94 308.32 71.94 308.88 52.67"></polygon></g><polygon points="147.09 65.01 147.09 363.07 302.58 363.07 355.3 363.07 355.3 65.01 147.09 65.01" style="fill:#fff"></polygon><path d="M355.3,309.77s0-.38,0-1.14,0-1.9,0-3.39c0-3,0-7.42,0-13.19,0-11.56,0-28.47-.06-49.94,0-43,0-104.15-.08-177.1l.2.2-208.21,0,.22-.22v.27c0,114.58,0,219.21-.06,297.79l-.16-.17,113.67.08,31,0,8.07,0,2.76,0-2.76,0-8.07,0-31,0-113.67.07h-.17v-.16c0-78.58,0-183.21,0-297.79v-.49h.22l208.21,0h.19V65c0,73-.06,134.14-.08,177.1,0,21.47,0,38.38-.05,49.94,0,5.77,0,10.2,0,13.19,0,1.49,0,2.62,0,3.39S355.3,309.77,355.3,309.77Z" style="fill:#263238"></path><path d="M209.85,43.93h92.7a6.33,6.33,0,0,1,6.33,6.33V74.49a0,0,0,0,1,0,0H203.53a0,0,0,0,1,0,0V50.26A6.33,6.33,0,0,1,209.85,43.93Z" style="fill:#263238"></path><polygon points="269.61 32.44 242.8 32.44 245.93 55.42 266.13 55.42 269.61 32.44" style="fill:#263238"></polygon><path d="M302.11,43.93c0,.12-20.56.22-45.91.22s-45.9-.1-45.9-.22,20.55-.22,45.9-.22S302.11,43.81,302.11,43.93Z" style="fill:#455a64"></path><path d="M205.89,69.56c-.13,0-.23-4.32-.23-9.66s.1-9.65.23-9.65.22,4.32.22,9.65S206,69.56,205.89,69.56Z" style="fill:#455a64"></path><path d="M305.47,67.27a84.42,84.42,0,0,1-.22-8.76,84.7,84.7,0,0,1,.22-8.77c.12,0,.22,3.93.22,8.77S305.59,67.27,305.47,67.27Z" style="fill:#455a64"></path><path d="M300.39,71.34c0,.12-21.1.22-47.12.22s-47.13-.1-47.13-.22,21.09-.23,47.13-.23S300.39,71.21,300.39,71.34Z" style="fill:#455a64"></path><rect x="213.95" y="122.21" width="114.99" height="7.07" style="fill:#e0e0e0"></rect><rect x="213.95" y="136.65" width="52.17" height="7.02" style="fill:#e0e0e0"></rect><rect x="175.67" y="119.2" width="26.59" height="26.59" rx="3.86" style="fill:#FF725E"></rect><polygon points="188.58 138.82 181.13 133.07 183.14 130.47 188.13 134.33 195.23 126.16 197.71 128.31 188.58 138.82" style="fill:#fff"></polygon><rect x="213.95" y="165.98" width="114.99" height="7.07" style="fill:#e0e0e0"></rect><rect x="213.95" y="180.41" width="52.17" height="7.02" style="fill:#e0e0e0"></rect><rect x="175.67" y="162.96" width="26.59" height="26.59" rx="3.86" style="fill:#FF725E"></rect><polygon points="188.58 182.58 181.13 176.83 183.14 174.23 188.13 178.09 195.23 169.92 197.71 172.07 188.58 182.58" style="fill:#fff"></polygon><rect x="213.95" y="212.87" width="114.99" height="7.07" style="fill:#e0e0e0"></rect><rect x="213.95" y="227.3" width="52.17" height="7.02" style="fill:#e0e0e0"></rect><rect x="213.95" y="256.21" width="114.99" height="7.07" style="fill:#e0e0e0"></rect><rect x="213.95" y="270.65" width="52.17" height="7.02" style="fill:#e0e0e0"></rect><rect x="175.67" y="209.85" width="26.59" height="26.59" rx="3.86" style="fill:#FF725E"></rect><polygon points="188.58 229.47 181.13 223.72 183.14 221.12 188.13 224.98 195.23 216.81 197.71 218.96 188.58 229.47" style="fill:#fff"></polygon><path d="M198.77,281.46H179.15a3.94,3.94,0,0,1-3.94-3.93V257.91a3.94,3.94,0,0,1,3.94-3.93h19.62a3.93,3.93,0,0,1,3.93,3.93v19.62A3.93,3.93,0,0,1,198.77,281.46Zm-19.62-26.58a3,3,0,0,0-3,3v19.62a3,3,0,0,0,3,3h19.62a3,3,0,0,0,3-3V257.91a3,3,0,0,0-3-3Z" style="fill:#FF725E"></path><rect x="213.95" y="305.8" width="114.99" height="7.07" style="fill:#e0e0e0"></rect><rect x="213.95" y="320.24" width="52.17" height="7.02" style="fill:#e0e0e0"></rect><path d="M198.77,331.05H179.15a4,4,0,0,1-3.94-3.93V307.5a4,4,0,0,1,3.94-3.94h19.62a3.94,3.94,0,0,1,3.93,3.94v19.62A3.94,3.94,0,0,1,198.77,331.05Zm-19.62-26.59a3,3,0,0,0-3,3v19.62a3,3,0,0,0,3,3h19.62a3,3,0,0,0,3-3V307.5a3,3,0,0,0-3-3Z" style="fill:#FF725E"></path><rect x="200.11" y="94.85" width="114.64" height="9.82" style="fill:#FF725E"></rect></g><g id="freepik--Plant--inject-2"><path d="M219.89,458.76s-3.45-23.73-3.16-37.53,0-29.34,0-29.34h1.59s-1.07,27.4.1,43.93,4.26,22.94,4.26,22.94h-2.77" style="fill:#263238"></path><path d="M230.17,365.2a4.17,4.17,0,0,0-1.45-2.13,4,4,0,0,0-3.45,0c-4.81,1.7-9.07,10.66-11,15.37L220.64,400C232.15,389.28,234.15,375.27,230.17,365.2Z" style="fill:#455a64"></path><path d="M228.35,363.94a.93.93,0,0,1-.09.28c-.08.21-.19.47-.31.79-.28.67-.67,1.66-1.14,2.88-.94,2.44-2.14,5.85-3.21,9.7s-1.8,7.38-2.25,10c-.23,1.29-.4,2.33-.51,3.06-.05.33-.1.61-.13.83a1.48,1.48,0,0,1-.07.29,1.7,1.7,0,0,1,0-.3c0-.22,0-.5.09-.84.08-.73.22-1.78.43-3.07a89.56,89.56,0,0,1,2.18-10,92.85,92.85,0,0,1,3.28-9.7c.5-1.21.91-2.19,1.22-2.85.15-.31.27-.57.36-.77A2.21,2.21,0,0,1,228.35,363.94Z" style="fill:#263238"></path><path d="M217.8,405.12A19.5,19.5,0,0,1,208,388.77c-.23-4.77,1.24-9.45,2.9-13.92a1.81,1.81,0,0,1,.67-1,1.71,1.71,0,0,1,1.63.26c4.35,2.47,7,7.19,8.38,12a24.25,24.25,0,0,1,1,9.86,16.42,16.42,0,0,1-4.74,9.18" style="fill:#455a64"></path><path d="M217.8,405.12s0-.1,0-.29,0-.49,0-.83c0-.71,0-1.75-.09-3a84,84,0,0,0-1.11-9.93c-.67-3.85-1.47-7.29-2.07-9.79-.29-1.21-.53-2.21-.7-2.95-.08-.32-.14-.59-.19-.8a.9.9,0,0,1,0-.29s0,.1.09.28.14.47.24.79c.19.69.46,1.69.79,2.93.63,2.48,1.47,5.93,2.14,9.79a73.05,73.05,0,0,1,1,10c0,1.28,0,2.32,0,3,0,.34,0,.61,0,.83A1.11,1.11,0,0,1,217.8,405.12Z" style="fill:#263238"></path><g style="opacity:0.30000000000000004"><path d="M217.8,405.12A19.5,19.5,0,0,1,208,388.77c-.23-4.77,1.24-9.45,2.9-13.92a1.81,1.81,0,0,1,.67-1,1.71,1.71,0,0,1,1.63.26c4.35,2.47,7,7.19,8.38,12a24.25,24.25,0,0,1,1,9.86,16.42,16.42,0,0,1-4.74,9.18"></path></g><path d="M224.55,441.42c5.89,1.29,10.73,5.44,16.41,7.46,3.75,1.34,8,1.81,11,4.44-.72-1.82-2.42-3-4.08-4.07a73.81,73.81,0,0,0-14.87-7.1c-2.67-.92-5.57-1.69-8.29-.93" style="fill:#455a64"></path><path d="M216,446.66c-7.37-.12-15.13-6.39-22.46-6.77,7.67-2.47,18.67-.45,22.46,6.77" style="fill:#455a64"></path><path d="M218.92,429a24,24,0,0,1,11.78-.8,71.27,71.27,0,0,1,11.51,3.13c-.38-2.56-2.45-4.48-4.4-6.18a29.86,29.86,0,0,0-4.62-3.55,10.23,10.23,0,0,0-5.54-1.57,8.78,8.78,0,0,0-6.11,3.08,10.2,10.2,0,0,0-2.62,5.89" style="fill:#455a64"></path><path d="M203.8,420.85c-4.64-4-11.67-3.58-17.77-3.44a144.35,144.35,0,0,1,27.55,17.17C213.83,430.27,209.66,425.85,203.8,420.85Z" style="fill:#455a64"></path><g style="opacity:0.30000000000000004"><path d="M203.8,420.85c-4.64-4-11.67-3.58-17.77-3.44a144.35,144.35,0,0,1,27.55,17.17C213.83,430.27,209.66,425.85,203.8,420.85Z"></path></g><path d="M221,415.38a51.14,51.14,0,0,1,7.13-4.15c2.44-1.11,4.72-2.88,7.08-4.15,3.06-1.66,5.71-4,8.52-6s5.89-3.91,9.32-4.45a18.24,18.24,0,0,0-8.49.49,53.81,53.81,0,0,0-8,3.11c-3.62,1.63-7.3,3.3-10.26,5.94s-5.63,5.26-5.32,9.22" style="fill:#455a64"></path><path d="M240.82,446.66l-.23-.1-.64-.33c-.56-.3-1.35-.74-2.36-1.24-.49-.26-1-.54-1.64-.82s-1.24-.58-1.92-.87a27.93,27.93,0,0,0-4.53-1.58,9.65,9.65,0,0,0-4.73-.12,13.1,13.1,0,0,0-2,.59,11.1,11.1,0,0,0-1.62.83,10.24,10.24,0,0,0-2,1.68c-.43.46-.64.74-.66.73a1.51,1.51,0,0,1,.13-.22q.15-.21.45-.57a9.36,9.36,0,0,1,2-1.77,10.35,10.35,0,0,1,1.63-.88,14.21,14.21,0,0,1,2-.63,9.88,9.88,0,0,1,4.85.1,26.55,26.55,0,0,1,4.57,1.62c.68.3,1.32.6,1.91.9s1.15.57,1.64.85c1,.52,1.78,1,2.32,1.31l.62.38C240.76,446.6,240.83,446.65,240.82,446.66Z" style="fill:#263238"></path><path d="M210.55,443a1.59,1.59,0,0,1,.46.13,10.74,10.74,0,0,1,1.2.53,14.8,14.8,0,0,1,3.52,2.49,14.46,14.46,0,0,1,2.63,3.42,9.84,9.84,0,0,1,.57,1.18,2,2,0,0,1,.16.46s-.32-.61-.89-1.54a16.5,16.5,0,0,0-2.65-3.33,17.07,17.07,0,0,0-3.43-2.52C211.16,443.3,210.53,443.05,210.55,443Z" style="fill:#263238"></path><path d="M194.24,420.48a1.25,1.25,0,0,1,.31.09l.89.31,1.39.52c.55.2,1.14.5,1.8.79a42.66,42.66,0,0,1,9.6,6.11,48,48,0,0,1,4.47,4.41c1.27,1.46,2.34,2.83,3.18,4s1.48,2.19,1.92,2.88l.5.79a1.75,1.75,0,0,1,.16.28,1.36,1.36,0,0,1-.2-.25c-.13-.18-.32-.43-.55-.77-.46-.67-1.12-1.64-2-2.82s-1.94-2.53-3.21-4a47.58,47.58,0,0,0-4.46-4.36,44.45,44.45,0,0,0-9.51-6.15c-.66-.3-1.24-.61-1.77-.83L195.4,421l-.86-.36Z" style="fill:#263238"></path><path d="M230,424.84a2.37,2.37,0,0,1-.59-.08l-.67-.12c-.27-.05-.58-.05-.91-.09a9.35,9.35,0,0,0-5.06,1,9.19,9.19,0,0,0-2.31,1.71,10.24,10.24,0,0,0-1.48,1.83,14,14,0,0,0-1,1.94,1.68,1.68,0,0,1,.15-.58,7.92,7.92,0,0,1,.7-1.45,10,10,0,0,1,1.47-1.91,9,9,0,0,1,7.56-2.72c.34,0,.65.06.91.12l.68.17A2.66,2.66,0,0,1,230,424.84Z" style="fill:#263238"></path><path d="M237.39,401.86l-.28.17-.82.45c-.72.39-1.75.95-3,1.69s-2.71,1.66-4.27,2.78a35.85,35.85,0,0,0-4.76,4,11.82,11.82,0,0,0-1.95,2.53c-.49.92-.95,1.82-1.37,2.68a49,49,0,0,0-2.05,4.66,29.52,29.52,0,0,0-1,3.28c-.18.79-.25,1.24-.28,1.23a1.29,1.29,0,0,1,0-.32c0-.22.07-.53.15-.93a23.73,23.73,0,0,1,.93-3.32,44.69,44.69,0,0,1,2-4.71c.42-.86.88-1.76,1.36-2.69a11.7,11.7,0,0,1,2-2.59,34.18,34.18,0,0,1,4.81-4c1.58-1.11,3.06-2,4.32-2.74s2.31-1.26,3-1.62l.84-.4A1.56,1.56,0,0,1,237.39,401.86Z" style="fill:#263238"></path><path d="M216.72,424.18a2.68,2.68,0,0,1-.14-.63c-.09-.45-.2-1-.33-1.7a48.86,48.86,0,0,0-1.39-5.53,47.32,47.32,0,0,0-2.11-5.3l-.71-1.58a2.6,2.6,0,0,1-.24-.59,2.94,2.94,0,0,1,.33.55c.19.36.47.88.79,1.54a37.56,37.56,0,0,1,2.19,5.3,39.14,39.14,0,0,1,1.33,5.58c.11.72.19,1.31.24,1.72A3.06,3.06,0,0,1,216.72,424.18Z" style="fill:#263238"></path><path d="M216.19,407.41a20,20,0,0,0-2.4-8A26.28,26.28,0,0,0,196,386.18l16.48,24.56,2.13,4.39A12.68,12.68,0,0,0,216.19,407.41Z" style="fill:#455a64"></path><rect x="201.51" y="455.82" width="38.32" height="6.79" style="fill:#FF725E"></rect><polygon points="204.37 461.27 207.63 482.34 233.07 482.34 236.97 461.27 204.37 461.27" style="fill:#FF725E"></polygon><path d="M239.81,462.62c0,.08-8.65.14-19.31.14s-19.3-.06-19.3-.14,8.64-.13,19.3-.13S239.81,462.55,239.81,462.62Z" style="fill:#263238"></path></g><g id="freepik--speech-bubble-2--inject-2"><path d="M381.57,219.59l-2-4.83a19.82,19.82,0,0,0,0-12,19.92,19.92,0,1,0-15.21,25.55,19.8,19.8,0,0,0,11.82-7.19h0Z" style="fill:#fff"></path><path d="M381.57,219.59l-.33.11-1,.3-4,1.17a.09.09,0,0,1-.12-.06.17.17,0,0,1,0-.07h0l.17.1a20,20,0,0,1-7.6,6,21,21,0,0,1-6.17,1.63,20.16,20.16,0,0,1-7.24-.62,20.52,20.52,0,0,1-7.15-3.63,19.58,19.58,0,0,1-5.51-6.69,20.6,20.6,0,0,1-2.17-9,19.88,19.88,0,0,1,2.28-9.4,19.67,19.67,0,0,1,6.48-7.31,20.62,20.62,0,0,1,8.7-3.35,19.69,19.69,0,0,1,8.72.79,20.41,20.41,0,0,1,7.06,3.93,20,20,0,0,1,4.59,5.68l.73,1.53c.23.51.39,1,.58,1.53a17.2,17.2,0,0,1,.77,3,19.78,19.78,0,0,1-.69,9.59v-.06c.63,1.55,1.13,2.77,1.47,3.62.16.39.28.7.37.93a1.81,1.81,0,0,1,.11.31s-.06-.12-.16-.33l-.41-.93c-.36-.83-.88-2-1.55-3.53a.06.06,0,0,1,0-.06,19.84,19.84,0,0,0,.58-9.49,17.61,17.61,0,0,0-.79-2.94c-.19-.49-.35-1-.58-1.5s-.48-1-.73-1.5a19.77,19.77,0,0,0-4.53-5.56,20.31,20.31,0,0,0-6.94-3.81,19.15,19.15,0,0,0-8.53-.75,20.1,20.1,0,0,0-8.5,3.28,19.75,19.75,0,0,0-8.55,16.33,20,20,0,0,0,2.1,8.76,19.31,19.31,0,0,0,5.38,6.57,20.13,20.13,0,0,0,7,3.58,19.59,19.59,0,0,0,7.09.65,20.39,20.39,0,0,0,6.08-1.56A20,20,0,0,0,376.1,221a.09.09,0,0,1,.13,0,.11.11,0,0,1,0,.11h0l-.11-.13,4-1.05,1.06-.27A1.87,1.87,0,0,1,381.57,219.59Z" style="fill:#263238"></path><circle cx="353.75" cy="209.23" r="2.18" style="fill:#263238"></circle><path d="M363.27,209.23a2.18,2.18,0,1,1-2.18-2.18A2.18,2.18,0,0,1,363.27,209.23Z" style="fill:#263238"></path><circle cx="368.23" cy="209.23" r="2.18" style="fill:#263238"></circle></g><g id="freepik--speech-bubble-1--inject-2"><path d="M116.91,178.49l1-5.57a18.89,18.89,0,1,1,4.36,5.2h0Z" style="fill:#fff"></path><path d="M116.91,178.49h.33l1,0,4-.22a.09.09,0,0,0,.07-.09l0,0h0l-.12.11a18.74,18.74,0,0,0,11.2,4.4c.51,0,1,0,1.55,0a7.06,7.06,0,0,0,.8,0l.81-.09a19,19,0,0,0,16.4-23,19.69,19.69,0,0,0-1.51-4.35,19.41,19.41,0,0,0-2.6-3.91A19.65,19.65,0,0,0,145.4,148a19,19,0,0,0-4-2.17,18.79,18.79,0,0,0-8.63-1.31,19.06,19.06,0,0,0-17.5,19.56,18.8,18.8,0,0,0,2.53,8.87v-.05c-.29,1.81-.51,3.2-.67,4.17l-.16,1.06a2.29,2.29,0,0,0,0,.35s0-.13.08-.38.11-.61.2-1.07c.17-.95.42-2.33.75-4.1a.13.13,0,0,0,0-.06,18.81,18.81,0,0,1,14.86-28,18.45,18.45,0,0,1,8.46,1.3,18.18,18.18,0,0,1,7.27,5.23,19.28,19.28,0,0,1,2.55,3.82,19.06,19.06,0,0,1,1.48,4.26,18.75,18.75,0,0,1-.1,8.63,18.75,18.75,0,0,1-15.95,14l-.8.09c-.26,0-.52,0-.78,0-.53,0-1,0-1.54,0a17.59,17.59,0,0,1-2.88-.35,19,19,0,0,1-8.23-3.9.07.07,0,0,0-.11,0,.09.09,0,0,0,0,.1h0l0-.12-3.92.31-1,.09Z" style="fill:#263238"></path><polygon points="126.12 164.86 128.2 162.77 132.23 166.35 140.13 158.75 142.07 160.83 131.93 170.38 126.12 164.86" style="fill:#FF725E"></polygon></g><g id="freepik--character-2--inject-2"><path d="M461.42,382.92c0-.24,0-.47.05-.71.21-4.49-1.62-8.81-3.38-13-4.72-11.12-9.28-22.92-8-34.92,1.76-15.87,13.43-29,17.59-44.34a4.16,4.16,0,0,1,4-3.05h0a4.16,4.16,0,0,1,4,5.4c-4.64,14.35-15.23,26.94-16.89,42-1.33,12,3.24,23.8,7.95,34.92,1.76,4.15,3.59,8.47,3.39,13s-3.1,9.23-7.55,10H396.33a4.17,4.17,0,0,1-4.19-4.17v-.9a4.18,4.18,0,0,1,4.19-4.17Z" style="fill:#455a64"></path><path d="M474.75,482.34H378.51a4.24,4.24,0,0,1-3.43-1.81,5.18,5.18,0,0,1-.7-4.65l27.4-83.95,1.42.47-27.39,84a3.68,3.68,0,0,0,.49,3.3,2.77,2.77,0,0,0,2.21,1.19h96.24a2.7,2.7,0,0,0,2.18-1.14,3.67,3.67,0,0,0,.57-3.2L454,392.37l1.45-.41L479,476.09a5.18,5.18,0,0,1-.83,4.52A4.22,4.22,0,0,1,474.75,482.34Z" style="fill:#e0e0e0"></path><path d="M339.77,330s3.51-8.52,7-10.32a44.58,44.58,0,0,1,7.87-3H370l.15,10a6.81,6.81,0,0,1-5.28,1.81c-3-.42-10.67-2.3-10.67-2.3l-3.76.2L347,330.83s-2.82.85-1.82-1.81l1.43-3.83s-3.33,5.17-4.61,5.41A2.84,2.84,0,0,1,339.77,330Z" style="fill:#6f4439"></path><path d="M403.48,297.85l-12.27,17.64L370,316.69l-.29,9.68,16,3.15a25.74,25.74,0,0,0,22.92-6.81h0L411,301.37Z" style="fill:#ae7461"></path><path d="M394,444.17l14.25,13.95S397.93,478,400.3,480.83l29.76-28-21.27-22.68Z" style="fill:#263238"></path><path d="M416.27,448.24a1.58,1.58,0,0,1,2.08.52,1.6,1.6,0,0,1-.61,2.08,1.66,1.66,0,0,1-2.2-.56,1.69,1.69,0,0,1,.88-2.11" style="fill:#e0e0e0"></path><path d="M430.06,452.83l-2.24-2.2-27.7,27.67s-.81,1.79.18,2.53Z" style="fill:#455a64"></path><path d="M407.61,458.43c.13.13.92-.49,2.05-.72s2.06,0,2.14-.2-.88-.77-2.25-.46S407.46,458.33,407.61,458.43Z" style="fill:#fff"></path><path d="M405.64,462.58c.09.17.94-.19,2-.08s1.77.6,1.91.45-.5-1-1.8-1.12S405.52,462.45,405.64,462.58Z" style="fill:#fff"></path><path d="M407.21,467.77c.16-.09-.29-1-1.38-1.37s-2,0-2,.12.85.18,1.74.52S407.05,467.9,407.21,467.77Z" style="fill:#fff"></path><path d="M404.73,454.87c.18.07.67-.75,1.54-1.47s1.74-1.08,1.71-1.27-1.12-.09-2.13.77S404.56,454.83,404.73,454.87Z" style="fill:#fff"></path><path d="M395.64,344.8c-2.61,0-66.11,18.5-73,24.75s-12,83.64-12,83.64l26.63,9.13s5.61-37.79,9-50a62.32,62.32,0,0,0,2.09-18.76l52.72-23Z" style="fill:#263238"></path><path d="M397.24,348.89c-1.18.52-47.32,20.22-51.66,33.42-3.53,10.76.57,20.23,5.51,27.63,5.57,8.35,46.44,45.65,46.44,45.65l23.07-16.5-39.55-40.84s20.75-12.8,21.46-12.8,22.28-1.43,29.12-2.2c6.39-.73,9.88-9.88,9.88-9.88l5.69-26.25-42.79-9.88Z" style="fill:#263238"></path><path d="M397.24,348.89l.45-.77,1.36-2.24,5.3-8.68,0,0h.05l42.8,9.81.14,0,0,.14c-1.71,7.89-3.62,16.75-5.67,26.25h0A23,23,0,0,1,437.6,380a11.86,11.86,0,0,1-3.13,2.49,4.61,4.61,0,0,1-.93.43,5.33,5.33,0,0,1-1,.31c-.33.07-.67.15-1,.19l-1,.11c-5.4.54-11,.93-16.74,1.35l-8.74.6-2.22.13-.29,0c-.06,0-.05,0-.08,0l-.11.05-.49.24-1,.54c-1.3.74-2.6,1.51-3.9,2.28-5.19,3.11-10.47,6.35-15.85,9.66l0-.3C391,408.29,401.42,419,412.07,430l8.67,8.95.16.16-.19.13q-11.79,8.44-23.07,16.49l-.12.09-.12-.1Q385,444.38,373.68,433.55c-3.76-3.6-7.42-7.15-10.94-10.67s-6.94-7-10-10.58c-.4-.43-.73-.93-1.1-1.39s-.72-.94-1-1.44c-.63-1-1.24-2-1.8-3a41.4,41.4,0,0,1-2.87-6.17,30.42,30.42,0,0,1-1.59-6.4,26.56,26.56,0,0,1,0-6.36,22.86,22.86,0,0,1,1.44-6,17.19,17.19,0,0,1,3.4-4.82,57.27,57.27,0,0,1,8.51-7,164.4,164.4,0,0,1,16.15-9.67c4.86-2.6,9.11-4.68,12.59-6.33s6.2-2.87,8-3.68l2.1-.91.72-.29s-.23.12-.7.33l-2.09.93c-1.83.83-4.54,2.07-8,3.74s-7.71,3.77-12.56,6.38a167.68,167.68,0,0,0-16.1,9.7,56.41,56.41,0,0,0-8.45,7,16.78,16.78,0,0,0-3.34,4.74,23.26,23.26,0,0,0-1.41,5.89,26.5,26.5,0,0,0,.05,6.29,29.81,29.81,0,0,0,1.59,6.33,40.3,40.3,0,0,0,2.85,6.12c.56,1,1.16,2,1.8,3a14.15,14.15,0,0,0,1,1.42c.36.46.68.94,1.09,1.38,3.06,3.58,6.49,7,10,10.55s7.18,7.05,10.95,10.65q11.3,10.79,23.72,22.16l-.24,0,23.07-16.49,0,.29-8.67-9-30.87-31.89-.17-.17.2-.13q8.07-5,15.86-9.65c1.31-.77,2.6-1.54,3.91-2.28l1-.54c.17-.09.33-.18.51-.26l.15-.06.19,0h.27l2.22-.13,8.74-.59c5.74-.42,11.33-.81,16.72-1.34a8.94,8.94,0,0,0,3.81-1,11.51,11.51,0,0,0,3-2.42,22.54,22.54,0,0,0,4-6.47v0l5.72-26.24.1.16-42.78-9.94.08,0-5.37,8.66-1.38,2.21C397.41,348.65,397.24,348.89,397.24,348.89Z" style="fill:#455a64"></path><path d="M401.44,222.67a4.33,4.33,0,0,1-2.56-8.22,4.5,4.5,0,0,1,3.25-7.9,5.39,5.39,0,0,1,7.71-5.11,6.07,6.07,0,0,1,7.42-.79,4.3,4.3,0,0,1,4.42,6.95" style="fill:#263238"></path><path d="M418.56,204.82l-.95.08a18.36,18.36,0,0,0-16.74,18.43c.07,8.9.26,18.73.73,23.47,1,9.8,10.94,10.46,10.94,10.46l.22,11.86,23.75-2.84-1.67-42.95C434.82,213.06,428.82,204.51,418.56,204.82Z" style="fill:#ae7461"></path><path d="M412.53,257.26A23.89,23.89,0,0,0,425,252.35s-2.53,7.51-12.4,7.49Z" style="fill:#6f4439"></path><path d="M404.41,232.43a1.41,1.41,0,0,0,1.48,1.3,1.35,1.35,0,0,0,1.33-1.39,1.41,1.41,0,0,0-1.48-1.3A1.35,1.35,0,0,0,404.41,232.43Z" style="fill:#263238"></path><path d="M403.4,228c.19.16,1.18-.72,2.69-.84s2.68.52,2.83.32-.13-.4-.64-.71a3.92,3.92,0,0,0-2.29-.49,3.73,3.73,0,0,0-2.12.9C403.44,227.53,403.31,227.87,403.4,228Z" style="fill:#263238"></path><path d="M418,231.65a1.42,1.42,0,0,0,1.48,1.3,1.35,1.35,0,0,0,1.33-1.39,1.4,1.4,0,0,0-1.47-1.3A1.35,1.35,0,0,0,418,231.65Z" style="fill:#263238"></path><path d="M418.25,226.92c.19.17,1.19-.71,2.69-.84s2.68.52,2.83.32-.13-.4-.64-.71a4,4,0,0,0-2.29-.49,3.73,3.73,0,0,0-2.12.9C418.29,226.5,418.16,226.84,418.25,226.92Z" style="fill:#263238"></path><path d="M413.77,238.59a9.64,9.64,0,0,0-2.49-.23c-.39,0-.76-.05-.85-.31a2,2,0,0,1,.16-1.16l.88-3c1.21-4.32,2-7.85,1.88-7.9s-1.3,3.41-2.51,7.73c-.29,1.06-.57,2.07-.83,3a2.21,2.21,0,0,0-.07,1.53,1,1,0,0,0,.68.51,2.56,2.56,0,0,0,.66,0A10.35,10.35,0,0,0,413.77,238.59Z" style="fill:#263238"></path><path d="M416.43,221.23c.23.37,1.49-.16,3.08-.36s2.95,0,3.06-.45c0-.2-.27-.52-.87-.77a4.7,4.7,0,0,0-2.43-.29,4.54,4.54,0,0,0-2.24.91C416.53,220.67,416.33,221.06,416.43,221.23Z" style="fill:#263238"></path><path d="M402.78,221.73c.35.32,1.56-.15,3.06-.3s2.78,0,3-.39c.11-.19-.12-.52-.7-.79a4.81,4.81,0,0,0-2.54-.34,4.92,4.92,0,0,0-2.38.9C402.77,221.21,402.62,221.58,402.78,221.73Z" style="fill:#263238"></path><path d="M401.41,218.75s2-6.38,4.89-8.07c3.43-2.06,5.32,1.74,8.66.49s6.61-3.23,10.34-.9c4.08,2.56,2.47,4.75,3.09,9.08,2.52,17.57,6.18,22.28,6.37,13.88,0-.92,2.48-1.87,2.51-5.75.05-5-.3-11.11-1.72-14.56-1.21-2.9-3.09-4.81-6.34-6.82-5.14-3.16-11.77-2.65-16.22-1.8S400.32,211.09,401.41,218.75Z" style="fill:#263238"></path><path d="M434.11,233a2.66,2.66,0,0,1,2.65-2.82c1.84,0,4,.87,4.18,4.66.38,6.73-6.45,5.72-6.47,5.53S434.24,235.84,434.11,233Z" style="fill:#ae7461"></path><path d="M435.79,237.78s.12.07.32.15a1.17,1.17,0,0,0,.88,0,2.91,2.91,0,0,0,1.2-2.68,3.85,3.85,0,0,0-.43-1.66,1.37,1.37,0,0,0-.93-.85.6.6,0,0,0-.67.36c-.08.2,0,.33-.07.34s-.15-.1-.11-.38a.75.75,0,0,1,.24-.44.92.92,0,0,1,.64-.21,1.66,1.66,0,0,1,1.28,1,3.92,3.92,0,0,1,.52,1.85,3,3,0,0,1-1.55,3,1.24,1.24,0,0,1-1.08-.12C435.81,237.94,435.77,237.79,435.79,237.78Z" style="fill:#6f4439"></path><path d="M432.83,220a6.36,6.36,0,0,1-2.73,1.56,2.19,2.19,0,0,1-2.56-1.32c-.13-.46-.06-1-.4-1.35s-1.07-.2-1.62-.09c-1.94.38-4.41-1.57-5.07-3.43a1.76,1.76,0,0,1-2.3.69,6.45,6.45,0,0,1-1.74-1.29,2.8,2.8,0,0,0-2.41-1,7,7,0,0,1-1.43.45c-.89,0-1.41-1-1.62-1.86s-.4-1.87-1.19-2.28a3.55,3.55,0,0,0-2.41.15c-.8.19-1.86.09-2.14-.69a1.65,1.65,0,0,1,.19-1.24,4.37,4.37,0,0,1,5-2.1,5.91,5.91,0,0,1,10.72-2.1,6,6,0,0,1,9.75,1.34,4.35,4.35,0,0,1,5.44,5.87,4.1,4.1,0,0,1,2.55,3.08c.15,1.38-1.08,2.89-2.45,2.64a2.41,2.41,0,0,1-3.94,2.76" style="fill:#263238"></path><path d="M410.06,208.3a.56.56,0,0,0,0,.12,2.73,2.73,0,0,0,.07.36,4.53,4.53,0,0,0,.6,1.25,4.8,4.8,0,0,0,1.63,1.45,4.44,4.44,0,0,0,2.82.54l-.13-.13a2.42,2.42,0,0,0,.3,1.84,7,7,0,0,0,1.29,1.54,5.24,5.24,0,0,0,.82.71,2.48,2.48,0,0,0,1.1.3,2.44,2.44,0,0,0,2.09-1l-.25-.05a5,5,0,0,0,2.44,3.3,3.79,3.79,0,0,0,2.27.53,6.74,6.74,0,0,0,2.12-.67l-.18-.07a5.16,5.16,0,0,0,1.77,1.93,2.79,2.79,0,0,0,2.39.43,3.69,3.69,0,0,0,2.59-3.14l-.14.08a3.46,3.46,0,0,0,2.33.14,3.79,3.79,0,0,0,1.55-.86,3.17,3.17,0,0,0,.68-.89,3.86,3.86,0,0,0,.14-.36,4.15,4.15,0,0,1-.9,1.17,3.76,3.76,0,0,1-1.51.78,3.36,3.36,0,0,1-2.21-.16l-.13-.06v.14a3.5,3.5,0,0,1-2.46,2.92,2.54,2.54,0,0,1-2.17-.42,5,5,0,0,1-1.67-1.83l-.06-.12-.13.06a6.5,6.5,0,0,1-2,.64,3.44,3.44,0,0,1-2.1-.5,4.8,4.8,0,0,1-2.31-3.1l-.07-.31-.18.26a2.17,2.17,0,0,1-1.85.85,2,2,0,0,1-1-.26,3.92,3.92,0,0,1-.77-.66,6.49,6.49,0,0,1-1.27-1.48,2.2,2.2,0,0,1-.29-1.66l0-.16-.17,0a4.37,4.37,0,0,1-2.69-.47,4.94,4.94,0,0,1-1.62-1.38A5.33,5.33,0,0,1,410.06,208.3Z" style="fill:#455a64"></path><path d="M413.9,243.42c0-.26,1.69-.06,3.06-1.35s1.4-3.11,1.63-3.09.28.43.21,1.19a4.2,4.2,0,0,1-1.27,2.6,3.72,3.72,0,0,1-2.55,1C414.27,243.77,413.87,243.53,413.9,243.42Z" style="fill:#263238"></path><path d="M316.7,443.23l-3.1,21.53s-24.13,3.73-25.11,7.64l43.82,8.18,6.28-33.32Z" style="fill:#263238"></path><path d="M327.47,465.49a1.74,1.74,0,0,1,.89,2.17,1.76,1.76,0,0,1-2.23.8,1.83,1.83,0,0,1-.93-2.3,1.86,1.86,0,0,1,2.43-.59" style="fill:#e0e0e0"></path><path d="M332.31,480.58l.49-3.38-42.19-6.58s-2.1.44-2.12,1.78Z" style="fill:#455a64"></path><path d="M312.92,464.42c0,.2,1,.49,2,1.34s1.34,1.8,1.55,1.76.11-1.27-1-2.28S312.91,464.22,312.92,464.42Z" style="fill:#fff"></path><path d="M308,465.36c-.09.18.78.7,1.35,1.7s.61,1.93.83,2,.56-1.08-.18-2.31S308,465.17,308,465.36Z" style="fill:#fff"></path><path d="M304.44,470.08c.18.08.67-.88.32-2.09s-1.27-1.84-1.39-1.69.39.86.66,1.86S304.23,470,304.44,470.08Z" style="fill:#fff"></path><path d="M314.2,459.6c.06.2,1.09.1,2.29.41s2.07.84,2.21.68-.63-1-2-1.38S314.13,459.42,314.2,459.6Z" style="fill:#fff"></path><path d="M411.68,270.65l.9-4.07,23.93-11.89L438.6,258s8.95,7.29,12.38,13.61-.63,58.12-1.21,65.68c-1.15,15.23-6.84,35.17-6.84,35.17s-7.68-5.35-30.27-14.62-23.8-13.48-23.8-13.48l13.31-16.88Z" style="fill:#FF725E"></path><path d="M412,272.08c-.13.75-11,26.72-11,26.72s5.62,3.14,6.41,3.29S412,272.08,412,272.08Z" style="fill:#FF725E"></path><path d="M411,276.34c.11,0-.85,6.61-2.14,14.74s-2.42,14.69-2.53,14.68.85-6.62,2.14-14.75S410.85,276.32,411,276.34Z" style="fill:#263238"></path><path d="M335,328.3s6.45-9.51,10.29-11.18a47.69,47.69,0,0,1,8.65-2.58l16.21,2.17-.29,9.68a7.29,7.29,0,0,1-5.79,1.54c-3.23-.68-11.24-3.26-11.24-3.26l-4.05-.06-4,4.5s-3.07.7-1.81-2.07,1.82-4,1.82-4-4,5.29-5.34,5.45A28.06,28.06,0,0,1,335,328.3Z" style="fill:#ae7461"></path><path d="M419.74,290.2,408.5,316.32l-38.47.37-.29,9.68s37.1,13.08,47,10.54S443,299.44,443,299.44Z" style="fill:#ae7461"></path><path d="M428.84,268.17c-1,.95-4.53,5-8.24,13.91s-8.92,19.26-8.92,19.26l26.53,10.57s6-13.91,8.85-20.1c2.14-4.71,3.63-14,1.69-18.47S438.07,259.79,428.84,268.17Z" style="fill:#FF725E"></path><path d="M428.84,268.17a2.92,2.92,0,0,1,.24-.23c.17-.15.41-.38.75-.65a13.11,13.11,0,0,1,3.27-1.93,9.92,9.92,0,0,1,5.95-.44,14.25,14.25,0,0,1,6.8,4.06,16.59,16.59,0,0,1,2.77,3.74,12.37,12.37,0,0,1,1.15,4.91,35,35,0,0,1-1.38,11,41.05,41.05,0,0,1-2.19,5.6Q445,297,443.68,300q-2.56,5.83-5.29,12l-.08.17-.18-.07-.38-.15L411.62,301.5l-.18-.07.08-.17c2.48-5,4.68-9.59,6.55-13.74s3.33-7.87,4.89-10.79A45.13,45.13,0,0,1,427,270.2a18.93,18.93,0,0,1,1.31-1.55,6.77,6.77,0,0,1,.52-.48l-.12.13-.35.39c-.31.34-.74.87-1.27,1.58a46.64,46.64,0,0,0-4,6.56c-1.53,2.91-2.93,6.65-4.81,10.81s-4,8.8-6.5,13.78l-.09-.25,26.14,10.4.39.16-.25.1c1.81-4.12,3.59-8.15,5.3-12q1.29-2.93,2.53-5.72a41.2,41.2,0,0,0,2.19-5.55,35,35,0,0,0,1.4-10.88,11.94,11.94,0,0,0-1.1-4.79,16.49,16.49,0,0,0-2.7-3.69,14,14,0,0,0-6.65-4,9.9,9.9,0,0,0-5.85.37,14,14,0,0,0-3.27,1.85c-.35.26-.6.48-.77.62Z" style="fill:#263238"></path><path d="M352,319.43a12.27,12.27,0,0,0-4.1,1,11.9,11.9,0,0,0-3.27,2.69,2.83,2.83,0,0,1,.66-1.11,7.75,7.75,0,0,1,2.43-1.93,7.6,7.6,0,0,1,3-.81A3,3,0,0,1,352,319.43Z" style="fill:#6f4439"></path><path d="M414.47,302.45a1,1,0,0,1-.09.27l-.29.76c-.29.7-.69,1.66-1.18,2.86-1.05,2.48-2.51,6-4.25,10.05l0,.1h-.12l-11.68.13-18.95.13h-5.74l-1.56,0a2,2,0,0,1-.54,0l.54,0,1.56,0,5.74-.12,18.94-.24,11.69-.1-.16.11,4.38-10,1.26-2.81c.15-.3.26-.55.35-.75S414.46,302.44,414.47,302.45Z" style="fill:#6f4439"></path></g><g id="freepik--Table--inject-2"><rect x="66.63" y="337.24" width="7.41" height="144.91" style="fill:#455a64"></rect><rect x="370.63" y="338.26" width="7.41" height="143.91" style="fill:#455a64"></rect><rect x="48.13" y="335.81" width="337.24" height="8.74" style="fill:#455a64"></rect><path d="M382.12,344.56c0,.11-39.35.19-87.89.19s-87.89-.08-87.89-.19,39.34-.2,87.89-.2S382.12,344.45,382.12,344.56Z" style="fill:#263238"></path></g><g id="freepik--Device--inject-2"><path d="M285.05,284.66h0A1.64,1.64,0,0,1,287,286l9.13,48.36h44.37a1.2,1.2,0,0,1,1.2,1.2h0a1.2,1.2,0,0,1-1.2,1.2H293.4v-.19l-.22,0-9.43-50A1.63,1.63,0,0,1,285.05,284.66Z" style="fill:#263238"></path></g><g id="freepik--character-1--inject-2"><path d="M62.64,171.82a24.09,24.09,0,0,1,17.77-10.91c4.21-.45,6,.27,9.15.82a13.41,13.41,0,0,1,8,4.35,22.45,22.45,0,0,1,5.28,9.81,32.24,32.24,0,0,1,.35,10.69,42.47,42.47,0,0,1-4.59,13.08L92.24,201c-5.37.67-10.81,1.33-16.16.57s-10.71-3.13-13.93-7.48C57.68,188.07,58.42,178,62.64,171.82Z" style="fill:#263238"></path><path d="M71.31,171l12.54-6.32,3.43.09c7.64-.66,13.66,7.3,14.26,13.48.67,6.87,1.22,15.28.58,20.45-1.29,10.38-9.91,12-9.91,12S93.65,222.8,94,226.21l-20.81-6.36-5-45.07A3.63,3.63,0,0,1,71.31,171Z" style="fill:#ffbf9d"></path><path d="M86.62,197.66a2.17,2.17,0,0,1,.63-1.41,2.23,2.23,0,0,1,2.68-.39,3,3,0,0,1,1.37,2.69h0a2.74,2.74,0,0,1-1.83,1.29l-.36,0a2.43,2.43,0,0,1-1.69-.5A2.14,2.14,0,0,1,86.62,197.66Z" style="fill:#ff9a6c"></path><path d="M99.55,187.51a1.32,1.32,0,0,1-1.23,1.38,1.27,1.27,0,0,1-1.41-1.15,1.34,1.34,0,0,1,1.23-1.38A1.27,1.27,0,0,1,99.55,187.51Z" style="fill:#263238"></path><path d="M99.52,181.88c-.16.17-1.19-.53-2.61-.48s-2.45.8-2.61.63.08-.39.52-.74a3.74,3.74,0,0,1,2.08-.72,3.53,3.53,0,0,1,2.09.6C99.44,181.49,99.6,181.8,99.52,181.88Z" style="fill:#263238"></path><path d="M91.4,193.81a9.53,9.53,0,0,1,2.3-.49c.36,0,.7-.14.76-.39a1.93,1.93,0,0,0-.28-1.07q-.57-1.31-1.17-2.73c-1.63-3.9-2.83-7.11-2.67-7.17s1.61,3,3.24,6.94l1.12,2.75a2.1,2.1,0,0,1,.24,1.42.9.9,0,0,1-.58.55,2.62,2.62,0,0,1-.62.11A9,9,0,0,1,91.4,193.81Z" style="fill:#263238"></path><path d="M92.22,210.67a26.24,26.24,0,0,1-14-3.21s3.92,7,14.23,5.71Z" style="fill:#ff9a6c"></path><path d="M99.53,177.51c-.23.36-1.33.16-2.6.31s-2.32.52-2.61.22c-.13-.15,0-.49.43-.86a3.85,3.85,0,0,1,2-.8,3.71,3.71,0,0,1,2.15.38C99.43,177,99.63,177.34,99.53,177.51Z" style="fill:#263238"></path><path d="M84.92,188.58a1.33,1.33,0,0,0,1.37,1.24,1.27,1.27,0,0,0,1.28-1.29,1.32,1.32,0,0,0-1.37-1.24A1.27,1.27,0,0,0,84.92,188.58Z" style="fill:#263238"></path><path d="M80.28,183c.17.16,1.12-.65,2.54-.75s2.52.54,2.66.35-.12-.38-.6-.68a3.58,3.58,0,0,0-2.14-.49,3.4,3.4,0,0,0-2,.81C80.32,182.64,80.19,183,80.28,183Z" style="fill:#263238"></path><path d="M82.15,178c.3.31,1.38-.09,2.7-.17s2.45.08,2.69-.27c.11-.17-.09-.49-.59-.77a4.32,4.32,0,0,0-4.35.36C82.16,177.52,82,177.86,82.15,178Z" style="fill:#263238"></path><path d="M71.49,191.89c0-.77-1-2.55-1.74-2.65-2-.24-5.69,0-5.55,5.2.2,7,7.23,5.39,7.24,5.19S71.59,194.55,71.49,191.89Z" style="fill:#ffbf9d"></path><path d="M69.42,197.11s-.12.09-.32.19a1.26,1.26,0,0,1-.92,0,3.06,3.06,0,0,1-1.48-2.69,4.08,4.08,0,0,1,.29-1.77,1.42,1.42,0,0,1,.9-1,.64.64,0,0,1,.74.31c.1.2.05.34.09.35s.15-.12.09-.41a.81.81,0,0,0-.29-.43.9.9,0,0,0-.69-.16,1.71,1.71,0,0,0-1.25,1.12,4.25,4.25,0,0,0-.37,2,3.19,3.19,0,0,0,1.87,3,1.28,1.28,0,0,0,1.12-.22C69.41,197.28,69.45,197.12,69.42,197.11Z" style="fill:#ff9a6c"></path><path d="M69.47,189.29,71.41,191C82.62,183.6,94,163.53,91.08,164.35A22.4,22.4,0,0,0,80,164.14c-5.63,1.48-16.21,5.31-15.44,12S69.47,189.29,69.47,189.29Z" style="fill:#263238"></path><path d="M66.17,161.13c2.73,1.6,5.16,6.25,4,9.21A9.27,9.27,0,0,1,58.37,180.7a8.94,8.94,0,0,1-5-3.87,10.77,10.77,0,0,1-1.1-7.46,11.87,11.87,0,0,1,4.94-7.79A8.76,8.76,0,0,1,66.17,161.13Z" style="fill:#263238"></path><path d="M65.55,189.31a6.39,6.39,0,0,0,1.29-.56c.81-.39,2-1,3.36-1.79a50.47,50.47,0,0,0,10.1-7.47,33.83,33.83,0,0,0,7.31-10.2,24.26,24.26,0,0,0,1.3-3.59,5.87,5.87,0,0,0,.29-1.37c-.1,0-.54,1.92-1.93,4.8a36.23,36.23,0,0,1-7.34,10A57.14,57.14,0,0,1,70,186.64c-1.37.83-2.49,1.48-3.27,1.93A7.37,7.37,0,0,0,65.55,189.31Z" style="fill:#455a64"></path><path d="M59.41,184c.1,0,.14-1.31.53-3.38a26.73,26.73,0,0,1,7.7-14.21c1.51-1.46,2.59-2.21,2.54-2.29a3.35,3.35,0,0,0-.81.46,18,18,0,0,0-2,1.55,24.29,24.29,0,0,0-5.16,6.54,23.94,23.94,0,0,0-2.65,7.89,17.14,17.14,0,0,0-.21,2.51A3.1,3.1,0,0,0,59.41,184Z" style="fill:#455a64"></path><path d="M66.89,200.36a2.64,2.64,0,1,0,2.64-2.64A2.64,2.64,0,0,0,66.89,200.36Z" style="fill:#263238"></path><path d="M91.73,198.77c0-.25-1.68,0-3.09-1.16s-1.55-3-1.78-3-.25.45-.14,1.19a4.15,4.15,0,0,0,1.39,2.49,3.65,3.65,0,0,0,2.57.87C91.38,199.14,91.76,198.88,91.73,198.77Z" style="fill:#263238"></path><path d="M54.15,288.46s-7.87,27.75-3.2,42.82c2.81,9,42.15,58.83,44,61,1.32,1.49-16.82,48.53-20.14,58.33l20.86,10.11s26.1-55.5,27.7-65.23c2-12.49-27.31-65.92-26.24-66.64l10.56-22L99,284.14s-36.92.4-44.45,1Z" style="fill:#263238"></path><path d="M99.78,304.82s50.88,18.06,56.62,21.11c6.25,3.33,11,15,5.76,24.95s-51,38.38-51,38.38L99.78,371.88l33.1-26.08L97,337.36,85.37,323.52Z" style="fill:#263238"></path><path d="M123.41,395.14a18.72,18.72,0,0,0,0-3.53,39.51,39.51,0,0,0-2.57-9.3c-.73-1.91-1.6-4-2.51-6.21-.47-1.11-.91-2.29-1.37-3.48s-1-2.4-1.52-3.65c-2.17-5-4.64-10.38-7.24-16.06-4.2-9.13-8.07-17.56-11.19-24.32l0-.07,0-.07c1.32-5.48,2.49-10,3.37-13.07.45-1.55.83-2.75,1.12-3.56a8.7,8.7,0,0,1,.38-.9c.12-.2.18-.29.19-.28s0,.11-.13.31-.18.51-.32.91c-.26.82-.59,2-1,3.59-.81,3.11-1.91,7.61-3.19,13.1l0-.14c3.17,6.72,7.1,15.14,11.29,24.28,2.6,5.69,5,11.11,7.2,16.09.53,1.25,1.06,2.46,1.51,3.68s.88,2.36,1.34,3.48c.9,2.23,1.75,4.31,2.45,6.24a38.12,38.12,0,0,1,2.44,9.41A10.31,10.31,0,0,1,123.41,395.14Z" style="fill:#455a64"></path><path d="M100.5,315.27c-.1.37,0,13.37,0,13.37L107,339.71l-5.22-1.23-4.64-9.66Z" style="opacity:0.30000000000000004"></path><path d="M129.37,313.28c-1.47-1.44-5.77-5.48-8.8-8.32a1.76,1.76,0,0,1,1.17-3l34.85-.71a1.72,1.72,0,0,1,1.36.59l7.28,8.18a1.77,1.77,0,0,1-1.27,2.94l-33.31.88A1.75,1.75,0,0,1,129.37,313.28Z" style="fill:#455a64"></path><path d="M119.51,307a30.46,30.46,0,0,1,8.1-2.2c4-.4,6.07,1.3,8.24,1.1s8.1.38,8.1,2-8.24,2.17-8.24,2.17l7.23,2.31s8.24-1,8.39,0-7.38,2-10.85,2.46-23.58.72-26.47,0-23.43-13.16-23.43-13.16l9.84-10.12Z" style="fill:#ffbf9d"></path><path d="M68.86,216.49a16.9,16.9,0,0,0-12.69,11.75c-2.69,8.56,2.44,43.75,4.62,50.11s25.66,26.8,27.73,25.06S102,291.55,102,291.55L83.65,269.83s1-25.78-.24-30.65S74,216,68.86,216.49Z" style="fill:#FF725E"></path><path d="M57.38,259.41c1.34,12.23-1.28,17.48-1.28,17.48a9.49,9.49,0,0,0-3.42,6.26,1.78,1.78,0,0,0,1.84,2l44.45-1s6.22.59,6.09-5.31c-.15-6.58,1.66-29.71-.73-38.81-.82-3.14-11-18.44-11-18.44l-21.19-12-2.25,5.78s-6.72,2.45-9.79,6.41a22.2,22.2,0,0,0-4.25,8.64C54,236.72,56.66,252.86,57.38,259.41Z" style="fill:#FF725E"></path><path d="M169.14,239s-.38-.35-1.73.08-5.18,2.32-6.92,2.77-5.51,1.9-5.51,1.9a7.55,7.55,0,0,0-4.76,1.6c-2.66,1.84-10.18,6.8-10.18,6.8l2.58,7.32a15,15,0,0,1,3.73-.24,11.66,11.66,0,0,0,5.33-.22c2-.62,4.81-1.72,4.81-1.72s2.69.22,3.4-.76,0-2.74,0-2.74h0s2.64-2.43,1.51-3.79-2.55-2.88-2.55-2.88,7.84-4.16,9.32-5.26S169.9,239.9,169.14,239Z" style="fill:#ffbf9d"></path><polygon points="140.04 252.18 115.64 260.39 105.78 265.37 119.62 272.83 142.62 259.49 140.04 252.18" style="fill:#ffbf9d"></polygon><path d="M154.82,246.15a12.13,12.13,0,0,1-.3,6.28l-.12.39-.2-.33c1.62.29,3.06.57,4.1.81s1.63.66,1.57.71a14.07,14.07,0,0,0-1.64-.36c-1-.14-2.5-.37-4.12-.65l-.28-.05.08-.28c0-.12.07-.25.1-.38A33.19,33.19,0,0,0,154.82,246.15Z" style="fill:#ff9a6c"></path><path d="M154.7,249.62c0-.05.22,0,.5.16a2,2,0,0,1,.8,1.14l-.27-.19a9.53,9.53,0,0,1,1.39-.13,5.31,5.31,0,0,1,3.11.64c0,.14-1.41-.16-3.1-.12-.48,0-.93,0-1.33.08l-.22,0,0-.2C155.35,250.07,154.63,249.7,154.7,249.62Z" style="fill:#ff9a6c"></path><path d="M158.37,247.74c.09.13-.57.68-1.16,1.53s-.91,1.64-1.05,1.61,0-1,.62-1.91S158.31,247.62,158.37,247.74Z" style="fill:#ff9a6c"></path><path d="M92.9,216.21l2.45,6.59c2.66,2.52,9.3,9.63,10.56,14.52,1.65,6.4,9.09,22.48,9.09,22.48s16.86-7.19,18-6,7.07,15,5.13,17.94S119,282.26,112,280.54s-13.57-11.79-13.57-11.79Z" style="fill:#FF725E"></path><path d="M104,237.39a10.36,10.36,0,0,1,.55,1.5,14,14,0,0,1,.5,1.81,22.92,22.92,0,0,1,.5,2.43,44.3,44.3,0,0,1,.58,6.45c0,2.44,0,5.11-.22,7.91-.38,5.6-.78,10.65-.73,14.31,0,.92,0,1.75,0,2.47s.06,1.36.1,1.87a8.65,8.65,0,0,1,.07,1.59,9.78,9.78,0,0,1-.27-1.57c-.07-.51-.15-1.14-.19-1.87s-.13-1.56-.13-2.48c-.14-3.69.2-8.77.58-14.35.18-2.79.28-5.45.26-7.87a49.92,49.92,0,0,0-.46-6.4C104.64,239.57,103.85,237.42,104,237.39Z" style="fill:#263238"></path><path d="M114.74,269.33a46.13,46.13,0,0,1,.14-9.78,22.69,22.69,0,0,1,.19,4.89A22.15,22.15,0,0,1,114.74,269.33Z" style="fill:#263238"></path><path d="M83.29,236.24a2.52,2.52,0,0,1,0,.59c0,.45,0,1,0,1.69,0,1.54.05,3.65.08,6.22.06,5.25.34,12.51.12,20.53a11.54,11.54,0,0,0,1,5.57,24.89,24.89,0,0,0,3.3,4.24L94,282,98,286.74l1.09,1.3a3.2,3.2,0,0,1,.35.47,3.15,3.15,0,0,1-.43-.4l-1.16-1.24-4.19-4.6-6.16-6.87a25,25,0,0,1-3.39-4.32,11.94,11.94,0,0,1-1.1-5.81c.22-8,0-15.27,0-20.52,0-2.63,0-4.76.08-6.23,0-.73.06-1.3.08-1.69A2.49,2.49,0,0,1,83.29,236.24Z" style="fill:#263238"></path><path d="M68,216.49c0,.06-1,.35-2.68,1.26a18.53,18.53,0,0,0-6,5.27,17.73,17.73,0,0,0-2.57,4.88,16.44,16.44,0,0,0-.74,3c-.14,1.05-.23,2.15-.3,3.28a57.54,57.54,0,0,0,0,7.07c.16,2.44.5,5,.76,7.57.55,5.2,1.07,10.15,1.55,14.66a75.17,75.17,0,0,0,1.76,11.85,20.71,20.71,0,0,0,3.45,7.22,17,17,0,0,0,1.46,1.65,6.94,6.94,0,0,1,.54.54s-.06,0-.17-.1-.26-.2-.44-.37a12.57,12.57,0,0,1-1.54-1.59,19.86,19.86,0,0,1-3.65-7.25,71.08,71.08,0,0,1-1.89-11.9c-.49-4.51-1-9.46-1.59-14.65-.26-2.6-.59-5.13-.75-7.6a56.4,56.4,0,0,1,0-7.13c.08-1.14.17-2.24.33-3.32a17,17,0,0,1,.78-3.05,18.35,18.35,0,0,1,8.89-10.19,14,14,0,0,1,2-.86A6.37,6.37,0,0,1,68,216.49Z" style="fill:#263238"></path><path d="M93.22,223a5,5,0,0,1-1-.62l-2.71-1.84.28-.14c0,1.38,0,3,0,4.79v.37l-.35-.17-5.61-2.82c-3.83-1.94-7.28-3.73-9.77-5L71.06,216a6.84,6.84,0,0,1-1-.64,4.8,4.8,0,0,1,1.14.46l3,1.43c2.53,1.23,6,3,9.83,4.91l5.6,2.86-.35.21c.06-1.79.12-3.41.16-4.79v-.35l.28.2,2.61,2A5.25,5.25,0,0,1,93.22,223Z" style="fill:#263238"></path><path d="M101.09,445.32l-8.22,17.21s15.78,14.46,14.59,17.8L71.52,465,83.16,437.6Z" style="fill:#263238"></path><path d="M82.39,456.31a1.5,1.5,0,0,0-1.69,1.14,1.52,1.52,0,0,0,1.23,1.67,1.59,1.59,0,0,0,1.79-1.22,1.61,1.61,0,0,0-1.48-1.61" style="fill:#e0e0e0"></path><path d="M71.52,465l1.29-2.71,34,15.75s1.31,1.34.67,2.33Z" style="fill:#455a64"></path><path d="M93.53,462.6c-.08.17-1-.13-2.08,0s-1.86.67-2,.53.54-1,1.87-1.15S93.63,462.47,93.53,462.6Z" style="fill:#fff"></path><path d="M96.66,465.69c0,.18-.91.14-1.81.58s-1.39,1.12-1.56,1,.12-1.06,1.25-1.6S96.73,465.53,96.66,465.69Z" style="fill:#fff"></path><path d="M97,470.87c-.17,0-.06-1,.78-1.68s1.82-.73,1.84-.56-.7.44-1.39,1S97.14,470.93,97,470.87Z" style="fill:#fff"></path></g></svg>
